<?xml version="1.0" standalone="no"?>
<!DOCTYPE svg PUBLIC "-//W3C//DTD SVG 20010904//EN"
 "http://www.w3.org/TR/2001/REC-SVG-20010904/DTD/svg10.dtd">
<svg version="1.0" xmlns="http://www.w3.org/2000/svg"
 width="864.000000pt" height="864.000000pt" viewBox="0 0 864.000000 864.000000"
 preserveAspectRatio="xMidYMid meet">
<metadata>
Created by potrace 1.14, written by Peter Selinger 2001-2017
</metadata>
<g transform="translate(0.000000,864.000000) scale(0.100000,-0.100000)"
fill="#000000" stroke="none">
<path d="M760 8628 c-14 -6 -39 -17 -56 -24 -74 -32 -162 -142 -180 -225 -3
-13 -7 -91 -9 -174 -12 -510 -25 -1262 -31 -1940 -2 -247 -4 -454 -4 -460 0
-5 1 -39 3 -75 2 -36 -1 -71 -6 -77 -6 -8 -6 -13 1 -13 6 0 7 -13 2 -35 -4
-19 -5 -35 -1 -35 3 0 6 -11 6 -25 0 -14 -3 -25 -7 -25 -4 0 -3 -11 2 -24 5
-13 7 -26 4 -29 -7 -7 -8 -177 -1 -184 4 -3 2 -14 -3 -24 -7 -11 -7 -20 0 -24
6 -3 6 -15 0 -30 -6 -15 -6 -27 1 -30 5 -4 7 -10 4 -15 -8 -12 -9 -189 -2
-197 4 -3 2 -14 -3 -24 -7 -11 -7 -20 0 -24 6 -3 6 -15 0 -30 -5 -13 -5 -27
-1 -29 5 -3 5 -24 1 -46 -4 -22 -4 -43 1 -45 4 -3 4 -18 0 -33 -5 -15 -5 -36
-1 -47 4 -11 4 -30 -1 -41 -4 -12 -5 -25 -2 -28 9 -9 9 -286 0 -286 -5 0 -5
-5 -1 -12 4 -6 8 -196 10 -422 3 -430 10 -730 18 -768 3 -13 8 -47 11 -77 3
-30 8 -64 10 -75 3 -12 7 -33 10 -48 17 -95 39 -180 68 -268 12 -36 21 -67 22
-70 1 -13 52 -135 92 -220 65 -137 199 -357 225 -368 5 -2 8 -8 8 -14 0 -28
234 -280 340 -368 30 -25 57 -47 60 -50 18 -18 130 -100 137 -100 5 0 24 -13
43 -30 19 -16 38 -29 41 -30 3 0 54 -27 113 -60 59 -33 114 -60 121 -60 7 0
15 -4 17 -8 2 -5 32 -23 68 -41 36 -17 72 -36 80 -41 8 -5 47 -24 85 -43 39
-18 81 -39 95 -47 14 -8 27 -15 30 -15 3 -1 120 -58 260 -126 365 -180 405
-199 417 -199 6 0 16 -7 23 -15 7 -9 15 -13 18 -10 3 3 15 -1 26 -8 12 -8 62
-32 111 -54 50 -23 126 -57 170 -78 44 -20 98 -45 120 -55 22 -10 78 -35 125
-56 47 -20 103 -45 125 -54 22 -10 69 -30 105 -45 36 -15 79 -33 95 -40 17 -7
50 -21 75 -31 25 -10 47 -21 50 -24 3 -3 12 -6 20 -8 13 -2 58 -19 135 -51 83
-35 158 -64 175 -68 28 -7 155 -10 165 -4 6 3 19 7 29 8 11 2 25 8 31 13 7 5
15 7 18 3 4 -3 7 -1 7 6 0 7 3 10 8 7 4 -2 25 4 47 14 22 11 44 19 48 20 5 0
23 6 40 14 18 8 82 35 142 60 61 24 133 54 160 67 28 12 55 23 60 24 13 3 359
157 455 202 41 20 81 36 88 36 6 0 12 4 12 9 0 4 9 8 20 8 11 0 20 4 20 9 0 5
10 13 23 16 21 6 93 39 262 120 44 21 82 39 85 40 23 7 48 20 63 33 9 8 17 12
17 9 0 -3 138 63 308 147 169 84 309 153 312 152 3 0 19 8 35 19 17 11 75 43
130 70 55 28 102 53 103 58 2 4 10 7 18 7 8 0 27 8 42 19 15 10 67 42 115 72
48 30 102 66 120 81 18 16 35 28 38 28 31 0 390 356 408 404 2 6 11 18 20 26
22 20 146 208 163 246 7 16 16 31 20 34 15 11 108 221 151 341 25 68 57 178
72 244 34 151 32 139 40 210 4 33 9 74 11 90 10 70 16 395 17 907 1 302 6 548
10 548 5 0 5 6 0 13 -10 16 -10 75 -1 105 4 12 4 22 0 22 -8 0 -6 74 3 97 2 7
1 14 -4 17 -8 6 -6 59 4 75 3 6 2 11 -3 11 -6 0 -7 13 -3 33 4 17 4 44 0 60
-4 15 -3 27 2 27 4 0 5 10 0 22 -4 12 -5 39 -1 60 4 21 4 38 1 38 -8 0 -5 65
3 79 4 5 2 12 -3 16 -6 3 -7 15 -2 28 5 12 5 34 0 49 -4 16 -4 28 1 28 5 0 6
10 1 22 -4 13 -5 35 0 50 4 15 4 30 -1 33 -5 3 -5 18 0 34 4 16 6 32 3 34 -9
9 -9 107 0 107 6 0 6 5 0 13 -5 6 -7 59 -6 117 2 58 3 110 3 115 2 86 -17
1437 -25 1860 -15 690 -10 620 -51 701 -33 66 -83 115 -154 151 l-55 28 -3545
2 c-2499 1 -3552 -1 -3570 -9z"/>
</g>
</svg>
