<svg fill="none" height="120" viewBox="0 0 120 120" width="120" xmlns="http://www.w3.org/2000/svg" xmlns:xlink="http://www.w3.org/1999/xlink"><clipPath id="a"><path d="m0 0h120v120h-120z"/></clipPath><mask id="b" height="120" maskUnits="userSpaceOnUse" width="120" x="0" y="0"><path d="m120 0h-120v120h120z" fill="#fff"/></mask><mask id="c" height="120" maskUnits="userSpaceOnUse" width="120" x="0" y="0"><path d="m0 0h120v120h-120z" fill="#fff"/></mask><g clip-path="url(#a)"><g mask="url(#b)"><g mask="url(#c)"><path d="m94.6876 107.977c-9.416-21.9003-9.1694-34.2-5.0885-40.725 2.3855-3.8142 3.7664-7.1359 1.5066-12.9188-4.5591-11.666-13.177-8.8776-17.5934-23.4366-4.369-14.4028-7.642-22.21032-27.8552-22.21032s-20.4642 11.93452-23.7286 22.76182c-3.2641 10.8272-10.4205 17.5945-9.2906 28.914 1.1299 11.3194 2.5861 11.4363 3.8416 22.8789 1.2556 11.4426-4.2021 24.73-4.2021 24.73z" fill="#19a02e"/><path d="m94.6876 107.977c-9.416-21.9003-9.1694-34.2-5.0885-40.725 2.3855-3.8142 3.7664-7.1359 1.5066-12.9188-4.5591-11.666-13.177-8.8776-17.5934-23.4366-4.369-14.4028-7.642-22.21032-27.8552-22.21032s-20.4642 11.93452-23.7286 22.76182c-3.2641 10.8272-10.4205 17.5945-9.2906 28.914 1.1299 11.3194 2.5861 11.4363 3.8416 22.8789 1.2556 11.4426-4.2021 24.73-4.2021 24.73z" stroke="#07821a" stroke-linecap="round" stroke-linejoin="round" stroke-width="2.32019"/><path d="m48.4928 8.69845c17.4401.73156 20.1251 4.80595 23.1664 16.42495-15.8079 3.2365-37.3889 2.1876-48.1055.1879 3.0832-9.0336 6.5826-17.38276 24.9391-16.61285zm-26.9515 23.89115h-.0004c-4.4911 9.5929-11.93252 15.9668-12.19994 27.7722-.19055 8.4126 5.09294 15.9256 6.95364 21.1565.0319.006 18.0448-14.9792 5.2467-48.9287zm68.7064 34.6624c1.9746-3.8142 3.1179-7.1362 1.2471-12.919-3.7739-11.6661-14.3817-9.0761-18.0192-23.4715 2.816 33.3926 13.6387 50.1982 13.6469 50.228-.7221-5.8616 1.3137-10.3384 3.1252-13.8375z" fill="#0fd117"/><path d="m48.4928 8.69845c17.4401.73156 20.1251 4.80595 23.1664 16.42495-15.8079 3.2365-37.3889 2.1876-48.1055.1879 3.0832-9.0336 6.5826-17.38276 24.9391-16.61285zm-26.9515 23.89115h-.0004c-4.4911 9.5929-11.93252 15.9668-12.19994 27.7722-.19055 8.4126 5.09294 15.9256 6.95364 21.1566.0319.0059 18.0448-14.9793 5.2467-48.9288zm68.7064 34.6624c1.9746-3.8142 3.1179-7.1362 1.2471-12.919-3.7739-11.6661-14.3817-9.0761-18.0192-23.4715 2.816 33.3926 13.6387 50.1982 13.6469 50.228-.7221-5.8616 1.3137-10.3384 3.1252-13.8375z" stroke="#078119" stroke-linecap="round" stroke-linejoin="round" stroke-width="2.32019"/><g fill="#07821a" opacity=".4"><path d="m16.8871 70.2043c-1.0859.3636-1.624.2816-1.8813.2954-.1777-.0317-.5379-.0147-1.0219-.2963-1.9702-1.1666-2.1293-5.4969-3.9741-7.5705.2949 3.0309 1.0193 5.9677 1.886 8.7205 3.4899 3.2014 8.5972-.432 12.0427-2.6377.2672-.9406.5114-1.9344.7245-2.9784-2.6633 1.4393-5.3693 3.6615-7.7759 4.467z"/><path d="m17.7087 57.2102c2.824.735 5.3527-.3046 7.8732-1.2295-.0038-.7311-.0225-1.481-.0572-2.2452-2.4957.8441-5.9311 2.6076-8.3475.9341-1.8624-1.2897-2.441-4.3232-3.9366-6.3474-.438.7947-.8491 1.5973-1.223 2.4159 1.1724 2.3345 2.1514 5.5508 5.6911 6.4721z"/><path d="m13.3458 75.5472c.2723.7364.5437 1.4535.8072 2.1483 2.8125-.102 5.5959-2.1474 7.9005-3.816.5086-1.1186.9966-2.3518 1.4386-3.7012-3.217 2.083-7.5342 6.0013-10.1463 5.3689z"/><path d="m17.2376 60.2981c-3.3113-.6454-3.1936-5.8136-5.8629-8.0382-.3167.8187-.5923 1.6566-.818 2.5195 1.1984 2.0398 1.762 5.3301 4.3786 6.8803 3.5913 2.1276 8.1502-.5203 10.5075-1.5984.0579-.7759.0987-1.5738.1207-2.3936-2.9138 1.1604-5.7577 3.124-8.3259 2.6304z"/><path d="m15.0437 65.0223c-2.2957-1.4493-2.2106-6.2585-4.9369-8.062-.15984 1.0593-.24164 2.1609-.23086 3.3148 1.14656 2.4903 1.84546 6.6731 5.93746 7.1908 3.259.4123 6.3124-1.6824 9.1268-3.2218.1406-.8395.2613-1.7098.3588-2.612-3.3021 1.5215-7.6671 5.0063-10.2553 3.3902z"/><path d="m24.0688 42.8274c-.1563-.7281-.3263-1.4665-.51-2.2167-1.7599-.3971-3.0865-1.2068-4.1201-2.3495-.3865.6682-.7816 1.3228-1.1808 1.9675 1.5621 1.4333 3.5989 2.2978 5.8109 2.5987z"/><path d="m25.4082 51.8668c-.0542-.699-.1214-1.4094-.2027-2.1345-6.6762 1.701-7.433.0204-9.9908-4.7231-.4839.7683-.9548 1.5343-1.4041 2.3058 2.4588 4.7243 5.4202 6.126 11.5976 4.5518z"/><path d="m45.3703 21.282c.3014.1594.5988.2861.9023.3755.8787.2586 1.7553.1736 2.4584-.356.9337-.7033 1.2591-1.9452 1.4334-3.0388.6258-4.0423-.3712-5.3954 1.2631-9.62022-.7636-.03124-1.5624-.05214-2.3949-.06271-1.1554 3.26593-.7886 4.56823-.9862 7.89503-.1793 3.0177-.7906 3.1991-.799 3.229-.0701.017-.2023-.0154-.2714-.0356-3.5979-1.0538-4.5769-7.3087-8.3442-10.19219-1.0029.23291-1.9308.50738-2.7919.82019 4.6186 2.0562 4.5045 8.3283 9.5304 10.9858z"/><path d="m24.9251 47.5632c-.0993-.6805-.2111-1.3726-.3354-2.075-3.8092.3554-5.7028-.9219-7.3425-3.6566-.4528.7093-.9046 1.4084-1.3507 2.1049 1.9552 2.7073 4.8031 4.0328 9.0286 3.6267z"/><path d="m45.0222 15.6571c.6893.5908 1.8246.204 1.9225-.6536.2501-2.1878.0033-4.3678-.0042-6.42739-.7926.01034-1.5548.03698-2.2896.07947.0047.70652.0331 1.40272.0605 2.08742-.3467-.6859-.7268-1.35747-1.1391-2.01208-.8686.0712-1.6966.16606-2.4843.28275 2.429 3.54083 2.2415 5.19303 3.9342 6.64343z"/><path d="m86.0101 45.833c-.5252-.4385-1.0607-.8652-1.6014-1.2913-2.2151 2.5158-5.4507 4.232-8.8793 3.737.1036.6925.213 1.3724.3281 2.0438 3.8838.3165 7.5476-1.5318 10.1526-4.4895z"/><path d="m90.2297 50.3478c-.428-.65-.8944-1.2499-1.3903-1.8138-5.3836 1.1434-7.7841 6.6368-11.8315 7.4545.1558.6617.3164 1.3097.4811 1.9455 5.1476-1.0642 7.4068-7.1583 12.7407-7.5862z"/><path d="m92.7652 57.6773c-5.8245.1982-6.8459 8.0577-6.1083 13.6042.0436.3273.2484.5985.5285.7494.2217-1.5021.6314-2.8382 1.3615-4.0144.0185-3.3372.7788-8.1487 4.2497-8.3425.045-.625.0366-1.287-.0314-1.9967z"/><path d="m91.5405 54.6838c.0889.015.33.0363.6891.1473-.2093-.7729-.4603-1.4886-.7479-2.1575-3.6991-.2807-6.3586 2.3235-7.822 5.8283-1.3158 3.1509-1.8432 6.9577-3.4995 7.9412.244.6544.4892 1.2854.7338 1.894 3.8201-1.7391 3.2321-8.8156 6.6455-12.164 1.9514-1.9142 4.0317-1.4941 4.001-1.4893z"/><path d="m82.479 43.0131c-.5349-.4334-1.0657-.8778-1.5849-1.3429-1.8058 1.3866-4.5799 2.0724-6.0719.6697.0733.826.1558 1.6395.2465 2.4402 2.4568.8657 5.3869-.0898 7.4103-1.767z"/><path d="m37.7745 26.9006c-.9098-4.9941-5.0341-8.9264-10.3059-10.0642-.3994.6204-.7598 1.2632-1.0898 1.9261 4.6139.7718 8.2938 4.1025 9.1178 8.3813.7489.0241 1.5111.0432 2.285.057.0082-.0611.0138-.0903-.0071-.3002z"/><path d="m64.1186 21.2564c-.6164 1.8536-.7167 3.9987-.6157 4.3538.7585-.1174 1.5115-.2421 2.2559-.374.0654-2.7969.9783-5.8175 3.6185-7.214-.3068-.6746-.6274-1.3074-.9696-1.9004-2.1828 1.0891-3.5609 2.9452-4.2891 5.1346z"/><path d="m61.3973 10.2261c-.8921-.32251-1.8732-.59423-2.9583-.81771-4.8999 3.44481-4.7949 9.70341-7.0517 14.01831-.4291.8206-1.4665 2.352-2.089 2.6735-.2671.1381-.6478.0949-.9536.0453-7.0903-1.1475-7.4541-11.1973-17.1659-13.3577-.7331.5572-1.3891 1.1597-1.9795 1.7998 8.8936.8832 9.3726 9.1815 15.709 12.589 2.2305-.0543 4.5056-.1528 6.79-.3021 4.7248-5.2155 3.1254-14.1402 9.699-16.6484z"/><path d="m32.7803 26.0267c-1.5429-2.6267-4.0277-4.7529-6.9848-6.0029-.278.6459-.533 1.3065-.7718 1.9781 2.3796 1.0501 4.4095 2.7966 5.6772 4.9093.6725.0443 1.3632.0848 2.0684.1204.1847-.3007.2025-.6785.011-1.0049z"/><path d="m66.7079 13.7286c-.4931-.5581-1.0305-1.065-1.6232-1.5237-1.8256 1.165-3.6978 3.0937-4.9681 5.4087-2.168 3.9511-1.7691 7.9965-1.38 8.6344.7078-.0809 1.4121-.167 2.1134-.2591.1071-.398-.1153-.7015-.1153-2.0748.0002-4.3879 2.9662-8.449 5.9732-10.1855z"/></g><path d="m28.008 23.5299c1.0547-4.1344 3.9843-10.2328 12.6562-10.9219m-22.9415 33.3417c.5721-1.1776 2.3489-3.8656 2.7853-4.7212" opacity=".33" stroke="#fff" stroke-linecap="round" stroke-linejoin="round" stroke-width="4.64039"/><path d="m74.0625 31.904c-22.9687-9.9914-44.5929-.6452-51.2109 7.8094-6.5625 8.3836-11.6241 10.5387-12.4219 13.6664-.93751 3.675-.46876 9.7617-.46876 9.7617l9.41996-1.5017-.6579 39.4972 67.2959.113-3.4017-52.0046s-4.6875-7.5797-8.5547-17.3414z" fill="#082944" opacity=".2"/><path d="m94.9598 98.1836c-4.3325-23.5303-26.0755-30.4605-41.451-28.429-36.6797 4.846-33.9264 30.4804-32.219 32.0484 6.7611 6.208 75.4646 6.128 73.67-3.6194z" fill="#ffd527"/><path d="m94.9598 98.1836c-4.3325-23.5303-26.0755-30.4605-41.451-28.429-36.6797 4.846-33.9264 30.4804-32.219 32.0484 6.7611 6.208 75.4646 6.128 73.67-3.6194z" stroke="#fa9016" stroke-linecap="round" stroke-linejoin="round" stroke-width="2.461"/><path d="m119.761 96.0417s.078 7.3813-.016 15.5863c-.055 4.804-1.11 8.203-8.376 8.261-49.5685.4-53.6129.059-104.00347.059-4.57026 0-6.989265-1.348-7.031196-7.324-.057491-8.203.016733-16.5236.016733-16.5236z" fill="#c99d58"/><path d="m1.19531 96.1525h117.78169" stroke="#886226" stroke-linecap="round" stroke-linejoin="round" stroke-width="1.96526"/><path d="m116.444 101.623h-.014c-.019-.089-.055-.18-.113-.27l-4.135-6.483c-.512-.8041-2.438-1.2888-4.301-1.0823l-53.1718 5.7785c-1.4792.1641-2.4703.7148-2.5601 1.3378h-.0023v.012c-.0073.058-.0089.117 0 .176v1.665c-.0174.154.018.312.1188.471l3.3136 10.262c.5128.805 2.4384 1.289 4.301 1.083l53.9928-5.891c1.59-.176 2.617-.799 2.565-1.478h.006z" fill="#666"/><path d="m116.444 101.623h-.014c-.019-.089-.055-.18-.113-.27l-4.135-6.483c-.512-.8041-2.438-1.2888-4.301-1.0823l-53.1718 5.7785c-1.4792.1641-2.4703.7148-2.5601 1.3378h-.0023v.012c-.0073.058-.0089.117 0 .176v1.665c-.0174.154.018.312.1188.471l3.3136 10.262c.5128.805 2.4384 1.289 4.301 1.083l53.9928-5.891c1.59-.176 2.616-.799 2.565-1.478h.006z" stroke="#232323" stroke-linecap="round" stroke-linejoin="round" stroke-width="2.34375"/><path d="m113.834 103.072-53.7588 5.891c-1.8626.207-3.7884-.278-4.3012-1.082l-3.3136-6.596c-.5128-.804.581-1.6234 2.4436-1.8299l52.938-5.7785c1.862-.2065 3.788.2782 4.301 1.0824l4.135 6.483c.512.805-.581 1.624-2.444 1.83z" fill="#3a3a3a"/><path d="m113.834 103.072-53.7588 5.891c-1.8626.207-3.7884-.278-4.3012-1.082l-3.3136-6.596c-.5128-.804.581-1.6234 2.4436-1.8299l52.938-5.7785c1.862-.2065 3.788.2782 4.301 1.0824l4.135 6.483c.512.805-.581 1.624-2.444 1.83z" stroke="#232323" stroke-linecap="round" stroke-linejoin="round" stroke-width="1.875"/><path d="m92.8889 107.494 21.2331-2.654m-53.5769 5.932 24.8663-2.651" stroke="#818181" stroke-linecap="round" stroke-linejoin="round" stroke-width="1.875"/><path d="m58.2662 101.053-2.0165.229c-.6893.078-1.4267-.156-1.6469-.523l-.6166-1.0276c-.2194-.3658.16-.7252.8476-.8031l2.0121-.2282c.6872-.078 1.4234.1551 1.6445.5204l.621 1.0265c.2218.367-.1564.727-.8452.806z" fill="#232323"/><path d="m58.2662 101.053-2.0165.229c-.6893.078-1.4267-.156-1.6469-.523l-.6166-1.0276c-.2194-.3658.16-.7252.8476-.8031l2.0121-.2282c.6872-.078 1.4234.1551 1.6445.5204l.621 1.0265c.2218.367-.1564.727-.8452.806z" stroke="#c588de" stroke-linecap="round" stroke-linejoin="round" stroke-width=".703125"/><path d="m63.0019 100.515-2.0142.228c-.6884.079-1.4267-.155-1.6485-.522l-.6215-1.0264c-.2211-.3653.1564-.7242.8433-.8021l2.0098-.228c.6864-.0777 1.4234.1549 1.6461.52l.626 1.0255c.2234.366-.1532.726-.841.805z" fill="#232323"/><path d="m63.0019 100.515-2.0142.228c-.6884.079-1.4267-.155-1.6485-.522l-.6215-1.0264c-.2211-.3653.1564-.7242.8433-.8021l2.0098-.228c.6864-.0777 1.4234.1549 1.6461.52l.626 1.0255c.2234.366-.1532.726-.841.805z" stroke="#a987ec" stroke-linecap="round" stroke-linejoin="round" stroke-width=".703125"/><path d="m67.7315 99.9768-2.0121.2282c-.6876.079-1.4264-.155-1.6499-.5209l-.6262-1.0255c-.2229-.3649.1529-.7238.8389-.8015l2.0077-.2275c.6855-.0777 1.4231.1544 1.6475.5191l.6307 1.0245c.2251.3656-.1494.7254-.8366.8036z" fill="#232323"/><path d="m67.7315 99.9768-2.0121.2282c-.6876.079-1.4264-.155-1.6499-.5209l-.6262-1.0255c-.2229-.3649.1529-.7238.8389-.8015l2.0077-.2275c.6855-.0777 1.4231.1544 1.6475.5191l.6307 1.0245c.2251.3656-.1494.7254-.8366.8036z" stroke="#80a1e7" stroke-linecap="round" stroke-linejoin="round" stroke-width=".703125"/><path d="m72.4553 99.4399-2.0098.2285c-.6869.0779-1.4264-.1554-1.6515-.521l-.6309-1.0243c-.2246-.3646.1491-.7228.8344-.8005l2.0053-.2273c.6849-.0777 1.4232.1544 1.6492.5186l.6354 1.0234c.2267.3653-.1457.7247-.8321.8026z" fill="#232323"/><path d="m72.4553 99.4399-2.0098.2285c-.6869.0779-1.4264-.1554-1.6515-.521l-.6309-1.0243c-.2246-.3646.1491-.7228.8344-.8005l2.0053-.2273c.6849-.0777 1.4232.1544 1.6492.5186l.6354 1.0234c.2267.3653-.1457.7247-.8321.8026z" stroke="#57bbe1" stroke-linecap="round" stroke-linejoin="round" stroke-width=".703125"/><path d="m77.1754 98.9037-2.0074.2282c-.686.078-1.4265-.1549-1.6532-.5202l-.6356-1.0234c-.2262-.3642.1457-.7221.8303-.7996l2.0029-.227 12.0985-1.3713 1.9962-.2263c.6818-.0773 1.4232.1539 1.6557.5164l.6537 1.0187c.2332.3637-.1309.7215-.8143.7992l-2.0009.2275z" fill="#232323"/><path d="m77.1754 98.9037-2.0074.2282c-.686.078-1.4265-.1549-1.6532-.5202l-.6356-1.0234c-.2262-.3642.1457-.7221.8303-.7996l2.0029-.227 12.0985-1.3713 1.9962-.2263c.6818-.0773 1.4232.1539 1.6557.5164l.6537 1.0187c.2332.3637-.1309.7215-.8143.7992l-2.0009.2275z" stroke="#78c7ba" stroke-linecap="round" stroke-linejoin="round" stroke-width=".703125"/><path d="m95.9998 96.7645-1.9985.227c-.683.0777-1.426-.1542-1.6595-.5179l-.6541-1.0187c-.2328-.3625.1311-.7188.8127-.7961l1.994-.2261c.6811-.0772 1.4229.1538 1.6571.5158l.6584 1.0178c.2349.3632-.1276.7207-.8101.7982z" fill="#232323"/><path d="m95.9998 96.7645-1.9985.227c-.683.0777-1.426-.1542-1.6595-.5179l-.6541-1.0187c-.2328-.3625.1311-.7188.8127-.7961l1.994-.2261c.6811-.0772 1.4229.1538 1.6571.5158l.6584 1.0178c.2349.3632-.1276.7207-.8101.7982z" stroke="#c1cd7d" stroke-linecap="round" stroke-linejoin="round" stroke-width=".703125"/><path d="m100.694 96.2312-1.9959.2268c-.6823.0774-1.426-.1542-1.6612-.5174l-.6587-1.0176c-.2345-.362.1278-.7179.8084-.7951l1.9917-.2259c.6801-.077 1.4227.1535 1.6587.5153l.663 1.0164c.236.3628-.124.72-.806.7975z" fill="#232323"/><path d="m100.694 96.2312-1.9959.2268c-.6823.0774-1.426-.1542-1.6612-.5174l-.6587-1.0176c-.2345-.362.1278-.7179.8084-.7951l1.9917-.2259c.6801-.077 1.4227.1535 1.6587.5153l.663 1.0164c.236.3628-.124.72-.806.7975z" stroke="#ebc371" stroke-linecap="round" stroke-linejoin="round" stroke-width=".703125"/><path d="m105.381 95.6984-1.994.2265c-.682.0775-1.426-.1539-1.663-.5167l-.663-1.0166c-.236-.3618.124-.7172.804-.7942l1.989-.2254c.68-.077 1.423.1533 1.661.5146l.667 1.0152c.238.3623-.12.7191-.801.7966z" fill="#232323"/><path d="m105.381 95.6984-1.994.2265c-.682.0775-1.426-.1539-1.663-.5167l-.663-1.0166c-.236-.3618.124-.7172.804-.7942l1.989-.2254c.68-.077 1.423.1533 1.661.5146l.667 1.0152c.238.3623-.12.7191-.801.7966z" stroke="#e8a3a5" stroke-linecap="round" stroke-linejoin="round" stroke-width=".703125"/><path d="m110.063 95.1661-1.991.2263c-.681.0773-1.426-.1539-1.664-.5162l-.668-1.0152c-.238-.3613.12-.7165.799-.7935l1.987-.2251c.679-.077 1.423.153 1.662.5139l.672 1.0142c.24.3621-.116.7184-.797.7956z" fill="#232323"/><path d="m110.063 95.1661-1.991.2263c-.681.0773-1.426-.1539-1.664-.5162l-.668-1.0152c-.238-.3613.12-.7165.799-.7935l1.987-.2251c.679-.077 1.423.153 1.662.5139l.672 1.0142c.24.3621-.116.7184-.797.7956z" stroke="#df8ad0" stroke-linecap="round" stroke-linejoin="round" stroke-width=".703125"/><path d="m62.2353 103.558-4.2041.508c-.691.079-1.4309-.156-1.6525-.525l-.6204-1.034c-.2208-.368.1593-.73.8488-.808l4.1946-.506c.6885-.078 1.4276.156 1.6508.523l.6271 1.032c.2239.368-.154.731-.8443.81z" fill="#232323"/><path d="m62.2353 103.558-4.2041.508c-.691.079-1.4309-.156-1.6525-.525l-.6204-1.034c-.2208-.368.1593-.73.8488-.808l4.1946-.506c.6885-.078 1.4276.156 1.6508.523l.6271 1.032c.2239.368-.154.731-.8443.81z" stroke="#b587e6" stroke-linecap="round" stroke-linejoin="round" stroke-width=".703125"/><path d="m66.9802 103.017-2.0186.23c-.69.078-1.4309-.157-1.6548-.525l-.6272-1.032c-.2232-.367.1539-.728.8422-.807l2.014-.229c.6879-.078 1.4276.156 1.6525.523l.6316 1.031c.2255.368-.1501.73-.8397.809z" fill="#232323"/><path d="m66.9802 103.017-2.0186.23c-.69.078-1.4309-.157-1.6548-.525l-.6272-1.032c-.2232-.367.1539-.728.8422-.807l2.014-.229c.6879-.078 1.4276.156 1.6525.523l.6316 1.031c.2255.368-.1501.73-.8397.809z" stroke="#9c8feb" stroke-linecap="round" stroke-linejoin="round" stroke-width=".703125"/><path d="m71.7198 102.476-2.0163.23c-.689.079-1.4309-.156-1.6564-.524l-.6321-1.031c-.2248-.367.1503-.728.838-.806l2.0116-.228c.6872-.079 1.4276.155 1.6541.522l.6363 1.029c.2272.368-.1466.73-.8352.808z" fill="#232323"/><path d="m71.7198 102.476-2.0163.23c-.689.079-1.4309-.156-1.6564-.524l-.6321-1.031c-.2248-.367.1503-.728.838-.806l2.0116-.228c.6872-.079 1.4276.155 1.6541.522l.6363 1.029c.2272.368-.1466.73-.8352.808z" stroke="#7ca4e6" stroke-linecap="round" stroke-linejoin="round" stroke-width=".703125"/><path d="m76.4554 101.936-2.014.23c-.6884.078-1.4309-.156-1.6581-.524l-.6368-1.029c-.2267-.367.1469-.7271.8336-.8052l2.0092-.2285c.6863-.0779 1.4277.1554 1.6558.5217l.641 1.028c.2288.367-.1429.729-.8307.807z" fill="#232323"/><path d="m76.4554 101.936-2.014.23c-.6884.078-1.4309-.156-1.6581-.524l-.6368-1.029c-.2267-.367.1469-.7271.8336-.8052l2.0092-.2285c.6863-.0779 1.4277.1554 1.6558.5217l.641 1.028c.2288.367-.1429.729-.8307.807z" stroke="#5cb8e2" stroke-linecap="round" stroke-linejoin="round" stroke-width=".703125"/><path d="m81.185 101.397-2.0119.23c-.6874.078-1.4307-.156-1.6595-.523l-.6414-1.029c-.2284-.3661.143-.7259.829-.8038l2.0072-.2282c.6855-.078 1.4274.1553 1.6572.5209l.6459 1.0271c.2304.367-.1394.728-.8265.806z" fill="#232323"/><path d="m81.185 101.397-2.0119.23c-.6874.078-1.4307-.156-1.6595-.523l-.6414-1.029c-.2284-.3661.143-.7259.829-.8038l2.0072-.2282c.6855-.078 1.4274.1553 1.6572.5209l.6459 1.0271c.2304.367-.1394.728-.8265.806z" stroke="#63c5cb" stroke-linecap="round" stroke-linejoin="round" stroke-width=".703125"/><path d="m85.9087 100.859-2.0095.229c-.6867.078-1.4304-.156-1.6611-.523l-.6462-1.0269c-.2299-.3656.1394-.725.8247-.8029l2.0048-.228c.6848-.0779 1.4274.1549 1.6588.5202l.6506 1.0266c.2321.366-.1358.726-.8221.805z" fill="#232323"/><path d="m85.9087 100.859-2.0095.229c-.6867.078-1.4304-.156-1.6611-.523l-.6462-1.0269c-.2299-.3656.1394-.725.8247-.8029l2.0048-.228c.6848-.0779 1.4274.1549 1.6588.5202l.6506 1.0266c.2321.366-.1358.726-.8221.805z" stroke="#97caa0" stroke-linecap="round" stroke-linejoin="round" stroke-width=".703125"/><path d="m90.6283 100.321-2.0069.229c-.686.078-1.4307-.156-1.663-.522l-.6506-1.0264c-.2316-.3654.1358-.7243.8202-.802l2.0024-.2277c.6839-.0777 1.4272.1546 1.6605.5195l.6553 1.0253c.2337.3658-.1323.7263-.8179.8043z" fill="#232323"/><path d="m90.6283 100.321-2.0069.229c-.686.078-1.4307-.156-1.663-.522l-.6506-1.0264c-.2316-.3654.1358-.7243.8202-.802l2.0024-.2277c.6839-.0777 1.4272.1546 1.6605.5195l.6553 1.0253c.2337.3658-.1323.7263-.8179.8043z" stroke="#ccce75" stroke-linecap="round" stroke-linejoin="round" stroke-width=".703125"/><path d="m95.3404 99.7834-2.0048.2286c-.6853.078-1.4305-.1556-1.6644-.5214l-.6553-1.025c-.2333-.3649.132-.7233.8157-.801l2.0004-.2275c.6832-.0777 1.4271.1546 1.662.5191l.6598 1.0238c.2354.3656-.1286.7254-.8134.8034z" fill="#232323"/><path d="m95.3404 99.7834-2.0048.2286c-.6853.078-1.4305-.1556-1.6644-.5214l-.6553-1.025c-.2333-.3649.132-.7233.8157-.801l2.0004-.2275c.6832-.0777 1.4271.1546 1.662.5191l.6598 1.0238c.2354.3656-.1286.7254-.8134.8034z" stroke="#ebc769" stroke-linecap="round" stroke-linejoin="round" stroke-width=".703125"/><path d="m100.049 99.2468-2.0029.2282c-.6844.0779-1.4305-.1549-1.6661-.5205l-.6599-1.0241c-.235-.3644.1283-.7223.8112-.8l1.998-.2273c.6825-.0775 1.4272.1546 1.6637.5186l.664 1.0227c.238.3651-.125.7244-.808.8024z" fill="#232323"/><path d="m100.049 99.2468-2.0029.2282c-.6844.0779-1.4305-.1549-1.6661-.5205l-.6599-1.0241c-.235-.3644.1283-.7223.8112-.8l1.998-.2273c.6825-.0775 1.4272.1546 1.6637.5186l.664 1.0227c.238.3651-.125.7244-.808.8024z" stroke="#e9b18e" stroke-linecap="round" stroke-linejoin="round" stroke-width=".703125"/><path d="m104.751 98.7108-2.001.2279c-.683.078-1.43-.1549-1.667-.52l-.665-1.0226c-.236-.364.125-.7219.807-.7994l1.996-.227c.682-.0775 1.427.1542 1.665.5179l.669 1.0217c.239.3646-.121.7235-.804.8015z" fill="#232323"/><path d="m104.751 98.7108-2.001.2279c-.683.078-1.43-.1549-1.667-.52l-.665-1.0226c-.236-.364.125-.7219.807-.7994l1.996-.227c.682-.0775 1.427.1542 1.665.5179l.669 1.0217c.239.3646-.121.7235-.804.8015z" stroke="#e89ab4" stroke-linecap="round" stroke-linejoin="round" stroke-width=".703125"/><path d="m111.848 97.9507-4.397.4523c-.683.0779-1.43-.1549-1.669-.5196l-.669-1.0217c-.238-.3637.121-.721.803-.7984l4.386-.4499c.681-.0775 1.427.1539 1.668.5169l.676 1.0201c.241.3642-.116.7226-.798.8003z" fill="#232323"/><path d="m111.848 97.9507-4.397.4523c-.683.0779-1.43-.1549-1.669-.5196l-.669-1.0217c-.238-.3637.121-.721.803-.7984l4.386-.4499c.681-.0775 1.427.1539 1.668.5169l.676 1.0201c.241.3642-.116.7226-.798.8003z" stroke="#df8ad0" stroke-linecap="round" stroke-linejoin="round" stroke-width=".703125"/><path d="m61.5893 106.557-2.0273.232c-.6928.079-1.4351-.158-1.6579-.529l-.6238-1.039c-.2221-.37.1587-.734.8499-.813l2.0226-.23c.6909-.079 1.4319.156 1.6555.526l.6284 1.038c.2243.371-.1551.736-.8474.815z" fill="#232323"/><path d="m61.5893 106.557-2.0273.232c-.6928.079-1.4351-.158-1.6579-.529l-.6238-1.039c-.2221-.37.1587-.734.8499-.813l2.0226-.23c.6909-.079 1.4319.156 1.6555.526l.6284 1.038c.2243.371-.1551.736-.8474.815z" stroke="#ca89db" stroke-linecap="round" stroke-linejoin="round" stroke-width=".703125"/><path d="m66.3482 106.013-2.0248.231c-.6921.079-1.4353-.157-1.6597-.528l-.6285-1.038c-.2237-.37.155-.733.8454-.812l2.0203-.23c.69-.079 1.4319.157 1.6572.526l.6332 1.037c.226.37-.1515.735-.8431.814z" fill="#232323"/><path d="m66.3482 106.013-2.0248.231c-.6921.079-1.4353-.157-1.6597-.528l-.6285-1.038c-.2237-.37.155-.733.8454-.812l2.0203-.23c.69-.079 1.4319.157 1.6572.526l.6332 1.037c.226.37-.1515.735-.8431.814z" stroke="#b587e6" stroke-linecap="round" stroke-linejoin="round" stroke-width=".703125"/><path d="m71.1054 105.469-2.0227.231c-.6911.079-1.4353-.157-1.6613-.527l-.6333-1.038c-.2253-.369.1513-.732.841-.81l2.018-.23c.6893-.079 1.4318.156 1.6588.525l.6379 1.036c.2277.37-.1475.734-.8384.813z" fill="#232323"/><path d="m71.1054 105.469-2.0227.231c-.6911.079-1.4353-.157-1.6613-.527l-.6333-1.038c-.2253-.369.1513-.732.841-.81l2.018-.23c.6893-.079 1.4318.156 1.6588.525l.6379 1.036c.2277.37-.1475.734-.8384.813z" stroke="#9c8feb" stroke-linecap="round" stroke-linejoin="round" stroke-width=".703125"/><path d="m75.8546 104.926-2.0206.231c-.6904.079-1.4351-.157-1.6627-.527l-.638-1.036c-.2272-.369.1478-.731.8366-.81l2.0156-.23c.6886-.078 1.4318.157 1.6604.525l.6427 1.035c.2292.369-.144.733-.834.812z" fill="#232323"/><path d="m75.8546 104.926-2.0206.231c-.6904.079-1.4351-.157-1.6627-.527l-.638-1.036c-.2272-.369.1478-.731.8366-.81l2.0156-.23c.6886-.078 1.4318.157 1.6604.525l.6427 1.035c.2292.369-.144.733-.834.812z" stroke="#7ca4e6" stroke-linecap="round" stroke-linejoin="round" stroke-width=".703125"/><path d="m80.5979 104.383-2.0182.231c-.6898.079-1.4349-.157-1.6644-.526l-.6426-1.035c-.2289-.368.1437-.731.8318-.809l2.0135-.23c.6877-.078 1.4319.156 1.6621.524l.6473 1.034c.2309.369-.1402.732-.8295.811z" fill="#232323"/><path d="m80.5979 104.383-2.0182.231c-.6898.079-1.4349-.157-1.6644-.526l-.6426-1.035c-.2289-.368.1437-.731.8318-.809l2.0135-.23c.6877-.078 1.4319.156 1.6621.524l.6473 1.034c.2309.369-.1402.732-.8295.811z" stroke="#5cb8e2" stroke-linecap="round" stroke-linejoin="round" stroke-width=".703125"/><path d="m85.3373 103.841-2.0159.231c-.6888.079-1.4349-.157-1.666-.526l-.6473-1.033c-.2305-.368.14-.73.8274-.808l2.0114-.23c.6869-.078 1.4313.156 1.6634.524l.652 1.032c.2326.369-.1365.732-.825.81z" fill="#232323"/><path d="m85.3373 103.841-2.0159.231c-.6888.079-1.4349-.157-1.666-.526l-.6473-1.033c-.2305-.368.14-.73.8274-.808l2.0114-.23c.6869-.078 1.4313.156 1.6634.524l.652 1.032c.2326.369-.1365.732-.825.81z" stroke="#63c5cb" stroke-linecap="round" stroke-linejoin="round" stroke-width=".703125"/><path d="m90.0708 103.3-2.0135.23c-.6881.079-1.4349-.156-1.6677-.525l-.652-1.032c-.2321-.368.1365-.729.823-.807l2.009-.229c.6862-.078 1.4314.156 1.6651.523l.6567 1.031c.2345.368-.133.731-.8206.809z" fill="#232323"/><path d="m90.0708 103.3-2.0135.23c-.6881.079-1.4349-.156-1.6677-.525l-.652-1.032c-.2321-.368.1365-.729.823-.807l2.009-.229c.6862-.078 1.4314.156 1.6651.523l.6567 1.031c.2345.368-.133.731-.8206.809z" stroke="#97caa0" stroke-linecap="round" stroke-linejoin="round" stroke-width=".703125"/><path d="m94.8004 102.76-2.0111.23c-.6875.078-1.4349-.157-1.6694-.525l-.6567-1.031c-.2337-.367.1328-.728.8186-.806l2.0067-.229c.6853-.078 1.4316.155 1.6669.522l.6612 1.03c.2361.368-.1292.73-.8162.809z" fill="#232323"/><path d="m94.8004 102.76-2.0111.23c-.6875.078-1.4349-.157-1.6694-.525l-.6567-1.031c-.2337-.367.1328-.728.8186-.806l2.0067-.229c.6853-.078 1.4316.155 1.6669.522l.6612 1.03c.2361.368-.1292.73-.8162.809z" stroke="#ccce75" stroke-linecap="round" stroke-linejoin="round" stroke-width=".703125"/><path d="m99.5224 102.219-2.009.23c-.6865.078-1.4347-.156-1.6708-.524l-.6616-1.03c-.2354-.367.1295-.727.8146-.805l2.0043-.2287c.6846-.0782 1.4314.1557 1.6684.5217l.6657 1.029c.238.368-.125.729-.8116.807z" fill="#232323"/><path d="m99.5224 102.219-2.009.23c-.6865.078-1.4347-.156-1.6708-.524l-.6616-1.03c-.2354-.367.1295-.727.8146-.805l2.0043-.2287c.6846-.0782 1.4314.1557 1.6684.5217l.6657 1.029c.238.368-.125.729-.8116.807z" stroke="#ebc769" stroke-linecap="round" stroke-linejoin="round" stroke-width=".703125"/><path d="m104.24 101.68-2.006.229c-.686.079-1.435-.156-1.673-.523l-.666-1.029c-.2371-.3662.126-.7263.81-.8042l2.002-.2285c.684-.0779 1.431.1554 1.67.5212l.671 1.0285c.239.367-.122.728-.808.806z" fill="#232323"/><path d="m104.24 101.68-2.006.229c-.686.079-1.435-.156-1.673-.523l-.666-1.029c-.2371-.3662.126-.7263.81-.8042l2.002-.2285c.684-.0779 1.431.1554 1.67.5212l.671 1.0285c.239.367-.122.728-.808.806z" stroke="#e9b18e" stroke-linecap="round" stroke-linejoin="round" stroke-width=".703125"/><path d="m108.952 101.141-2.004.229c-.685.079-1.435-.155-1.674-.522l-.671-1.0282c-.239-.3658.122-.7254.806-.8034l2-.2279c.683-.078 1.431.1551 1.671.5204l.675 1.0271c.241.366-.118.727-.803.805z" fill="#232323"/><path d="m108.952 101.141-2.004.229c-.685.079-1.435-.155-1.674-.522l-.671-1.0282c-.239-.3658.122-.7254.806-.8034l2-.2279c.683-.078 1.431.1551 1.671.5204l.675 1.0271c.241.366-.118.727-.803.805z" stroke="#e89ab4" stroke-linecap="round" stroke-linejoin="round" stroke-width=".703125"/><path d="m113.66 100.603-2.002.229c-.684.078-1.434-.155-1.675-.522l-.676-1.0268c-.24-.3654.119-.7245.801-.8025l1.998-.2277c.682-.0777 1.431.1547 1.673.5198l.68 1.0257c.243.3665-.115.7265-.799.8045z" fill="#232323"/><path d="m113.66 100.603-2.002.229c-.684.078-1.434-.155-1.675-.522l-.676-1.0268c-.24-.3654.119-.7245.801-.8025l1.998-.2277c.682-.0777 1.431.1547 1.673.5198l.68 1.0257c.243.3665-.115.7265-.799.8045z" stroke="#df8ad0" stroke-linecap="round" stroke-linejoin="round" stroke-width=".703125"/><path d="m58.2662 100.467-2.0165.229c-.6893.078-1.4267-.156-1.6469-.523l-.6166-1.0275c-.2194-.3659.16-.7252.8476-.8032l2.0121-.2282c.6872-.0779 1.4234.1552 1.6445.5205l.621 1.0267c.2218.3667-.1564.7277-.8452.8057z" fill="#232323"/><path d="m58.2662 100.467-2.0165.229c-.6893.078-1.4267-.156-1.6469-.523l-.6166-1.0275c-.2194-.3659.16-.7252.8476-.8032l2.0121-.2282c.6872-.0779 1.4234.1552 1.6445.5205l.621 1.0267c.2218.3667-.1564.7277-.8452.8057z" stroke="#c588de" stroke-linecap="round" stroke-linejoin="round" stroke-width=".703125"/><path d="m63.0019 99.9286-2.0142.2284c-.6884.079-1.4267-.155-1.6485-.5216l-.6215-1.0267c-.2211-.3653.1564-.7242.8433-.8022l2.0098-.2279c.6864-.0777 1.4234.1548 1.6461.52l.626 1.0254c.2234.3661-.1532.7264-.841.8046z" fill="#232323"/><path d="m63.0019 99.9286-2.0142.2284c-.6884.079-1.4267-.155-1.6485-.5216l-.6215-1.0267c-.2211-.3653.1564-.7242.8433-.8022l2.0098-.2279c.6864-.0777 1.4234.1548 1.6461.52l.626 1.0254c.2234.3661-.1532.7264-.841.8046z" stroke="#a987ec" stroke-linecap="round" stroke-linejoin="round" stroke-width=".703125"/><path d="m67.7315 99.3909-2.0121.2286c-.6876.0782-1.4264-.1553-1.6499-.5214l-.6262-1.0255c-.2229-.3648.1529-.7237.8389-.8014l2.0077-.2275c.6855-.0777 1.4231.1544 1.6475.519l.6307 1.0246c.2251.3656-.1494.7254-.8366.8036z" fill="#232323"/><path d="m67.7315 99.3909-2.0121.2286c-.6876.0782-1.4264-.1553-1.6499-.5214l-.6262-1.0255c-.2229-.3648.1529-.7237.8389-.8014l2.0077-.2275c.6855-.0777 1.4231.1544 1.6475.519l.6307 1.0246c.2251.3656-.1494.7254-.8366.8036z" stroke="#80a1e7" stroke-linecap="round" stroke-linejoin="round" stroke-width=".703125"/><path d="m72.4553 98.854-2.0098.2284c-.6869.078-1.4264-.1553-1.6515-.5209l-.6309-1.0243c-.2246-.3647.1491-.7229.8344-.8006l2.0053-.2272c.6849-.0777 1.4232.1544 1.6492.5186l.6354 1.0233c.2267.3654-.1457.7248-.8321.8027z" fill="#232323"/><path d="m72.4553 98.854-2.0098.2284c-.6869.078-1.4264-.1553-1.6515-.5209l-.6309-1.0243c-.2246-.3647.1491-.7229.8344-.8006l2.0053-.2272c.6849-.0777 1.4232.1544 1.6492.5186l.6354 1.0233c.2267.3654-.1457.7248-.8321.8027z" stroke="#57bbe1" stroke-linecap="round" stroke-linejoin="round" stroke-width=".703125"/><path d="m77.1754 98.3178-2.0074.2282c-.686.0779-1.4265-.1549-1.6532-.5202l-.6356-1.0234c-.2262-.3642.1457-.7222.8303-.7996l2.0029-.227 12.0985-1.3713 1.9962-.2264c.6818-.0772 1.4232.154 1.6557.5165l.6537 1.0187c.2332.3637-.1309.7214-.8143.7991l-2.0009.2275z" fill="#232323"/><path d="m77.1754 98.3178-2.0074.2282c-.686.0779-1.4265-.1549-1.6532-.5202l-.6356-1.0234c-.2262-.3642.1457-.7222.8303-.7996l2.0029-.227 12.0985-1.3713 1.9962-.2264c.6818-.0772 1.4232.154 1.6557.5165l.6537 1.0187c.2332.3637-.1309.7214-.8143.7991l-2.0009.2275z" stroke="#78c7ba" stroke-linecap="round" stroke-linejoin="round" stroke-width=".703125"/><path d="m95.9998 96.1785-1.9985.227c-.683.0778-1.426-.1541-1.6595-.5178l-.6541-1.0187c-.2328-.3626.1311-.7189.8127-.7961l1.994-.2261c.6811-.0772 1.4229.1537 1.6571.5158l.6584 1.0177c.2349.3633-.1276.7207-.8101.7982z" fill="#232323"/><path d="m95.9998 96.1785-1.9985.227c-.683.0778-1.426-.1541-1.6595-.5178l-.6541-1.0187c-.2328-.3626.1311-.7189.8127-.7961l1.994-.2261c.6811-.0772 1.4229.1537 1.6571.5158l.6584 1.0177c.2349.3633-.1276.7207-.8101.7982z" stroke="#c1cd7d" stroke-linecap="round" stroke-linejoin="round" stroke-width=".703125"/><path d="m100.694 95.6452-1.9959.2268c-.6823.0775-1.426-.1541-1.6612-.5174l-.6587-1.0175c-.2345-.3621.1278-.7179.8084-.7951l1.9917-.2259c.6801-.077 1.4227.1535 1.6587.5153l.663 1.0164c.236.3627-.124.72-.806.7974z" fill="#232323"/><path d="m100.694 95.6452-1.9959.2268c-.6823.0775-1.426-.1541-1.6612-.5174l-.6587-1.0175c-.2345-.3621.1278-.7179.8084-.7951l1.9917-.2259c.6801-.077 1.4227.1535 1.6587.5153l.663 1.0164c.236.3627-.124.72-.806.7974z" stroke="#ebc371" stroke-linecap="round" stroke-linejoin="round" stroke-width=".703125"/><path d="m105.381 95.1124-1.994.2266c-.682.0774-1.426-.154-1.663-.5167l-.663-1.0166c-.236-.3618.124-.7172.804-.7942l1.989-.2254c.68-.077 1.423.1532 1.661.5146l.667 1.0152c.238.3623-.12.719-.801.7965z" fill="#232323"/><path d="m105.381 95.1124-1.994.2266c-.682.0774-1.426-.154-1.663-.5167l-.663-1.0166c-.236-.3618.124-.7172.804-.7942l1.989-.2254c.68-.077 1.423.1532 1.661.5146l.667 1.0152c.238.3623-.12.719-.801.7965z" stroke="#e8a3a5" stroke-linecap="round" stroke-linejoin="round" stroke-width=".703125"/><path d="m110.063 94.5802-1.991.2263c-.681.0772-1.426-.1539-1.664-.5162l-.668-1.0152c-.238-.3614.12-.7165.799-.7935l1.987-.2252c.679-.077 1.423.153 1.662.5139l.672 1.0143c.24.362-.116.7183-.797.7956z" fill="#232323"/><path d="m110.063 94.5802-1.991.2263c-.681.0772-1.426-.1539-1.664-.5162l-.668-1.0152c-.238-.3614.12-.7165.799-.7935l1.987-.2252c.679-.077 1.423.153 1.662.5139l.672 1.0143c.24.362-.116.7183-.797.7956z" stroke="#df8ad0" stroke-linecap="round" stroke-linejoin="round" stroke-width=".703125"/><path d="m62.2685 103.025-4.2041.509c-.691.078-1.4309-.157-1.6525-.526l-.6204-1.034c-.2208-.368.1593-.729.8488-.808l4.1946-.506c.6885-.078 1.4276.156 1.6508.523l.6271 1.032c.2239.369-.154.731-.8443.81z" fill="#232323"/><path d="m62.2685 103.025-4.2041.509c-.691.078-1.4309-.157-1.6525-.526l-.6204-1.034c-.2208-.368.1593-.729.8488-.808l4.1946-.506c.6885-.078 1.4276.156 1.6508.523l.6271 1.032c.2239.369-.154.731-.8443.81z" stroke="#b587e6" stroke-linecap="round" stroke-linejoin="round" stroke-width=".703125"/><path d="m67.0134 102.484-2.0186.23c-.69.079-1.4309-.157-1.6548-.525l-.6272-1.032c-.2232-.367.1539-.728.8422-.806l2.014-.229c.6879-.079 1.4276.155 1.6525.522l.6316 1.031c.2255.368-.1501.73-.8397.809z" fill="#232323"/><path d="m67.0134 102.484-2.0186.23c-.69.079-1.4309-.157-1.6548-.525l-.6272-1.032c-.2232-.367.1539-.728.8422-.806l2.014-.229c.6879-.079 1.4276.155 1.6525.522l.6316 1.031c.2255.368-.1501.73-.8397.809z" stroke="#9c8feb" stroke-linecap="round" stroke-linejoin="round" stroke-width=".703125"/><path d="m71.753 101.944-2.0163.23c-.689.078-1.4309-.157-1.6564-.525l-.6321-1.031c-.2248-.367.1503-.7271.838-.8053l2.0116-.2287c.6872-.0781 1.4276.1554 1.6541.522l.6363 1.03c.2272.367-.1466.729-.8352.808z" fill="#232323"/><path d="m71.753 101.944-2.0163.23c-.689.078-1.4309-.157-1.6564-.525l-.6321-1.031c-.2248-.367.1503-.7271.838-.8053l2.0116-.2287c.6872-.0781 1.4276.1554 1.6541.522l.6363 1.03c.2272.367-.1466.729-.8352.808z" stroke="#7ca4e6" stroke-linecap="round" stroke-linejoin="round" stroke-width=".703125"/><path d="m76.4886 101.404-2.014.229c-.6884.079-1.4309-.156-1.6581-.523l-.6368-1.03c-.2267-.3666.1469-.7266.8336-.8048l2.0092-.2285c.6863-.0779 1.4277.1554 1.6558.5214l.641 1.0289c.2288.367-.1429.728-.8307.807z" fill="#232323"/><path d="m76.4886 101.404-2.014.229c-.6884.079-1.4309-.156-1.6581-.523l-.6368-1.03c-.2267-.3666.1469-.7266.8336-.8048l2.0092-.2285c.6863-.0779 1.4277.1554 1.6558.5214l.641 1.0289c.2288.367-.1429.728-.8307.807z" stroke="#5cb8e2" stroke-linecap="round" stroke-linejoin="round" stroke-width=".703125"/><path d="m81.2182 100.864-2.0119.23c-.6874.078-1.4307-.156-1.6595-.523l-.6414-1.0287c-.2284-.3661.143-.7259.829-.8039l2.0072-.2281c.6855-.078 1.4274.1553 1.6572.5209l.6459 1.0278c.2304.366-.1394.727-.8265.805z" fill="#232323"/><path d="m81.2182 100.864-2.0119.23c-.6874.078-1.4307-.156-1.6595-.523l-.6414-1.0287c-.2284-.3661.143-.7259.829-.8039l2.0072-.2281c.6855-.078 1.4274.1553 1.6572.5209l.6459 1.0278c.2304.366-.1394.727-.8265.805z" stroke="#63c5cb" stroke-linecap="round" stroke-linejoin="round" stroke-width=".703125"/><path d="m85.9419 100.326-2.0095.229c-.6867.078-1.4304-.155-1.6611-.522l-.6462-1.0275c-.2299-.3656.1394-.725.8247-.8029l2.0048-.228c.6848-.0779 1.4274.1549 1.6588.5203l.6506 1.0261c.2321.3663-.1358.727-.8221.805z" fill="#232323"/><path d="m85.9419 100.326-2.0095.229c-.6867.078-1.4304-.155-1.6611-.522l-.6462-1.0275c-.2299-.3656.1394-.725.8247-.8029l2.0048-.228c.6848-.0779 1.4274.1549 1.6588.5203l.6506 1.0261c.2321.3663-.1358.727-.8221.805z" stroke="#97caa0" stroke-linecap="round" stroke-linejoin="round" stroke-width=".703125"/><path d="m90.6615 99.7881-2.0069.2289c-.686.078-1.4307-.1556-1.663-.5218l-.6506-1.0262c-.2316-.3654.1358-.7243.8202-.802l2.0025-.2277c.6838-.0777 1.4271.1546 1.6604.5195l.6553 1.0253c.2337.3658-.1323.7258-.8179.804z" fill="#232323"/><path d="m90.6615 99.7881-2.0069.2289c-.686.078-1.4307-.1556-1.663-.5218l-.6506-1.0262c-.2316-.3654.1358-.7243.8202-.802l2.0025-.2277c.6838-.0777 1.4271.1546 1.6604.5195l.6553 1.0253c.2337.3658-.1323.7258-.8179.804z" stroke="#ccce75" stroke-linecap="round" stroke-linejoin="round" stroke-width=".703125"/><path d="m95.3736 99.2508-2.0048.2286c-.6853.0782-1.4305-.1556-1.6644-.5214l-.6553-1.025c-.2333-.3649.132-.7233.8157-.801l2.0004-.2275c.6832-.0777 1.4271.1547 1.662.5191l.6598 1.0238c.2354.3656-.1286.7254-.8134.8034z" fill="#232323"/><path d="m95.3736 99.2508-2.0048.2286c-.6853.0782-1.4305-.1556-1.6644-.5214l-.6553-1.025c-.2333-.3649.132-.7233.8157-.801l2.0004-.2275c.6832-.0777 1.4271.1547 1.662.5191l.6598 1.0238c.2354.3656-.1286.7254-.8134.8034z" stroke="#ebc769" stroke-linecap="round" stroke-linejoin="round" stroke-width=".703125"/><path d="m100.082 98.7142-2.0027.2282c-.6844.0779-1.4304-.1549-1.6661-.5205l-.6599-1.0241c-.235-.3644.1283-.7223.8112-.8l1.998-.2273c.6825-.0775 1.4272.1547 1.6635.5186l.665 1.0227c.237.3651-.125.7244-.809.8024z" fill="#232323"/><path d="m100.082 98.7142-2.0027.2282c-.6844.0779-1.4304-.1549-1.6661-.5205l-.6599-1.0241c-.235-.3644.1283-.7223.8112-.8l1.998-.2273c.6825-.0775 1.4272.1547 1.6635.5186l.665 1.0227c.237.3651-.125.7244-.809.8024z" stroke="#e9b18e" stroke-linecap="round" stroke-linejoin="round" stroke-width=".703125"/><path d="m104.786 98.1782-2 .2279c-.684.078-1.431-.1548-1.668-.52l-.664-1.0226c-.237-.364.124-.7219.806-.7994l1.996-.227c.682-.0775 1.427.1542 1.665.5179l.669 1.0217c.239.3646-.121.7235-.804.8015z" fill="#232323"/><path d="m104.786 98.1782-2 .2279c-.684.078-1.431-.1548-1.668-.52l-.664-1.0226c-.237-.364.124-.7219.806-.7994l1.996-.227c.682-.0775 1.427.1542 1.665.5179l.669 1.0217c.239.3646-.121.7235-.804.8015z" stroke="#e89ab4" stroke-linecap="round" stroke-linejoin="round" stroke-width=".703125"/><path d="m111.881 97.4181-4.397.4523c-.683.0779-1.43-.1549-1.669-.5196l-.669-1.0217c-.238-.3637.121-.7209.803-.7984l4.386-.4499c.681-.0775 1.427.1539 1.668.5169l.676 1.0201c.241.3642-.116.7226-.798.8003z" fill="#232323"/><path d="m111.881 97.4181-4.397.4523c-.683.0779-1.43-.1549-1.669-.5196l-.669-1.0217c-.238-.3637.121-.7209.803-.7984l4.386-.4499c.681-.0775 1.427.1539 1.668.5169l.676 1.0201c.241.3642-.116.7226-.798.8003z" stroke="#df8ad0" stroke-linecap="round" stroke-linejoin="round" stroke-width=".703125"/><path d="m61.6577 106.008-2.0274.232c-.6928.079-1.4351-.158-1.6578-.529l-.6239-1.039c-.222-.371.1588-.734.8499-.813l2.0227-.231c.6909-.079 1.4318.157 1.6555.527l.6283 1.038c.2244.371-.155.736-.8473.815z" fill="#232323"/><path d="m61.6577 106.008-2.0274.232c-.6928.079-1.4351-.158-1.6578-.529l-.6239-1.039c-.222-.371.1588-.734.8499-.813l2.0227-.231c.6909-.079 1.4318.157 1.6555.527l.6283 1.038c.2244.371-.155.736-.8473.815z" stroke="#ca89db" stroke-linecap="round" stroke-linejoin="round" stroke-width=".703125"/><path d="m66.4165 105.463-2.0247.232c-.6921.079-1.4354-.157-1.6597-.528l-.6286-1.038c-.2237-.37.155-.733.8455-.812l2.0203-.231c.69-.078 1.4318.157 1.6571.526l.6333 1.037c.226.371-.1515.735-.8432.814z" fill="#232323"/><path d="m66.4165 105.463-2.0247.232c-.6921.079-1.4354-.157-1.6597-.528l-.6286-1.038c-.2237-.37.155-.733.8455-.812l2.0203-.231c.69-.078 1.4318.157 1.6571.526l.6333 1.037c.226.371-.1515.735-.8432.814z" stroke="#b587e6" stroke-linecap="round" stroke-linejoin="round" stroke-width=".703125"/><path d="m71.1737 104.92-2.0226.231c-.6912.079-1.4354-.157-1.6614-.528l-.6332-1.037c-.2253-.369.1512-.732.841-.81l2.0179-.231c.6893-.078 1.4319.157 1.6588.526l.638 1.036c.2276.369-.1476.734-.8385.813z" fill="#232323"/><path d="m71.1737 104.92-2.0226.231c-.6912.079-1.4354-.157-1.6614-.528l-.6332-1.037c-.2253-.369.1512-.732.841-.81l2.0179-.231c.6893-.078 1.4319.157 1.6588.526l.638 1.036c.2276.369-.1476.734-.8385.813z" stroke="#9c8feb" stroke-linecap="round" stroke-linejoin="round" stroke-width=".703125"/><path d="m75.9229 104.377-2.0205.231c-.6905.079-1.4351-.158-1.6628-.527l-.6379-1.036c-.2272-.369.1477-.731.8366-.81l2.0156-.23c.6885-.078 1.4318.156 1.6604.525l.6426 1.035c.2293.369-.144.733-.834.812z" fill="#232323"/><path d="m75.9229 104.377-2.0205.231c-.6905.079-1.4351-.158-1.6628-.527l-.6379-1.036c-.2272-.369.1477-.731.8366-.81l2.0156-.23c.6885-.078 1.4318.156 1.6604.525l.6426 1.035c.2293.369-.144.733-.834.812z" stroke="#7ca4e6" stroke-linecap="round" stroke-linejoin="round" stroke-width=".703125"/><path d="m80.6662 103.834-2.0181.231c-.6898.078-1.4349-.157-1.6645-.526l-.6426-1.035c-.2288-.369.1438-.731.8319-.809l2.0135-.23c.6876-.078 1.4318.156 1.6621.524l.6473 1.034c.2309.369-.1403.732-.8296.811z" fill="#232323"/><path d="m80.6662 103.834-2.0181.231c-.6898.078-1.4349-.157-1.6645-.526l-.6426-1.035c-.2288-.369.1438-.731.8319-.809l2.0135-.23c.6876-.078 1.4318.156 1.6621.524l.6473 1.034c.2309.369-.1403.732-.8296.811z" stroke="#5cb8e2" stroke-linecap="round" stroke-linejoin="round" stroke-width=".703125"/><path d="m85.4056 103.292-2.0158.23c-.6888.079-1.4349-.156-1.6661-.525l-.6473-1.034c-.2305-.368.14-.729.8274-.808l2.0114-.229c.687-.078 1.4314.156 1.6635.523l.652 1.033c.2326.368-.1365.731-.8251.81z" fill="#232323"/><path d="m85.4056 103.292-2.0158.23c-.6888.079-1.4349-.156-1.6661-.525l-.6473-1.034c-.2305-.368.14-.729.8274-.808l2.0114-.229c.687-.078 1.4314.156 1.6635.523l.652 1.033c.2326.368-.1365.731-.8251.81z" stroke="#63c5cb" stroke-linecap="round" stroke-linejoin="round" stroke-width=".703125"/><path d="m90.1391 102.751-2.0135.23c-.6881.079-1.4348-.156-1.6677-.525l-.652-1.033c-.2321-.367.1365-.728.823-.806l2.0091-.23c.6862-.078 1.4313.156 1.6651.523l.6567 1.032c.2344.368-.133.73-.8207.809z" fill="#232323"/><path d="m90.1391 102.751-2.0135.23c-.6881.079-1.4348-.156-1.6677-.525l-.652-1.033c-.2321-.367.1365-.728.823-.806l2.0091-.23c.6862-.078 1.4313.156 1.6651.523l.6567 1.032c.2344.368-.133.73-.8207.809z" stroke="#97caa0" stroke-linecap="round" stroke-linejoin="round" stroke-width=".703125"/><path d="m94.8688 102.21-2.0112.23c-.6874.079-1.4349-.156-1.6693-.524l-.6567-1.032c-.2337-.367.1327-.728.8185-.806l2.0067-.2286c.6853-.0782 1.4316.1556 1.667.5226l.6611 1.03c.2361.368-.1292.73-.8161.808z" fill="#232323"/><path d="m94.8688 102.21-2.0112.23c-.6874.079-1.4349-.156-1.6693-.524l-.6567-1.032c-.2337-.367.1327-.728.8185-.806l2.0067-.2286c.6853-.0782 1.4316.1556 1.667.5226l.6611 1.03c.2361.368-.1292.73-.8161.808z" stroke="#ccce75" stroke-linecap="round" stroke-linejoin="round" stroke-width=".703125"/><path d="m99.5908 101.67-2.0091.23c-.6864.078-1.4346-.156-1.6707-.524l-.6616-1.03c-.2354-.3669.1295-.7272.8145-.8054l2.0044-.2286c.6846-.0782 1.4314.1553 1.6684.5216l.6663 1.0294c.237.367-.126.729-.8122.807z" fill="#232323"/><path d="m99.5908 101.67-2.0091.23c-.6864.078-1.4346-.156-1.6707-.524l-.6616-1.03c-.2354-.3669.1295-.7272.8145-.8054l2.0044-.2286c.6846-.0782 1.4314.1553 1.6684.5216l.6663 1.0294c.237.367-.126.729-.8122.807z" stroke="#ebc769" stroke-linecap="round" stroke-linejoin="round" stroke-width=".703125"/><path d="m104.309 101.131-2.007.229c-.686.078-1.435-.156-1.672-.523l-.6667-1.0293c-.237-.3662.1257-.7263.8097-.8042l2.002-.2285c.684-.0779 1.432.1554 1.67.5212l.671 1.0278c.239.367-.122.728-.807.807z" fill="#232323"/><path d="m104.309 101.131-2.007.229c-.686.078-1.435-.156-1.672-.523l-.6667-1.0293c-.237-.3662.1257-.7263.8097-.8042l2.002-.2285c.684-.0779 1.432.1554 1.67.5212l.671 1.0278c.239.367-.122.728-.807.807z" stroke="#e9b18e" stroke-linecap="round" stroke-linejoin="round" stroke-width=".703125"/><path d="m109.021 100.592-2.005.229c-.685.078-1.434-.156-1.674-.523l-.671-1.0275c-.238-.3659.123-.7254.806-.8034l2-.228c.683-.0779 1.431.1552 1.671.5205l.676 1.0267c.241.3667-.119.7277-.803.8057z" fill="#232323"/><path d="m109.021 100.592-2.005.229c-.685.078-1.434-.156-1.674-.523l-.671-1.0275c-.238-.3659.123-.7254.806-.8034l2-.228c.683-.0779 1.431.1552 1.671.5205l.676 1.0267c.241.3667-.119.7277-.803.8057z" stroke="#e89ab4" stroke-linecap="round" stroke-linejoin="round" stroke-width=".703125"/><path d="m113.729 100.054-2.002.229c-.685.078-1.435-.156-1.676-.5223l-.675-1.0269c-.241-.3653.118-.7244.801-.8024l1.997-.2277c.683-.0777 1.432.1546 1.674.5198l.679 1.0257c.243.366-.114.7266-.798.8048z" fill="#232323"/><path d="m113.729 100.054-2.002.229c-.685.078-1.435-.156-1.676-.5223l-.675-1.0269c-.241-.3653.118-.7244.801-.8024l1.997-.2277c.683-.0777 1.432.1546 1.674.5198l.679 1.0257c.243.366-.114.7266-.798.8048z" stroke="#df8ad0" stroke-linecap="round" stroke-linejoin="round" stroke-width=".703125"/><path d="m89.6074 108.959c.8438 4.089 3.9417 6.981 13.4816 6.721 9.541-.26 6.013 3.734.178 7.482" stroke="#232323" stroke-linecap="round" stroke-linejoin="round" stroke-width="2.34375"/><path d="m26.4995 111.001c.0467-.777.4231-3.656.746-4.27 2.3304-4.432 11.0004-4.604 13.7361-.096.3907.644.4856 3.566.5983 4.403.447 3.315-15.2625 2.993-15.0804-.037z" fill="#666"/><path d="m26.4995 111.001c.0467-.777.4231-3.656.746-4.27 2.3304-4.432 11.0004-4.604 13.7361-.096.3907.644.4856 3.566.5983 4.403.447 3.315-15.2625 2.993-15.0804-.037z" stroke="#232323" stroke-linecap="round" stroke-linejoin="round" stroke-width="2.34375"/><path d="m34.664 107.383v3.151" stroke="#00a4ff" stroke-linecap="round" stroke-linejoin="round" stroke-width="2.34375"/><path d="m28.9993 110.501c-.2294-.237-.1622-.888-.0187-1.783" stroke="#808080" stroke-linecap="round" stroke-linejoin="round" stroke-width="2.34375"/><path d="m34.0926 114.054c4.3386 9.218-9.7793 4.409-11.4442 6.492" stroke="#232323" stroke-linecap="round" stroke-linejoin="round" stroke-width="2.34375"/><path d="m80.8745 92.5997c5.5043 4.2593 12.4433 6.1759 17.9856 4.4689 3.1869-1.3289-1.3453-5.2708-10.6974-14.7808" fill="#ffd527"/><path d="m80.8745 92.5997c5.5043 4.2593 12.4433 6.1759 17.9856 4.4689 3.1869-1.3289-1.3453-5.2708-10.6974-14.7808" stroke="#fa9016" stroke-linecap="round" stroke-linejoin="round" stroke-width="2.46051"/><path d="m84.623 83.7336c2.8042 2.7294 6.2081 6.5041 9.0483 8.6293" stroke="#fcee21" stroke-linecap="round" stroke-linejoin="round" stroke-width="2.31615"/><path d="m25.7583 85.3751c-3.2159-3.5255-5.3387-7.9581-6.0694-13.1258-2.3505-16.6242 10.3816-35.3733 28.9421-38.3146 18.5604-2.9413 35.9203 11.0394 38.2708 27.6636.906 6.4073-.5503 12.3667-3.8569 17.4082" fill="#ffd527"/><path d="m25.7583 85.3751c-3.2159-3.5255-5.3387-7.9581-6.0694-13.1258-2.3505-16.6242 10.3816-35.3733 28.9421-38.3146 18.5604-2.9413 35.9203 11.0394 38.2708 27.6636.906 6.4073-.5503 12.3668-3.8569 17.4082" stroke="#fa9016" stroke-linecap="round" stroke-linejoin="round" stroke-width="2.46034"/><path d="m47.454 39.4473c-5.3027.9733-10.478 3.7457-14.5685 7.8877" stroke="#fff" stroke-linecap="round" stroke-linejoin="round" stroke-width="2.31586"/><path d="m79.8857 73.4888c1.6603-4.7932 2.067-9.916.9409-14.6673-1.2161-5.1305-4.0411-9.0761-7.8971-11.7632" stroke="#fcee21" stroke-linecap="round" stroke-linejoin="round" stroke-width="2.31587"/><path d="m42.3567 64.1292c-.8216 3.2352-3.5545 5.1279-6.5469 4.6006-2.9858-.5279-4.5128-3.3249-3.8526-6.5488.6668-3.2176 3.6699-5.5759 6.5672-5.0052 2.8972.5708 4.6485 3.7245 3.8323 6.9534z" fill="#000"/><path d="m42.3567 64.1292c-.8216 3.2352-3.5545 5.1279-6.5469 4.6006-2.9858-.5279-4.5128-3.3249-3.8526-6.5488.6668-3.2176 3.6699-5.5759 6.5672-5.0052 2.8972.5708 4.6485 3.7245 3.8323 6.9534z" stroke="#000" stroke-width=".101134"/><path d="m35.8072 60.5499c.0735.8577.9683 1.4779 1.9982 1.385 1.0299-.093 1.8054-.8638 1.7319-1.7216-.0736-.8578-.9684-1.478-1.9983-1.385-1.0299.0929-1.8054.8638-1.7318 1.7216z" fill="#fbfbfb"/><path d="m66.872 62.4125c1.2327 3.0757 4.1295 4.5307 6.7644 3.5198 2.6046-1.0072 3.6677-4.0594 2.5793-7.1331-1.0865-3.0762-4.2042-4.8446-6.8149-3.8354-2.6372 1.0125-3.7568 4.3791-2.5288 7.4487z" fill="#000"/><path d="m66.872 62.4125c1.2327 3.0757 4.1295 4.5307 6.7644 3.5198 2.6046-1.0072 3.6677-4.0594 2.5793-7.1331-1.0865-3.0762-4.2042-4.8446-6.8149-3.8354-2.6372 1.0125-3.7568 4.3791-2.5288 7.4487z" stroke="#000" stroke-width=".087899"/><path d="m69.3181 57.7493c-.0594.8923.6094 1.6763 1.494 1.7509.2264.019.445-.0102.646-.0793.5841-.2005 1.0191-.7375 1.0634-1.4014.0594-.8923-.6094-1.6761-1.494-1.7506-.8845-.0746-1.6499.5881-1.7094 1.4804z" fill="#fbfbfb"/><path d="m24.4344 93.8558c4.783 6.3472 5.8531 15.8122 10.7162 15.1502 2.0984-.286 5.5996-7.814 5.0729-21.0044" fill="#ffd527"/><path d="m24.4344 93.8558c4.783 6.3472 5.8531 15.8122 10.7162 15.1502 2.0984-.286 5.5996-7.814 5.0729-21.0044" stroke="#fa9016" stroke-linecap="round" stroke-linejoin="round" stroke-width="2.46072"/><path d="m28.701 92.5298c1.2883 1.5575 2.8187 4.956 3.4935 7.386" stroke="#fff" stroke-linecap="round" stroke-linejoin="round" stroke-width="2.31603"/><path d="m47.2973 67.1215c3.1733-2.0367 3.1399-9.4053 6.157-9.1024 3.4725.3487 4.5093 6.7058 7.8532 7.314 2.2312.4059 3.7501 1.7147 3.9852 3.4232.235 1.7084-1.0254 3.2171-1.9969 3.7374-2.2384 1.1987-4.2479 1.8122-7.8292 2.1577-4.2332.4083-5.7969-.0283-8.214-.5357-1.9354-.4061-2.7673-1.7938-2.8214-3.4332-.0757-1.5409.8392-2.2602 2.8661-3.561z" fill="#ff5d1f"/><path d="m47.2973 67.1215c3.1733-2.0367 3.1399-9.4053 6.157-9.1024 3.4725.3487 4.5093 6.7058 7.8532 7.314 2.2312.4059 3.7501 1.7147 3.9852 3.4232.235 1.7084-1.0254 3.2171-1.9969 3.7374-2.2384 1.1987-4.2479 1.8122-7.8292 2.1577-4.2332.4083-5.7969-.0283-8.214-.5357-1.9354-.4061-2.7673-1.7938-2.8214-3.4332-.0757-1.5409.8392-2.2602 2.8661-3.561z" stroke="#cf3502" stroke-linecap="round" stroke-linejoin="round" stroke-width="2.12568"/><path d="m50.0239 67.0362c1.1576-1.1207 2.0132-3.2524 2.9961-5.6399" stroke="#ffb484" stroke-linecap="round" stroke-linejoin="round" stroke-width="2.08458"/><path d="m48.1259 71.0301c4.6535-.3463 12.404-1.014 13.7359-1.1599-.9768.0921-2.9667.2794-5.1492.4667-3.3669.2879-6.984.5716-8.5867.6932z" fill="#7d0909"/><path d="m48.1266 71.0297c4.6543-.345 12.4045-1.0136 13.7353-1.1602-.9754.0937-2.9664.2796-5.1485.467-3.3674.289-6.9839.5718-8.5868.6932z" stroke="#7d0909" stroke-linecap="round" stroke-linejoin="round" stroke-width="2.08405"/><path d="m28.8602 40.3819c-3.3905-6.7021-2.8555-17.7156-.7566-22.1809 8.0126 1.7677 18.2581 13.0603 17.5441 14.0222-7.8146 1.3412-13.4619 5.1023-16.7875 8.1587z" fill="#666"/><path d="m28.8602 40.3819c-3.3905-6.7021-2.8555-17.7156-.7566-22.1809 8.0126 1.7677 18.2581 13.0603 17.5441 14.0222-7.8146 1.3412-13.4619 5.1023-16.7875 8.1587z" stroke="#232323" stroke-linecap="round" stroke-linejoin="round" stroke-width="2.97646"/><path d="m29.7826 21.7572c-1.3232 3.5579-.5249 11.0442.3948 13.2373" stroke="#a2a2a2" stroke-linecap="round" stroke-linejoin="round" stroke-width="2.38116"/><path d="m29.02 25.7352c-.1775 1.9559.0423 4.1274.3664 5.9534" stroke="#c5c5c5" stroke-linecap="round" stroke-linejoin="round" stroke-width="2.38116"/><path d="m31.3178 34.439c-1.4348-2.836-1.2085-7.4962-.3203-9.386 3.3907.7481 7.7265 5.5267 7.4243 5.9337-3.3068.5675-5.6967 2.159-7.104 3.4523z" fill="#df8ad0"/><path d="m31.3178 34.439c-1.4348-2.836-1.2085-7.4962-.3203-9.386 3.3907.7481 7.7265 5.5267 7.4243 5.9337-3.3068.5675-5.6967 2.159-7.104 3.4523z" stroke="#df8ad0" stroke-linecap="round" stroke-linejoin="round" stroke-width="2.97646"/><path d="m59.4824 31.2817c2.6213-6.914 11.0449-13.5185 15.7287-14.7303 4.1065 7.3687 2.7449 22.5492 1.5595 22.6063-6.2492-5.2325-12.8091-7.2339-17.2882-7.876z" fill="#666"/><path d="m59.4824 31.2817c2.6213-6.914 11.0449-13.5185 15.7287-14.7303 4.1065 7.3687 2.7449 22.5492 1.5595 22.6063-6.2492-5.2325-12.8091-7.2339-17.2882-7.876z" stroke="#232323" stroke-linecap="round" stroke-linejoin="round" stroke-width="2.97721"/><path d="m64.969 30.6515c1.1092-2.9257 4.6734-5.7204 6.6557-6.2333 1.7377 3.1183 1.1617 9.5423.66 9.5663-2.6443-2.2141-5.4203-3.0612-7.3157-3.333z" fill="#df8ad0"/><path d="m64.969 30.6515c1.1092-2.9257 4.6734-5.7204 6.6557-6.2333 1.7377 3.1183 1.1617 9.5423.66 9.5663-2.6443-2.2141-5.4203-3.0612-7.3157-3.333z" stroke="#df8ad0" stroke-linecap="round" stroke-linejoin="round" stroke-width="2.97721"/><path d="m19.5201 50.8394c1.5865-4.3367 4.0285-8.0855 7.0685-11.1928 15.4265-15.7674 46.2506-15.0212 58.8008 9.1792" stroke="#232323" stroke-linecap="round" stroke-linejoin="round" stroke-width="7.44095"/><path d="m19.5201 50.8394c1.5865-4.3367 4.0285-8.0855 7.0685-11.1928 15.4265-15.7674 46.2506-15.0212 58.8008 9.1792" stroke="#666" stroke-linecap="round" stroke-linejoin="round" stroke-width="2.3811"/><path d="m27.1763 39.3398c6.3229-6.5436 15.3792-10.1187 24.5813-10.1864" stroke="#878787" stroke-linecap="round" stroke-linejoin="round" stroke-width="2.3811"/><path d="m21.8219 81.7975c-.9611.976-3.4559.5255-4.5128.4002-3.1052-.3686-9.68167-7.1411-8.76718-17.2039 1.25679-13.8318 7.12058-18.1993 11.11478-17.9562 1.2056.0734 3.2304.0058 3.9951 1.4805-1.4978 4.0192-2.6634 27.4275-1.8299 33.2794z" fill="#666"/><path d="m21.8219 81.7975c-.9611.976-3.4559.5255-4.5128.4002-3.1052-.3686-9.68167-7.1411-8.76718-17.2039 1.25679-13.8318 7.12058-18.1993 11.11478-17.9562 1.2056.0734 3.2304.0058 3.9951 1.4805-1.4978 4.0192-2.6634 27.4275-1.8299 33.2794z" stroke="#232323" stroke-linecap="round" stroke-linejoin="round" stroke-width="2.97638"/><path d="m10.9384 76.4379c-1.66662-2.9278-2.81518-6.8421-2.39704-11.4441.52313-5.756 1.84394-9.8734 3.49574-12.7011-.9339 4.3136-2.45494 15.6564-1.0987 24.1452z" fill="#df8ad0"/><path d="m10.9384 76.4379c-1.66662-2.9278-2.81518-6.8421-2.39704-11.4441.52313-5.756 1.84394-9.8734 3.49574-12.7011-.9339 4.3136-2.45494 15.6564-1.0987 24.1452z" stroke="#232323" stroke-linecap="round" stroke-linejoin="round" stroke-width="2.97638"/><path d="m17.6816 56.333c-1.3034 3.515-1.3576 12.4511-1.3053 19.3089" stroke="#df8ad0" stroke-linecap="round" stroke-linejoin="round" stroke-width="2.97638"/><path d="m83.3494 79.0076c7.7018 1.8246 14.0984-6.892 12.8623-17.2196-1.2388-10.3495-7.5289-17.1788-15.4898-15.674 1.8311 8.3832 2.3434 22.0031 2.6275 32.8936z" fill="#666"/><path d="m83.3494 79.0076c7.7018 1.8246 14.0984-6.892 12.8623-17.2196-1.2388-10.3495-7.5289-17.1788-15.4898-15.674 1.8311 8.3832 2.3434 22.0031 2.6275 32.8936z" stroke="#232323" stroke-linecap="round" stroke-linejoin="round" stroke-width="2.97638"/><path d="m88.1914 50.6217c2.018 1.4919 3.2594 3.9915 4.0046 6.6422" stroke="#878787" stroke-linecap="round" stroke-linejoin="round" stroke-width="2.3811"/><path d="m87.6113 54.1219c.6866 6.2823 1.0471 12.4582 1.0019 17.7505" stroke="#df8ad0" stroke-linecap="round" stroke-linejoin="round" stroke-width="2.97638"/><path d="m93.9818 73.6686c1.8509-3.1532 2.7712-7.3625 2.2307-11.8806-.4155-3.4754-1.4007-6.5538-2.8277-9.0528.8803 4.0975 1.6245 14.7996.597 20.9334z" fill="#df8ad0"/><g stroke-linecap="round" stroke-linejoin="round"><path d="m93.9818 73.6686c1.8509-3.1532 2.7712-7.3625 2.2307-11.8806-.4155-3.4754-1.4007-6.5538-2.8277-9.0528.8803 4.0975 1.6245 14.7996.597 20.9334z" stroke="#232323" stroke-width="3.27402"/><path d="m82.7488 75.9353c-6.2599 3.1596-13.4262 4.0815-19.0667 4.4295" stroke="#232323" stroke-width="7.14331"/><path d="m85.5009 74.0283c-5.2431 4.3565-14.911 5.7129-21.0912 6.1937" stroke="#666" stroke-width="2.3811"/><path d="m70.2765 79.5286c-1.5604.2398-3.1098.6763-6.2438.6559" stroke="#232323" stroke-width="8.6315"/><path d="m70.017 79.5768c-2.0248.2768-4.042.4565-5.9843.6076" stroke="#df8ad0" stroke-width="3.57165"/></g></g></g></g></svg>