<svg width="180" height="180" viewBox="0 0 180 180" fill="none" xmlns="http://www.w3.org/2000/svg">
<g clip-path="url(#clip0_1_2478)">
<g clip-path="url(#clip1_1_2478)">
<mask id="mask0_1_2478" style="mask-type:luminance" maskUnits="userSpaceOnUse" x="0" y="-1" width="180" height="181">
<path d="M180 -0.000244141H0V180H180V-0.000244141Z" fill="white"/>
</mask>
<g mask="url(#mask0_1_2478)">
<path d="M93.638 78.4083L147.425 75.6426C150.097 75.6865 169.4 83.2588 171.081 116.892C171.196 119.195 175.445 122.316 175.378 124.856C174.736 149.432 75.1387 148.682 74.9175 125.192C74.5821 89.6012 93.0594 78.7022 93.638 78.4083Z" fill="#FFD527"/>
<path d="M93.638 78.4083L147.425 75.6426C150.097 75.6865 169.4 83.2588 171.081 116.892C171.196 119.195 175.445 122.316 175.378 124.856C174.736 149.432 75.1387 148.682 74.9175 125.192C74.5821 89.6012 93.0594 78.7022 93.638 78.4083Z" stroke="#FA9016" stroke-width="3.51911" stroke-linecap="round" stroke-linejoin="round"/>
<path d="M141.742 136.471C151.688 135.602 163.791 133.235 167.826 128.591" stroke="#FCEE21" stroke-width="2.81529" stroke-linecap="round" stroke-linejoin="round" stroke-dasharray="15.48 5.28"/>
<path d="M79.3273 143.042L2.55269 174.489L2.21484 59.3887L78.9894 27.9421L79.3273 143.042Z" fill="#759297"/>
<path d="M79.3273 143.042L2.55269 174.489L2.21484 59.3887L78.9894 27.9421L79.3273 143.042Z" stroke="#759297" stroke-width="3.51911" stroke-linecap="round" stroke-linejoin="round"/>
<path d="M2.21484 59.3887L78.9894 27.9421L79.3273 143.042L2.55269 174.489" fill="#759297"/>
<path d="M2.21484 59.3887L78.9894 27.9421L79.3273 143.042L2.55269 174.489" stroke="#385659" stroke-width="3.51911" stroke-linecap="round" stroke-linejoin="round"/>
<path d="M2.55269 7.24438L2.21484 59.3878L78.9894 27.9412L2.55269 7.24438Z" fill="#627D7F"/>
<path d="M2.55269 7.24438L2.21484 59.3878L78.9894 27.9412L2.55269 7.24438Z" stroke="#627D7F" stroke-width="3.51911" stroke-linecap="round" stroke-linejoin="round"/>
<path d="M2.21484 59.3878L78.9894 27.9412L2.55269 7.24438" stroke="#385659" stroke-width="3.51911" stroke-linecap="round" stroke-linejoin="round"/>
<path d="M9.60422 68.3778L71.392 42.8596V80.9739L9.60422 106.492V68.3778Z" fill="#759297"/>
<path d="M9.60422 68.3778L71.392 42.8596V80.9739L9.60422 106.492V68.3778Z" stroke="#385659" stroke-width="3.51911" stroke-linecap="round" stroke-linejoin="round"/>
<g opacity="0.33">
<path d="M12.3829 70.686V102.515L68.6006 79.2969" stroke="#385659" stroke-width="2.81529" stroke-linecap="round" stroke-linejoin="round"/>
</g>
<path d="M68.1658 76.617V47.7271L17.5074 68.5037" stroke="#8CACAF" stroke-width="2.81529" stroke-linecap="round" stroke-linejoin="round"/>
<path d="M62.2956 50.1328L44.9977 57.2273" stroke="#AACECE" stroke-width="2.81529" stroke-linecap="round" stroke-linejoin="round"/>
<path d="M71.392 132.71L9.60422 158.124V120.547L71.392 95.1323V132.71Z" fill="#385659"/>
<path d="M71.392 132.71L9.60422 158.124V120.547L71.392 95.1323V132.71Z" stroke="#385659" stroke-width="3.51911" stroke-linecap="round" stroke-linejoin="round"/>
<path d="M71.3271 127.688L100.267 145.86V120.603L71.3271 102.431V127.688Z" fill="#627D7F"/>
<path d="M71.3271 127.688L100.267 145.86V120.603L71.3271 102.431V127.688Z" stroke="#385659" stroke-width="3.51911" stroke-linecap="round" stroke-linejoin="round"/>
<path d="M22.1437 138.539L76.0594 125.511C78.7941 124.85 81.2374 122.175 81.5163 119.536L85.3018 83.7325C85.5807 81.0938 83.5898 79.4905 80.855 80.1513L26.9393 93.1798C24.2046 93.8407 21.7613 96.5155 21.4824 99.1542L17.6969 134.958C17.418 137.597 19.4089 139.2 22.1437 138.539Z" fill="#F2B54D"/>
<path d="M22.1437 138.539L76.0594 125.511C78.7941 124.85 81.2375 122.175 81.5163 119.536L85.3018 83.7325C85.5807 81.0938 83.5898 79.4905 80.855 80.1513L26.9393 93.1798C24.2046 93.8407 21.7613 96.5155 21.4824 99.1542L17.6969 134.958C17.418 137.597 19.4089 139.2 22.1437 138.539Z" stroke="#AF8756" stroke-width="2.81528" stroke-miterlimit="10"/>
<path d="M41.9611 103.79C41.5063 104.474 40.7923 104.994 40.0661 105.17L25.3689 108.72C23.3485 109.208 21.8775 108.024 22.0835 106.074L22.8403 98.9093C23.0463 96.9598 24.8509 94.9835 26.8714 94.4954L41.5685 90.9447C42.2947 90.7693 42.9334 90.9622 43.2638 91.457L46.0952 95.6975C46.475 96.2665 46.3833 97.1366 45.86 97.9238L41.9611 103.79Z" fill="#F7EBDC"/>
<path d="M34.4814 99.6633C34.1454 102.225 31.9757 104.759 29.6352 105.325C27.2947 105.89 25.6697 104.273 26.0057 101.711C26.3418 99.1498 28.5117 96.6147 30.8522 96.0492C33.1927 95.4837 34.8174 97.102 34.4814 99.6633Z" fill="#FFD527"/>
<path d="M34.4814 99.6633C34.1454 102.225 31.9757 104.759 29.6352 105.325C27.2947 105.89 25.6697 104.273 26.0057 101.711C26.3418 99.1498 28.5117 96.6147 30.8522 96.0492C33.1927 95.4837 34.8174 97.102 34.4814 99.6633Z" stroke="#FAB916" stroke-width="1.75956"/>
<path d="M32.785 103.225C30.9056 105.421 28.2416 106.065 26.8344 104.663C25.4272 103.262 25.8096 100.346 27.6889 98.1508" stroke="#ED9802" stroke-width="1.75956" stroke-linecap="round" stroke-linejoin="round"/>
<path d="M27.3617 102.056C27.1643 102.033 26.9409 102.294 26.9709 102.509C27.1667 103.912 27.7181 104.91 29.7159 104.427C31.7211 103.943 32.9315 102.178 33.2625 100.859C33.3199 100.632 33.1545 100.503 32.9511 100.614C31.3436 101.493 28.6395 102.21 27.3617 102.056Z" fill="#8B2D01"/>
<path d="M27.3617 102.056C27.1643 102.033 26.9409 102.294 26.9709 102.509C27.1667 103.912 27.7181 104.91 29.7159 104.427C31.7211 103.943 32.9315 102.178 33.2625 100.859C33.3199 100.632 33.1545 100.503 32.9511 100.614C31.3436 101.493 28.6395 102.21 27.3617 102.056Z" stroke="#8B2D01" stroke-width="0.703823" stroke-linecap="round" stroke-linejoin="round"/>
<path d="M26.5055 102.158C25.8634 102.623 25.2638 103.204 24.8848 103.765C23.897 105.229 25.5783 105.628 26.0922 104.23C26.3433 103.546 26.5255 102.729 26.5055 102.158Z" fill="#00AFE5"/>
<path d="M33.5951 100.273C34.2347 100.473 34.7262 100.902 35.0228 101.336C35.639 102.236 33.9434 103.739 33.538 102.663C33.31 102.058 33.3794 101.03 33.5951 100.273Z" fill="#00AFE5"/>
<path d="M30.8381 99.9454C31.4262 99.2354 32.3234 98.8636 32.8481 99.4467C32.2816 99.3644 31.821 99.2819 30.8381 99.9454Z" stroke="#8B2D01" stroke-width="1.05573" stroke-linecap="round" stroke-linejoin="round"/>
<path d="M29.4087 100.291C28.9746 99.8278 28.119 99.8796 27.4021 100.763C28.0282 100.392 28.5413 100.075 29.4087 100.291Z" stroke="#8B2D01" stroke-width="1.05573" stroke-linecap="round" stroke-linejoin="round"/>
<path d="M32.4845 101.756C32.5828 101.52 32.6536 101.29 32.6955 101.077C32.7191 100.957 32.6277 100.89 32.5202 100.953C31.0969 101.776 28.5036 102.461 27.4344 102.25C27.3254 102.228 27.1944 102.374 27.2088 102.498C27.2329 102.705 27.2646 102.903 27.3078 103.088C27.3172 103.129 27.3428 103.157 27.3802 103.165C28.4001 103.39 30.6125 102.971 32.3769 101.884C32.4228 101.855 32.4627 101.808 32.4845 101.756Z" fill="white"/>
<path d="M30.3909 160.214L81.602 138.899C84.1996 137.818 86.5183 134.904 86.7809 132.39L92.1024 99.1619C92.365 96.6482 90.4719 95.4869 87.8743 96.568L36.6632 117.882C34.0656 118.963 31.7466 121.878 31.484 124.391L26.1628 157.62C25.9002 160.133 27.7933 161.295 30.3909 160.214Z" fill="#F2B54D"/>
<path d="M30.3909 160.214L81.602 138.899C84.1996 137.818 86.5183 134.904 86.7809 132.39L92.1024 99.1619C92.365 96.6482 90.4719 95.4869 87.8743 96.568L36.6632 117.882C34.0656 118.963 31.7466 121.878 31.484 124.391L26.1628 157.62C25.9002 160.133 27.7933 161.295 30.3909 160.214Z" stroke="#AF8756" stroke-width="2.81529" stroke-miterlimit="10"/>
<path d="M50.8594 125.565C50.4279 126.281 49.7496 126.888 49.0598 127.176L35.0997 132.986C33.1805 133.784 31.7824 132.926 31.9763 131.069L33.1282 124.244C33.3221 122.387 35.0348 120.235 36.954 119.436L50.9144 113.626C51.6042 113.338 52.2112 113.411 52.5256 113.817L55.2191 117.3C55.5806 117.768 55.494 118.597 54.9977 119.421L50.8594 125.565Z" fill="#F7EBDC"/>
<path d="M39.6964 128.819C38.012 130.219 35.5176 131.16 34.7262 129.934C34.1875 129.099 34.2382 127.825 34.8743 126.308C35.2949 125.305 36.73 123.31 36.7898 122.418C37.2751 122.651 37.6237 124.212 37.0376 125.802C37.7672 124.332 38.5169 120.807 38.2235 119.762C40.2382 119.385 40.7919 121.579 40.5174 123.932C40.8571 123.293 41.4428 121.815 41.6695 120.621C42.4892 121.028 42.9036 123.5 42.4323 124.92C41.961 126.34 40.8867 127.83 39.6964 128.819Z" fill="#FF9D00"/>
<path d="M39.6964 128.819C38.012 130.219 35.5176 131.16 34.7262 129.934C34.1875 129.099 34.2382 127.825 34.8743 126.308C35.2949 125.305 36.73 123.31 36.7898 122.418C37.2751 122.651 37.6237 124.212 37.0376 125.802C37.7672 124.332 38.5169 120.807 38.2235 119.762C40.2382 119.385 40.7919 121.579 40.5174 123.932C40.8571 123.293 41.4428 121.815 41.6695 120.621C42.4892 121.028 42.9036 123.5 42.4323 124.92C41.961 126.34 40.8867 127.83 39.6964 128.819Z" stroke="#FF9D00" stroke-width="1.75956" stroke-linecap="round" stroke-linejoin="round"/>
<path d="M38.3021 129.763C36.8564 130.556 35.3122 130.851 34.7206 129.934C34.1821 129.099 34.2328 127.825 34.8688 126.309C35.2535 125.391 36.4882 123.643 36.7405 122.669" stroke="#FA7800" stroke-width="1.75956" stroke-linecap="round" stroke-linejoin="round"/>
<path d="M37.4849 124.668C38.0341 122.983 38.4578 120.593 38.2252 119.764C38.39 119.733 38.545 119.719 38.6906 119.722" stroke="#FA7800" stroke-width="1.75956" stroke-linecap="round" stroke-linejoin="round"/>
<path d="M40.9774 122.89C41.2165 122.283 41.4594 121.555 41.6094 120.887" stroke="#FA7800" stroke-width="1.75956" stroke-linecap="round" stroke-linejoin="round"/>
<path d="M37.422 166.367L88.6311 145.054C91.2286 143.973 93.4949 140.932 93.6925 138.263L96.3736 102.04C96.5712 99.3708 94.6256 98.0832 92.0281 99.1642L40.8187 120.477C38.2212 121.558 35.9549 124.599 35.7573 127.268L33.0761 163.491C32.8785 166.16 34.8245 167.448 37.422 166.367Z" fill="#F2B54D"/>
<path d="M37.422 166.367L88.6311 145.054C91.2286 143.973 93.4949 140.932 93.6925 138.263L96.3736 102.04C96.5712 99.3708 94.6256 98.0832 92.0281 99.1642L40.8187 120.477C38.2212 121.558 35.9549 124.599 35.7573 127.268L33.0761 163.491C32.8785 166.16 34.8245 167.448 37.422 166.367Z" stroke="#AF8756" stroke-width="2.81529" stroke-miterlimit="10"/>
<path d="M55.8409 129.053C55.4239 129.804 54.7547 130.432 54.0649 130.719L40.1051 136.529C38.1861 137.328 36.7488 136.376 36.8946 134.404L37.4309 127.156C37.5767 125.184 39.2507 122.938 41.1697 122.139L55.1298 116.329C55.8196 116.042 56.4351 116.135 56.7641 116.577L59.5819 120.358C59.9601 120.866 59.895 121.746 59.4154 122.61L55.8409 129.053Z" fill="#F7EBDC"/>
<path d="M44.3797 122.563L45.155 124.95L47.644 124.252C48.1644 124.106 48.2978 124.816 47.863 125.417L45.7838 128.295L45.9894 131.128C46.0326 131.72 45.4285 132.444 44.9979 132.317L42.9375 131.709L40.5758 134.157C40.0819 134.669 39.5752 134.407 39.7436 133.727L40.5494 130.473L38.8842 129.154C38.5359 128.878 38.8269 127.992 39.3617 127.699L41.9202 126.296L43.2528 123.032C43.5313 122.35 44.2174 122.064 44.3797 122.563Z" fill="#FFD527"/>
<path d="M44.3797 122.563L45.155 124.95L47.644 124.252C48.1644 124.106 48.2978 124.816 47.863 125.417L45.7838 128.295L45.9894 131.128C46.0326 131.72 45.4285 132.444 44.9979 132.317L42.9375 131.709L40.5758 134.157C40.0819 134.669 39.5752 134.407 39.7436 133.727L40.5494 130.473L38.8842 129.154C38.5359 128.878 38.8269 127.992 39.3617 127.699L41.9202 126.296L43.2528 123.032C43.5313 122.35 44.2174 122.064 44.3797 122.563Z" stroke="#FAB916" stroke-width="1.40765" stroke-linecap="round" stroke-linejoin="round"/>
<path d="M45.3321 132.276C45.2212 132.329 45.1095 132.346 45.0071 132.316L42.9469 131.708L40.5853 134.156C40.0915 134.668 39.5849 134.406 39.7533 133.726L40.559 130.473L38.8939 129.154C38.7041 129.003 38.704 128.671 38.8302 128.353" stroke="#FA9016" stroke-width="1.40765" stroke-linecap="round" stroke-linejoin="round"/>
<path d="M159.879 92.6042C168.943 86.6117 174.969 77.3634 176.496 65.7872C179.742 41.1956 161.758 14.2067 135.633 10.7765C109.508 7.34635 85.1348 28.774 81.8894 53.3656C80.3576 64.9729 83.8079 75.4202 90.9147 83.4799" fill="#FFD527"/>
<path d="M159.879 92.6042C168.943 86.6117 174.969 77.3634 176.496 65.7872C179.742 41.1956 161.758 14.2067 135.633 10.7765C109.508 7.34635 85.1348 28.774 81.8894 53.3656C80.3576 64.9729 83.8079 75.4202 90.9147 83.4799" stroke="#FA9016" stroke-width="3.51797" stroke-linecap="round" stroke-linejoin="round"/>
<path d="M96.3106 38.4475C100.619 31.5622 107.053 25.8181 114.602 22.3095C118.174 20.6493 121.996 19.4898 125.96 18.9463" stroke="white" stroke-width="2.81438" stroke-linecap="round" stroke-linejoin="round" stroke-dasharray="24.63 5.28"/>
<path d="M160.523 34.8965C167.41 43.4508 170.969 54.5227 169.583 65.0331C168.605 72.4495 165.302 78.5433 160.41 83.1266" stroke="#FCEE21" stroke-width="2.81438" stroke-linecap="round" stroke-linejoin="round"/>
<path d="M91.9369 83.4012C83.1459 72.5991 71.5666 71.5297 69.477 80.7299C69.0892 82.4375 80.6881 79.6298 86.5706 92.264" fill="#FFD527"/>
<path d="M91.9369 83.4012C83.1459 72.5991 71.5666 71.5297 69.477 80.7299C69.0892 82.4375 80.6881 79.6298 86.5706 92.264" stroke="#FA9016" stroke-width="3.51911" stroke-linecap="round" stroke-linejoin="round"/>
<path d="M83.772 74.4134C83.0634 69.5913 84.5681 65.9386 87.1328 66.2545C89.6976 66.5704 92.3512 70.7354 93.06 75.5574C93.7686 80.3795 92.2639 84.0322 89.6991 83.7163C87.1344 83.4004 84.4808 79.2354 83.772 74.4134Z" fill="black"/>
<path d="M85.635 68.457C86.452 67.9914 87.575 68.8539 88.1433 70.3835C88.7117 71.913 88.5101 73.5306 87.6931 73.9962C86.8761 74.4618 85.7529 73.5994 85.1845 72.0698C84.6162 70.5402 84.8179 68.9226 85.635 68.457Z" fill="white"/>
<g opacity="0.6">
<path d="M91.9376 85.4074L85.1609 84.9171C83.9816 84.9015 82.773 84.1267 82.0547 82.926L77.6316 75.5322L96.1608 76.1769L94.3496 83.4889C94.0554 84.6763 93.117 85.4229 91.9376 85.4074Z" fill="#FFFFFE"/>
</g>
<path d="M93.3807 83.4468C100.002 80.3042 99.8429 70.8275 103.078 71.0747C106.802 71.3591 108.208 80.0811 114.143 80.8095C117.899 81.2703 119.973 87.1777 114.977 89.3382C109.794 91.5788 101.167 93.8103 93.6279 90.9772C89.6767 89.4925 88.7612 85.6391 93.3807 83.4468Z" fill="#FF5D1F"/>
<path d="M93.3807 83.4468C100.002 80.3042 99.8429 70.8275 103.078 71.0747C106.802 71.3591 108.208 80.0811 114.143 80.8095C117.899 81.2703 119.973 87.1777 114.977 89.3382C109.794 91.5788 101.167 93.8103 93.6279 90.9772C89.6767 89.4925 88.7612 85.6391 93.3807 83.4468Z" stroke="#CF3502" stroke-width="2.81506" stroke-miterlimit="10"/>
<g opacity="0.33">
<path d="M96.2492 85.1901C97.8881 84.5729 100.944 80.0088 101.756 77.1021" stroke="white" stroke-width="2.81506" stroke-linecap="round" stroke-linejoin="round"/>
</g>
<path d="M98.2637 89.4822C103.344 90.2686 109.347 89.1311 112.49 87.3892" stroke="#7D0909" stroke-width="2.81506" stroke-linecap="round" stroke-linejoin="round"/>
<path d="M127.24 67.0405C124.788 62.6955 120.018 60.8263 116.585 62.8652C113.152 64.9042 112.356 70.0792 114.807 74.4243C117.258 78.7693 122.028 80.6385 125.461 78.5996C128.894 76.5606 129.691 71.3856 127.24 67.0405Z" fill="black"/>
<path d="M118.112 64.3242C116.612 64.5215 115.628 65.9928 115.916 67.6103C116.203 69.2279 117.652 70.3794 119.153 70.1821C120.653 69.9849 121.636 68.5137 121.349 66.8961C121.062 65.2785 119.613 64.127 118.112 64.3242Z" fill="white"/>
<g opacity="0.6">
<path d="M121.198 85.3751L111.808 85.2515C110.629 85.236 109.42 84.4612 108.702 83.2604L104.278 75.8662L125.421 76.1443L123.61 83.4564C123.316 84.6439 122.377 85.3906 121.198 85.3751Z" fill="#FFFFFE"/>
</g>
<path d="M77.6316 75.5254L96.1649 76.1696C97.3533 71.8716 103.339 72.1885 104.282 75.8743L125.429 76.1513" stroke="#364675" stroke-width="3.51882" stroke-linecap="round" stroke-linejoin="round"/>
<path d="M46.5786 169.346L97.7865 148.035C100.384 146.954 102.378 143.929 102.241 141.279L100.379 105.323C100.242 102.673 98.0247 101.401 95.4273 102.482L44.2194 123.794C41.6219 124.875 39.6274 127.9 39.7648 130.549L41.6265 166.506C41.7639 169.156 43.9811 170.427 46.5786 169.346Z" fill="#F2B54D"/>
<path d="M46.5786 169.346L97.7865 148.035C100.384 146.954 102.378 143.929 102.241 141.279L100.379 105.323C100.242 102.673 98.0247 101.401 95.4273 102.482L44.2194 123.794C41.6219 124.875 39.6274 127.9 39.7648 130.549L41.6265 166.506C41.7639 169.156 43.9811 170.427 46.5786 169.346Z" stroke="#AF8756" stroke-width="2.81529" stroke-linecap="round" stroke-linejoin="round"/>
<path d="M60.7215 131.92C60.3792 132.667 59.7554 133.292 59.0656 133.579L45.1062 139.389C43.1871 140.187 41.5492 139.248 41.4479 137.29L41.0749 130.095C40.9736 128.137 42.4467 125.903 44.3658 125.105L58.3256 119.295C59.0153 119.008 59.6762 119.098 60.0799 119.535L63.539 123.28C64.0031 123.782 64.0486 124.656 63.6548 125.515L60.7215 131.92Z" fill="#F7EBDC"/>
<path d="M49.1818 127.764C47.4001 125.918 44.2972 128.765 44.2905 131.359C44.2829 134.283 49.5642 135.333 49.5921 135.321C49.6201 135.308 55.0471 129.687 54.382 126.835C53.8735 124.655 50.7011 124.654 49.1818 127.764Z" fill="#FF0000"/>
<path d="M49.1818 127.764C47.4001 125.918 44.2972 128.765 44.2905 131.359C44.2829 134.283 49.5642 135.333 49.5921 135.321C49.6201 135.308 55.0471 129.687 54.382 126.835C53.8735 124.655 50.7011 124.654 49.1818 127.764Z" stroke="#FF0000" stroke-width="1.75956" stroke-linecap="round" stroke-linejoin="round"/>
<path d="M46.0498 127.91C45.0566 128.716 44.286 130.07 44.2828 131.361C44.2756 134.13 49.0123 135.218 49.5354 135.314" stroke="#D70000" stroke-width="1.75956" stroke-linecap="round" stroke-linejoin="round"/>
<path d="M9.80365 151.946L38.7439 170.118V144.861L9.80365 126.689V151.946Z" fill="#627D7F"/>
<path d="M9.80365 151.946L38.7439 170.118V144.861L9.80365 126.689V151.946Z" stroke="#385659" stroke-width="3.51911" stroke-linecap="round" stroke-linejoin="round"/>
<path d="M38.7445 135.526L102.29 108.865V146.98L38.7445 173.641V135.526Z" fill="#759297"/>
<path d="M38.7445 135.526L102.29 108.865V146.98L38.7445 173.641V135.526Z" stroke="#385659" stroke-width="3.51911" stroke-linecap="round" stroke-linejoin="round"/>
<g opacity="0.33">
<path d="M41.5275 137.835V169.664L99.503 145.303" stroke="#385659" stroke-width="2.81529" stroke-linecap="round" stroke-linejoin="round"/>
</g>
<path d="M98.7089 142.624V114.085L46.6446 136.004" stroke="#8CACAF" stroke-width="2.81529" stroke-linecap="round" stroke-linejoin="round"/>
<path d="M93.1946 116.41L75.8967 123.554" stroke="#AACECE" stroke-width="2.81529" stroke-linecap="round" stroke-linejoin="round"/>
<path d="M104.752 96.8765C89.6818 97.9311 83.9066 107.874 85.1667 111.516C86.1553 114.373 96.4596 109.658 110.923 111.207" fill="#FFD527"/>
<path d="M104.752 96.8765C89.6818 97.9311 83.9066 107.874 85.1667 111.516C86.1553 114.373 96.4596 109.658 110.923 111.207" stroke="#FA9016" stroke-width="3.51911" stroke-linecap="round" stroke-linejoin="round"/>
<path d="M91.3077 106.147C93.0019 103.535 96.0222 102.091 98.1481 101.455" stroke="white" stroke-width="2.81529" stroke-linecap="round" stroke-linejoin="round"/>
</g>
</g>
</g>
<defs>
<clipPath id="clip0_1_2478">
<rect width="180" height="180" fill="white"/>
</clipPath>
<clipPath id="clip1_1_2478">
<rect width="180" height="180" fill="white"/>
</clipPath>
</defs>
</svg>
