<svg fill="none" height="120" viewBox="0 0 120 120" width="120" xmlns="http://www.w3.org/2000/svg" xmlns:xlink="http://www.w3.org/1999/xlink"><clipPath id="a"><path d="m0 0h120v120h-120z"/></clipPath><mask id="b" height="120" maskUnits="userSpaceOnUse" width="120" x="0" y="0"><path d="m120 0h-120v120h120z" fill="#fff"/></mask><mask id="c" height="120" maskUnits="userSpaceOnUse" width="120" x="0" y="0"><path d="m0 0h120v120h-120z" fill="#fff"/></mask><g clip-path="url(#a)"><g mask="url(#b)"><g mask="url(#c)"><path d="m92.0685 68.8633-6.8035-1.1433-53.4822-3.0066-9.6762-.5484c-1.2015 5.0924-1.8412 10.0688-1.8412 14.5702 0 22.9608 16.6414 38.6648 39.6024 38.6648 22.9609 0 39.6023-15.704 39.6023-38.6648 0-3.7484-.4438-7.8264-1.2859-12.0263z" fill="#cfc5b7"/><path d="m92.0685 68.8633-6.8035-1.1433-53.4822-3.0066-9.6762-.5484c-1.2015 5.0924-1.8412 10.0688-1.8412 14.5702 0 22.9608 16.6414 38.6648 39.6024 38.6648 22.9609 0 39.6023-15.704 39.6023-38.6648 0-3.7484-.4438-7.8264-1.2859-12.0263z" stroke="#b7ac9a" stroke-linecap="round" stroke-linejoin="round" stroke-width="2.22656"/><path d="m57.5951 92.75c-12.2813 1.0647-30.777 1.3685-30.5728-7.2444.108-32.8977 26.7479-38.9551 32.2596-38.3306 17.6764 2.0693 32.2857 10.4557 32.7801 32.8047.8072 9.3109-20.1852 11.5322-34.4669 12.7703z" fill="#ffd527"/><path d="m57.5951 92.75c-12.2813 1.0647-30.777 1.3685-30.5728-7.2444.108-32.8977 26.7479-38.9551 32.2596-38.3306 17.6764 2.0693 32.2857 10.4557 32.7801 32.8047.8072 9.3109-20.1852 11.5322-34.4669 12.7703z" stroke="#fa9016" stroke-linecap="round" stroke-linejoin="round" stroke-width="2.22656"/><path d="m39.3024 59.84c-8.7026 1.435-17.2567 1.4402-18.6505 3.0987-1.3939 1.6584 5.7654 9.8012 12.5289 10.9674" fill="#ffd527"/><path d="m39.3024 59.84c-8.7026 1.435-17.2567 1.4402-18.6505 3.0987-1.3939 1.6584 5.7654 9.8012 12.5289 10.9674" stroke="#fa9016" stroke-linecap="round" stroke-linejoin="round" stroke-width="2.22656"/><path d="m24.2846 64.9392c.8347-.0824 3.3235-.3233 6.3334-.5175" stroke="#fff" stroke-linecap="round" stroke-linejoin="round" stroke-width="1.875"/><path d="m76.0612 53.7987c13.0025-8.6369 20.6882-15.5432 23.6114-14.6737 3.5104.7156-4.1958 17.3842-13.2252 33.6097" fill="#ffd527"/><path d="m76.0612 53.7987c13.0025-8.6369 20.6882-15.5432 23.6114-14.6737 3.5104.7156-4.1958 17.3842-13.2252 33.6097" stroke="#fa9016" stroke-linecap="round" stroke-linejoin="round" stroke-width="2.22656"/><path d="m93.2074 9.44954c-9.141-6.98201-22.4592-6.26701-35.299-1.60424l.6574 8.6912 14.8201 4.4861 3.958 9.8568 11.2587-1.5618 5.7333 12.268 5.1345-2.3409 3.7296 3.3971c1.634-13.3231-.809-26.1778-9.9926-33.19226z" fill="#cec5b6"/><path d="m93.2074 9.44954c-9.141-6.98201-22.4592-6.26701-35.299-1.60424l.6574 8.6912 14.8201 4.4861 3.958 9.8568 11.2587-1.5618 5.7333 12.268 5.1345-2.3409 3.7296 3.3971c1.634-13.3231-.809-26.1778-9.9926-33.19226z" stroke="#b7ac9a" stroke-linecap="round" stroke-linejoin="round" stroke-width="2.22667"/><path d="m99.091 37.072-3.8132 1.7037-4.7016-10.7374c-.3375-.722-1.1251-1.1433-1.929-1.0317l-9.9222 1.4837-3.2782-8.546c-.2034-.5066-.6339-.8966-1.1679-1.0582l-13.9279-3.8698" opacity=".5" stroke="#eae5dc" stroke-linecap="round" stroke-linejoin="round" stroke-width="2.34386"/><path d="m88.8706 65.233c3.3927-3.9102 5.3129-8.7841 5.3551-14.317.1167-15.2727-14.0224-30.5403-31.6058-30.8276-17.5831-.2874-31.9521 14.514-32.0687 29.7867-.0482 6.3077 2.356 11.8073 6.5567 16.0574" fill="#ffd527"/><path d="m88.8706 65.233c3.3927-3.9102 5.3129-8.7841 5.3551-14.317.1167-15.2727-14.0224-30.5403-31.6058-30.8276-17.5831-.2874-31.9521 14.514-32.0687 29.7867-.0482 6.3077 2.356 11.8073 6.5567 16.0574" stroke="#fa9016" stroke-linecap="round" stroke-linejoin="round" stroke-width="2.22631"/><path d="m36.2543 45.5209c1.021-4.1446 5.372-16.3413 21.4863-18.8808" stroke="#fff" stroke-linecap="round" stroke-linejoin="round" stroke-width="1.87478"/><path d="m73.3988 54.1886c-8.4688-1.5485-6.0539-5.8161-8.7646-6.1084-3.3639-.3627-1.6339 4.8189-10.0366 4.6945-4.2386-.1371-3.6998 3.3509-.6324 4.2976 1.55 5.2527 5.5329 7.4478 9.5824 7.8133 4.0496.3655 7.747-2.5159 9.9533-6.8736 3.2879.3045 3.3957-3.324-.1021-3.8234z" fill="#ff5d1f"/><path d="m73.3988 54.1886c-8.4688-1.5485-6.0539-5.8161-8.7646-6.1084-3.3639-.3627-1.6339 4.8189-10.0366 4.6945-4.2386-.1371-3.6999 3.3509-.6324 4.2976 1.55 5.2527 5.5329 7.4478 9.5824 7.8133 4.0496.3655 7.747-2.5159 9.9533-6.8736 3.2879.3045 3.3957-3.324-.1021-3.8234z" stroke="#cf3502" stroke-linecap="round" stroke-linejoin="round" stroke-width="1.78105"/><path d="m54.4427 56.9629c5.2246.7113 11.1201 1.7101 18.993 1.0367" stroke="#7d0909" stroke-linecap="round" stroke-linejoin="round" stroke-width="1.78105"/><path d="m56.5845 57.3119c1.0626 1.4598 3.187 4.1452 6.8809 4.4626 2.5163.2163 5.2808-.8073 7.4711-3.5707-3.2486.3237-10.7088-.3457-14.352-.8919z" fill="#7d0909"/><path d="m56.5845 57.3119c1.0626 1.4598 3.187 4.1452 6.8809 4.4626 2.5163.2163 5.2808-.8073 7.4711-3.5707-3.2486.3237-10.7088-.3457-14.352-.8919z" stroke="#7d0909" stroke-linecap="round" stroke-linejoin="round" stroke-width="1.78105"/><path d="m55.9114 54.5729c1.8714-.0402 5.132-.6434 6.6297-2.9173" opacity=".33" stroke="#fff" stroke-linecap="round" stroke-linejoin="round" stroke-width="1.78105"/><path d="m54.5027 45.1741c.5113.34-1.1548 3.5339-6.5994 3.0018-3.7931-.3792-5.703-3.383-5.1245-3.6611.4201-.202 1.1707 1.6649 5.4656 2.0629 5.4517.5035 6.0257-1.5581 6.2583-1.4036z" fill="#000"/><path d="m54.5027 45.1741c.5113.34-1.1548 3.5339-6.5994 3.0018-3.7931-.3792-5.703-3.383-5.1245-3.6611.4201-.202 1.1707 1.6649 5.4656 2.0629 5.4517.5035 6.0257-1.5581 6.2583-1.4036z" stroke="#000" stroke-linecap="round" stroke-linejoin="round" stroke-width="1.76007"/><path d="m47.9026 48.0244c-.1229.1121-.8124-.0204-1.5395-.2957s-1.2168-.5898-1.0939-.7018c.1229-.1121.8122.0203 1.5393.2957.7271.2753 1.217.5897 1.0941.7018z" fill="#000"/><path d="m85.7014 48.6362c.4819.3367-1.1129 3.5385-6.2615 3.0387-3.5868-.3566-5.3767-3.3472-4.8278-3.6286.3987-.2043 1.0982 1.657 5.1597 2.0294 5.1554.4711 5.7104-1.5926 5.9296-1.4395z" fill="#000"/><path d="m85.7014 48.6362c.4819.3367-1.1129 3.5385-6.2615 3.0387-3.5868-.3566-5.3767-3.3472-4.8278-3.6286.3987-.2043 1.0982 1.657 5.1597 2.0294 5.1554.4711 5.7104-1.5926 5.9296-1.4395z" stroke="#000" stroke-linecap="round" stroke-linejoin="round" stroke-width="1.7115"/><path d="m79.4398 51.5239c-.1169.1127-.7685-.0155-1.4549-.2864s-1.148-.5822-1.031-.695c.1169-.1127.7683.0156 1.4547.2865.6864.2708 1.1482.5822 1.0312.6949z" fill="#000"/><path d="m93.2074 9.44954c-9.141-6.98201-22.4592-6.26701-35.299-1.60424l4.5607 5.7419 14.7133.8748 3.4346 11.3539 12.5735-2.6141 4.4341 13.3185 4.0274-.9182 1.548 7.0397c1.634-13.3231-.809-26.1778-9.9926-33.19226z" fill="#e0d8cb"/><path d="m93.2074 9.44954c-9.141-6.98201-22.4592-6.26701-35.299-1.60424l4.5607 5.7419 14.7133.8748 3.4346 11.3539 12.5735-2.6141 4.4341 13.3185 4.0274-.9182 1.548 7.0397c1.634-13.3231-.809-26.1778-9.9926-33.19226z" stroke="#b7ac9a" stroke-linecap="round" stroke-linejoin="round" stroke-width="2.22667"/><path d="m101.442 33.9419-2.4981.1281-3.821-12.1908c-.3375-.722-1.1249-1.1435-1.9289-1.0319l-11.0798 2.6446-3.1608-10.3401c-.2034-.5066-.6337-.8967-1.1677-1.0583l-14.128-.4767-1.9567-2.17813" stroke="#fff" stroke-linecap="round" stroke-linejoin="round" stroke-width="2.34386"/><path d="m93.5355 8.92279c-9.1833-7.0143-22.5825-6.26089-35.4771-1.53969 1.9788 3.0906 4.3041 5.9423 4.3041 5.9423l14.6728 1.1379 3.5771 11.2378 12.286-2.2045 5.0925 12.7077 3.5371-.3586s.562 3.3666 1.024 3.4085c1.736-9.6987-.034-18.5081-4.7706-26.1014-1.2155-1.5719-2.6254-2.9923-4.2459-4.23001z" fill="#fff" opacity=".33"/><path d="m88.2175 7.23845c-10.2191-4.37481-19.0487-3.02176-30.3677.32898 2.0627 2.65977 4.348 6.06967 4.348 6.06967l14.7669.8645 3.7083 11.2701 12.7089-2.757s.4712 1.2768 1.0404 3.187c.4949 1.6604 1.0638 3.7995 1.462 5.9942 2.6237-7.1627 1.5034-17.9531-7.6668-24.95745z" fill="#fff" opacity=".33"/><path d="m93.2074 9.44954c-9.141-6.98201-22.4592-6.26701-35.299-1.60424l4.5607 5.7419 14.7133.8748 3.4346 11.3539 12.5735-2.6141 4.4341 13.3185 4.0274-.9182 1.548 7.0397c1.634-13.3231-.809-26.1778-9.9926-33.19226z" stroke="#b7ac9a" stroke-linecap="round" stroke-linejoin="round" stroke-width="2.22667"/><path d="m93.9435 71.9101-8.6785-4.1901-3.4215 15.9573-8.0277-13.2826-7.3026 6.2927-3.0994-2.552-6.995 4.9857-7.0137-13.6025-9.0351 4.7773-3.9464 7.7887-4.1806 1.4486-2.3352-11.5385-7.8012-3.8297c-1.2015 5.0924-1.8412 10.0688-1.8412 14.5702 0 22.9608 16.6414 38.6648 39.6024 38.6648 22.9609 0 39.6023-15.704 39.6023-38.6648 0-3.7484-.4438-7.8264-1.2859-12.0263z" fill="#e0d8cb"/><path d="m22.1268 64.6506c-.3242 1.4139-.6047 2.8178-.8399 4.2042 1.417 18.9904 15.9206 31.7422 35.5573 31.7422 18.8915 0 33.0338-11.8013 35.3418-29.6064-2.6142-1.2906-6.5091-3.1611-6.5091-3.1611l-4.0927 15.1889-7.7264-12.5048-7.756 6.4168-2.9433-2.934-6.8408 4.5422-7.1676-13.2594-8.924 4.9209-3.695 7.8415-4.3086.975-2.5586-11.3209s-7.2129-4.4589-7.5371-3.0451z" fill="#fff" opacity=".33"/><path d="m49.5908 65.667-8.996 4.4527s-1.5575 2.2751-3.2083 7.1771c4.5805 3.6571 10.6003 5.7327 17.4552 5.7327 8.7388 0 16.1201-3.373 20.8927-9.0955-.5413-1.2166-2.1266-3.3289-2.1266-3.3289l-7.3753 6.2221-2.7168-2.797-7.1502 5.2052z" fill="#fff" opacity=".33"/><g stroke-linecap="round" stroke-linejoin="round"><path d="m93.9435 71.9101-8.6785-4.1901-3.4215 15.9573-8.0277-13.2826-7.3026 6.2927-3.0994-2.552-6.995 4.9857-7.0137-13.6025-9.0351 4.7773-3.9464 7.7887-4.1806 1.4486-2.3352-11.5385-7.8012-3.8297c-1.2015 5.0924-1.8412 10.0688-1.8412 14.5702 0 22.9608 16.6414 38.6648 39.6024 38.6648 22.9609 0 39.6023-15.704 39.6023-38.6648 0-3.7484-.4438-7.8264-1.2859-12.0263z" stroke="#b7ac9a" stroke-width="2.22656"/><path d="m98.1829 66.7088-4.2407 5.2012-8.6785-4.1902-3.4215 15.9574-8.0277-13.2826-7.3027 6.2927-3.0993-2.5521-6.995 4.9858-7.0137-13.6026-9.0351 4.7774-3.9464 7.7887-4.1806 1.4486-2.3352-11.5385-7.8012-3.8297" stroke="#b7ac9a" stroke-width="2.22656"/><path d="m23.6815 67.4185 4.2614 2.092 2.0707 10.2324c.2921 1.444 1.7901 2.299 3.182 1.8167l3.878-1.3438c.5962-.2066 1.089-.6365 1.3742-1.1994l3.5885-7.0831 6.421-3.3949 5.873 11.3907c.6793 1.3174 2.3684 1.7267 3.5754.8663l5.4103-3.8562 1.6473 1.3562c.9144.7531 2.2381.7384 3.1354-.0349l5.1743-4.4589 6.3947 10.5806c1.14 1.8863 4 1.4065 4.4623-.7486l2.7184-12.6767 5.9798 2.8874c1.0145.4899 2.2326.2193 2.9445-.6537l1.0179-1.2489" stroke="#fff" stroke-width="1.78125"/></g></g></g></g></svg>