<svg width="120" height="120" viewBox="0 0 120 120" fill="none" xmlns="http://www.w3.org/2000/svg">
<g clip-path="url(#clip0_1_243)">
<mask id="mask0_1_243" style="mask-type:luminance" maskUnits="userSpaceOnUse" x="0" y="0" width="120" height="120">
<path d="M120 0H0V120H120V0Z" fill="white"/>
</mask>
<g mask="url(#mask0_1_243)">
<mask id="mask1_1_243" style="mask-type:luminance" maskUnits="userSpaceOnUse" x="0" y="0" width="120" height="120">
<path d="M0 0H120V120H0V0Z" fill="white"/>
</mask>
<g mask="url(#mask1_1_243)">
<path d="M94.6876 107.977C85.2716 86.0767 85.5182 73.777 89.5991 67.252C91.9846 63.4378 93.3655 60.1161 91.1057 54.3332C86.5466 42.6672 77.9287 45.4556 73.5123 30.8966C69.1433 16.4938 65.8703 8.68628 45.6571 8.68628C25.4439 8.68628 25.1929 20.6208 21.9285 31.4481C18.6644 42.2753 11.508 49.0426 12.6379 60.3621C13.7678 71.6815 15.224 71.7984 16.4795 83.241C17.7351 94.6836 12.2774 107.971 12.2774 107.971L94.6876 107.977Z" fill="#19A02E"/>
<path d="M94.6876 107.977C85.2716 86.0767 85.5182 73.777 89.5991 67.252C91.9846 63.4378 93.3655 60.1161 91.1057 54.3332C86.5466 42.6672 77.9287 45.4556 73.5123 30.8966C69.1433 16.4938 65.8703 8.68628 45.6571 8.68628C25.4439 8.68628 25.1929 20.6208 21.9285 31.4481C18.6644 42.2753 11.508 49.0426 12.6379 60.3621C13.7678 71.6815 15.224 71.7984 16.4795 83.241C17.7351 94.6836 12.2774 107.971 12.2774 107.971L94.6876 107.977Z" stroke="#07821A" stroke-width="2.32019" stroke-linecap="round" stroke-linejoin="round"/>
<path d="M48.4928 8.69845C65.9329 9.43001 68.6179 13.5044 71.6592 25.1234C55.8513 28.3599 34.2703 27.311 23.5537 25.3113C26.6369 16.2777 30.1363 7.92854 48.4928 8.69845ZM21.5413 32.5896H21.5409C17.0498 42.1825 9.60838 48.5564 9.34096 60.3618C9.15041 68.7744 14.4339 76.2874 16.2946 81.5183C16.3265 81.5243 34.3394 66.5391 21.5413 32.5896ZM90.2477 67.252C92.2223 63.4378 93.3656 60.1158 91.4948 54.333C87.7209 42.6669 77.1131 45.2569 73.4756 30.8615C76.2916 64.2541 87.1143 81.0597 87.1225 81.0895C86.4004 75.2279 88.4362 70.7511 90.2477 67.252Z" fill="#0FD117"/>
<path d="M48.4928 8.69845C65.9329 9.43001 68.6179 13.5044 71.6592 25.1234C55.8513 28.3599 34.2703 27.311 23.5537 25.3113C26.6369 16.2777 30.1363 7.92854 48.4928 8.69845ZM21.5413 32.5896H21.5409C17.0498 42.1825 9.60838 48.5564 9.34096 60.3618C9.15041 68.7744 14.4339 76.2874 16.2946 81.5184C16.3265 81.5243 34.3394 66.5391 21.5413 32.5896ZM90.2477 67.252C92.2223 63.4378 93.3656 60.1158 91.4948 54.333C87.7209 42.6669 77.1131 45.2569 73.4756 30.8615C76.2916 64.2541 87.1143 81.0597 87.1225 81.0895C86.4004 75.2279 88.4362 70.7511 90.2477 67.252Z" stroke="#078119" stroke-width="2.32019" stroke-linecap="round" stroke-linejoin="round"/>
<g opacity="0.4">
<path d="M16.8871 70.2043C15.8012 70.5679 15.2631 70.4859 15.0058 70.4997C14.8281 70.468 14.4679 70.485 13.9839 70.2034C12.0137 69.0368 11.8546 64.7065 10.0098 62.6329C10.3047 65.6638 11.0291 68.6006 11.8958 71.3534C15.3857 74.5548 20.493 70.9214 23.9385 68.7157C24.2057 67.7751 24.4499 66.7813 24.663 65.7373C21.9997 67.1766 19.2937 69.3988 16.8871 70.2043Z" fill="#07821A"/>
<path d="M17.7087 57.2102C20.5327 57.9452 23.0614 56.9056 25.5819 55.9807C25.5781 55.2496 25.5594 54.4997 25.5247 53.7355C23.029 54.5796 19.5936 56.3431 17.1772 54.6696C15.3148 53.3799 14.7362 50.3464 13.2406 48.3222C12.8026 49.1169 12.3915 49.9195 12.0176 50.7381C13.19 53.0726 14.169 56.2889 17.7087 57.2102Z" fill="#07821A"/>
<path d="M13.3458 75.5472C13.6181 76.2836 13.8895 77.0007 14.153 77.6955C16.9655 77.5935 19.7489 75.5481 22.0535 73.8795C22.5621 72.7609 23.0501 71.5277 23.4921 70.1783C20.2751 72.2613 15.9579 76.1796 13.3458 75.5472Z" fill="#07821A"/>
<path d="M17.2376 60.2981C13.9263 59.6527 14.044 54.4845 11.3747 52.2599C11.058 53.0786 10.7824 53.9165 10.5567 54.7794C11.7551 56.8192 12.3187 60.1095 14.9353 61.6597C18.5266 63.7873 23.0855 61.1394 25.4428 60.0613C25.5007 59.2854 25.5415 58.4875 25.5635 57.6677C22.6497 58.8281 19.8058 60.7917 17.2376 60.2981Z" fill="#07821A"/>
<path d="M15.0437 65.0223C12.748 63.573 12.8331 58.7638 10.1068 56.9603C9.94696 58.0196 9.86516 59.1212 9.87594 60.2751C11.0225 62.7654 11.7214 66.9482 15.8134 67.4659C19.0724 67.8782 22.1258 65.7835 24.9402 64.2441C25.0808 63.4046 25.2015 62.5343 25.299 61.6321C21.9969 63.1536 17.6319 66.6384 15.0437 65.0223Z" fill="#07821A"/>
<path d="M24.0688 42.8274C23.9125 42.0993 23.7425 41.3609 23.5588 40.6107C21.7989 40.2136 20.4723 39.4039 19.4387 38.2612C19.0522 38.9294 18.6571 39.584 18.2579 40.2287C19.82 41.662 21.8568 42.5265 24.0688 42.8274Z" fill="#07821A"/>
<path d="M25.4082 51.8668C25.354 51.1678 25.2868 50.4574 25.2055 49.7323C18.5293 51.4333 17.7725 49.7527 15.2147 45.0092C14.7308 45.7775 14.2599 46.5435 13.8106 47.315C16.2694 52.0393 19.2308 53.441 25.4082 51.8668Z" fill="#07821A"/>
<path d="M45.3703 21.282C45.6717 21.4414 45.9691 21.5681 46.2726 21.6575C47.1513 21.9161 48.0279 21.8311 48.731 21.3015C49.6647 20.5982 49.9901 19.3563 50.1644 18.2627C50.7902 14.2204 49.7932 12.8673 51.4275 8.64248C50.6639 8.61124 49.8651 8.59034 49.0326 8.57977C47.8772 11.8457 48.244 13.148 48.0464 16.4748C47.8671 19.4925 47.2558 19.6739 47.2474 19.7038C47.1773 19.7208 47.0451 19.6884 46.976 19.6682C43.3781 18.6144 42.3991 12.3595 38.6318 9.47601C37.6289 9.70892 36.701 9.98339 35.8399 10.2962C40.4585 12.3524 40.3444 18.6245 45.3703 21.282Z" fill="#07821A"/>
<path d="M24.9251 47.5632C24.8258 46.8827 24.714 46.1906 24.5897 45.4882C20.7805 45.8436 18.8869 44.5663 17.2472 41.8316C16.7944 42.5409 16.3426 43.24 15.8965 43.9365C17.8517 46.6438 20.6996 47.9693 24.9251 47.5632Z" fill="#07821A"/>
<path d="M45.0222 15.6571C45.7115 16.2479 46.8468 15.8611 46.9447 15.0035C47.1948 12.8157 46.948 10.6357 46.9405 8.57611C46.1479 8.58645 45.3857 8.61309 44.6509 8.65558C44.6556 9.3621 44.684 10.0583 44.7114 10.743C44.3647 10.0571 43.9846 9.38553 43.5723 8.73092C42.7037 8.80212 41.8757 8.89698 41.088 9.01367C43.517 12.5545 43.3295 14.2067 45.0222 15.6571Z" fill="#07821A"/>
<path d="M86.0101 45.833C85.4849 45.3945 84.9494 44.9678 84.4087 44.5417C82.1936 47.0575 78.958 48.7737 75.5294 48.2787C75.633 48.9712 75.7424 49.6511 75.8575 50.3225C79.7413 50.639 83.4051 48.7907 86.0101 45.833Z" fill="#07821A"/>
<path d="M90.2297 50.3478C89.8017 49.6978 89.3353 49.0979 88.8394 48.534C83.4558 49.6774 81.0553 55.1708 77.0079 55.9885C77.1637 56.6502 77.3243 57.2982 77.489 57.934C82.6366 56.8698 84.8958 50.7757 90.2297 50.3478Z" fill="#07821A"/>
<path d="M92.7652 57.6773C86.9407 57.8755 85.9193 65.735 86.6569 71.2815C86.7005 71.6088 86.9053 71.88 87.1854 72.0309C87.4071 70.5288 87.8168 69.1927 88.5469 68.0165C88.5654 64.6793 89.3257 59.8678 92.7966 59.674C92.8416 59.049 92.8332 58.387 92.7652 57.6773Z" fill="#07821A"/>
<path d="M91.5405 54.6838C91.6294 54.6988 91.8705 54.7201 92.2296 54.8311C92.0203 54.0582 91.7693 53.3425 91.4817 52.6736C87.7826 52.3929 85.1231 54.9971 83.6597 58.5019C82.3439 61.6528 81.8165 65.4596 80.1602 66.4431C80.4042 67.0975 80.6494 67.7285 80.894 68.3371C84.7141 66.598 84.1261 59.5215 87.5395 56.1731C89.4909 54.2589 91.5712 54.679 91.5405 54.6838Z" fill="#07821A"/>
<path d="M82.479 43.0131C81.9441 42.5797 81.4133 42.1353 80.8941 41.6702C79.0883 43.0568 76.3142 43.7426 74.8222 42.3399C74.8955 43.1659 74.978 43.9794 75.0687 44.7801C77.5255 45.6458 80.4556 44.6903 82.479 43.0131Z" fill="#07821A"/>
<path d="M37.7745 26.9006C36.8647 21.9065 32.7404 17.9742 27.4686 16.8364C27.0692 17.4568 26.7088 18.0996 26.3788 18.7625C30.9927 19.5343 34.6726 22.865 35.4966 27.1438C36.2455 27.1679 37.0077 27.187 37.7816 27.2008C37.7898 27.1397 37.7954 27.1105 37.7745 26.9006Z" fill="#07821A"/>
<path d="M64.1186 21.2564C63.5022 23.11 63.4019 25.2551 63.5029 25.6102C64.2614 25.4928 65.0144 25.3681 65.7588 25.2362C65.8242 22.4393 66.7371 19.4187 69.3773 18.0222C69.0705 17.3476 68.7499 16.7148 68.4077 16.1218C66.2249 17.2109 64.8468 19.067 64.1186 21.2564Z" fill="#07821A"/>
<path d="M61.3973 10.2261C60.5052 9.90359 59.5241 9.63187 58.439 9.40839C53.5391 12.8532 53.6441 19.1118 51.3873 23.4267C50.9582 24.2473 49.9208 25.7787 49.2983 26.1002C49.0312 26.2383 48.6505 26.1951 48.3447 26.1455C41.2544 24.998 40.8906 14.9482 31.1788 12.7878C30.4457 13.345 29.7897 13.9475 29.1993 14.5876C38.0929 15.4708 38.5719 23.7691 44.9083 27.1766C47.1388 27.1223 49.4139 27.0238 51.6983 26.8745C56.4231 21.659 54.8237 12.7343 61.3973 10.2261Z" fill="#07821A"/>
<path d="M32.7803 26.0267C31.2374 23.4 28.7526 21.2738 25.7955 20.0238C25.5175 20.6697 25.2625 21.3303 25.0237 22.0019C27.4033 23.052 29.4332 24.7985 30.7009 26.9112C31.3734 26.9555 32.0641 26.996 32.7693 27.0316C32.954 26.7309 32.9718 26.3531 32.7803 26.0267Z" fill="#07821A"/>
<path d="M66.7079 13.7286C66.2148 13.1705 65.6774 12.6636 65.0847 12.2049C63.2591 13.3699 61.3869 15.2986 60.1166 17.6136C57.9486 21.5647 58.3475 25.6101 58.7366 26.248C59.4444 26.1671 60.1487 26.081 60.85 25.9889C60.9571 25.5909 60.7347 25.2874 60.7347 23.9141C60.7349 19.5262 63.7009 15.4651 66.7079 13.7286Z" fill="#07821A"/>
</g>
<g opacity="0.33">
<path d="M28.008 23.5299C29.0627 19.3955 31.9923 13.2971 40.6642 12.608M17.7227 45.9497C18.2948 44.7721 20.0716 42.0841 20.508 41.2285" stroke="white" stroke-width="4.64039" stroke-linecap="round" stroke-linejoin="round"/>
</g>
<g opacity="0.2">
<path d="M74.0625 31.904C51.0938 21.9126 29.4696 31.2588 22.8516 39.7134C16.2891 48.097 11.2275 50.2521 10.4297 53.3798C9.49219 57.0548 9.96094 63.1415 9.96094 63.1415L19.3809 61.6398L18.723 101.137L86.0189 101.25L82.6172 49.2454C82.6172 49.2454 77.9297 41.6657 74.0625 31.904Z" fill="#082944"/>
</g>
<path d="M94.9598 98.1836C90.6273 74.6533 68.8843 67.7231 53.5088 69.7546C16.8291 74.6006 19.5824 100.235 21.2898 101.803C28.0509 108.011 96.7544 107.931 94.9598 98.1836Z" fill="#FFD527"/>
<path d="M94.9598 98.1836C90.6273 74.6533 68.8843 67.7231 53.5088 69.7546C16.8291 74.6006 19.5824 100.235 21.2898 101.803C28.0509 108.011 96.7544 107.931 94.9598 98.1836Z" stroke="#FA9016" stroke-width="2.461" stroke-linecap="round" stroke-linejoin="round"/>
<path d="M119.761 96.0417C119.761 96.0417 119.839 103.423 119.745 111.628C119.69 116.432 118.635 119.831 111.369 119.889C61.8005 120.289 57.7561 119.948 7.36553 119.948C2.79527 119.948 0.376265 118.6 0.334334 112.624C0.276843 104.421 0.351067 96.1004 0.351067 96.1004L119.761 96.0417Z" fill="#C99D58"/>
<path d="M1.19531 96.1525H118.977" stroke="#886226" stroke-width="1.96526" stroke-linecap="round" stroke-linejoin="round"/>
<path d="M116.444 101.623H116.43C116.411 101.534 116.375 101.443 116.317 101.353L112.182 94.87C111.67 94.0659 109.744 93.5812 107.881 93.7877L54.7092 99.5662C53.23 99.7303 52.2389 100.281 52.1491 100.904H52.1468V100.916C52.1395 100.974 52.1379 101.033 52.1468 101.092V102.757C52.1294 102.911 52.1648 103.069 52.2656 103.228L55.5792 113.49C56.092 114.295 58.0176 114.779 59.8802 114.573L113.873 108.682C115.463 108.506 116.49 107.883 116.438 107.204H116.444V101.623Z" fill="#666666"/>
<path d="M116.444 101.623H116.43C116.411 101.534 116.375 101.443 116.317 101.353L112.182 94.87C111.67 94.0659 109.744 93.5812 107.881 93.7877L54.7092 99.5662C53.23 99.7303 52.2389 100.281 52.1491 100.904H52.1468V100.916C52.1395 100.974 52.1379 101.033 52.1468 101.092V102.757C52.1294 102.911 52.1648 103.069 52.2656 103.228L55.5792 113.49C56.092 114.295 58.0176 114.779 59.8802 114.573L113.873 108.682C115.463 108.506 116.489 107.883 116.438 107.204H116.444V101.623Z" stroke="#232323" stroke-width="2.34375" stroke-linecap="round" stroke-linejoin="round"/>
<path d="M113.834 103.072L60.0752 108.963C58.2126 109.17 56.2868 108.685 55.774 107.881L52.4604 101.285C51.9476 100.481 53.0414 99.6616 54.904 99.4551L107.842 93.6766C109.704 93.4701 111.63 93.9548 112.143 94.759L116.278 101.242C116.79 102.047 115.697 102.866 113.834 103.072Z" fill="#3A3A3A"/>
<path d="M113.834 103.072L60.0752 108.963C58.2126 109.17 56.2868 108.685 55.774 107.881L52.4604 101.285C51.9476 100.481 53.0414 99.6616 54.904 99.4551L107.842 93.6766C109.704 93.4701 111.63 93.9548 112.143 94.759L116.278 101.242C116.79 102.047 115.697 102.866 113.834 103.072Z" stroke="#232323" stroke-width="1.875" stroke-linecap="round" stroke-linejoin="round"/>
<path d="M92.8889 107.494L114.122 104.84M60.5451 110.772L85.4114 108.121" stroke="#818181" stroke-width="1.875" stroke-linecap="round" stroke-linejoin="round"/>
<path d="M58.2662 101.053L56.2497 101.282C55.5604 101.36 54.823 101.126 54.6028 100.759L53.9862 99.7314C53.7668 99.3656 54.1462 99.0062 54.8338 98.9283L56.8459 98.7001C57.5331 98.6221 58.2693 98.8552 58.4904 99.2205L59.1114 100.247C59.3332 100.614 58.955 100.974 58.2662 101.053Z" fill="#232323"/>
<path d="M58.2662 101.053L56.2497 101.282C55.5604 101.36 54.823 101.126 54.6028 100.759L53.9862 99.7314C53.7668 99.3656 54.1462 99.0062 54.8338 98.9283L56.8459 98.7001C57.5331 98.6221 58.2693 98.8552 58.4904 99.2205L59.1114 100.247C59.3332 100.614 58.955 100.974 58.2662 101.053Z" stroke="#C588DE" stroke-width="0.703125" stroke-linecap="round" stroke-linejoin="round"/>
<path d="M63.0019 100.515L60.9877 100.743C60.2993 100.822 59.561 100.588 59.3392 100.221L58.7177 99.1946C58.4966 98.8293 58.8741 98.4704 59.561 98.3925L61.5708 98.1645C62.2572 98.0868 62.9942 98.3194 63.2169 98.6845L63.8429 99.71C64.0663 100.076 63.6897 100.436 63.0019 100.515Z" fill="#232323"/>
<path d="M63.0019 100.515L60.9877 100.743C60.2993 100.822 59.561 100.588 59.3392 100.221L58.7177 99.1946C58.4966 98.8293 58.8741 98.4704 59.561 98.3925L61.5708 98.1645C62.2572 98.0868 62.9942 98.3194 63.2169 98.6845L63.8429 99.71C64.0663 100.076 63.6897 100.436 63.0019 100.515Z" stroke="#A987EC" stroke-width="0.703125" stroke-linecap="round" stroke-linejoin="round"/>
<path d="M67.7315 99.9768L65.7194 100.205C65.0318 100.284 64.293 100.05 64.0695 99.6841L63.4433 98.6586C63.2204 98.2937 63.5962 97.9348 64.2822 97.8571L66.2899 97.6296C66.9754 97.5519 67.713 97.784 67.9374 98.1487L68.5681 99.1732C68.7932 99.5388 68.4187 99.8986 67.7315 99.9768Z" fill="#232323"/>
<path d="M67.7315 99.9768L65.7194 100.205C65.0318 100.284 64.293 100.05 64.0695 99.6841L63.4433 98.6586C63.2204 98.2937 63.5962 97.9348 64.2822 97.8571L66.2899 97.6296C66.9754 97.5519 67.713 97.784 67.9374 98.1487L68.5681 99.1732C68.7932 99.5388 68.4187 99.8986 67.7315 99.9768Z" stroke="#80A1E7" stroke-width="0.703125" stroke-linecap="round" stroke-linejoin="round"/>
<path d="M72.4553 99.4399L70.4455 99.6684C69.7586 99.7463 69.0191 99.513 68.794 99.1474L68.1631 98.1231C67.9385 97.7585 68.3122 97.4003 68.9975 97.3226L71.0028 97.0953C71.6877 97.0176 72.426 97.2497 72.652 97.6139L73.2874 98.6373C73.5141 99.0026 73.1417 99.362 72.4553 99.4399Z" fill="#232323"/>
<path d="M72.4553 99.4399L70.4455 99.6684C69.7586 99.7463 69.0191 99.513 68.794 99.1474L68.1631 98.1231C67.9385 97.7585 68.3122 97.4003 68.9975 97.3226L71.0028 97.0953C71.6877 97.0176 72.426 97.2497 72.652 97.6139L73.2874 98.6373C73.5141 99.0026 73.1417 99.362 72.4553 99.4399Z" stroke="#57BBE1" stroke-width="0.703125" stroke-linecap="round" stroke-linejoin="round"/>
<path d="M77.1754 98.9037L75.168 99.1319C74.482 99.2099 73.7415 98.977 73.5148 98.6117L72.8792 97.5883C72.653 97.2241 73.0249 96.8662 73.7095 96.7887L75.7124 96.5617L87.8109 95.1904L89.8071 94.9641C90.4889 94.8868 91.2303 95.118 91.4628 95.4805L92.1165 96.4992C92.3497 96.8629 91.9856 97.2207 91.3022 97.2984L89.3013 97.5259L77.1754 98.9037Z" fill="#232323"/>
<path d="M77.1754 98.9037L75.168 99.1319C74.482 99.2099 73.7415 98.977 73.5148 98.6117L72.8792 97.5883C72.653 97.2241 73.0249 96.8662 73.7095 96.7887L75.7124 96.5617L87.8109 95.1904L89.8071 94.9641C90.4889 94.8868 91.2303 95.118 91.4628 95.4805L92.1165 96.4992C92.3497 96.8629 91.9856 97.2207 91.3022 97.2984L89.3013 97.5259L77.1754 98.9037Z" stroke="#78C7BA" stroke-width="0.703125" stroke-linecap="round" stroke-linejoin="round"/>
<path d="M95.9998 96.7645L94.0013 96.9915C93.3183 97.0692 92.5753 96.8373 92.3418 96.4736L91.6877 95.4549C91.4549 95.0924 91.8188 94.7361 92.5004 94.6588L94.4944 94.4327C95.1755 94.3555 95.9173 94.5865 96.1515 94.9485L96.8099 95.9663C97.0448 96.3295 96.6823 96.687 95.9998 96.7645Z" fill="#232323"/>
<path d="M95.9998 96.7645L94.0013 96.9915C93.3183 97.0692 92.5753 96.8373 92.3418 96.4736L91.6877 95.4549C91.4549 95.0924 91.8188 94.7361 92.5004 94.6588L94.4944 94.4327C95.1755 94.3555 95.9173 94.5865 96.1515 94.9485L96.8099 95.9663C97.0448 96.3295 96.6823 96.687 95.9998 96.7645Z" stroke="#C1CD7D" stroke-width="0.703125" stroke-linecap="round" stroke-linejoin="round"/>
<path d="M100.694 96.2312L98.6981 96.458C98.0158 96.5354 97.2721 96.3038 97.0369 95.9406L96.3782 94.923C96.1437 94.561 96.506 94.2051 97.1866 94.1279L99.1783 93.902C99.8584 93.825 100.601 94.0555 100.837 94.4173L101.5 95.4337C101.736 95.7965 101.376 96.1537 100.694 96.2312Z" fill="#232323"/>
<path d="M100.694 96.2312L98.6981 96.458C98.0158 96.5354 97.2721 96.3038 97.0369 95.9406L96.3782 94.923C96.1437 94.561 96.506 94.2051 97.1866 94.1279L99.1783 93.902C99.8584 93.825 100.601 94.0555 100.837 94.4173L101.5 95.4337C101.736 95.7965 101.376 96.1537 100.694 96.2312Z" stroke="#EBC371" stroke-width="0.703125" stroke-linecap="round" stroke-linejoin="round"/>
<path d="M105.381 95.6984L103.387 95.9249C102.705 96.0024 101.961 95.771 101.724 95.4082L101.061 94.3916C100.825 94.0298 101.185 93.6744 101.865 93.5974L103.854 93.372C104.534 93.295 105.277 93.5253 105.515 93.8866L106.182 94.9018C106.42 95.2641 106.062 95.6209 105.381 95.6984Z" fill="#232323"/>
<path d="M105.381 95.6984L103.387 95.9249C102.705 96.0024 101.961 95.771 101.724 95.4082L101.061 94.3916C100.825 94.0298 101.185 93.6744 101.865 93.5974L103.854 93.372C104.534 93.295 105.277 93.5253 105.515 93.8866L106.182 94.9018C106.42 95.2641 106.062 95.6209 105.381 95.6984Z" stroke="#E8A3A5" stroke-width="0.703125" stroke-linecap="round" stroke-linejoin="round"/>
<path d="M110.063 95.1661L108.072 95.3924C107.391 95.4697 106.646 95.2385 106.408 94.8762L105.74 93.861C105.502 93.4997 105.86 93.1445 106.539 93.0675L108.526 92.8424C109.205 92.7654 109.949 92.9954 110.188 93.3563L110.86 94.3705C111.1 94.7326 110.744 95.0889 110.063 95.1661Z" fill="#232323"/>
<path d="M110.063 95.1661L108.072 95.3924C107.391 95.4697 106.646 95.2385 106.408 94.8762L105.74 93.861C105.502 93.4997 105.86 93.1445 106.539 93.0675L108.526 92.8424C109.205 92.7654 109.949 92.9954 110.188 93.3563L110.86 94.3705C111.1 94.7326 110.744 95.0889 110.063 95.1661Z" stroke="#DF8AD0" stroke-width="0.703125" stroke-linecap="round" stroke-linejoin="round"/>
<path d="M62.2353 103.558L58.0312 104.066C57.3402 104.145 56.6003 103.91 56.3787 103.541L55.7583 102.507C55.5375 102.139 55.9176 101.777 56.6071 101.699L60.8017 101.193C61.4902 101.115 62.2293 101.349 62.4525 101.716L63.0796 102.748C63.3035 103.116 62.9256 103.479 62.2353 103.558Z" fill="#232323"/>
<path d="M62.2353 103.558L58.0312 104.066C57.3402 104.145 56.6003 103.91 56.3787 103.541L55.7583 102.507C55.5375 102.139 55.9176 101.777 56.6071 101.699L60.8017 101.193C61.4902 101.115 62.2293 101.349 62.4525 101.716L63.0796 102.748C63.3035 103.116 62.9256 103.479 62.2353 103.558Z" stroke="#B587E6" stroke-width="0.703125" stroke-linecap="round" stroke-linejoin="round"/>
<path d="M66.9802 103.017L64.9616 103.247C64.2716 103.325 63.5307 103.09 63.3068 102.722L62.6796 101.69C62.4564 101.323 62.8335 100.962 63.5218 100.883L65.5358 100.654C66.2237 100.576 66.9634 100.81 67.1883 101.177L67.8199 102.208C68.0454 102.576 67.6698 102.938 66.9802 103.017Z" fill="#232323"/>
<path d="M66.9802 103.017L64.9616 103.247C64.2716 103.325 63.5307 103.09 63.3068 102.722L62.6796 101.69C62.4564 101.323 62.8335 100.962 63.5218 100.883L65.5358 100.654C66.2237 100.576 66.9634 100.81 67.1883 101.177L67.8199 102.208C68.0454 102.576 67.6698 102.938 66.9802 103.017Z" stroke="#9C8FEB" stroke-width="0.703125" stroke-linecap="round" stroke-linejoin="round"/>
<path d="M71.7198 102.476L69.7035 102.706C69.0145 102.785 68.2726 102.55 68.0471 102.182L67.415 101.151C67.1902 100.784 67.5653 100.423 68.253 100.345L70.2646 100.117C70.9518 100.038 71.6922 100.272 71.9187 100.639L72.555 101.668C72.7822 102.036 72.4084 102.398 71.7198 102.476Z" fill="#232323"/>
<path d="M71.7198 102.476L69.7035 102.706C69.0145 102.785 68.2726 102.55 68.0471 102.182L67.415 101.151C67.1902 100.784 67.5653 100.423 68.253 100.345L70.2646 100.117C70.9518 100.038 71.6922 100.272 71.9187 100.639L72.555 101.668C72.7822 102.036 72.4084 102.398 71.7198 102.476Z" stroke="#7CA4E6" stroke-width="0.703125" stroke-linecap="round" stroke-linejoin="round"/>
<path d="M76.4554 101.936L74.4414 102.166C73.753 102.244 73.0105 102.01 72.7833 101.642L72.1465 100.613C71.9198 100.246 72.2934 99.8859 72.9801 99.8078L74.9893 99.5793C75.6756 99.5014 76.417 99.7347 76.6451 100.101L77.2861 101.129C77.5149 101.496 77.1432 101.858 76.4554 101.936Z" fill="#232323"/>
<path d="M76.4554 101.936L74.4414 102.166C73.753 102.244 73.0105 102.01 72.7833 101.642L72.1465 100.613C71.9198 100.246 72.2934 99.8859 72.9801 99.8078L74.9893 99.5793C75.6756 99.5014 76.417 99.7347 76.6451 100.101L77.2861 101.129C77.5149 101.496 77.1432 101.858 76.4554 101.936Z" stroke="#5CB8E2" stroke-width="0.703125" stroke-linecap="round" stroke-linejoin="round"/>
<path d="M81.185 101.397L79.1731 101.627C78.4857 101.705 77.7424 101.471 77.5136 101.104L76.8722 100.075C76.6438 99.7089 77.0152 99.3491 77.7012 99.2712L79.7084 99.043C80.3939 98.965 81.1358 99.1983 81.3656 99.5639L82.0115 100.591C82.2419 100.958 81.8721 101.319 81.185 101.397Z" fill="#232323"/>
<path d="M81.185 101.397L79.1731 101.627C78.4857 101.705 77.7424 101.471 77.5136 101.104L76.8722 100.075C76.6438 99.7089 77.0152 99.3491 77.7012 99.2712L79.7084 99.043C80.3939 98.965 81.1358 99.1983 81.3656 99.5639L82.0115 100.591C82.2419 100.958 81.8721 101.319 81.185 101.397Z" stroke="#63C5CB" stroke-width="0.703125" stroke-linecap="round" stroke-linejoin="round"/>
<path d="M85.9087 100.859L83.8992 101.088C83.2125 101.166 82.4688 100.932 82.2381 100.565L81.5919 99.5381C81.362 99.1725 81.7313 98.8131 82.4166 98.7352L84.4214 98.5072C85.1062 98.4293 85.8488 98.6621 86.0802 99.0274L86.7308 100.054C86.9629 100.42 86.595 100.78 85.9087 100.859Z" fill="#232323"/>
<path d="M85.9087 100.859L83.8992 101.088C83.2125 101.166 82.4688 100.932 82.2381 100.565L81.5919 99.5381C81.362 99.1725 81.7313 98.8131 82.4166 98.7352L84.4214 98.5072C85.1062 98.4293 85.8488 98.6621 86.0802 99.0274L86.7308 100.054C86.9629 100.42 86.595 100.78 85.9087 100.859Z" stroke="#97CAA0" stroke-width="0.703125" stroke-linecap="round" stroke-linejoin="round"/>
<path d="M90.6283 100.321L88.6214 100.55C87.9354 100.628 87.1907 100.394 86.9584 100.028L86.3078 99.0016C86.0762 98.6362 86.4436 98.2773 87.128 98.1996L89.1304 97.9719C89.8143 97.8942 90.5576 98.1265 90.7909 98.4914L91.4462 99.5167C91.6799 99.8825 91.3139 100.243 90.6283 100.321Z" fill="#232323"/>
<path d="M90.6283 100.321L88.6214 100.55C87.9354 100.628 87.1907 100.394 86.9584 100.028L86.3078 99.0016C86.0762 98.6362 86.4436 98.2773 87.128 98.1996L89.1304 97.9719C89.8143 97.8942 90.5576 98.1265 90.7909 98.4914L91.4462 99.5167C91.6799 99.8825 91.3139 100.243 90.6283 100.321Z" stroke="#CCCE75" stroke-width="0.703125" stroke-linecap="round" stroke-linejoin="round"/>
<path d="M95.3404 99.7834L93.3356 100.012C92.6503 100.09 91.9051 99.8564 91.6712 99.4906L91.0159 98.4656C90.7826 98.1007 91.1479 97.7423 91.8316 97.6646L93.832 97.4371C94.5152 97.3594 95.2591 97.5917 95.494 97.9562L96.1538 98.98C96.3892 99.3456 96.0252 99.7054 95.3404 99.7834Z" fill="#232323"/>
<path d="M95.3404 99.7834L93.3356 100.012C92.6503 100.09 91.9051 99.8564 91.6712 99.4906L91.0159 98.4656C90.7826 98.1007 91.1479 97.7423 91.8316 97.6646L93.832 97.4371C94.5152 97.3594 95.2591 97.5917 95.494 97.9562L96.1538 98.98C96.3892 99.3456 96.0252 99.7054 95.3404 99.7834Z" stroke="#EBC769" stroke-width="0.703125" stroke-linecap="round" stroke-linejoin="round"/>
<path d="M100.049 99.2468L98.0461 99.475C97.3617 99.5529 96.6156 99.3201 96.38 98.9545L95.7201 97.9304C95.4851 97.566 95.8484 97.2081 96.5313 97.1304L98.5293 96.9031C99.2118 96.8256 99.9565 97.0577 100.193 97.4217L100.857 98.4444C101.095 98.8095 100.732 99.1688 100.049 99.2468Z" fill="#232323"/>
<path d="M100.049 99.2468L98.0461 99.475C97.3617 99.5529 96.6156 99.3201 96.38 98.9545L95.7201 97.9304C95.4851 97.566 95.8484 97.2081 96.5313 97.1304L98.5293 96.9031C99.2118 96.8256 99.9565 97.0577 100.193 97.4217L100.857 98.4444C101.095 98.8095 100.732 99.1688 100.049 99.2468Z" stroke="#E9B18E" stroke-width="0.703125" stroke-linecap="round" stroke-linejoin="round"/>
<path d="M104.751 98.7108L102.75 98.9387C102.067 99.0167 101.32 98.7838 101.083 98.4187L100.418 97.3961C100.182 97.0321 100.543 96.6742 101.225 96.5967L103.221 96.3697C103.903 96.2922 104.648 96.5239 104.886 96.8876L105.555 97.9093C105.794 98.2739 105.434 98.6328 104.751 98.7108Z" fill="#232323"/>
<path d="M104.751 98.7108L102.75 98.9387C102.067 99.0167 101.32 98.7838 101.083 98.4187L100.418 97.3961C100.182 97.0321 100.543 96.6742 101.225 96.5967L103.221 96.3697C103.903 96.2922 104.648 96.5239 104.886 96.8876L105.555 97.9093C105.794 98.2739 105.434 98.6328 104.751 98.7108Z" stroke="#E89AB4" stroke-width="0.703125" stroke-linecap="round" stroke-linejoin="round"/>
<path d="M111.848 97.9507L107.451 98.403C106.768 98.4809 106.021 98.2481 105.782 97.8834L105.113 96.8617C104.875 96.498 105.234 96.1407 105.916 96.0633L110.302 95.6134C110.983 95.5359 111.729 95.7673 111.97 96.1303L112.646 97.1504C112.887 97.5146 112.53 97.873 111.848 97.9507Z" fill="#232323"/>
<path d="M111.848 97.9507L107.451 98.403C106.768 98.4809 106.021 98.2481 105.782 97.8834L105.113 96.8617C104.875 96.498 105.234 96.1407 105.916 96.0633L110.302 95.6134C110.983 95.5359 111.729 95.7673 111.97 96.1303L112.646 97.1504C112.887 97.5146 112.53 97.873 111.848 97.9507Z" stroke="#DF8AD0" stroke-width="0.703125" stroke-linecap="round" stroke-linejoin="round"/>
<path d="M61.5893 106.557L59.562 106.789C58.8692 106.868 58.1269 106.631 57.9041 106.26L57.2803 105.221C57.0582 104.851 57.439 104.487 58.1302 104.408L60.1528 104.178C60.8437 104.099 61.5847 104.334 61.8083 104.704L62.4367 105.742C62.661 106.113 62.2816 106.478 61.5893 106.557Z" fill="#232323"/>
<path d="M61.5893 106.557L59.562 106.789C58.8692 106.868 58.1269 106.631 57.9041 106.26L57.2803 105.221C57.0582 104.851 57.439 104.487 58.1302 104.408L60.1528 104.178C60.8437 104.099 61.5847 104.334 61.8083 104.704L62.4367 105.742C62.661 106.113 62.2816 106.478 61.5893 106.557Z" stroke="#CA89DB" stroke-width="0.703125" stroke-linecap="round" stroke-linejoin="round"/>
<path d="M66.3482 106.013L64.3234 106.244C63.6313 106.323 62.8881 106.087 62.6637 105.716L62.0352 104.678C61.8115 104.308 62.1902 103.945 62.8806 103.866L64.9009 103.636C65.5909 103.557 66.3328 103.793 66.5581 104.162L67.1913 105.199C67.4173 105.569 67.0398 105.934 66.3482 106.013Z" fill="#232323"/>
<path d="M66.3482 106.013L64.3234 106.244C63.6313 106.323 62.8881 106.087 62.6637 105.716L62.0352 104.678C61.8115 104.308 62.1902 103.945 62.8806 103.866L64.9009 103.636C65.5909 103.557 66.3328 103.793 66.5581 104.162L67.1913 105.199C67.4173 105.569 67.0398 105.934 66.3482 106.013Z" stroke="#B587E6" stroke-width="0.703125" stroke-linecap="round" stroke-linejoin="round"/>
<path d="M71.1054 105.469L69.0827 105.7C68.3916 105.779 67.6474 105.543 67.4214 105.173L66.7881 104.135C66.5628 103.766 66.9394 103.403 67.6291 103.325L69.6471 103.095C70.3364 103.016 71.0789 103.251 71.3059 103.62L71.9438 104.656C72.1715 105.026 71.7963 105.39 71.1054 105.469Z" fill="#232323"/>
<path d="M71.1054 105.469L69.0827 105.7C68.3916 105.779 67.6474 105.543 67.4214 105.173L66.7881 104.135C66.5628 103.766 66.9394 103.403 67.6291 103.325L69.6471 103.095C70.3364 103.016 71.0789 103.251 71.3059 103.62L71.9438 104.656C72.1715 105.026 71.7963 105.39 71.1054 105.469Z" stroke="#9C8FEB" stroke-width="0.703125" stroke-linecap="round" stroke-linejoin="round"/>
<path d="M75.8546 104.926L73.834 105.157C73.1436 105.236 72.3989 105 72.1713 104.63L71.5333 103.594C71.3061 103.225 71.6811 102.863 72.3699 102.784L74.3855 102.554C75.0741 102.476 75.8173 102.711 76.0459 103.079L76.6886 104.114C76.9178 104.483 76.5446 104.847 75.8546 104.926Z" fill="#232323"/>
<path d="M75.8546 104.926L73.834 105.157C73.1436 105.236 72.3989 105 72.1713 104.63L71.5333 103.594C71.3061 103.225 71.6811 102.863 72.3699 102.784L74.3855 102.554C75.0741 102.476 75.8173 102.711 76.0459 103.079L76.6886 104.114C76.9178 104.483 76.5446 104.847 75.8546 104.926Z" stroke="#7CA4E6" stroke-width="0.703125" stroke-linecap="round" stroke-linejoin="round"/>
<path d="M80.5979 104.383L78.5797 104.614C77.8899 104.693 77.1448 104.457 76.9153 104.088L76.2727 103.053C76.0438 102.685 76.4164 102.322 77.1045 102.244L79.118 102.014C79.8057 101.936 80.5499 102.17 80.7801 102.538L81.4274 103.572C81.6583 103.941 81.2872 104.304 80.5979 104.383Z" fill="#232323"/>
<path d="M80.5979 104.383L78.5797 104.614C77.8899 104.693 77.1448 104.457 76.9153 104.088L76.2727 103.053C76.0438 102.685 76.4164 102.322 77.1045 102.244L79.118 102.014C79.8057 101.936 80.5499 102.17 80.7801 102.538L81.4274 103.572C81.6583 103.941 81.2872 104.304 80.5979 104.383Z" stroke="#5CB8E2" stroke-width="0.703125" stroke-linecap="round" stroke-linejoin="round"/>
<path d="M85.3373 103.841L83.3214 104.072C82.6326 104.151 81.8865 103.915 81.6554 103.546L81.0081 102.513C80.7776 102.145 81.1481 101.783 81.8355 101.705L83.8469 101.475C84.5338 101.397 85.2782 101.631 85.5103 101.999L86.1623 103.031C86.3949 103.4 86.0258 103.763 85.3373 103.841Z" fill="#232323"/>
<path d="M85.3373 103.841L83.3214 104.072C82.6326 104.151 81.8865 103.915 81.6554 103.546L81.0081 102.513C80.7776 102.145 81.1481 101.783 81.8355 101.705L83.8469 101.475C84.5338 101.397 85.2782 101.631 85.5103 101.999L86.1623 103.031C86.3949 103.4 86.0258 103.763 85.3373 103.841Z" stroke="#63C5CB" stroke-width="0.703125" stroke-linecap="round" stroke-linejoin="round"/>
<path d="M90.0708 103.3L88.0573 103.53C87.3692 103.609 86.6224 103.374 86.3896 103.005L85.7376 101.973C85.5055 101.605 85.8741 101.244 86.5606 101.166L88.5696 100.937C89.2558 100.859 90.001 101.093 90.2347 101.46L90.8914 102.491C91.1259 102.859 90.7584 103.222 90.0708 103.3Z" fill="#232323"/>
<path d="M90.0708 103.3L88.0573 103.53C87.3692 103.609 86.6224 103.374 86.3896 103.005L85.7376 101.973C85.5055 101.605 85.8741 101.244 86.5606 101.166L88.5696 100.937C89.2558 100.859 90.001 101.093 90.2347 101.46L90.8914 102.491C91.1259 102.859 90.7584 103.222 90.0708 103.3Z" stroke="#97CAA0" stroke-width="0.703125" stroke-linecap="round" stroke-linejoin="round"/>
<path d="M94.8004 102.76L92.7893 102.99C92.1018 103.068 91.3544 102.833 91.1199 102.465L90.4632 101.434C90.2295 101.067 90.596 100.706 91.2818 100.628L93.2885 100.399C93.9738 100.321 94.7201 100.554 94.9554 100.921L95.6166 101.951C95.8527 102.319 95.4874 102.681 94.8004 102.76Z" fill="#232323"/>
<path d="M94.8004 102.76L92.7893 102.99C92.1018 103.068 91.3544 102.833 91.1199 102.465L90.4632 101.434C90.2295 101.067 90.596 100.706 91.2818 100.628L93.2885 100.399C93.9738 100.321 94.7201 100.554 94.9554 100.921L95.6166 101.951C95.8527 102.319 95.4874 102.681 94.8004 102.76Z" stroke="#CCCE75" stroke-width="0.703125" stroke-linecap="round" stroke-linejoin="round"/>
<path d="M99.5224 102.219L97.5134 102.449C96.8269 102.527 96.0787 102.293 95.8426 101.925L95.181 100.895C94.9456 100.528 95.3105 100.168 95.9956 100.09L97.9999 99.8613C98.6845 99.7831 99.4313 100.017 99.6683 100.383L100.334 101.412C100.572 101.78 100.209 102.141 99.5224 102.219Z" fill="#232323"/>
<path d="M99.5224 102.219L97.5134 102.449C96.8269 102.527 96.0787 102.293 95.8426 101.925L95.181 100.895C94.9456 100.528 95.3105 100.168 95.9956 100.09L97.9999 99.8613C98.6845 99.7831 99.4313 100.017 99.6683 100.383L100.334 101.412C100.572 101.78 100.209 102.141 99.5224 102.219Z" stroke="#EBC769" stroke-width="0.703125" stroke-linecap="round" stroke-linejoin="round"/>
<path d="M104.24 101.68L102.234 101.909C101.548 101.988 100.799 101.753 100.561 101.386L99.895 100.357C99.6579 99.9908 100.021 99.6307 100.705 99.5528L102.707 99.3243C103.391 99.2464 104.138 99.4797 104.377 99.8455L105.048 100.874C105.287 101.241 104.926 101.602 104.24 101.68Z" fill="#232323"/>
<path d="M104.24 101.68L102.234 101.909C101.548 101.988 100.799 101.753 100.561 101.386L99.895 100.357C99.6579 99.9908 100.021 99.6307 100.705 99.5528L102.707 99.3243C103.391 99.2464 104.138 99.4797 104.377 99.8455L105.048 100.874C105.287 101.241 104.926 101.602 104.24 101.68Z" stroke="#E9B18E" stroke-width="0.703125" stroke-linecap="round" stroke-linejoin="round"/>
<path d="M108.952 101.141L106.948 101.37C106.263 101.449 105.513 101.215 105.274 100.848L104.603 99.8198C104.364 99.454 104.725 99.0944 105.409 99.0164L107.409 98.7885C108.092 98.7105 108.84 98.9436 109.08 99.3089L109.755 100.336C109.996 100.702 109.637 101.063 108.952 101.141Z" fill="#232323"/>
<path d="M108.952 101.141L106.948 101.37C106.263 101.449 105.513 101.215 105.274 100.848L104.603 99.8198C104.364 99.454 104.725 99.0944 105.409 99.0164L107.409 98.7885C108.092 98.7105 108.84 98.9436 109.08 99.3089L109.755 100.336C109.996 100.702 109.637 101.063 108.952 101.141Z" stroke="#E89AB4" stroke-width="0.703125" stroke-linecap="round" stroke-linejoin="round"/>
<path d="M113.66 100.603L111.658 100.832C110.974 100.91 110.224 100.677 109.983 100.31L109.307 99.2832C109.067 98.9178 109.426 98.5587 110.108 98.4807L112.106 98.253C112.788 98.1753 113.537 98.4077 113.779 98.7728L114.459 99.7985C114.702 100.165 114.344 100.525 113.66 100.603Z" fill="#232323"/>
<path d="M113.66 100.603L111.658 100.832C110.974 100.91 110.224 100.677 109.983 100.31L109.307 99.2832C109.067 98.9178 109.426 98.5587 110.108 98.4807L112.106 98.253C112.788 98.1753 113.537 98.4077 113.779 98.7728L114.459 99.7985C114.702 100.165 114.344 100.525 113.66 100.603Z" stroke="#DF8AD0" stroke-width="0.703125" stroke-linecap="round" stroke-linejoin="round"/>
<path d="M58.2662 100.467L56.2497 100.696C55.5604 100.774 54.823 100.54 54.6028 100.173L53.9862 99.1455C53.7668 98.7796 54.1462 98.4203 54.8338 98.3423L56.8459 98.1141C57.5331 98.0362 58.2693 98.2693 58.4904 98.6346L59.1114 99.6613C59.3332 100.028 58.955 100.389 58.2662 100.467Z" fill="#232323"/>
<path d="M58.2662 100.467L56.2497 100.696C55.5604 100.774 54.823 100.54 54.6028 100.173L53.9862 99.1455C53.7668 98.7796 54.1462 98.4203 54.8338 98.3423L56.8459 98.1141C57.5331 98.0362 58.2693 98.2693 58.4904 98.6346L59.1114 99.6613C59.3332 100.028 58.955 100.389 58.2662 100.467Z" stroke="#C588DE" stroke-width="0.703125" stroke-linecap="round" stroke-linejoin="round"/>
<path d="M63.0019 99.9286L60.9877 100.157C60.2993 100.236 59.561 100.002 59.3392 99.6354L58.7177 98.6087C58.4966 98.2434 58.8741 97.8845 59.561 97.8065L61.5708 97.5786C62.2572 97.5009 62.9942 97.7334 63.2169 98.0986L63.8429 99.124C64.0663 99.4901 63.6897 99.8504 63.0019 99.9286Z" fill="#232323"/>
<path d="M63.0019 99.9286L60.9877 100.157C60.2993 100.236 59.561 100.002 59.3392 99.6354L58.7177 98.6087C58.4966 98.2434 58.8741 97.8845 59.561 97.8065L61.5708 97.5786C62.2572 97.5009 62.9942 97.7334 63.2169 98.0986L63.8429 99.124C64.0663 99.4901 63.6897 99.8504 63.0019 99.9286Z" stroke="#A987EC" stroke-width="0.703125" stroke-linecap="round" stroke-linejoin="round"/>
<path d="M67.7315 99.3909L65.7194 99.6195C65.0318 99.6977 64.293 99.4642 64.0695 99.0981L63.4433 98.0726C63.2204 97.7078 63.5962 97.3489 64.2822 97.2712L66.2899 97.0437C66.9754 96.966 67.713 97.1981 67.9374 97.5627L68.5681 98.5873C68.7932 98.9529 68.4187 99.3127 67.7315 99.3909Z" fill="#232323"/>
<path d="M67.7315 99.3909L65.7194 99.6195C65.0318 99.6977 64.293 99.4642 64.0695 99.0981L63.4433 98.0726C63.2204 97.7078 63.5962 97.3489 64.2822 97.2712L66.2899 97.0437C66.9754 96.966 67.713 97.1981 67.9374 97.5627L68.5681 98.5873C68.7932 98.9529 68.4187 99.3127 67.7315 99.3909Z" stroke="#80A1E7" stroke-width="0.703125" stroke-linecap="round" stroke-linejoin="round"/>
<path d="M72.4553 98.854L70.4455 99.0824C69.7586 99.1604 69.0191 98.9271 68.794 98.5615L68.1631 97.5372C67.9385 97.1725 68.3122 96.8143 68.9975 96.7366L71.0028 96.5094C71.6877 96.4317 72.426 96.6638 72.652 97.028L73.2874 98.0513C73.5141 98.4167 73.1417 98.7761 72.4553 98.854Z" fill="#232323"/>
<path d="M72.4553 98.854L70.4455 99.0824C69.7586 99.1604 69.0191 98.9271 68.794 98.5615L68.1631 97.5372C67.9385 97.1725 68.3122 96.8143 68.9975 96.7366L71.0028 96.5094C71.6877 96.4317 72.426 96.6638 72.652 97.028L73.2874 98.0513C73.5141 98.4167 73.1417 98.7761 72.4553 98.854Z" stroke="#57BBE1" stroke-width="0.703125" stroke-linecap="round" stroke-linejoin="round"/>
<path d="M77.1754 98.3178L75.168 98.546C74.482 98.6239 73.7415 98.3911 73.5148 98.0258L72.8792 97.0024C72.653 96.6382 73.0249 96.2802 73.7095 96.2028L75.7124 95.9758L87.8109 94.6045L89.8071 94.3781C90.4889 94.3009 91.2303 94.5321 91.4628 94.8946L92.1165 95.9133C92.3497 96.277 91.9856 96.6347 91.3022 96.7124L89.3013 96.9399L77.1754 98.3178Z" fill="#232323"/>
<path d="M77.1754 98.3178L75.168 98.546C74.482 98.6239 73.7415 98.3911 73.5148 98.0258L72.8792 97.0024C72.653 96.6382 73.0249 96.2802 73.7095 96.2028L75.7124 95.9758L87.8109 94.6045L89.8071 94.3781C90.4889 94.3009 91.2303 94.5321 91.4628 94.8946L92.1165 95.9133C92.3497 96.277 91.9856 96.6347 91.3022 96.7124L89.3013 96.9399L77.1754 98.3178Z" stroke="#78C7BA" stroke-width="0.703125" stroke-linecap="round" stroke-linejoin="round"/>
<path d="M95.9998 96.1785L94.0013 96.4055C93.3183 96.4833 92.5753 96.2514 92.3418 95.8877L91.6877 94.869C91.4549 94.5064 91.8188 94.1501 92.5004 94.0729L94.4944 93.8468C95.1755 93.7696 95.9173 94.0005 96.1515 94.3626L96.8099 95.3803C97.0448 95.7436 96.6823 96.101 95.9998 96.1785Z" fill="#232323"/>
<path d="M95.9998 96.1785L94.0013 96.4055C93.3183 96.4833 92.5753 96.2514 92.3418 95.8877L91.6877 94.869C91.4549 94.5064 91.8188 94.1501 92.5004 94.0729L94.4944 93.8468C95.1755 93.7696 95.9173 94.0005 96.1515 94.3626L96.8099 95.3803C97.0448 95.7436 96.6823 96.101 95.9998 96.1785Z" stroke="#C1CD7D" stroke-width="0.703125" stroke-linecap="round" stroke-linejoin="round"/>
<path d="M100.694 95.6452L98.6981 95.872C98.0158 95.9495 97.2721 95.7179 97.0369 95.3546L96.3782 94.3371C96.1437 93.975 96.506 93.6192 97.1866 93.542L99.1783 93.3161C99.8584 93.2391 100.601 93.4696 100.837 93.8314L101.5 94.8478C101.736 95.2105 101.376 95.5678 100.694 95.6452Z" fill="#232323"/>
<path d="M100.694 95.6452L98.6981 95.872C98.0158 95.9495 97.2721 95.7179 97.0369 95.3546L96.3782 94.3371C96.1437 93.975 96.506 93.6192 97.1866 93.542L99.1783 93.3161C99.8584 93.2391 100.601 93.4696 100.837 93.8314L101.5 94.8478C101.736 95.2105 101.376 95.5678 100.694 95.6452Z" stroke="#EBC371" stroke-width="0.703125" stroke-linecap="round" stroke-linejoin="round"/>
<path d="M105.381 95.1124L103.387 95.339C102.705 95.4164 101.961 95.185 101.724 94.8223L101.061 93.8057C100.825 93.4439 101.185 93.0885 101.865 93.0115L103.854 92.7861C104.534 92.7091 105.277 92.9393 105.515 93.3007L106.182 94.3159C106.42 94.6782 106.062 95.0349 105.381 95.1124Z" fill="#232323"/>
<path d="M105.381 95.1124L103.387 95.339C102.705 95.4164 101.961 95.185 101.724 94.8223L101.061 93.8057C100.825 93.4439 101.185 93.0885 101.865 93.0115L103.854 92.7861C104.534 92.7091 105.277 92.9393 105.515 93.3007L106.182 94.3159C106.42 94.6782 106.062 95.0349 105.381 95.1124Z" stroke="#E8A3A5" stroke-width="0.703125" stroke-linecap="round" stroke-linejoin="round"/>
<path d="M110.063 94.5802L108.072 94.8065C107.391 94.8837 106.646 94.6526 106.408 94.2903L105.74 93.2751C105.502 92.9137 105.86 92.5586 106.539 92.4816L108.526 92.2564C109.205 92.1794 109.949 92.4094 110.188 92.7703L110.86 93.7846C111.1 94.1466 110.744 94.5029 110.063 94.5802Z" fill="#232323"/>
<path d="M110.063 94.5802L108.072 94.8065C107.391 94.8837 106.646 94.6526 106.408 94.2903L105.74 93.2751C105.502 92.9137 105.86 92.5586 106.539 92.4816L108.526 92.2564C109.205 92.1794 109.949 92.4094 110.188 92.7703L110.86 93.7846C111.1 94.1466 110.744 94.5029 110.063 94.5802Z" stroke="#DF8AD0" stroke-width="0.703125" stroke-linecap="round" stroke-linejoin="round"/>
<path d="M62.2685 103.025L58.0644 103.534C57.3734 103.612 56.6335 103.377 56.4119 103.008L55.7915 101.974C55.5707 101.606 55.9508 101.245 56.6403 101.166L60.8349 100.66C61.5234 100.582 62.2625 100.816 62.4857 101.183L63.1128 102.215C63.3367 102.584 62.9588 102.946 62.2685 103.025Z" fill="#232323"/>
<path d="M62.2685 103.025L58.0644 103.534C57.3734 103.612 56.6335 103.377 56.4119 103.008L55.7915 101.974C55.5707 101.606 55.9508 101.245 56.6403 101.166L60.8349 100.66C61.5234 100.582 62.2625 100.816 62.4857 101.183L63.1128 102.215C63.3367 102.584 62.9588 102.946 62.2685 103.025Z" stroke="#B587E6" stroke-width="0.703125" stroke-linecap="round" stroke-linejoin="round"/>
<path d="M67.0134 102.484L64.9948 102.714C64.3048 102.793 63.5639 102.557 63.34 102.189L62.7128 101.157C62.4896 100.79 62.8667 100.429 63.555 100.351L65.569 100.122C66.2569 100.043 66.9966 100.277 67.2215 100.644L67.8531 101.675C68.0786 102.043 67.703 102.405 67.0134 102.484Z" fill="#232323"/>
<path d="M67.0134 102.484L64.9948 102.714C64.3048 102.793 63.5639 102.557 63.34 102.189L62.7128 101.157C62.4896 100.79 62.8667 100.429 63.555 100.351L65.569 100.122C66.2569 100.043 66.9966 100.277 67.2215 100.644L67.8531 101.675C68.0786 102.043 67.703 102.405 67.0134 102.484Z" stroke="#9C8FEB" stroke-width="0.703125" stroke-linecap="round" stroke-linejoin="round"/>
<path d="M71.753 101.944L69.7367 102.174C69.0477 102.252 68.3058 102.017 68.0803 101.649L67.4482 100.618C67.2234 100.251 67.5985 99.8909 68.2862 99.8127L70.2978 99.584C70.985 99.5059 71.7254 99.7394 71.9519 100.106L72.5882 101.136C72.8154 101.503 72.4416 101.865 71.753 101.944Z" fill="#232323"/>
<path d="M71.753 101.944L69.7367 102.174C69.0477 102.252 68.3058 102.017 68.0803 101.649L67.4482 100.618C67.2234 100.251 67.5985 99.8909 68.2862 99.8127L70.2978 99.584C70.985 99.5059 71.7254 99.7394 71.9519 100.106L72.5882 101.136C72.8154 101.503 72.4416 101.865 71.753 101.944Z" stroke="#7CA4E6" stroke-width="0.703125" stroke-linecap="round" stroke-linejoin="round"/>
<path d="M76.4886 101.404L74.4746 101.633C73.7862 101.712 73.0437 101.477 72.8165 101.11L72.1797 100.08C71.953 99.7134 72.3266 99.3534 73.0133 99.2752L75.0225 99.0467C75.7088 98.9688 76.4502 99.2021 76.6783 99.5681L77.3193 100.597C77.5481 100.964 77.1764 101.325 76.4886 101.404Z" fill="#232323"/>
<path d="M76.4886 101.404L74.4746 101.633C73.7862 101.712 73.0437 101.477 72.8165 101.11L72.1797 100.08C71.953 99.7134 72.3266 99.3534 73.0133 99.2752L75.0225 99.0467C75.7088 98.9688 76.4502 99.2021 76.6783 99.5681L77.3193 100.597C77.5481 100.964 77.1764 101.325 76.4886 101.404Z" stroke="#5CB8E2" stroke-width="0.703125" stroke-linecap="round" stroke-linejoin="round"/>
<path d="M81.2182 100.864L79.2063 101.094C78.5189 101.172 77.7756 100.938 77.5468 100.571L76.9054 99.5423C76.677 99.1762 77.0484 98.8164 77.7344 98.7384L79.7416 98.5103C80.4271 98.4323 81.169 98.6656 81.3988 99.0312L82.0447 100.059C82.2751 100.425 81.9053 100.786 81.2182 100.864Z" fill="#232323"/>
<path d="M81.2182 100.864L79.2063 101.094C78.5189 101.172 77.7756 100.938 77.5468 100.571L76.9054 99.5423C76.677 99.1762 77.0484 98.8164 77.7344 98.7384L79.7416 98.5103C80.4271 98.4323 81.169 98.6656 81.3988 99.0312L82.0447 100.059C82.2751 100.425 81.9053 100.786 81.2182 100.864Z" stroke="#63C5CB" stroke-width="0.703125" stroke-linecap="round" stroke-linejoin="round"/>
<path d="M85.9419 100.326L83.9324 100.555C83.2457 100.633 82.502 100.4 82.2713 100.033L81.6251 99.0055C81.3952 98.6399 81.7645 98.2805 82.4498 98.2026L84.4546 97.9746C85.1394 97.8967 85.882 98.1295 86.1134 98.4949L86.764 99.521C86.9961 99.8873 86.6282 100.248 85.9419 100.326Z" fill="#232323"/>
<path d="M85.9419 100.326L83.9324 100.555C83.2457 100.633 82.502 100.4 82.2713 100.033L81.6251 99.0055C81.3952 98.6399 81.7645 98.2805 82.4498 98.2026L84.4546 97.9746C85.1394 97.8967 85.882 98.1295 86.1134 98.4949L86.764 99.521C86.9961 99.8873 86.6282 100.248 85.9419 100.326Z" stroke="#97CAA0" stroke-width="0.703125" stroke-linecap="round" stroke-linejoin="round"/>
<path d="M90.6615 99.7881L88.6546 100.017C87.9686 100.095 87.2239 99.8614 86.9916 99.4952L86.341 98.469C86.1094 98.1036 86.4768 97.7447 87.1612 97.667L89.1637 97.4393C89.8475 97.3616 90.5908 97.5939 90.8241 97.9588L91.4794 98.9841C91.7131 99.3499 91.3471 99.7099 90.6615 99.7881Z" fill="#232323"/>
<path d="M90.6615 99.7881L88.6546 100.017C87.9686 100.095 87.2239 99.8614 86.9916 99.4952L86.341 98.469C86.1094 98.1036 86.4768 97.7447 87.1612 97.667L89.1637 97.4393C89.8475 97.3616 90.5908 97.5939 90.8241 97.9588L91.4794 98.9841C91.7131 99.3499 91.3471 99.7099 90.6615 99.7881Z" stroke="#CCCE75" stroke-width="0.703125" stroke-linecap="round" stroke-linejoin="round"/>
<path d="M95.3736 99.2508L93.3688 99.4794C92.6835 99.5576 91.9383 99.3238 91.7044 98.958L91.0491 97.933C90.8158 97.5681 91.1811 97.2097 91.8648 97.132L93.8652 96.9045C94.5484 96.8268 95.2923 97.0592 95.5272 97.4236L96.187 98.4474C96.4224 98.813 96.0584 99.1728 95.3736 99.2508Z" fill="#232323"/>
<path d="M95.3736 99.2508L93.3688 99.4794C92.6835 99.5576 91.9383 99.3238 91.7044 98.958L91.0491 97.933C90.8158 97.5681 91.1811 97.2097 91.8648 97.132L93.8652 96.9045C94.5484 96.8268 95.2923 97.0592 95.5272 97.4236L96.187 98.4474C96.4224 98.813 96.0584 99.1728 95.3736 99.2508Z" stroke="#EBC769" stroke-width="0.703125" stroke-linecap="round" stroke-linejoin="round"/>
<path d="M100.082 98.7142L98.0793 98.9424C97.3949 99.0203 96.6489 98.7875 96.4132 98.4219L95.7533 97.3978C95.5183 97.0334 95.8816 96.6755 96.5645 96.5978L98.5625 96.3705C99.245 96.293 99.9897 96.5252 100.226 96.8891L100.891 97.9118C101.128 98.2769 100.766 98.6362 100.082 98.7142Z" fill="#232323"/>
<path d="M100.082 98.7142L98.0793 98.9424C97.3949 99.0203 96.6489 98.7875 96.4132 98.4219L95.7533 97.3978C95.5183 97.0334 95.8816 96.6755 96.5645 96.5978L98.5625 96.3705C99.245 96.293 99.9897 96.5252 100.226 96.8891L100.891 97.9118C101.128 98.2769 100.766 98.6362 100.082 98.7142Z" stroke="#E9B18E" stroke-width="0.703125" stroke-linecap="round" stroke-linejoin="round"/>
<path d="M104.786 98.1782L102.786 98.4061C102.102 98.4841 101.355 98.2513 101.118 97.8861L100.454 96.8635C100.217 96.4995 100.578 96.1416 101.26 96.0641L103.256 95.8371C103.938 95.7596 104.683 95.9913 104.921 96.355L105.59 97.3767C105.829 97.7413 105.469 98.1002 104.786 98.1782Z" fill="#232323"/>
<path d="M104.786 98.1782L102.786 98.4061C102.102 98.4841 101.355 98.2513 101.118 97.8861L100.454 96.8635C100.217 96.4995 100.578 96.1416 101.26 96.0641L103.256 95.8371C103.938 95.7596 104.683 95.9913 104.921 96.355L105.59 97.3767C105.829 97.7413 105.469 98.1002 104.786 98.1782Z" stroke="#E89AB4" stroke-width="0.703125" stroke-linecap="round" stroke-linejoin="round"/>
<path d="M111.881 97.4181L107.484 97.8704C106.801 97.9483 106.054 97.7155 105.815 97.3508L105.146 96.3291C104.908 95.9654 105.267 95.6082 105.949 95.5307L110.335 95.0808C111.016 95.0033 111.762 95.2347 112.003 95.5977L112.679 96.6178C112.92 96.982 112.563 97.3404 111.881 97.4181Z" fill="#232323"/>
<path d="M111.881 97.4181L107.484 97.8704C106.801 97.9483 106.054 97.7155 105.815 97.3508L105.146 96.3291C104.908 95.9654 105.267 95.6082 105.949 95.5307L110.335 95.0808C111.016 95.0033 111.762 95.2347 112.003 95.5977L112.679 96.6178C112.92 96.982 112.563 97.3404 111.881 97.4181Z" stroke="#DF8AD0" stroke-width="0.703125" stroke-linecap="round" stroke-linejoin="round"/>
<path d="M61.6577 106.008L59.6303 106.24C58.9375 106.319 58.1952 106.082 57.9725 105.711L57.3486 104.672C57.1266 104.301 57.5074 103.938 58.1985 103.859L60.2212 103.628C60.9121 103.549 61.653 103.785 61.8767 104.155L62.505 105.193C62.7294 105.564 62.35 105.929 61.6577 106.008Z" fill="#232323"/>
<path d="M61.6577 106.008L59.6303 106.24C58.9375 106.319 58.1952 106.082 57.9725 105.711L57.3486 104.672C57.1266 104.301 57.5074 103.938 58.1985 103.859L60.2212 103.628C60.9121 103.549 61.653 103.785 61.8767 104.155L62.505 105.193C62.7294 105.564 62.35 105.929 61.6577 106.008Z" stroke="#CA89DB" stroke-width="0.703125" stroke-linecap="round" stroke-linejoin="round"/>
<path d="M66.4165 105.463L64.3918 105.695C63.6997 105.774 62.9564 105.538 62.7321 105.167L62.1035 104.129C61.8798 103.759 62.2585 103.396 62.949 103.317L64.9693 103.086C65.6593 103.008 66.4011 103.243 66.6264 103.612L67.2597 104.649C67.4857 105.02 67.1082 105.384 66.4165 105.463Z" fill="#232323"/>
<path d="M66.4165 105.463L64.3918 105.695C63.6997 105.774 62.9564 105.538 62.7321 105.167L62.1035 104.129C61.8798 103.759 62.2585 103.396 62.949 103.317L64.9693 103.086C65.6593 103.008 66.4011 103.243 66.6264 103.612L67.2597 104.649C67.4857 105.02 67.1082 105.384 66.4165 105.463Z" stroke="#B587E6" stroke-width="0.703125" stroke-linecap="round" stroke-linejoin="round"/>
<path d="M71.1737 104.92L69.1511 105.151C68.4599 105.23 67.7157 104.994 67.4897 104.623L66.8565 103.586C66.6312 103.217 67.0077 102.854 67.6975 102.776L69.7154 102.545C70.4047 102.467 71.1473 102.702 71.3742 103.071L72.0122 104.107C72.2398 104.476 71.8646 104.841 71.1737 104.92Z" fill="#232323"/>
<path d="M71.1737 104.92L69.1511 105.151C68.4599 105.23 67.7157 104.994 67.4897 104.623L66.8565 103.586C66.6312 103.217 67.0077 102.854 67.6975 102.776L69.7154 102.545C70.4047 102.467 71.1473 102.702 71.3742 103.071L72.0122 104.107C72.2398 104.476 71.8646 104.841 71.1737 104.92Z" stroke="#9C8FEB" stroke-width="0.703125" stroke-linecap="round" stroke-linejoin="round"/>
<path d="M75.9229 104.377L73.9024 104.608C73.2119 104.687 72.4673 104.45 72.2396 104.081L71.6017 103.045C71.3745 102.676 71.7494 102.314 72.4383 102.235L74.4539 102.005C75.1424 101.927 75.8857 102.161 76.1143 102.53L76.7569 103.565C76.9862 103.934 76.6129 104.298 75.9229 104.377Z" fill="#232323"/>
<path d="M75.9229 104.377L73.9024 104.608C73.2119 104.687 72.4673 104.45 72.2396 104.081L71.6017 103.045C71.3745 102.676 71.7494 102.314 72.4383 102.235L74.4539 102.005C75.1424 101.927 75.8857 102.161 76.1143 102.53L76.7569 103.565C76.9862 103.934 76.6129 104.298 75.9229 104.377Z" stroke="#7CA4E6" stroke-width="0.703125" stroke-linecap="round" stroke-linejoin="round"/>
<path d="M80.6662 103.834L78.6481 104.065C77.9583 104.143 77.2132 103.908 76.9836 103.539L76.341 102.504C76.1122 102.135 76.4848 101.773 77.1729 101.695L79.1864 101.465C79.874 101.387 80.6182 101.621 80.8485 101.989L81.4958 103.023C81.7267 103.392 81.3555 103.755 80.6662 103.834Z" fill="#232323"/>
<path d="M80.6662 103.834L78.6481 104.065C77.9583 104.143 77.2132 103.908 76.9836 103.539L76.341 102.504C76.1122 102.135 76.4848 101.773 77.1729 101.695L79.1864 101.465C79.874 101.387 80.6182 101.621 80.8485 101.989L81.4958 103.023C81.7267 103.392 81.3555 103.755 80.6662 103.834Z" stroke="#5CB8E2" stroke-width="0.703125" stroke-linecap="round" stroke-linejoin="round"/>
<path d="M85.4056 103.292L83.3898 103.522C82.701 103.601 81.9549 103.366 81.7237 102.997L81.0764 101.963C80.8459 101.595 81.2164 101.234 81.9038 101.155L83.9152 100.926C84.6022 100.848 85.3466 101.082 85.5787 101.449L86.2307 102.482C86.4633 102.85 86.0942 103.213 85.4056 103.292Z" fill="#232323"/>
<path d="M85.4056 103.292L83.3898 103.522C82.701 103.601 81.9549 103.366 81.7237 102.997L81.0764 101.963C80.8459 101.595 81.2164 101.234 81.9038 101.155L83.9152 100.926C84.6022 100.848 85.3466 101.082 85.5787 101.449L86.2307 102.482C86.4633 102.85 86.0942 103.213 85.4056 103.292Z" stroke="#63C5CB" stroke-width="0.703125" stroke-linecap="round" stroke-linejoin="round"/>
<path d="M90.1391 102.751L88.1256 102.981C87.4375 103.06 86.6908 102.825 86.4579 102.456L85.8059 101.423C85.5738 101.056 85.9424 100.695 86.6289 100.617L88.638 100.387C89.3242 100.309 90.0693 100.543 90.3031 100.91L90.9598 101.942C91.1942 102.31 90.8268 102.672 90.1391 102.751Z" fill="#232323"/>
<path d="M90.1391 102.751L88.1256 102.981C87.4375 103.06 86.6908 102.825 86.4579 102.456L85.8059 101.423C85.5738 101.056 85.9424 100.695 86.6289 100.617L88.638 100.387C89.3242 100.309 90.0693 100.543 90.3031 100.91L90.9598 101.942C91.1942 102.31 90.8268 102.672 90.1391 102.751Z" stroke="#97CAA0" stroke-width="0.703125" stroke-linecap="round" stroke-linejoin="round"/>
<path d="M94.8688 102.21L92.8576 102.44C92.1702 102.519 91.4227 102.284 91.1883 101.916L90.5316 100.884C90.2979 100.517 90.6643 100.156 91.3501 100.078L93.3568 99.8494C94.0421 99.7712 94.7884 100.005 95.0238 100.372L95.6849 101.402C95.921 101.77 95.5557 102.132 94.8688 102.21Z" fill="#232323"/>
<path d="M94.8688 102.21L92.8576 102.44C92.1702 102.519 91.4227 102.284 91.1883 101.916L90.5316 100.884C90.2979 100.517 90.6643 100.156 91.3501 100.078L93.3568 99.8494C94.0421 99.7712 94.7884 100.005 95.0238 100.372L95.6849 101.402C95.921 101.77 95.5557 102.132 94.8688 102.21Z" stroke="#CCCE75" stroke-width="0.703125" stroke-linecap="round" stroke-linejoin="round"/>
<path d="M99.5908 101.67L97.5817 101.9C96.8953 101.978 96.1471 101.744 95.911 101.376L95.2494 100.346C95.014 99.9791 95.3789 99.6188 96.0639 99.5406L98.0683 99.312C98.7529 99.2338 99.4997 99.4673 99.7367 99.8336L100.403 100.863C100.64 101.23 100.277 101.592 99.5908 101.67Z" fill="#232323"/>
<path d="M99.5908 101.67L97.5817 101.9C96.8953 101.978 96.1471 101.744 95.911 101.376L95.2494 100.346C95.014 99.9791 95.3789 99.6188 96.0639 99.5406L98.0683 99.312C98.7529 99.2338 99.4997 99.4673 99.7367 99.8336L100.403 100.863C100.64 101.23 100.277 101.592 99.5908 101.67Z" stroke="#EBC769" stroke-width="0.703125" stroke-linecap="round" stroke-linejoin="round"/>
<path d="M104.309 101.131L102.302 101.36C101.616 101.438 100.867 101.204 100.63 100.837L99.9633 99.8077C99.7263 99.4415 100.089 99.0814 100.773 99.0035L102.775 98.775C103.459 98.6971 104.207 98.9304 104.445 99.2962L105.116 100.324C105.355 100.691 104.994 101.052 104.309 101.131Z" fill="#232323"/>
<path d="M104.309 101.131L102.302 101.36C101.616 101.438 100.867 101.204 100.63 100.837L99.9633 99.8077C99.7263 99.4415 100.089 99.0814 100.773 99.0035L102.775 98.775C103.459 98.6971 104.207 98.9304 104.445 99.2962L105.116 100.324C105.355 100.691 104.994 101.052 104.309 101.131Z" stroke="#E9B18E" stroke-width="0.703125" stroke-linecap="round" stroke-linejoin="round"/>
<path d="M109.021 100.592L107.016 100.821C106.331 100.899 105.582 100.665 105.342 100.298L104.671 99.2705C104.433 98.9046 104.794 98.5451 105.477 98.4671L107.477 98.2391C108.16 98.1612 108.908 98.3943 109.148 98.7596L109.824 99.7863C110.065 100.153 109.705 100.514 109.021 100.592Z" fill="#232323"/>
<path d="M109.021 100.592L107.016 100.821C106.331 100.899 105.582 100.665 105.342 100.298L104.671 99.2705C104.433 98.9046 104.794 98.5451 105.477 98.4671L107.477 98.2391C108.16 98.1612 108.908 98.3943 109.148 98.7596L109.824 99.7863C110.065 100.153 109.705 100.514 109.021 100.592Z" stroke="#E89AB4" stroke-width="0.703125" stroke-linecap="round" stroke-linejoin="round"/>
<path d="M113.729 100.054L111.727 100.283C111.042 100.361 110.292 100.127 110.051 99.7607L109.376 98.7338C109.135 98.3685 109.494 98.0094 110.177 97.9314L112.174 97.7037C112.857 97.626 113.606 97.8583 113.848 98.2235L114.527 99.2492C114.77 99.6152 114.413 99.9758 113.729 100.054Z" fill="#232323"/>
<path d="M113.729 100.054L111.727 100.283C111.042 100.361 110.292 100.127 110.051 99.7607L109.376 98.7338C109.135 98.3685 109.494 98.0094 110.177 97.9314L112.174 97.7037C112.857 97.626 113.606 97.8583 113.848 98.2235L114.527 99.2492C114.77 99.6152 114.413 99.9758 113.729 100.054Z" stroke="#DF8AD0" stroke-width="0.703125" stroke-linecap="round" stroke-linejoin="round"/>
<path d="M89.6074 108.959C90.4512 113.048 93.5491 115.94 103.089 115.68C112.63 115.42 109.102 119.414 103.267 123.162" stroke="#232323" stroke-width="2.34375" stroke-linecap="round" stroke-linejoin="round"/>
<path d="M26.4995 111.001C26.5462 110.224 26.9226 107.345 27.2455 106.731C29.5759 102.299 38.2459 102.127 40.9816 106.635C41.3723 107.279 41.4672 110.201 41.5799 111.038C42.0269 114.353 26.3174 114.031 26.4995 111.001Z" fill="#666666"/>
<path d="M26.4995 111.001C26.5462 110.224 26.9226 107.345 27.2455 106.731C29.5759 102.299 38.2459 102.127 40.9816 106.635C41.3723 107.279 41.4672 110.201 41.5799 111.038C42.0269 114.353 26.3174 114.031 26.4995 111.001Z" stroke="#232323" stroke-width="2.34375" stroke-linecap="round" stroke-linejoin="round"/>
<path d="M34.664 107.383V110.534" stroke="#00A4FF" stroke-width="2.34375" stroke-linecap="round" stroke-linejoin="round"/>
<path d="M28.9993 110.501C28.7699 110.264 28.8371 109.613 28.9806 108.718" stroke="#808080" stroke-width="2.34375" stroke-linecap="round" stroke-linejoin="round"/>
<path d="M34.0926 114.054C38.4312 123.272 24.3133 118.463 22.6484 120.546" stroke="#232323" stroke-width="2.34375" stroke-linecap="round" stroke-linejoin="round"/>
<path d="M80.8745 92.5997C86.3788 96.859 93.3178 98.7756 98.8601 97.0686C102.047 95.7397 97.5148 91.7978 88.1627 82.2878" fill="#FFD527"/>
<path d="M80.8745 92.5997C86.3788 96.859 93.3178 98.7756 98.8601 97.0686C102.047 95.7397 97.5148 91.7978 88.1627 82.2878" stroke="#FA9016" stroke-width="2.46051" stroke-linecap="round" stroke-linejoin="round"/>
<path d="M84.623 83.7336C87.4272 86.463 90.8311 90.2377 93.6713 92.3629" stroke="#FCEE21" stroke-width="2.31615" stroke-linecap="round" stroke-linejoin="round"/>
<path d="M25.7583 85.3751C22.5424 81.8496 20.4196 77.417 19.6889 72.2493C17.3384 55.6251 30.0705 36.876 48.631 33.9347C67.1914 30.9934 84.5513 44.9741 86.9018 61.5983C87.8078 68.0056 86.3515 73.965 83.0449 79.0065" fill="#FFD527"/>
<path d="M25.7583 85.3751C22.5424 81.8496 20.4196 77.417 19.6889 72.2493C17.3384 55.6251 30.0705 36.876 48.631 33.9347C67.1914 30.9934 84.5513 44.9741 86.9018 61.5983C87.8078 68.0056 86.3515 73.9651 83.0449 79.0065" stroke="#FA9016" stroke-width="2.46034" stroke-linecap="round" stroke-linejoin="round"/>
<path d="M47.454 39.4473C42.1513 40.4206 36.976 43.193 32.8855 47.335" stroke="white" stroke-width="2.31586" stroke-linecap="round" stroke-linejoin="round"/>
<path d="M79.8857 73.4888C81.546 68.6956 81.9527 63.5728 80.8266 58.8215C79.6105 53.691 76.7855 49.7454 72.9295 47.0583" stroke="#FCEE21" stroke-width="2.31587" stroke-linecap="round" stroke-linejoin="round"/>
<path d="M42.3567 64.1292C41.5351 67.3644 38.8022 69.2571 35.8098 68.7298C32.824 68.2019 31.297 65.4049 31.9572 62.181C32.624 58.9634 35.6271 56.6051 38.5244 57.1758C41.4216 57.7466 43.1729 60.9003 42.3567 64.1292Z" fill="black"/>
<path d="M42.3567 64.1292C41.5351 67.3644 38.8022 69.2571 35.8098 68.7298C32.824 68.2019 31.297 65.4049 31.9572 62.181C32.624 58.9634 35.6271 56.6051 38.5244 57.1758C41.4216 57.7466 43.1729 60.9003 42.3567 64.1292Z" stroke="black" stroke-width="0.101134"/>
<path d="M35.8072 60.5499C35.8807 61.4076 36.7755 62.0278 37.8054 61.9349C38.8353 61.8419 39.6108 61.0711 39.5373 60.2133C39.4637 59.3555 38.5689 58.7353 37.539 58.8283C36.5091 58.9212 35.7336 59.6921 35.8072 60.5499Z" fill="#FBFBFB"/>
<path d="M66.872 62.4125C68.1047 65.4882 71.0015 66.9432 73.6364 65.9323C76.241 64.9251 77.3041 61.8729 76.2157 58.7992C75.1292 55.723 72.0115 53.9546 69.4008 54.9638C66.7636 55.9763 65.644 59.3429 66.872 62.4125Z" fill="black"/>
<path d="M66.872 62.4125C68.1047 65.4882 71.0015 66.9432 73.6364 65.9323C76.241 64.9251 77.3041 61.8729 76.2157 58.7992C75.1292 55.723 72.0115 53.9546 69.4008 54.9638C66.7636 55.9763 65.644 59.3429 66.872 62.4125Z" stroke="black" stroke-width="0.0878989"/>
<path d="M69.3181 57.7493C69.2587 58.6416 69.9275 59.4256 70.8121 59.5002C71.0385 59.5192 71.2571 59.49 71.4581 59.4209C72.0422 59.2204 72.4772 58.6834 72.5215 58.0195C72.5809 57.1272 71.9121 56.3434 71.0275 56.2689C70.143 56.1943 69.3776 56.857 69.3181 57.7493Z" fill="#FBFBFB"/>
<path d="M24.4344 93.8558C29.2174 100.203 30.2875 109.668 35.1506 109.006C37.249 108.72 40.7502 101.192 40.2235 88.0016" fill="#FFD527"/>
<path d="M24.4344 93.8558C29.2174 100.203 30.2875 109.668 35.1506 109.006C37.249 108.72 40.7502 101.192 40.2235 88.0016" stroke="#FA9016" stroke-width="2.46072" stroke-linecap="round" stroke-linejoin="round"/>
<path d="M28.701 92.5298C29.9893 94.0873 31.5197 97.4858 32.1945 99.9158" stroke="white" stroke-width="2.31603" stroke-linecap="round" stroke-linejoin="round"/>
<path d="M47.2973 67.1215C50.4706 65.0848 50.4372 57.7162 53.4543 58.0191C56.9268 58.3678 57.9636 64.7249 61.3075 65.3331C63.5387 65.739 65.0576 67.0478 65.2927 68.7563C65.5277 70.4647 64.2673 71.9734 63.2958 72.4937C61.0574 73.6924 59.0479 74.3059 55.4666 74.6514C51.2334 75.0597 49.6697 74.6231 47.2526 74.1157C45.3172 73.7096 44.4853 72.3219 44.4312 70.6825C44.3555 69.1416 45.2704 68.4223 47.2973 67.1215Z" fill="#FF5D1F"/>
<path d="M47.2973 67.1215C50.4706 65.0848 50.4372 57.7162 53.4543 58.0191C56.9268 58.3678 57.9636 64.7249 61.3075 65.3331C63.5387 65.739 65.0576 67.0478 65.2927 68.7563C65.5277 70.4647 64.2673 71.9734 63.2958 72.4937C61.0574 73.6924 59.0479 74.3059 55.4666 74.6514C51.2334 75.0597 49.6697 74.6231 47.2526 74.1157C45.3172 73.7096 44.4853 72.3219 44.4312 70.6825C44.3555 69.1416 45.2704 68.4223 47.2973 67.1215Z" stroke="#CF3502" stroke-width="2.12568" stroke-linecap="round" stroke-linejoin="round"/>
<path d="M50.0239 67.0362C51.1815 65.9155 52.0371 63.7838 53.02 61.3963" stroke="#FFB484" stroke-width="2.08458" stroke-linecap="round" stroke-linejoin="round"/>
<path d="M48.1259 71.0301C52.7794 70.6838 60.5299 70.0161 61.8618 69.8702C60.885 69.9623 58.8951 70.1496 56.7126 70.3369C53.3457 70.6248 49.7286 70.9085 48.1259 71.0301Z" fill="#7D0909"/>
<path d="M48.1266 71.0297C52.7809 70.6847 60.5311 70.0161 61.8619 69.8695C60.8865 69.9632 58.8955 70.1491 56.7134 70.3365C53.346 70.6255 49.7295 70.9083 48.1266 71.0297Z" stroke="#7D0909" stroke-width="2.08405" stroke-linecap="round" stroke-linejoin="round"/>
<path d="M28.8602 40.3819C25.4697 33.6798 26.0047 22.6663 28.1036 18.201C36.1162 19.9687 46.3617 31.2613 45.6477 32.2232C37.8331 33.5644 32.1858 37.3255 28.8602 40.3819Z" fill="#666666"/>
<path d="M28.8602 40.3819C25.4697 33.6798 26.0047 22.6663 28.1036 18.201C36.1162 19.9687 46.3617 31.2613 45.6477 32.2232C37.8331 33.5644 32.1858 37.3255 28.8602 40.3819Z" stroke="#232323" stroke-width="2.97646" stroke-linecap="round" stroke-linejoin="round"/>
<path d="M29.7826 21.7572C28.4594 25.3151 29.2577 32.8014 30.1774 34.9945" stroke="#A2A2A2" stroke-width="2.38116" stroke-linecap="round" stroke-linejoin="round"/>
<path d="M29.02 25.7352C28.8425 27.6911 29.0623 29.8626 29.3864 31.6886" stroke="#C5C5C5" stroke-width="2.38116" stroke-linecap="round" stroke-linejoin="round"/>
<path d="M31.3178 34.439C29.883 31.603 30.1093 26.9428 30.9975 25.053C34.3882 25.8011 38.724 30.5797 38.4218 30.9867C35.115 31.5542 32.7251 33.1457 31.3178 34.439Z" fill="#DF8AD0"/>
<path d="M31.3178 34.439C29.883 31.603 30.1093 26.9428 30.9975 25.053C34.3882 25.8011 38.724 30.5797 38.4218 30.9867C35.115 31.5542 32.7251 33.1457 31.3178 34.439Z" stroke="#DF8AD0" stroke-width="2.97646" stroke-linecap="round" stroke-linejoin="round"/>
<path d="M59.4824 31.2817C62.1037 24.3677 70.5273 17.7632 75.2111 16.5514C79.3176 23.9201 77.956 39.1006 76.7706 39.1577C70.5214 33.9252 63.9615 31.9238 59.4824 31.2817Z" fill="#666666"/>
<path d="M59.4824 31.2817C62.1037 24.3677 70.5273 17.7632 75.2111 16.5514C79.3176 23.9201 77.956 39.1006 76.7706 39.1577C70.5214 33.9252 63.9615 31.9238 59.4824 31.2817Z" stroke="#232323" stroke-width="2.97721" stroke-linecap="round" stroke-linejoin="round"/>
<path d="M64.969 30.6515C66.0782 27.7258 69.6424 24.9311 71.6247 24.4182C73.3624 27.5365 72.7864 33.9605 72.2847 33.9845C69.6404 31.7704 66.8644 30.9233 64.969 30.6515Z" fill="#DF8AD0"/>
<path d="M64.969 30.6515C66.0782 27.7258 69.6424 24.9311 71.6247 24.4182C73.3624 27.5365 72.7864 33.9605 72.2847 33.9845C69.6404 31.7704 66.8644 30.9233 64.969 30.6515Z" stroke="#DF8AD0" stroke-width="2.97721" stroke-linecap="round" stroke-linejoin="round"/>
<path d="M19.5201 50.8394C21.1066 46.5027 23.5486 42.7539 26.5886 39.6466C42.0151 23.8792 72.8392 24.6254 85.3894 48.8258" stroke="#232323" stroke-width="7.44095" stroke-linecap="round" stroke-linejoin="round"/>
<path d="M19.5201 50.8394C21.1066 46.5027 23.5486 42.7539 26.5886 39.6466C42.0151 23.8792 72.8392 24.6254 85.3894 48.8258" stroke="#666666" stroke-width="2.3811" stroke-linecap="round" stroke-linejoin="round"/>
<path d="M27.1763 39.3398C33.4992 32.7962 42.5555 29.2211 51.7576 29.1534" stroke="#878787" stroke-width="2.3811" stroke-linecap="round" stroke-linejoin="round"/>
<path d="M21.8219 81.7975C20.8608 82.7735 18.366 82.323 17.3091 82.1977C14.2039 81.8291 7.62743 75.0566 8.54192 64.9938C9.79871 51.162 15.6625 46.7945 19.6567 47.0376C20.8623 47.111 22.8871 47.0434 23.6518 48.5181C22.154 52.5373 20.9884 75.9456 21.8219 81.7975Z" fill="#666666"/>
<path d="M21.8219 81.7975C20.8608 82.7735 18.366 82.323 17.3091 82.1977C14.2039 81.8291 7.62743 75.0566 8.54192 64.9938C9.79871 51.162 15.6625 46.7945 19.6567 47.0376C20.8623 47.111 22.8871 47.0434 23.6518 48.5181C22.154 52.5373 20.9884 75.9456 21.8219 81.7975Z" stroke="#232323" stroke-width="2.97638" stroke-linecap="round" stroke-linejoin="round"/>
<path d="M10.9384 76.4379C9.27178 73.5101 8.12322 69.5958 8.54136 64.9938C9.06449 59.2378 10.3853 55.1204 12.0371 52.2927C11.1032 56.6063 9.58216 67.9491 10.9384 76.4379Z" fill="#DF8AD0"/>
<path d="M10.9384 76.4379C9.27178 73.5101 8.12322 69.5958 8.54136 64.9938C9.06449 59.2378 10.3853 55.1204 12.0371 52.2927C11.1032 56.6063 9.58216 67.9491 10.9384 76.4379Z" stroke="#232323" stroke-width="2.97638" stroke-linecap="round" stroke-linejoin="round"/>
<path d="M17.6816 56.333C16.3782 59.848 16.324 68.7841 16.3763 75.6419" stroke="#DF8AD0" stroke-width="2.97638" stroke-linecap="round" stroke-linejoin="round"/>
<path d="M83.3494 79.0076C91.0512 80.8322 97.4478 72.1156 96.2117 61.788C94.9729 51.4385 88.6828 44.6092 80.7219 46.114C82.553 54.4972 83.0653 68.1171 83.3494 79.0076Z" fill="#666666"/>
<path d="M83.3494 79.0076C91.0512 80.8322 97.4478 72.1156 96.2117 61.788C94.9729 51.4385 88.6828 44.6092 80.7219 46.114C82.553 54.4972 83.0653 68.1171 83.3494 79.0076Z" stroke="#232323" stroke-width="2.97638" stroke-linecap="round" stroke-linejoin="round"/>
<path d="M88.1914 50.6217C90.2094 52.1136 91.4508 54.6132 92.196 57.2639" stroke="#878787" stroke-width="2.3811" stroke-linecap="round" stroke-linejoin="round"/>
<path d="M87.6113 54.1219C88.2979 60.4042 88.6584 66.5801 88.6132 71.8724" stroke="#DF8AD0" stroke-width="2.97638" stroke-linecap="round" stroke-linejoin="round"/>
<path d="M93.9818 73.6686C95.8327 70.5154 96.753 66.3061 96.2125 61.788C95.797 58.3126 94.8118 55.2342 93.3848 52.7352C94.2651 56.8327 95.0093 67.5348 93.9818 73.6686Z" fill="#DF8AD0"/>
<path d="M93.9818 73.6686C95.8327 70.5154 96.753 66.3061 96.2125 61.788C95.797 58.3126 94.8118 55.2342 93.3848 52.7352C94.2651 56.8327 95.0093 67.5348 93.9818 73.6686Z" stroke="#232323" stroke-width="3.27402" stroke-linecap="round" stroke-linejoin="round"/>
<path d="M82.7488 75.9353C76.4889 79.0949 69.3226 80.0168 63.6821 80.3648" stroke="#232323" stroke-width="7.14331" stroke-linecap="round" stroke-linejoin="round"/>
<path d="M85.5009 74.0283C80.2578 78.3848 70.5899 79.7412 64.4097 80.222" stroke="#666666" stroke-width="2.3811" stroke-linecap="round" stroke-linejoin="round"/>
<path d="M70.2765 79.5286C68.7161 79.7684 67.1667 80.2049 64.0327 80.1845" stroke="#232323" stroke-width="8.6315" stroke-linecap="round" stroke-linejoin="round"/>
<path d="M70.017 79.5768C67.9922 79.8536 65.975 80.0333 64.0327 80.1844" stroke="#DF8AD0" stroke-width="3.57165" stroke-linecap="round" stroke-linejoin="round"/>
</g>
</g>
</g>
<defs>
<clipPath id="clip0_1_243">
<rect width="120" height="120" fill="white"/>
</clipPath>
</defs>
</svg>
