<svg width="180" height="180" viewBox="0 0 180 180" fill="none" xmlns="http://www.w3.org/2000/svg">
<g clip-path="url(#clip0_1_2085)">
<mask id="mask0_1_2085" style="mask-type:luminance" maskUnits="userSpaceOnUse" x="0" y="0" width="180" height="180">
<path d="M180 0H0V180H180V0Z" fill="white"/>
</mask>
<g mask="url(#mask0_1_2085)">
<mask id="mask1_1_2085" style="mask-type:luminance" maskUnits="userSpaceOnUse" x="0" y="0" width="180" height="180">
<path d="M0 0H180V180H0V0Z" fill="white"/>
</mask>
<g mask="url(#mask1_1_2085)">
<path d="M8.70605 38.0046V44.7045" stroke="#56CBFF" stroke-width="3.5199" stroke-linecap="round" stroke-linejoin="round"/>
<path d="M13.5661 34.1396V48.5704" stroke="#56CBFF" stroke-width="3.5199" stroke-linecap="round" stroke-linejoin="round"/>
<path d="M18.4325 34.1396V48.5704" stroke="#56CBFF" stroke-width="3.5199" stroke-linecap="round" stroke-linejoin="round"/>
<path d="M23.2944 38.0046V44.7045" stroke="#56CBFF" stroke-width="3.5199" stroke-linecap="round" stroke-linejoin="round"/>
<path d="M28.156 38.0046V44.7045" stroke="#56CBFF" stroke-width="3.5199" stroke-linecap="round" stroke-linejoin="round"/>
<path d="M33.0239 38.0046V44.7045" stroke="#56CBFF" stroke-width="3.5199" stroke-linecap="round" stroke-linejoin="round"/>
<path d="M37.8858 31.0471V51.6625" stroke="#56CBFF" stroke-width="3.5199" stroke-linecap="round" stroke-linejoin="round"/>
<path d="M42.7458 36.1912V46.5181" stroke="#56CBFF" stroke-width="3.5199" stroke-linecap="round" stroke-linejoin="round"/>
<path d="M47.6122 40.0657V42.6426" stroke="#56CBFF" stroke-width="3.5199" stroke-linecap="round" stroke-linejoin="round"/>
<path d="M52.4693 40.0657V42.6426" stroke="#56CBFF" stroke-width="3.5199" stroke-linecap="round" stroke-linejoin="round"/>
<path d="M57.3357 40.0657V42.6426" stroke="#56CBFF" stroke-width="3.5199" stroke-linecap="round" stroke-linejoin="round"/>
<path d="M62.1975 40.0657V42.6426" stroke="#56CBFF" stroke-width="3.5199" stroke-linecap="round" stroke-linejoin="round"/>
<path d="M67.0561 40.0657V42.6426" stroke="#56CBFF" stroke-width="3.5199" stroke-linecap="round" stroke-linejoin="round"/>
<path d="M71.9255 40.0657V42.6426" stroke="#56CBFF" stroke-width="3.5199" stroke-linecap="round" stroke-linejoin="round"/>
<path d="M76.7874 40.0657V42.6426" stroke="#56CBFF" stroke-width="3.5199" stroke-linecap="round" stroke-linejoin="round"/>
<path d="M81.6459 40.0657V42.6426" stroke="#56CBFF" stroke-width="3.5199" stroke-linecap="round" stroke-linejoin="round"/>
<path d="M86.5154 38.0046V44.7045" stroke="#56CBFF" stroke-width="3.5199" stroke-linecap="round" stroke-linejoin="round"/>
<path d="M91.3772 31.0469V51.6623" stroke="#56CBFF" stroke-width="3.5199" stroke-linecap="round" stroke-linejoin="round"/>
<path d="M96.2358 38.0046V44.7045" stroke="#56CBFF" stroke-width="3.5199" stroke-linecap="round" stroke-linejoin="round"/>
<path d="M101.104 38.0046V44.7045" stroke="#56CBFF" stroke-width="3.5199" stroke-linecap="round" stroke-linejoin="round"/>
<path d="M105.958 31.0469V51.6623" stroke="#56CBFF" stroke-width="3.5199" stroke-linecap="round" stroke-linejoin="round"/>
<path d="M110.824 23.8315V58.8777" stroke="#56CBFF" stroke-width="3.5199" stroke-linecap="round" stroke-linejoin="round"/>
<path d="M115.689 31.0469V51.6623" stroke="#56CBFF" stroke-width="3.5199" stroke-linecap="round" stroke-linejoin="round"/>
<path d="M120.547 38.0046V44.7045" stroke="#56CBFF" stroke-width="3.5199" stroke-linecap="round" stroke-linejoin="round"/>
<path d="M125.414 40.0657V42.6426" stroke="#56CBFF" stroke-width="3.5199" stroke-linecap="round" stroke-linejoin="round"/>
<path d="M130.277 40.0657V42.6426" stroke="#56CBFF" stroke-width="3.5199" stroke-linecap="round" stroke-linejoin="round"/>
<path d="M135.137 40.0657V42.6426" stroke="#56CBFF" stroke-width="3.5199" stroke-linecap="round" stroke-linejoin="round"/>
<path d="M140.004 40.0657V42.6426" stroke="#56CBFF" stroke-width="3.5199" stroke-linecap="round" stroke-linejoin="round"/>
<path d="M144.868 40.0657V42.6426" stroke="#56CBFF" stroke-width="3.5199" stroke-linecap="round" stroke-linejoin="round"/>
<path d="M149.723 40.0657V42.6426" stroke="#56CBFF" stroke-width="3.5199" stroke-linecap="round" stroke-linejoin="round"/>
<path d="M154.552 22.8008V59.9086" stroke="#56CBFF" stroke-width="3.5199" stroke-linecap="round" stroke-linejoin="round"/>
<path d="M159.414 33.0928V49.6159" stroke="#56CBFF" stroke-width="3.5199" stroke-linecap="round" stroke-linejoin="round"/>
<path d="M164.283 26.9238V55.7854" stroke="#56CBFF" stroke-width="3.5199" stroke-linecap="round" stroke-linejoin="round"/>
<path d="M169.142 40.0659V42.6428" stroke="#56CBFF" stroke-width="3.5199" stroke-linecap="round" stroke-linejoin="round"/>
<path d="M109.367 105.892C108.687 94.1288 110.921 90.8303 103.695 90.8303C96.4687 90.8303 91.2323 95.9778 90.1008 106.474C88.6705 119.745 96.5024 123.553 102.319 123.53C108.136 123.507 110.03 117.36 109.367 105.892Z" fill="#41AEE6"/>
<path d="M109.367 105.892C108.687 94.1288 110.921 90.8303 103.695 90.8303C96.4687 90.8303 91.2323 95.9778 90.1008 106.474C88.6705 119.745 96.5024 123.553 102.319 123.53C108.136 123.507 110.03 117.36 109.367 105.892Z" stroke="#045E95" stroke-width="3.20993" stroke-linecap="round" stroke-linejoin="round"/>
<path d="M96.5775 107.088C95.1025 113.029 98.3349 123.228 102.417 123.619L96.5775 107.088Z" fill="#41AEE6"/>
<path d="M96.5775 107.088C95.1025 113.029 98.3349 123.228 102.417 123.619" stroke="#045E95" stroke-width="3.20993" stroke-linecap="round" stroke-linejoin="round"/>
<path d="M44.4156 49.2886C60.2545 49.4898 71.9335 59.4655 75.0263 75.6756" stroke="#14193B" stroke-width="3.06508" stroke-linecap="round" stroke-linejoin="round"/>
<path d="M62.3013 88.6449C62.3013 76.5504 66.3605 73.2621 71.6299 72.8665C77.1673 72.4508 83.2221 79.4326 83.3842 89.3997C83.6069 103.1 79.3176 105.826 72.415 106.147C65.5125 106.469 62.3013 100.436 62.3013 88.6449Z" fill="#9C46C2"/>
<path d="M62.3013 88.6449C62.3013 76.5504 66.3605 73.2621 71.6299 72.8665C77.1673 72.4508 83.2221 79.4326 83.3842 89.3997C83.6069 103.1 79.3176 105.826 72.415 106.147C65.5125 106.469 62.3013 100.436 62.3013 88.6449Z" stroke="#541770" stroke-width="3.14727" stroke-linecap="round" stroke-linejoin="round"/>
<path d="M74.4962 82.2124C77.6483 87.5639 77.2977 104.587 72.4819 105.23L74.4962 82.2124Z" fill="#9C46C2"/>
<path d="M74.4962 82.2124C77.6483 87.5639 77.2977 104.587 72.4819 105.23" stroke="#541770" stroke-width="3.14727" stroke-linecap="round" stroke-linejoin="round"/>
<path d="M134.55 157.122C119.898 157.122 104.664 154.276 103.434 144.17C103.112 141.526 103.259 138.641 103.73 136.787C104.49 133.799 104.834 132.566 105.491 130.549C110.95 113.81 117.881 112.309 134.55 112.309C152.743 112.309 166.536 118.395 167.815 141.17C168.744 157.709 149.276 157.122 134.55 157.122Z" fill="#FFD527"/>
<path d="M134.55 157.122C119.898 157.122 104.664 154.276 103.434 144.17C103.112 141.526 103.259 138.641 103.73 136.787C104.49 133.799 104.834 132.566 105.491 130.549C110.95 113.81 117.881 112.309 134.55 112.309C152.743 112.309 166.536 118.395 167.815 141.17C168.744 157.709 149.276 157.122 134.55 157.122Z" stroke="#FA9016" stroke-width="2.58398" stroke-linecap="round" stroke-linejoin="round"/>
<path d="M41.5881 157.122C56.2395 157.122 71.474 154.276 72.7042 144.17C73.0261 141.526 72.8787 138.641 72.4074 136.787C71.6479 133.799 71.3041 132.566 70.6465 130.549C65.1879 113.81 58.2568 112.309 41.5881 112.309C27.034 112.309 18.5828 107.738 11.5415 119.501C4.5788 131.133 3.52412 142.734 7.7573 155.734C10.7502 164.924 29.8309 157.122 41.5881 157.122Z" fill="#83AAD3"/>
<path d="M41.5881 157.122C56.2395 157.122 71.474 154.276 72.7042 144.17C73.0261 141.526 72.8787 138.641 72.4074 136.787C71.6479 133.799 71.3041 132.566 70.6465 130.549C65.1879 113.81 58.2568 112.309 41.5881 112.309C27.034 112.309 18.5828 107.738 11.5415 119.501C4.57879 131.133 3.52411 142.734 7.7573 155.734C10.7502 164.924 29.8309 157.122 41.5881 157.122Z" stroke="#3C6593" stroke-width="2.58398" stroke-linecap="round" stroke-linejoin="round"/>
<path d="M89.8925 138.985C132.596 138.985 169.309 142.66 177.097 151.714C178.137 152.923 177.54 157.336 177.54 158.613C177.54 169.454 138.299 178.242 89.8925 178.242C41.4864 178.242 2.24528 169.454 2.24528 158.613C2.24528 157.988 1.84868 152.886 2.10442 152.275C6.27896 142.305 44.2806 138.985 89.8925 138.985Z" fill="#B7610C"/>
<path d="M89.8925 138.985C132.596 138.985 169.309 142.66 177.097 151.714C178.137 152.923 177.54 157.336 177.54 158.613C177.54 169.454 138.299 178.242 89.8925 178.242C41.4864 178.242 2.24528 169.454 2.24528 158.613C2.24528 157.988 1.84868 152.886 2.10442 152.275C6.27896 142.305 44.2806 138.985 89.8925 138.985Z" stroke="#8A3800" stroke-width="2.95313"/>
<path d="M89.8905 133.008C138.297 133.008 177.538 141.797 177.538 152.637C177.538 163.478 138.297 172.266 89.8905 172.266C41.4844 172.266 2.24329 163.478 2.24329 152.637C2.24329 141.797 41.4844 133.008 89.8905 133.008Z" fill="#F2AD4E"/>
<path d="M89.8905 133.008C138.297 133.008 177.538 141.797 177.538 152.637C177.538 163.478 138.297 172.266 89.8905 172.266C41.4844 172.266 2.24329 163.478 2.24329 152.637C2.24329 141.797 41.4844 133.008 89.8905 133.008Z" stroke="#8A3800" stroke-width="2.95313"/>
<path d="M105.328 125.112C90.3534 140.537 108.251 144.201 111.337 142.516C114.045 141.815 108.283 136.23 112.559 132.503" fill="#FFD527"/>
<path d="M105.328 125.112C90.3534 140.537 108.251 144.201 111.337 142.516C114.045 141.815 108.283 136.23 112.559 132.503" stroke="#FA9016" stroke-width="2.58398" stroke-linecap="round" stroke-linejoin="round"/>
<path d="M161.353 127.347C167.242 122.265 170.571 115.272 170.388 107.161C170 89.9301 153.993 73.3199 134.718 73.7539C115.444 74.1879 100.2 91.5019 100.588 108.733C100.771 116.866 104.429 123.67 110.465 128.445" fill="#FFD527"/>
<path d="M161.353 127.347C167.242 122.265 170.571 115.272 170.388 107.161C170 89.9301 153.993 73.3199 134.718 73.7539C115.444 74.1879 100.2 91.5019 100.588 108.733C100.771 116.866 104.429 123.67 110.465 128.445" stroke="#FA9016" stroke-width="2.58398" stroke-linecap="round" stroke-linejoin="round"/>
<path d="M116.475 86.975C120.785 83.1042 126.447 80.4611 132.5 79.6065" stroke="white" stroke-width="2.43205" stroke-linecap="round" stroke-linejoin="round"/>
<path d="M161.11 94.2485C163.673 98.2568 165.189 102.789 165.292 107.377C165.425 113.284 163.195 118.34 159.353 122.238" stroke="#FCEE21" stroke-width="2.43205" stroke-linecap="round" stroke-linejoin="round"/>
<path d="M130.261 106.81C131.228 109.947 134.338 111.931 137.207 111.241C140.075 110.552 141.617 107.449 140.65 104.312C139.682 101.175 136.573 99.1909 133.704 99.8805C130.835 100.57 129.294 103.672 130.261 106.81Z" fill="black"/>
<path d="M136.748 103.067C136.72 103.905 135.814 104.555 134.725 104.518C133.636 104.482 132.776 103.774 132.804 102.936C132.832 102.098 133.737 101.448 134.826 101.485C135.915 101.521 136.776 102.229 136.748 103.067Z" fill="white"/>
<path d="M114.949 106.75C113.92 109.82 111.115 111.608 108.682 110.742C106.25 109.876 105.112 106.685 106.141 103.614C107.17 100.543 109.975 98.7558 112.408 99.6217C114.84 100.488 115.978 103.679 114.949 106.75Z" fill="black"/>
<path d="M112.398 102.922C112.491 103.792 111.884 104.593 111.042 104.712C110.826 104.742 110.616 104.725 110.421 104.667C109.855 104.501 109.417 103.998 109.347 103.351C109.253 102.481 109.86 101.679 110.703 101.561C111.545 101.443 112.304 102.052 112.398 102.922Z" fill="white"/>
<path d="M165.332 140.585C161.738 152.033 145.551 150.996 143.606 147.692C142.368 145.589 151.352 144.668 151.796 131.786" fill="#FFD527"/>
<path d="M165.332 140.585C161.738 152.033 145.551 150.996 143.606 147.692C142.368 145.589 151.352 144.668 151.796 131.786" stroke="#FA9016" stroke-width="2.58398" stroke-linecap="round" stroke-linejoin="round"/>
<path d="M154.589 135.972C154.079 138.446 153.395 141.85 149.927 144.296" stroke="white" stroke-width="2.43205" stroke-linecap="round" stroke-linejoin="round"/>
<path d="M136.579 117.348C122.521 117.597 125.049 107.267 121.464 107.783C117.337 108.378 118.707 116.666 109.369 116.65C106.234 116.645 104.466 118.184 106.511 120.631C104.468 122.499 106.028 123.935 107.419 124.478C114.407 127.211 130.085 127.116 137.012 125.307C139.294 124.711 140.676 122.675 140.652 120.806C140.659 119.048 139.419 117.298 136.579 117.348Z" fill="#FF5D1F"/>
<path d="M136.579 117.348C122.521 117.597 125.049 107.267 121.464 107.783C117.337 108.378 118.707 116.666 109.369 116.65C106.234 116.645 104.466 118.184 106.511 120.631C104.468 122.499 106.028 123.935 107.419 124.478C114.407 127.211 130.085 127.116 137.012 125.307C139.294 124.711 140.676 122.675 140.652 120.806C140.659 119.048 139.419 117.298 136.579 117.348Z" stroke="#CF3502" stroke-width="2.43205" stroke-linecap="round" stroke-linejoin="round"/>
<path d="M114.544 118.598C116.569 118.408 119.487 115.241 120.36 112.146" stroke="#FFB484" stroke-width="2.43205" stroke-linecap="round" stroke-linejoin="round"/>
<path d="M136.469 121.319C126.584 123.516 110.264 122.477 107.51 120.708C109.55 121.316 113.721 122.29 118.316 122.54C125.41 122.925 133.069 121.946 136.469 121.319Z" fill="#7D0909"/>
<path d="M136.474 121.32C126.588 123.515 110.268 122.477 107.514 120.708C109.554 121.316 113.724 122.29 118.321 122.539C125.414 122.924 133.073 121.946 136.474 121.32Z" stroke="#7D0909" stroke-width="0.413437"/>
<path d="M136.474 121.32C126.588 123.515 110.268 122.477 107.514 120.708C109.554 121.316 113.724 122.29 118.321 122.539C125.414 122.924 133.073 121.946 136.474 121.32Z" stroke="#7D0909" stroke-width="2.43205" stroke-linecap="round" stroke-linejoin="round"/>
<path d="M66.6992 127.596C68.2422 129.851 70.3412 132.704 71.348 134.673" stroke="#FCEE21" stroke-width="2.43205" stroke-linecap="round" stroke-linejoin="round"/>
<path d="M41.2205 79.1224C35.4338 79.3934 29.5469 81.4868 24.6377 85.1291" stroke="white" stroke-width="2.43205" stroke-linecap="round" stroke-linejoin="round"/>
<path d="M68.4294 118.316C70.5326 114.049 71.5376 109.376 71.1327 104.805C70.6114 98.9195 67.836 94.1417 63.5865 90.6928" stroke="#BCFFEA" stroke-width="2.43205" stroke-linecap="round" stroke-linejoin="round"/>
<path d="M11.5722 128.942C1.58125 151.7 30.5027 147.629 31.0501 145.251C31.2473 144.394 35.2524 138.273 30.7634 138.885C22.7896 139.972 15.1166 140.098 19.4481 131.389" fill="#83AAD3"/>
<path d="M11.5722 128.942C1.58125 151.7 30.5027 147.629 31.0501 145.251C31.2473 144.394 35.2524 138.273 30.7634 138.885C22.7896 139.972 15.1166 140.098 19.4481 131.389" stroke="#3C6593" stroke-width="2.58398" stroke-linecap="round" stroke-linejoin="round"/>
<path d="M57.4863 117.422C57.4863 117.422 63.1114 116.367 67.947 119.983C98.0289 142.478 55.0365 144.083 54.2561 141.771C53.9749 140.939 49.3824 135.244 53.91 135.408C61.9523 135.699 70.494 135.527 65.6646 130.852" fill="#83AAD3"/>
<path d="M57.4863 117.422C57.4863 117.422 63.1114 116.367 67.947 119.983C98.0289 142.478 55.0365 144.083 54.2561 141.771C53.9749 140.939 49.3824 135.244 53.91 135.408C61.9523 135.699 70.494 135.527 65.6646 130.852" stroke="#3C6593" stroke-width="2.58398" stroke-linecap="round" stroke-linejoin="round"/>
<path d="M43.1411 135.274C42.1219 132.535 35.5691 134.656 32.0025 137.713C28.4359 140.771 29.2638 146.694 33.4038 146.694C37.5438 146.694 45.8224 145.942 49.9361 146.45C52.3801 146.633 54.3425 144.815 51.3735 143.149C53.9773 142.897 54.6647 141.244 52.1747 139.928C54.6611 140.424 56.2082 137.603 52.9084 136.766C49.6588 135.941 47.1462 134.686 43.1411 135.274Z" stroke="#4C6406" stroke-width="3.16406" stroke-linecap="round" stroke-linejoin="round"/>
<path d="M43.1411 135.274C42.1219 132.535 35.5691 134.656 32.0025 137.713C28.4359 140.771 29.2638 146.694 33.4038 146.694C37.5438 146.694 45.8224 145.942 49.9361 146.45C52.3801 146.633 54.3425 144.815 51.3735 143.149C53.9773 142.897 54.6647 141.244 52.1747 139.928C54.6611 140.424 56.2082 137.603 52.9084 136.766C49.6588 135.941 47.1462 134.686 43.1411 135.274Z" fill="#ADDA25"/>
<path d="M43.1411 135.274C42.1219 132.535 35.5691 134.656 32.0025 137.713C28.4359 140.771 29.2638 146.694 33.4038 146.694C37.5438 146.694 45.8224 145.942 49.9361 146.45C52.3801 146.633 54.3425 144.815 51.3735 143.149C53.9773 142.897 54.6647 141.244 52.1747 139.928C54.6611 140.424 56.2082 137.603 52.9084 136.766C49.6588 135.941 47.1462 134.686 43.1411 135.274Z" stroke="#4C6406" stroke-width="1.75781" stroke-linecap="round" stroke-linejoin="round"/>
<path d="M51.3712 143.148C46.1772 141.331 40.9291 142.156 40.9291 142.156" stroke="#4C6406" stroke-width="2.46094" stroke-linecap="round" stroke-linejoin="round"/>
<path d="M52.3046 139.81C46.9777 137.73 41.606 138.577 41.606 138.577" stroke="#4C6406" stroke-width="2.46094" stroke-linecap="round" stroke-linejoin="round"/>
<path d="M53.6596 133.88C53.9278 130.97 60.8639 132.017 65.1054 134.036C69.347 136.055 70.0956 141.989 66.0994 143.071C62.1032 144.153 55.2489 143.776 51.5718 146.651C49.5938 147.967 46.9201 146.862 48.9845 144.196C46.5117 144.972 45.246 143.73 47.0088 141.567C44.9325 142.98 42.4307 141.005 45.1169 138.966C47.7622 136.957 49.095 133.384 53.6596 133.88Z" stroke="#4C6406" stroke-width="3.16406" stroke-linecap="round" stroke-linejoin="round"/>
<path d="M53.6596 133.88C53.9278 130.97 60.8639 132.017 65.1054 134.036C69.347 136.055 70.0956 141.989 66.0994 143.071C62.1032 144.153 55.2489 143.776 51.5718 146.651C49.5938 147.967 46.9201 146.862 48.9845 144.196C46.5117 144.972 45.246 143.73 47.0088 141.567C44.9325 142.98 42.4307 141.005 45.1169 138.966C47.7622 136.957 49.095 133.384 53.6596 133.88Z" fill="#ADDA25"/>
<path d="M53.6596 133.88C53.9278 130.97 60.8639 132.017 65.1054 134.036C69.347 136.055 70.0956 141.989 66.0994 143.071C62.1032 144.153 55.2489 143.776 51.5718 146.651C49.5938 147.967 46.9201 146.862 48.9845 144.196C46.5117 144.972 45.246 143.73 47.0088 141.567C44.9325 142.98 42.4307 141.005 45.1169 138.966C47.7622 136.957 49.095 133.384 53.6596 133.88Z" stroke="#4C6406" stroke-width="1.75781" stroke-linecap="round" stroke-linejoin="round"/>
<path d="M48.9847 144.196C52.9959 139.923 57.2209 140.43 57.2209 140.43" stroke="#4C6406" stroke-width="2.46094" stroke-linecap="round" stroke-linejoin="round"/>
<path d="M46.8341 141.511C51.0146 136.42 55.5951 136.897 55.5951 136.897" stroke="#4C6406" stroke-width="2.46094" stroke-linecap="round" stroke-linejoin="round"/>
<path d="M76.7371 108.571C78.7205 102.363 77.481 98.5369 72.688 93.6903C77.481 93.0101 74.8401 74.9693 74.8401 74.9693C70.9373 69.8737 64.0151 60.3723 48.8928 68.3654C32.705 60.118 20.0485 70.1376 19.2579 83.6047C5.37502 86.0706 0.169263 110.474 10.3333 122.123C20.4973 133.773 69.1793 138.956 70.7872 113.417C73.5968 112.652 76.7371 108.571 76.7371 108.571Z" fill="#ADDA25"/>
<path d="M76.7371 108.571C78.7205 102.363 77.481 98.5369 72.688 93.6903C77.481 93.0101 74.8401 74.9693 74.8401 74.9693C70.9373 69.8737 64.0151 60.3723 48.8928 68.3654C32.705 60.118 20.0485 70.1376 19.2579 83.6047C5.37502 86.0706 0.169263 110.474 10.3333 122.123C20.4973 133.773 69.1793 138.956 70.7872 113.417C73.5968 112.652 76.7371 108.571 76.7371 108.571Z" stroke="#4C6406" stroke-width="2.46119" stroke-linecap="round" stroke-linejoin="round"/>
<path d="M37.0094 102.179C44.3292 107.414 65.494 107.436 76.5595 102.265C79.1789 101.042 81.7989 105.137 75.9318 108.056C77.502 111.064 74.5724 113.57 68.9972 114.998C64.625 116.118 43.802 118.367 33.9291 111.467C26.062 105.968 31.4997 98.2395 37.0094 102.179Z" fill="#DEA680"/>
<path d="M37.0094 102.179C44.3292 107.414 65.494 107.436 76.5595 102.265C79.1789 101.042 81.7989 105.137 75.9318 108.056C77.502 111.064 74.5724 113.57 68.9972 114.998C64.625 116.118 43.802 118.367 33.9291 111.467C26.062 105.968 31.4997 98.2395 37.0094 102.179Z" stroke="#B03E00" stroke-width="2.46119" stroke-linecap="round" stroke-linejoin="round"/>
<path d="M36.0994 106.747C33.3726 104.914 33.0139 105.724 38.734 108.517C46.7941 112.452 62.087 112.804 75.9116 108.254C76.0873 107.023 75.6478 109.836 75.9282 108.054C66.012 111.96 46.9906 114.068 36.0994 106.747Z" fill="#4E0311"/>
<path d="M36.0968 106.747C33.37 104.914 33.0113 105.724 38.7314 108.517C46.7915 112.452 62.0844 112.804 75.909 108.254C76.0847 107.023 75.6452 109.836 75.9256 108.054C66.0094 111.96 46.9881 114.068 36.0968 106.747Z" stroke="#8A3000" stroke-width="2.46119" stroke-linecap="round" stroke-linejoin="round"/>
<path d="M25.4619 105.691C24.2224 99.4835 29.1807 97.1877 32.0728 97.0176" stroke="#4C6406" stroke-width="2.46119" stroke-linecap="round" stroke-linejoin="round"/>
<path d="M61.2499 92.9556C64.5119 94.7457 81.6775 98.2181 78.3996 85.0781L61.2499 92.9556Z" fill="#ADDA25"/>
<path d="M61.2499 92.9556C64.5119 94.7457 81.6775 98.2181 78.3996 85.0781" stroke="#4C6406" stroke-width="2.46119" stroke-linecap="round" stroke-linejoin="round"/>
<path d="M60.4679 75.3949C67.4091 73.2692 74.8467 73.1843 79.0612 75.2251C83.2756 77.2659 82.0445 82.3943 80.144 83.5848" fill="#ADDA25"/>
<path d="M60.4679 75.3949C67.4091 73.2692 74.8467 73.1843 79.0612 75.2251C83.2756 77.2659 82.0445 82.3943 80.144 83.5848" stroke="#445207" stroke-width="2.46119" stroke-linecap="round" stroke-linejoin="round"/>
<path d="M71.0612 78.5676C77.5061 78.4374 82.4651 80.9483 82.5476 83.7545C82.6301 86.5607 78.4156 88.2608 71.5569 88.6011C64.6981 88.9413 58.1222 90.1255 58.0047 84.4346C57.9222 80.4383 66.8468 78.6525 71.0612 78.5676Z" fill="white"/>
<path d="M71.0612 78.5676C77.5061 78.4374 82.4651 80.9483 82.5476 83.7545C82.6301 86.5607 78.4156 88.2608 71.5569 88.6011C64.6981 88.9413 58.1222 90.1255 58.0047 84.4346C57.9222 80.4383 66.8468 78.6525 71.0612 78.5676Z" stroke="#445207" stroke-width="2.46119" stroke-linecap="round" stroke-linejoin="round"/>
<path d="M79.1477 84.3068C79.1477 86.7724 77.2052 88.7711 74.8091 88.7711C72.413 88.7711 70.4706 86.7724 70.4706 84.3068C70.4706 81.8412 72.413 79.8425 74.8091 79.8425C77.2052 79.8425 79.1477 81.8412 79.1477 84.3068Z" fill="#010000"/>
<path d="M74.0681 81.8302C74.0681 82.7571 73.3377 83.5086 72.4369 83.5086C71.5361 83.5086 70.8061 82.7571 70.8061 81.8302C70.8061 80.9032 71.5361 80.1521 72.4369 80.1521C73.3377 80.1521 74.0681 80.9032 74.0681 81.8302Z" fill="#FEFFFF"/>
<path d="M56.5998 79.8433C58.3353 91.2374 52.8436 97.2821 39.1434 94.8953L56.5998 79.8433Z" fill="#ADDA25"/>
<path d="M56.5998 79.8433C58.3353 91.2374 52.8436 97.2821 39.1434 94.8953" stroke="#445207" stroke-width="2.46119" stroke-linecap="round" stroke-linejoin="round"/>
<path d="M37.7623 77.8876C45.1995 74.8265 52.8842 73.3809 57.264 76.8673C61.6438 80.3536 55.6114 83.5845 55.6114 83.5845" fill="#ADDA25"/>
<path d="M37.7623 77.8876C45.1995 74.8265 52.8842 73.3809 57.264 76.8673C61.6438 80.3536 55.6114 83.5845 55.6114 83.5845" stroke="#445207" stroke-width="2.46119" stroke-linecap="round" stroke-linejoin="round"/>
<path d="M34.0414 84.6052C37.5949 84.2653 41.8946 79.5885 51.563 79.2482C61.2314 78.908 61.7243 86.9859 52.7169 88.6865C43.7095 90.387 37.9252 88.3466 34.0414 84.6052Z" fill="white"/>
<path d="M34.0414 84.6052C37.5949 84.2653 41.8946 79.5885 51.563 79.2482C61.2314 78.908 61.7243 86.9859 52.7169 88.6865C43.7095 90.387 37.9252 88.3466 34.0414 84.6052Z" stroke="#445207" stroke-width="2.46119" stroke-linecap="round" stroke-linejoin="round"/>
<path d="M55.4612 84.3076C55.4612 86.7731 53.5188 88.7718 51.1227 88.7718C48.7265 88.7718 46.7841 86.7731 46.7841 84.3076C46.7841 81.842 48.7265 79.8433 51.1227 79.8433C53.5188 79.8433 55.4612 81.842 55.4612 84.3076Z" fill="#010000"/>
<path d="M49.8394 82.1725C49.8394 83.0994 49.1095 83.8509 48.2086 83.8509C47.3078 83.8509 46.5778 83.0994 46.5778 82.1725C46.5778 81.2455 47.3078 80.4944 48.2086 80.4944C49.1095 80.4944 49.8394 81.2455 49.8394 82.1725Z" fill="#FEFFFF"/>
<path d="M48.7593 68.4407C51.3946 69.3444 53.7336 70.7037 53.7336 70.7037" stroke="#4C6406" stroke-width="2.46119" stroke-linecap="round" stroke-linejoin="round"/>
<path d="M24.3732 81.8313C25.2678 76.0895 30.1567 73.636 33.2478 73.1182" stroke="white" stroke-width="2.46119" stroke-linecap="round" stroke-linejoin="round"/>
<path d="M77.648 157.522V137.799" stroke="#11131C" stroke-width="3.20993" stroke-linecap="round" stroke-linejoin="round"/>
<path d="M87.7173 155.998L77.6449 152.274L67.6568 156.591" stroke="#11131C" stroke-width="3.20993" stroke-linecap="round" stroke-linejoin="round"/>
<path d="M84.8586 144.626C88.6842 142.28 89.8835 137.276 87.5373 133.45L82.6252 125.441C80.279 121.616 75.2757 120.416 71.4501 122.763C67.6245 125.109 66.4253 130.112 68.7714 133.938L73.6833 141.947C76.0294 145.773 81.033 146.972 84.8586 144.626Z" fill="#60637B"/>
<path d="M84.8586 144.626C88.6842 142.28 89.8835 137.276 87.5373 133.45L82.6252 125.441C80.279 121.616 75.2757 120.416 71.4501 122.763C67.6245 125.109 66.4253 130.112 68.7714 133.938L73.6833 141.947C76.0294 145.773 81.033 146.972 84.8586 144.626Z" stroke="#11131C" stroke-width="3.20993" stroke-linecap="round" stroke-linejoin="round"/>
<path d="M80.7794 132.151C76.6328 130.769 71.9338 134.847 72.3485 139.408" stroke="#11131C" stroke-width="3.20993" stroke-linecap="round" stroke-linejoin="round"/>
<path d="M83.1539 142.347C79.1928 143.262 76.9956 141.768 76.0413 140.638" stroke="#9EA0B8" stroke-width="2.56794" stroke-linecap="round" stroke-linejoin="round"/>
<path d="M123.55 163.849V144.127" stroke="#11131C" stroke-width="3.20993" stroke-linecap="round" stroke-linejoin="round"/>
<path d="M133.616 162.326L123.544 158.602L113.555 162.919" stroke="#11131C" stroke-width="3.20993" stroke-linecap="round" stroke-linejoin="round"/>
<path d="M119.824 152.127C124.061 153.609 128.696 151.376 130.177 147.14L133.279 138.272C134.761 134.035 132.528 129.4 128.292 127.918C124.056 126.437 119.421 128.669 117.939 132.906L114.837 141.774C113.355 146.01 115.588 150.646 119.824 152.127Z" fill="#61647C"/>
<path d="M119.824 152.127C124.061 153.609 128.696 151.376 130.177 147.14L133.279 138.272C134.761 134.035 132.528 129.4 128.292 127.918C124.056 126.437 119.421 128.669 117.939 132.906L114.837 141.774C113.355 146.01 115.588 150.646 119.824 152.127Z" stroke="#11131C" stroke-width="3.20993" stroke-linecap="round" stroke-linejoin="round"/>
<path d="M131.753 141.948C129.527 136.077 120.721 134.547 116.02 139.15" stroke="#11131C" stroke-width="3.20993" stroke-linecap="round" stroke-linejoin="round"/>
<path d="M118.654 141.245C117.607 142.208 116.991 145.723 119.621 148.027" stroke="#9EA1B9" stroke-width="2.24695" stroke-linecap="round" stroke-linejoin="round"/>
<path d="M68.5572 126.914L73.3033 134.473M76.5552 122.432L80.6861 128.76M73.2154 122.695L77.1705 128.848M70.4908 124.189L75.8521 132.539" stroke="#12131D" stroke-width="1.40625" stroke-linecap="round" stroke-linejoin="round"/>
<path d="M122.585 128.769L120.377 136.022M131.412 131.364L129.626 137.977M128.691 129.713L126.823 136.632M125.908 128.417L123.776 136.215" stroke="#12131D" stroke-width="1.40625" stroke-linecap="round" stroke-linejoin="round"/>
<path d="M153.709 108.726C153.709 121.307 157.309 125.478 163.218 125.491C171.03 125.508 176.12 119.54 176.271 109.172C176.479 94.9211 169.929 89.7999 163.483 89.4658C157.036 89.1316 153.709 96.4615 153.709 108.726Z" fill="#41AEE6"/>
<path d="M153.709 108.726C153.709 121.307 157.309 125.478 163.218 125.491C171.03 125.508 176.12 119.54 176.271 109.172C176.479 94.9211 169.929 89.7999 163.483 89.4658C157.036 89.1316 153.709 96.4615 153.709 108.726Z" stroke="#035E94" stroke-width="3.20993" stroke-linecap="round" stroke-linejoin="round"/>
<path d="M163.603 91.4449C163.286 78.4341 148.437 61.4552 131.886 62.2002C114.63 62.977 103.729 74.5071 101.576 92.5892" stroke="#14193B" stroke-width="3.20993" stroke-linecap="round" stroke-linejoin="round"/>
<path d="M148.312 67.1462C143.436 63.908 137.77 61.9349 131.888 62.1997C124.57 62.5291 118.394 64.7927 113.545 68.67" stroke="#045E95" stroke-width="7.06184" stroke-linecap="round" stroke-linejoin="round"/>
<path d="M164.081 98.8176C161.138 104.384 161.383 124.202 165.88 124.87" stroke="#045E95" stroke-width="3.20993" stroke-linecap="round" stroke-linejoin="round"/>
<path d="M23.5572 93.9532C23.5572 106.048 18.9936 108.818 14.2656 108.887C9.147 108.961 3.34584 103.177 3.1921 93.2098C2.98081 79.5098 8.13929 74.5754 14.686 74.2542C21.2328 73.933 23.5572 82.1624 23.5572 93.9532Z" fill="#9B45C1"/>
<path d="M23.5572 93.9532C23.5572 106.048 18.9936 108.818 14.2656 108.887C9.147 108.961 3.34584 103.177 3.1921 93.2098C2.98081 79.5098 8.13929 74.5754 14.686 74.2542C21.2328 73.933 23.5572 82.1624 23.5572 93.9532Z" stroke="#63098C" stroke-width="3.06508" stroke-linecap="round" stroke-linejoin="round"/>
<path d="M16.2166 77.2886C16.4851 65.307 28.6366 49.0879 44.4193 49.2882" stroke="#14193B" stroke-width="3.06508" stroke-linecap="round" stroke-linejoin="round"/>
<path d="M29.1171 54.6941C33.6597 51.4253 38.8121 49.217 44.4205 49.2883C51.3989 49.3769 57.4083 51.2531 62.4048 54.7682" stroke="#541770" stroke-width="6.74318" stroke-linecap="round" stroke-linejoin="round"/>
<path d="M14.0799 83.2451C17.0695 88.5966 16.8205 107.648 12.2529 108.29" stroke="#640A8C" stroke-width="3.06508" stroke-linecap="round" stroke-linejoin="round"/>
<path d="M10.7421 78.8669C4.39931 82.8101 5.98149 93.203 6.41502 95.4628" stroke="#DB8CFF" stroke-width="2.45207" stroke-linecap="round" stroke-linejoin="round"/>
<path d="M168.751 5.59896C168.394 3.99372 167.11 3.41821 166.159 3.41821C161.824 3.41821 161.821 16.5702 166.159 16.5702C167.003 16.5702 168.465 16.3364 168.751 14.4102" stroke="#ED7F80" stroke-width="2.8125" stroke-linecap="round" stroke-linejoin="round"/>
<path d="M143.659 16.5028V3.48445C148.846 3.1371 150.808 4.88507 150.055 8.1314C149.635 9.94265 148.224 11.1682 143.659 11.1682" stroke="#ED7F80" stroke-width="2.8125" stroke-linecap="round" stroke-linejoin="round"/>
<path d="M147.215 11.2493L150.057 16.503" stroke="#ED7F80" stroke-width="2.8125" stroke-linecap="round" stroke-linejoin="round"/>
<path d="M159.515 16.5027H154.589V3.48438H159.515" stroke="#ED7F80" stroke-width="2.8125" stroke-linecap="round" stroke-linejoin="round"/>
<path d="M154.589 10.2102H157.824" stroke="#ED7F80" stroke-width="2.8125" stroke-linecap="round" stroke-linejoin="round"/>
<path d="M139.619 10.2111C139.619 13.5126 136.942 16.1887 133.641 16.1887C130.339 16.1887 127.663 13.5126 127.663 10.2111C127.663 6.9096 130.339 4.23315 133.641 4.23315C136.942 4.23315 139.619 6.9096 139.619 10.2111Z" fill="#ED7F80"/>
</g>
</g>
</g>
<defs>
<clipPath id="clip0_1_2085">
<rect width="180" height="180" fill="white"/>
</clipPath>
</defs>
</svg>
