<svg fill="none" height="180" viewBox="0 0 180 180" width="180" xmlns="http://www.w3.org/2000/svg" xmlns:xlink="http://www.w3.org/1999/xlink"><linearGradient id="a"><stop offset=".12" stop-color="#178b8e"/><stop offset=".5" stop-color="#178b8e"/><stop offset=".87" stop-color="#178b8e"/><stop offset=".88"/></linearGradient><linearGradient id="b" gradientUnits="userSpaceOnUse" x1="89.2197" x2="126.936" xlink:href="#a" y1="32.6612" y2="3.79733"/><linearGradient id="c" gradientUnits="userSpaceOnUse" x1="102.017" x2="126.908" xlink:href="#a" y1="26.6488" y2="6.11194"/><mask id="d" height="180" maskUnits="userSpaceOnUse" width="180" x="0" y="0"><path d="m180 0h-180v180h180z" fill="#fff"/></mask><mask id="e" height="180" maskUnits="userSpaceOnUse" width="181" x="-1" y="0"><path d="m-.00775146 0h179.99975146v180h-179.99975146z" fill="#fff"/></mask><g mask="url(#d)"><g mask="url(#e)"><path d="m26.045 123.744c-3.6976-2.576-6.6251-6.667-7.8393-10.946-.3663-1.29-.5768-2.598-.6054-3.886-.5399-24.1714 22.3545-36.2207 50.3035-35.2652 26.817.9168 45.8752 6.0163 47.5992 29.0232.206 2.745.165 5.745-.139 9.023-.422 4.543-.629 7.457-8.213 12.146-8.6119 5.323-69.771 7.802-81.106-.095z" fill="#ffd427"/><path d="m26.045 123.744c-3.6976-2.576-6.6251-6.667-7.8393-10.946-.3663-1.29-.5768-2.598-.6054-3.886-.5399-24.1714 22.3545-36.2207 50.3035-35.2652 26.817.9168 45.8752 6.0163 47.5992 29.0232.206 2.745.165 5.745-.139 9.023-.422 4.543-.629 7.457-8.213 12.146-8.6119 5.323-69.771 7.802-81.106-.095z" stroke="#f98f16" stroke-miterlimit="10" stroke-width="3.37397"/><g stroke-linecap="round"><path d="m109.183 115.791c-1.014 2.413-2.955 4.301-6.285 5.401" stroke="#fcee21" stroke-linejoin="round" stroke-width="2.81164"/><path d="m25.0734 96.3874c-2.117 3.1072-2.7358 7.6096-1.6861 9.8436" stroke="#fcee21" stroke-linejoin="round" stroke-width="2.81164"/><path d="m109.524 64.9251c9.833-.4408 13.997 4.7038 13.601 6.6015-.659 3.1627-7.816 4.6503-8.141 1.3707-.356-3.6025 8.058.2782 6.965 5.1109-1.296 5.7275-10.077 4.0265-8.335.8779 1.176-2.125 6.667 1.4178 5.064 5.6979s-14.612 4.7708-16.637-5.0175" stroke="#7eb2c2" stroke-linejoin="round" stroke-width="5.62312"/><path d="m109.528 64.9248c9.976-.5812 13.997 4.7038 13.601 6.6015-.659 3.1627-7.816 4.6503-8.14 1.3707-.356-3.6026 8.058.2782 6.964 5.1109-1.296 5.7274-10.077 4.0264-8.334.8778 1.176-2.125 6.667 1.4178 5.064 5.6979s-14.894 4.6633-16.638-5.0175" stroke="#a6eaff" stroke-linejoin="round" stroke-width="2.24925"/><path d="m116.986 72.811c1.192.3337 3.593-.4934 4.061-1.6055" stroke="#7eb2c2" stroke-linejoin="round" stroke-width="1.68694"/><path d="m115.345 79.757c1.082.5375 3.986-.0061 4.363-1.473" stroke="#7eb2c2" stroke-linejoin="round" stroke-width="1.68694"/><path d="m118.473 76.5826c2.116-.2241 3.779-1.032 5.113-2.1031" stroke="#7eb2c2" stroke-linejoin="round" stroke-width="1.68694"/><path d="m116.868 83.6881c2.115-.2241 3.726-.3562 5.31-2.0103" stroke="#7eb2c2" stroke-linejoin="round" stroke-width="1.68694"/></g><path d="m107.919 85.8203c18.203 15.9077 10.378 30.8107 5.395 27.2147-4.538-3.275-2.31-2.769-9.17-10.769" fill="#ffd427"/><path d="m107.919 85.8203c18.203 15.9077 10.378 30.8107 5.395 27.2147-4.538-3.275-2.31-2.769-9.17-10.769" stroke="#f98f16" stroke-linecap="round" stroke-linejoin="round" stroke-width="3.37586"/><path d="m111.938 94.9827c2.303 2.829 4.687 6.2463 4.199 10.9593" stroke="#fff" stroke-linecap="round" stroke-linejoin="round" stroke-width="2.81322"/><path d="m28.354 92.1556c-9.7915-5.3585-13.1521-16.5177-13.3535-26.1828-.4906-23.5451 21.4553-47.0749 49.1232-47.5084 27.6678-.4335 50.5803 22.3935 51.0713 45.9386.195 9.3769-3.195 17.4534-9.093 23.8059" fill="#ffd427"/><path d="m28.354 92.1556c-9.7915-5.3585-13.1521-16.5177-13.3535-26.1828-.4906-23.5451 21.4553-47.0749 49.1232-47.5084 27.6678-.4335 50.5803 22.3935 51.0713 45.9386.195 9.3769-3.195 17.4534-9.093 23.8059" stroke="#f98f16" stroke-linecap="round" stroke-miterlimit="10" stroke-width="3.37399"/><path d="m103.086 51.7877c-1.504-7.1142-5.9015-15.2059-12.7939-18.6049" stroke="#fff" stroke-linecap="round" stroke-linejoin="round" stroke-width="2.81188"/><path d="m38.3367 36.6829c-8.789 6.2894-14.8197 15.5116-15.8246 25.2975-.7318 7.127 1.3073 13.5312 5.3709 18.8581" stroke="#fbed20" stroke-linecap="round" stroke-linejoin="round" stroke-width="2.81167"/><path d="m59.5512 67.7857c14.146-5.2182 28.6899-2.2294 32.9518-1.056 3.6986 1.0184 5.958-.7902 6.3407-3.1056.4118-2.4925-1.3512-5.5727-5.8347-6.3456-11.9927-2.0674-12.3197-11.0693-18.8618-10.6006-6.5374.4685-1.7708 8.1044-17.0819 12.5737-5.8267 1.7008-3.4522 10.7247 2.4859 8.5341z" fill="#ff5c1e"/><path d="m59.5512 67.7857c14.146-5.2182 28.6899-2.2294 32.9518-1.056 3.6986 1.0184 5.958-.7902 6.3407-3.1056.4118-2.4925-1.3512-5.5727-5.8347-6.3456-11.9927-2.0674-12.3197-11.0693-18.8618-10.6006-6.5374.4685-1.7708 8.1044-17.0819 12.5737-5.8267 1.7008-3.4522 10.7247 2.4859 8.5341z" stroke="#cf3502" stroke-miterlimit="10" stroke-width="2.81166"/><path d="m83.7108 56.5232c-2.5342-1.206-3.8589-2.7431-5.5128-4.6902" stroke="#ffb484" stroke-linecap="round" stroke-linejoin="round" stroke-width="2.25499"/><path d="m93.2402 62.1726c-16.1661-5.1106-30.4381 1.8351-35.2024.7272 8.1171.8715 18.191-5.1853 35.2024-.7272z" fill="#7d0909"/><path d="m93.2346 62.1733c-16.1643-5.1101-30.4381 1.8356-35.1998.7258 8.1145.8718 18.1907-5.1848 35.1998-.7258z" stroke="#7d0909" stroke-linecap="round" stroke-linejoin="round" stroke-width="2.81166"/><path d="m105.37 46.0726c.314 4.5751-3.32 8.4727-8.1181 8.7053-4.7979.2327-8.9425-3.2876-9.2569-7.8627-.3147-4.5752 3.3197-8.4725 8.1176-8.7051 4.7974-.2327 8.9424 3.2873 9.2574 7.8625z" fill="#000"/><path d="m99.9015 31.4174c-3.022-1.1904-8.8588-2.8326-14.3221-2.1259" stroke="#000" stroke-linecap="round" stroke-linejoin="round" stroke-width="3.37582"/><path d="m98.4783 42.8303c.0786 1.1438-.8299 2.1182-2.0294 2.1764-1.1995.0581-2.2356-.8219-2.3142-1.9657-.0787-1.1438.8299-2.1181 2.0293-2.1763 1.1995-.0582 2.2357.8218 2.3143 1.9656z" fill="#fff"/><path d="m45.2501 48.6823c-.1236 4.582 3.6707 8.3632 8.4752 8.4455 4.8045.0822 8.7997-3.5656 8.9233-8.1476.124-4.582-3.6704-8.363-8.4749-8.4452-4.8044-.0822-8.8 3.5653-8.9236 8.1473z" fill="#000"/><path d="m45.2501 48.6823c-.1236 4.582 3.6707 8.3632 8.4752 8.4455 4.8045.0822 8.7997-3.5656 8.9233-8.1476.124-4.582-3.6704-8.363-8.4749-8.4452-4.8044-.0822-8.8 3.5653-8.9236 8.1473z" fill="#000"/><path d="m41.4421 32.9708c6.3004-4.0481 13.4186-5.093 18.3751-4.2561" stroke="#000" stroke-linecap="round" stroke-linejoin="round" stroke-width="3.37582"/><path d="m51.0439 45.3858c-.0309 1.1455.9177 2.0908 2.1188 2.1113 1.2011.0206 2.1999-.8913 2.2308-2.0368.031-1.1456-.9176-2.0908-2.1187-2.1113-1.2011-.0206-2.2.8913-2.2309 2.0368z" fill="#fff"/><path d="m64.8588 127.344c8.4339 3.213 18.1885 2.523 25.3916-4.688" stroke="#008fca" stroke-linecap="round" stroke-linejoin="round" stroke-width="9.84375"/><path d="m80.7362 104.012c3.6731 2.665 14.5768 5.115 13.4119 10.283-.6169 7.207-19.5674 3.999-27.4303-2.598" fill="#ffd427"/><path d="m80.7362 104.012c3.6731 2.665 14.5768 5.115 13.4119 10.283-.6169 7.207-19.5674 3.999-27.4303-2.598" stroke="#f98f16" stroke-linecap="round" stroke-linejoin="round" stroke-width="3.37463"/><path d="m88.6825 111.69c-2.0239-.923-4.1847-1.649-8.8739-4.323" stroke="#fff" stroke-linecap="round" stroke-linejoin="round" stroke-width="2.81219"/><path d="m67.1762 47.004c1.0265-6.1266 13.302-7.1703 15.7094-1.0281" stroke="#000" stroke-linecap="round" stroke-linejoin="round" stroke-width="4.63929"/><path d="m30.8738 41.7985 38.4196-1.92-3.1012 12.8823c-.591 2.4542-3.0265 4.2425-5.9381 4.3594l-16.6823.6698c-2.7054.1087-5.2185-1.2535-6.2877-3.4082z" fill="url(#b)"/><path d="m30.8738 41.7985 38.4196-1.92-3.1012 12.8823c-.591 2.4542-3.0265 4.2425-5.9381 4.3594l-16.6823.6698c-2.7054.1087-5.2185-1.2535-6.2877-3.4082z" stroke="#000" stroke-linecap="round" stroke-linejoin="round" stroke-width="2.79193"/><path d="m114.042 37.7858-34.5844 1.602 4.161 12.532c.7929 2.3874 3.1646 3.9438 5.7825 3.7939l14.9999-.8587c2.432-.1391 4.534-1.724 5.259-3.9652z" fill="url(#c)"/><path d="m114.042 37.7858-34.5844 1.602 4.161 12.532c.7929 2.3874 3.1646 3.9438 5.7825 3.7939l14.9999-.8587c2.432-.1391 4.534-1.724 5.259-3.9652z" stroke="#000" stroke-linecap="round" stroke-linejoin="round" stroke-width="2.64865"/><path d="m47.2413 107.877c1.6619 8.721 8.942 16.161 17.6211 19.467" stroke="#008fca" stroke-linecap="round" stroke-linejoin="round" stroke-width="9.84375"/><path d="m46.681 106.471c2.6519 13.917 19.6119 24.571 33.7306 20.372" stroke="#13a7e4" stroke-linecap="round" stroke-linejoin="round" stroke-width="2.8125"/><path d="m34.7461 134.247c0 .952 1.6287 1.724 3.6377 1.724s3.6377-.772 3.6377-1.724-1.6287-1.724-3.6377-1.724-3.6377.772-3.6377 1.724z" fill="#d3c1ae"/><path d="m41.3216 134.246v-25.936h-5.8809v25.936" fill="#d3c1ae"/><path d="m41.3216 134.246v-25.936h-5.8809v25.936" stroke="#686867" stroke-linecap="round" stroke-linejoin="round" stroke-width="2.25"/><path d="m34.2902 102.03c0 2.26 1.832 4.092 4.0922 4.092 2.2601 0 4.0921-1.832 4.0921-4.092 0-2.2602-1.832-4.0923-4.0921-4.0923-2.2602 0-4.0922 1.8321-4.0922 4.0923z" fill="#d3c1ae"/><path d="m34.2902 102.03c0 2.26 1.832 4.092 4.0922 4.092 2.2601 0 4.0921-1.832 4.0921-4.092 0-2.2602-1.832-4.0923-4.0921-4.0923-2.2602 0-4.0922 1.8321-4.0922 4.0923z" stroke="#686867" stroke-linecap="round" stroke-linejoin="round" stroke-width="2.25"/><path d="m37.6864 100.854c0 .865.7014 1.567 1.5668 1.567s1.5669-.702 1.5669-1.567c0-.8655-.7015-1.5669-1.5669-1.5669s-1.5668.7014-1.5668 1.5669z" fill="#fff"/><path d="m8.33585 220.497c-3.95783-3.631-6.10018-8.519-5.78716-14.095.66505-11.847 12.12321-22.909 25.45021-22.17 13.3269.74 23.4757 13.002 22.8107 24.848-.3139 5.592-3.0009 10.19-7.2872 13.337" fill="#ffd527"/><path d="m8.33585 220.497c-3.95783-3.631-6.10018-8.519-5.78716-14.095.66505-11.847 12.12321-22.909 25.45021-22.17 13.3269.74 23.4757 13.002 22.8107 24.848-.3139 5.592-3.0009 10.19-7.2872 13.337" stroke="#fa9016" stroke-linecap="round" stroke-linejoin="round" stroke-width="3.09374"/><path d="m193.138 133.95c-10.091-.072-20.929-3.828-20.45-15.88 1.693-15.769 15.06-16.934 23.645-16.934 21.504 0 21.19 13.647 25.606 17.196.769 14.274-15.573 15.712-28.801 15.618z" fill="#ffd527"/><path d="m193.138 133.95c-10.091-.072-20.929-3.828-20.45-15.88 1.693-15.769 15.06-16.934 23.645-16.934 21.504 0 21.19 13.647 25.606 17.196.769 14.274-15.573 15.712-28.801 15.618z" stroke="#fa9016" stroke-linecap="round" stroke-linejoin="round" stroke-width="2.95603"/><path d="m180.233 127.731c-4.104-2.719-4.448-5.601-4.574-8.335" stroke="#fcee21" stroke-linecap="round" stroke-linejoin="round" stroke-width="2.37821"/><path d="m177.44 108.349c-3.958-3.631-6.1-8.5188-5.787-14.0954.665-11.8467 12.123-22.9088 25.45-22.1691 13.327.7398 23.476 13.0012 22.811 24.8479-.314 5.5916-3.001 10.1896-7.287 13.3366" fill="#ffd527"/><path d="m177.44 108.349c-3.958-3.631-6.1-8.5188-5.787-14.0954.665-11.8467 12.123-22.9088 25.45-22.1691 13.327.7398 23.476 13.0012 22.811 24.8479-.314 5.5916-3.001 10.1896-7.287 13.3366" stroke="#fa9016" stroke-linecap="round" stroke-linejoin="round" stroke-width="3.09374"/><path d="m177.378 87.5684c2.807-5.5406 7.935-8.8848 11.508-10.4334" stroke="#fcee21" stroke-linecap="round" stroke-linejoin="round" stroke-width="2.37798"/><path d="m179.245 91.8771c1.634.3626 2.772 1.8203 2.965 3.5617.057.5194.03 1.0642-.093 1.6127-.119.5316-.319 1.022-.58 1.4579-.913 1.5206-2.582 2.3776-4.231 2.0116-1.568-.347-2.68-1.7031-2.937-3.3505-.091-.582-.075-1.2003.064-1.8235.116-.5138.306-.9888.555-1.4134.907-1.5485 2.592-2.4258 4.257-2.0565z" fill="#000"/><path d="m178.597 94.7408c.19.6742.823 1.1061 1.413.9645.591-.1416.916-.8028.726-1.477-.19-.6743-.822-1.1061-1.413-.9645-.591.1415-.916.8028-.726 1.477z" fill="#fff"/><path d="m199.469 104.84c-.057-1.303-2.745-1.488-4.211-2.521-2.379-1.676-1.794-4.3444-5.344-4.6978-1.914-.1844-3.245 3.1038-5.5 4.5238-2.17 1.299-5.563-1.079-6.391 2.817-.564 2.618 6.313 4.692 11.277 4.911 4.994.24 10.358-1.275 10.169-5.033z" stroke="#cf3502" stroke-width=".30628"/><path d="m199.469 104.84c-.057-1.303-2.745-1.488-4.211-2.521-2.379-1.676-1.794-4.3444-5.344-4.6978-1.914-.1844-3.245 3.1038-5.5 4.5238-2.17 1.299-5.563-1.079-6.391 2.817-.564 2.618 6.313 4.692 11.277 4.911 4.994.24 10.358-1.275 10.169-5.033z" fill="#ff5d1f"/><path d="m199.469 104.84c-.057-1.303-2.745-1.488-4.211-2.521-2.379-1.676-1.794-4.3444-5.344-4.6978-1.914-.1844-3.245 3.1038-5.5 4.5238-2.17 1.299-5.563-1.079-6.391 2.817-.564 2.618 6.313 4.692 11.277 4.911 4.994.24 10.358-1.275 10.169-5.033z" stroke="#cf3502" stroke-linecap="round" stroke-linejoin="round" stroke-width="2.47505"/><path d="m178.591 104.645c4.905 2.027 13.018 2.213 17.423.736" stroke="#7d0909" stroke-linecap="round" stroke-linejoin="round" stroke-width="1.85621"/><path d="m140.754 133.95c-10.091-.072-20.929-3.827-20.45-15.88 1.693-15.769 15.06-16.934 23.645-16.934 21.504 0 21.19 13.647 25.606 17.197.769 14.273-15.573 15.711-28.801 15.617z" fill="#ffd527"/><path d="m140.754 133.95c-10.091-.072-20.929-3.827-20.45-15.88 1.693-15.769 15.06-16.934 23.645-16.934 21.504 0 21.19 13.647 25.606 17.197.769 14.273-15.573 15.711-28.801 15.617z" stroke="#fa9016" stroke-linecap="round" stroke-linejoin="round" stroke-width="2.95603"/><path d="m127.848 127.731c-4.104-2.718-4.448-5.601-4.574-8.335" stroke="#fcee21" stroke-linecap="round" stroke-linejoin="round" stroke-width="2.37821"/><path d="m125.055 108.349c-3.958-3.631-6.101-8.5188-5.788-14.0954.665-11.8467 12.124-22.9088 25.451-22.1691 13.326.7398 23.475 13.0012 22.81 24.8479-.314 5.5916-3.001 10.1896-7.287 13.3366" fill="#ffd527"/><path d="m125.055 108.349c-3.958-3.631-6.101-8.5188-5.788-14.0954.665-11.8467 12.124-22.9088 25.451-22.1691 13.326.7398 23.475 13.0012 22.81 24.8479-.314 5.5916-3.001 10.1896-7.287 13.3366" stroke="#fa9016" stroke-linecap="round" stroke-linejoin="round" stroke-width="3.09374"/><path d="m156.355 79.7002c3.515 2.4542 5.848 6.3402 7.017 9.863" stroke="#fff" stroke-dasharray="10.3 2.54" stroke-linecap="round" stroke-linejoin="round" stroke-width="2.37798"/><path d="m124.996 87.5684c2.806-5.5406 7.934-8.8848 11.507-10.4334" stroke="#fcee21" stroke-linecap="round" stroke-linejoin="round" stroke-width="2.37798"/><path d="m126.631 93.0357c1.75.3734 2.88 1.6385 3.128 3.0306.116.5016.06.9599-.113 1.3851-.172.4157-.42.6907-.694.8877-.773.8434-2.106 1.1361-3.745.7807-1.617-.35-2.674-1.0619-3.065-2.0908-.2-.3507-.324-.7545-.286-1.2997.019-.48.213-.909.549-1.2773.848-1.1452 2.438-1.7977 4.226-1.4163z" stroke="#000" stroke-width=".326228"/><path d="m126.631 93.0364c1.75.3734 2.88 1.6385 3.128 3.0307.116.5016.06.9598-.113 1.3851-.172.4157-.42.6907-.695.8877-.772.8433-2.105 1.136-3.744.7807-1.617-.3501-2.674-1.0619-3.065-2.0908-.2-.3508-.324-.7545-.286-1.2998.019-.48.213-.909.549-1.2773.848-1.1452 2.438-1.7977 4.226-1.4163z" fill="#000"/><path d="m126.035 95.1618c.203.6139.842 1.0179 1.426.9023.585-.1155.894-.7067.691-1.3206s-.842-1.0178-1.427-.9023-.894.7067-.69 1.3206z" fill="#e8e8e8"/><path d="m149.148 94.3255c1.841-.0702 3.29.8766 3.893 2.1638.244.4574.304.9153.241 1.3697-.065.4452-.243.7729-.467 1.0314-.555 1.0077-1.809 1.6206-3.535 1.6806-1.702.06-2.937-.369-3.59-1.2691-.288-.2904-.516-.6509-.617-1.1884-.103-.4699-.019-.9333.222-1.3729.554-1.3188 1.973-2.3433 3.853-2.4151z" stroke="#000" stroke-width=".330934"/><path d="m149.151 94.3258c1.841-.0702 3.29.8765 3.893 2.1638.244.4573.304.9152.241 1.3697-.066.4451-.244.7729-.467 1.0314-.555 1.0076-1.81 1.6203-3.535 1.6803-1.702.06-2.937-.369-3.59-1.2688-.289-.2905-.516-.6509-.617-1.1885-.103-.4698-.019-.9333.222-1.3729.554-1.3187 1.973-2.3433 3.853-2.415z" fill="#000"/><path d="m149.085 96.5347c.359.5445 1.099.7782 1.653.5219.554-.2562.711-.9053.352-1.4498s-1.099-.7782-1.653-.5219c-.554.2562-.711.9053-.352 1.4498z" fill="#e8e8e8"/><path d="m147.086 104.84c-.057-1.303-2.745-1.488-4.211-2.521-2.379-1.676-1.794-4.3444-5.344-4.6978-1.914-.1844-3.245 3.1038-5.5 4.5238-2.17 1.299-5.563-1.079-6.391 2.817-.564 2.618 6.313 4.692 11.277 4.911 4.994.24 10.358-1.275 10.169-5.033z" stroke="#cf3502" stroke-width=".30628"/><path d="m147.086 104.84c-.057-1.303-2.745-1.488-4.211-2.521-2.379-1.676-1.794-4.3444-5.344-4.6978-1.914-.1844-3.245 3.1038-5.5 4.5238-2.17 1.299-5.563-1.079-6.391 2.817-.564 2.618 6.313 4.692 11.277 4.911 4.994.24 10.358-1.275 10.169-5.033z" fill="#ff5d1f"/><path d="m147.086 104.84c-.057-1.303-2.745-1.488-4.211-2.521-2.379-1.676-1.794-4.3444-5.344-4.6978-1.914-.1844-3.245 3.1038-5.5 4.5238-2.17 1.299-5.563-1.079-6.391 2.817-.564 2.618 6.313 4.692 11.277 4.911 4.994.24 10.358-1.275 10.169-5.033z" stroke="#cf3502" stroke-linecap="round" stroke-linejoin="round" stroke-width="2.47505"/><path d="m140.876 103.406c-1.562-.64-2.01-1.471-2.927-2.98" stroke="#ffb484" stroke-linecap="round" stroke-linejoin="round" stroke-width="2.01707"/><path d="m126.208 104.645c4.905 2.027 13.018 2.213 17.424.736" stroke="#7d0909" stroke-linecap="round" stroke-linejoin="round" stroke-width="1.85621"/><path d="m156.21 116.045c2.766 4.323 7.633 6.875 9.164 6.226 1.766-.747-.621-6.752-2.174-9.326" fill="#ffd527"/><path d="m156.21 116.045c2.766 4.323 7.633 6.875 9.164 6.226 1.766-.747-.621-6.752-2.174-9.326" stroke="#fa9016" stroke-linecap="round" stroke-linejoin="round" stroke-width="2.97028"/><path d="m107.749 123.408c3.511 14.053 25.835 29.346 41.388 14.213" stroke="#008fca" stroke-linecap="round" stroke-linejoin="round" stroke-width="9.84375"/><path d="m165.579 133.89c-2.145.878-3.527 3.417-2.889 5.563 1.799 6.055 5.538 12.388 14.752 16.178 2.513 1.034 2.33.112 2.33-1.602 0-2.128.053-3.339.053-5.626 0-1.933-1.036-2.776-1.556-3.108-3.807-2.428-5.327-5.979-6.5-8.736-.965-2.269-3.827-3.636-6.19-2.669zm-139.3885-30.882c-5.3613 4.702-16.48509 5.737-23.74134 1.758-2.724612-1.494-2.329104-.176-2.329104 1.45s-.0878905 5.537-.0878905 6.548.0341016 1.518 1.4062545 2.065c16.74318 6.68 28.09198-1.582 31.82728-5.361 1.5705-1.589 1.4657-4.345-.0759-6.07-1.6981-1.901-5.1501-2.012-6.9993-.39z" fill="#008fca"/><path d="m166.467 137.471c.751 3.007 4.829 9.439 7.427 10.612m-169.86281-38.688c4.49129 3.018 12.82111 3.552 19.63271-.346m83.0381 13.305c2.818 11.281 17.761 23.362 31.592 19.858" stroke="#13a7e4" stroke-linecap="round" stroke-linejoin="round" stroke-width="2.8125"/><path d="m154.594 164.481c0 .952 1.629 1.724 3.638 1.724s3.638-.772 3.638-1.724-1.629-1.724-3.638-1.724-3.638.772-3.638 1.724z" fill="#d3c1ae"/><path d="m161.17 164.48v-25.936h-5.881v25.936" fill="#d3c1ae"/><path d="m161.17 164.48v-25.936h-5.881v25.936" stroke="#686867" stroke-linecap="round" stroke-linejoin="round" stroke-width="2.25"/><path d="m154.139 132.264c0 2.26 1.832 4.092 4.092 4.092s4.092-1.832 4.092-4.092c0-2.261-1.832-4.093-4.092-4.093s-4.092 1.832-4.092 4.093z" fill="#d3c1ae"/><path d="m154.139 132.264c0 2.26 1.832 4.092 4.092 4.092s4.092-1.832 4.092-4.092c0-2.261-1.832-4.093-4.092-4.093s-4.092 1.832-4.092 4.093z" stroke="#686867" stroke-linecap="round" stroke-linejoin="round" stroke-width="2.25"/><path d="m157.536 131.088c0 .865.702 1.567 1.567 1.567s1.567-.702 1.567-1.567-.702-1.567-1.567-1.567-1.567.702-1.567 1.567z" fill="#fff"/><path d="m94.6857 149.363c0 .952 1.6287 1.725 3.6377 1.725 2.0086 0 3.6376-.773 3.6376-1.725s-1.629-1.724-3.6376-1.724c-2.009 0-3.6377.772-3.6377 1.724z" fill="#d3c1ae"/><path d="m101.26 149.363v-25.936h-5.8806v25.936" fill="#d3c1ae"/><path d="m101.26 149.363v-25.936h-5.8806v25.936" stroke="#686867" stroke-linecap="round" stroke-linejoin="round" stroke-width="2.25"/><path d="m94.229 117.147c0 2.26 1.832 4.092 4.0921 4.092 2.2599 0 4.0919-1.832 4.0919-4.092s-1.832-4.092-4.0919-4.092c-2.2601 0-4.0921 1.832-4.0921 4.092z" fill="#d3c1ae"/><path d="m94.229 117.147c0 2.26 1.832 4.092 4.0921 4.092 2.2599 0 4.0919-1.832 4.0919-4.092s-1.832-4.092-4.0919-4.092c-2.2601 0-4.0921 1.832-4.0921 4.092z" stroke="#686867" stroke-linecap="round" stroke-linejoin="round" stroke-width="2.25"/><path d="m97.6278 115.971c0 .866.7014 1.567 1.5668 1.567s1.5664-.701 1.5664-1.567c0-.865-.701-1.567-1.5664-1.567s-1.5668.702-1.5668 1.567z" fill="#fff"/></g></g></svg>