<svg fill="none" height="180" viewBox="0 0 180 180" width="180" xmlns="http://www.w3.org/2000/svg" xmlns:xlink="http://www.w3.org/1999/xlink"><clipPath id="a"><path d="m0 0h180v180h-180z"/></clipPath><mask id="b" height="180" maskUnits="userSpaceOnUse" width="180" x="0" y="0"><path d="m180 0h-180v180h180z" fill="#fff"/></mask><mask id="c" height="180" maskUnits="userSpaceOnUse" width="180" x="0" y="0"><path d="m0 0h180v180h-180z" fill="#fff"/></mask><g clip-path="url(#a)"><g mask="url(#b)"><g mask="url(#c)"><g stroke="#56cbff" stroke-width="3.5199"><path d="m8.70605 38.0046v6.6999" stroke-linecap="round" stroke-linejoin="round"/><path d="m13.5661 34.1396v14.4308" stroke-linecap="round" stroke-linejoin="round"/><path d="m18.4325 34.1396v14.4308" stroke-linecap="round" stroke-linejoin="round"/><path d="m23.2944 38.0046v6.6999" stroke-linecap="round" stroke-linejoin="round"/><path d="m28.156 38.0046v6.6999" stroke-linecap="round" stroke-linejoin="round"/><path d="m33.0239 38.0046v6.6999" stroke-linecap="round" stroke-linejoin="round"/><path d="m37.8858 31.0471v20.6154" stroke-linecap="round" stroke-linejoin="round"/><path d="m42.7458 36.1912v10.3269" stroke-linecap="round" stroke-linejoin="round"/><path d="m47.6122 40.0657v2.5769" stroke-linecap="round" stroke-linejoin="round"/><path d="m52.4693 40.0657v2.5769" stroke-linecap="round" stroke-linejoin="round"/><path d="m57.3357 40.0657v2.5769" stroke-linecap="round" stroke-linejoin="round"/><path d="m62.1975 40.0657v2.5769" stroke-linecap="round" stroke-linejoin="round"/><path d="m67.0561 40.0657v2.5769" stroke-linecap="round" stroke-linejoin="round"/><path d="m71.9255 40.0657v2.5769" stroke-linecap="round" stroke-linejoin="round"/><path d="m76.7874 40.0657v2.5769" stroke-linecap="round" stroke-linejoin="round"/><path d="m81.6459 40.0657v2.5769" stroke-linecap="round" stroke-linejoin="round"/><path d="m86.5154 38.0046v6.6999" stroke-linecap="round" stroke-linejoin="round"/><path d="m91.3772 31.0469v20.6154" stroke-linecap="round" stroke-linejoin="round"/><path d="m96.2358 38.0046v6.6999" stroke-linecap="round" stroke-linejoin="round"/><path d="m101.104 38.0046v6.6999" stroke-linecap="round" stroke-linejoin="round"/><path d="m105.958 31.0469v20.6154" stroke-linecap="round" stroke-linejoin="round"/><path d="m110.824 23.8315v35.0462" stroke-linecap="round" stroke-linejoin="round"/><path d="m115.689 31.0469v20.6154" stroke-linecap="round" stroke-linejoin="round"/><path d="m120.547 38.0046v6.6999" stroke-linecap="round" stroke-linejoin="round"/><path d="m125.414 40.0657v2.5769" stroke-linecap="round" stroke-linejoin="round"/><path d="m130.277 40.0657v2.5769" stroke-linecap="round" stroke-linejoin="round"/><path d="m135.137 40.0657v2.5769" stroke-linecap="round" stroke-linejoin="round"/><path d="m140.004 40.0657v2.5769" stroke-linecap="round" stroke-linejoin="round"/><path d="m144.868 40.0657v2.5769" stroke-linecap="round" stroke-linejoin="round"/><path d="m149.723 40.0657v2.5769" stroke-linecap="round" stroke-linejoin="round"/><path d="m154.552 22.8008v37.1078" stroke-linecap="round" stroke-linejoin="round"/><path d="m159.414 33.0928v16.5231" stroke-linecap="round" stroke-linejoin="round"/><path d="m164.283 26.9238v28.8616" stroke-linecap="round" stroke-linejoin="round"/><path d="m169.142 40.0659v2.5769" stroke-linecap="round" stroke-linejoin="round"/></g><path d="m109.367 105.892c-.68-11.7632 1.554-15.0617-5.672-15.0617-7.2263 0-12.4627 5.1475-13.5942 15.6437-1.4303 13.271 6.4016 17.079 12.2182 17.056 5.817-.023 7.711-6.17 7.048-17.638z" fill="#41aee6"/><path d="m109.367 105.892c-.68-11.7632 1.554-15.0617-5.672-15.0617-7.2263 0-12.4627 5.1475-13.5942 15.6437-1.4303 13.271 6.4016 17.079 12.2182 17.056 5.817-.023 7.711-6.17 7.048-17.638z" stroke="#045e95" stroke-linecap="round" stroke-linejoin="round" stroke-width="3.20993"/><path d="m96.5775 107.088c-1.475 5.941 1.7574 16.14 5.8395 16.531z" fill="#41aee6"/><path d="m96.5775 107.088c-1.475 5.941 1.7574 16.14 5.8395 16.531" stroke="#045e95" stroke-linecap="round" stroke-linejoin="round" stroke-width="3.20993"/><path d="m44.4156 49.2886c15.8389.2012 27.5179 10.1769 30.6107 26.387" stroke="#14193b" stroke-linecap="round" stroke-linejoin="round" stroke-width="3.06508"/><path d="m62.3013 88.6449c0-12.0945 4.0592-15.3828 9.3286-15.7784 5.5374-.4157 11.5922 6.5661 11.7543 16.5332.2227 13.7003-4.0666 16.4263-10.9692 16.7473-6.9025.322-10.1137-5.711-10.1137-17.5021z" fill="#9c46c2"/><path d="m62.3013 88.6449c0-12.0945 4.0592-15.3828 9.3286-15.7784 5.5374-.4157 11.5922 6.5661 11.7543 16.5332.2227 13.7003-4.0666 16.4263-10.9692 16.7473-6.9025.322-10.1137-5.711-10.1137-17.5021z" stroke="#541770" stroke-linecap="round" stroke-linejoin="round" stroke-width="3.14727"/><path d="m74.4962 82.2124c3.1521 5.3515 2.8015 22.3746-2.0143 23.0176z" fill="#9c46c2"/><path d="m74.4962 82.2124c3.1521 5.3515 2.8015 22.3746-2.0143 23.0176" stroke="#541770" stroke-linecap="round" stroke-linejoin="round" stroke-width="3.14727"/><path d="m134.55 157.122c-14.652 0-29.886-2.846-31.116-12.952-.322-2.644-.175-5.529.296-7.383.76-2.988 1.104-4.221 1.761-6.238 5.459-16.739 12.39-18.24 29.059-18.24 18.193 0 31.986 6.086 33.265 28.861.929 16.539-18.539 15.952-33.265 15.952z" fill="#ffd527"/><path d="m134.55 157.122c-14.652 0-29.886-2.846-31.116-12.952-.322-2.644-.175-5.529.296-7.383.76-2.988 1.104-4.221 1.761-6.238 5.459-16.739 12.39-18.24 29.059-18.24 18.193 0 31.986 6.086 33.265 28.861.929 16.539-18.539 15.952-33.265 15.952z" stroke="#fa9016" stroke-linecap="round" stroke-linejoin="round" stroke-width="2.58398"/><path d="m41.5881 157.122c14.6514 0 29.8859-2.846 31.1161-12.952.3219-2.644.1745-5.529-.2968-7.383-.7595-2.988-1.1033-4.221-1.7609-6.238-5.4586-16.739-12.3897-18.24-29.0584-18.24-14.5541 0-23.0053-4.571-30.0466 7.192-6.9627 11.632-8.01738 23.233-3.7842 36.233 2.9929 9.19 22.0736 1.388 33.8308 1.388z" fill="#83aad3"/><path d="m41.5881 157.122c14.6514 0 29.8859-2.846 31.1161-12.952.3219-2.644.1745-5.529-.2968-7.383-.7595-2.988-1.1033-4.221-1.7609-6.238-5.4586-16.739-12.3897-18.24-29.0584-18.24-14.5541 0-23.0053-4.571-30.0466 7.192-6.96271 11.632-8.01739 23.233-3.7842 36.233 2.9929 9.19 22.0736 1.388 33.8308 1.388z" stroke="#3c6593" stroke-linecap="round" stroke-linejoin="round" stroke-width="2.58398"/><path d="m89.8925 138.985c42.7035 0 79.4165 3.675 87.2045 12.729 1.04 1.209.443 5.622.443 6.899 0 10.841-39.241 19.629-87.6475 19.629-48.4061 0-87.64722-8.788-87.64722-19.629 0-.625-.3966-5.727-.14086-6.338 4.17454-9.97 42.17618-13.29 87.78808-13.29z" fill="#b7610c"/><path d="m89.8925 138.985c42.7035 0 79.4165 3.675 87.2045 12.729 1.04 1.209.443 5.622.443 6.899 0 10.841-39.241 19.629-87.6475 19.629-48.4061 0-87.64722-8.788-87.64722-19.629 0-.625-.3966-5.727-.14086-6.338 4.17454-9.97 42.17618-13.29 87.78808-13.29z" stroke="#8a3800" stroke-width="2.95313"/><path d="m89.8905 133.008c48.4065 0 87.6475 8.789 87.6475 19.629 0 10.841-39.241 19.629-87.6475 19.629-48.4061 0-87.64721-8.788-87.64721-19.629 0-10.84 39.24111-19.629 87.64721-19.629z" fill="#f2ad4e"/><path d="m89.8905 133.008c48.4065 0 87.6475 8.789 87.6475 19.629 0 10.841-39.241 19.629-87.6475 19.629-48.4061 0-87.64721-8.788-87.64721-19.629 0-10.84 39.24111-19.629 87.64721-19.629z" stroke="#8a3800" stroke-width="2.95313"/><path d="m105.328 125.112c-14.9746 15.425 2.923 19.089 6.009 17.404 2.708-.701-3.054-6.286 1.222-10.013" fill="#ffd527"/><path d="m105.328 125.112c-14.9746 15.425 2.923 19.089 6.009 17.404 2.708-.701-3.054-6.286 1.222-10.013" stroke="#fa9016" stroke-linecap="round" stroke-linejoin="round" stroke-width="2.58398"/><path d="m161.353 127.347c5.889-5.082 9.218-12.075 9.035-20.186-.388-17.2309-16.395-33.8411-35.67-33.4071-19.274.434-34.518 17.748-34.13 34.9791.183 8.133 3.841 14.937 9.877 19.712" fill="#ffd527"/><path d="m161.353 127.347c5.889-5.082 9.218-12.075 9.035-20.186-.388-17.2309-16.395-33.8411-35.67-33.4071-19.274.434-34.518 17.748-34.13 34.9791.183 8.133 3.841 14.937 9.877 19.712" stroke="#fa9016" stroke-linecap="round" stroke-linejoin="round" stroke-width="2.58398"/><path d="m116.475 86.975c4.31-3.8708 9.972-6.5139 16.025-7.3685" stroke="#fff" stroke-linecap="round" stroke-linejoin="round" stroke-width="2.43205"/><path d="m161.11 94.2485c2.563 4.0083 4.079 8.5405 4.182 13.1285.133 5.907-2.097 10.963-5.939 14.861" stroke="#fcee21" stroke-linecap="round" stroke-linejoin="round" stroke-width="2.43205"/><path d="m130.261 106.81c.967 3.137 4.077 5.121 6.946 4.431 2.868-.689 4.41-3.792 3.443-6.929-.968-3.137-4.077-5.1211-6.946-4.4315-2.869.6895-4.41 3.7915-3.443 6.9295z" fill="#000"/><path d="m136.748 103.067c-.028.838-.934 1.488-2.023 1.451-1.089-.036-1.949-.744-1.921-1.582s.933-1.488 2.022-1.451c1.089.036 1.95.744 1.922 1.582z" fill="#fff"/><path d="m114.949 106.75c-1.029 3.07-3.834 4.858-6.267 3.992-2.432-.866-3.57-4.057-2.541-7.128s3.834-4.8582 6.267-3.9923c2.432.8663 3.57 4.0573 2.541 7.1283z" fill="#000"/><path d="m112.398 102.922c.093.87-.514 1.671-1.356 1.79-.216.03-.426.013-.621-.045-.566-.166-1.004-.669-1.074-1.316-.094-.87.513-1.672 1.356-1.79.842-.118 1.601.491 1.695 1.361z" fill="#fff"/><path d="m165.332 140.585c-3.594 11.448-19.781 10.411-21.726 7.107-1.238-2.103 7.746-3.024 8.19-15.906" fill="#ffd527"/><path d="m165.332 140.585c-3.594 11.448-19.781 10.411-21.726 7.107-1.238-2.103 7.746-3.024 8.19-15.906" stroke="#fa9016" stroke-linecap="round" stroke-linejoin="round" stroke-width="2.58398"/><path d="m154.589 135.972c-.51 2.474-1.194 5.878-4.662 8.324" stroke="#fff" stroke-linecap="round" stroke-linejoin="round" stroke-width="2.43205"/><path d="m136.579 117.348c-14.058.249-11.53-10.081-15.115-9.565-4.127.595-2.757 8.883-12.095 8.867-3.135-.005-4.903 1.534-2.858 3.981-2.043 1.868-.483 3.304.908 3.847 6.988 2.733 22.666 2.638 29.593.829 2.282-.596 3.664-2.632 3.64-4.501.007-1.758-1.233-3.508-4.073-3.458z" fill="#ff5d1f"/><path d="m136.579 117.348c-14.058.249-11.53-10.081-15.115-9.565-4.127.595-2.757 8.883-12.095 8.867-3.135-.005-4.903 1.534-2.858 3.981-2.043 1.868-.483 3.304.908 3.847 6.988 2.733 22.666 2.638 29.593.829 2.282-.596 3.664-2.632 3.64-4.501.007-1.758-1.233-3.508-4.073-3.458z" stroke="#cf3502" stroke-linecap="round" stroke-linejoin="round" stroke-width="2.43205"/><path d="m114.544 118.598c2.025-.19 4.943-3.357 5.816-6.452" stroke="#ffb484" stroke-linecap="round" stroke-linejoin="round" stroke-width="2.43205"/><path d="m136.469 121.319c-9.885 2.197-26.205 1.158-28.959-.611 2.04.608 6.211 1.582 10.806 1.832 7.094.385 14.753-.594 18.153-1.221z" fill="#7d0909"/><path d="m136.474 121.32c-9.886 2.195-26.206 1.157-28.96-.612 2.04.608 6.21 1.582 10.807 1.831 7.093.385 14.752-.593 18.153-1.219z" stroke="#7d0909" stroke-width=".413437"/><path d="m136.474 121.32c-9.886 2.195-26.206 1.157-28.96-.612 2.04.608 6.21 1.582 10.807 1.831 7.093.385 14.752-.593 18.153-1.219z" stroke="#7d0909" stroke-linecap="round" stroke-linejoin="round" stroke-width="2.43205"/><path d="m66.6992 127.596c1.543 2.255 3.642 5.108 4.6488 7.077" stroke="#fcee21" stroke-linecap="round" stroke-linejoin="round" stroke-width="2.43205"/><path d="m41.2205 79.1224c-5.7867.271-11.6736 2.3644-16.5828 6.0067" stroke="#fff" stroke-linecap="round" stroke-linejoin="round" stroke-width="2.43205"/><path d="m68.4294 118.316c2.1032-4.267 3.1082-8.94 2.7033-13.511-.5213-5.8855-3.2967-10.6633-7.5462-14.1122" stroke="#bcffea" stroke-linecap="round" stroke-linejoin="round" stroke-width="2.43205"/><path d="m11.5722 128.942c-9.99095 22.758 18.9305 18.687 19.4779 16.309.1972-.857 4.2023-6.978-.2867-6.366-7.9738 1.087-15.6468 1.213-11.3153-7.496" fill="#83aad3"/><path d="m11.5722 128.942c-9.99095 22.758 18.9305 18.687 19.4779 16.309.1972-.857 4.2023-6.978-.2867-6.366-7.9738 1.087-15.6468 1.213-11.3153-7.496" stroke="#3c6593" stroke-linecap="round" stroke-linejoin="round" stroke-width="2.58398"/><path d="m57.4863 117.422s5.6251-1.055 10.4607 2.561c30.0819 22.495-12.9105 24.1-13.6909 21.788-.2812-.832-4.8737-6.527-.3461-6.363 8.0423.291 16.584.119 11.7546-4.556" fill="#83aad3"/><path d="m57.4863 117.422s5.6251-1.055 10.4607 2.561c30.0819 22.495-12.9105 24.1-13.6909 21.788-.2812-.832-4.8737-6.527-.3461-6.363 8.0423.291 16.584.119 11.7546-4.556" stroke="#3c6593" stroke-linecap="round" stroke-linejoin="round" stroke-width="2.58398"/><path d="m43.1411 135.274c-1.0192-2.739-7.572-.618-11.1386 2.439-3.5666 3.058-2.7387 8.981 1.4013 8.981s12.4186-.752 16.5323-.244c2.444.183 4.4064-1.635 1.4374-3.301 2.6038-.252 3.2912-1.905.8012-3.221 2.4864.496 4.0335-2.325.7337-3.162-3.2496-.825-5.7622-2.08-9.7673-1.492z" stroke="#4c6406" stroke-linecap="round" stroke-linejoin="round" stroke-width="3.16406"/><path d="m43.1411 135.274c-1.0192-2.739-7.572-.618-11.1386 2.439-3.5666 3.058-2.7387 8.981 1.4013 8.981s12.4186-.752 16.5323-.244c2.444.183 4.4064-1.635 1.4374-3.301 2.6038-.252 3.2912-1.905.8012-3.221 2.4864.496 4.0335-2.325.7337-3.162-3.2496-.825-5.7622-2.08-9.7673-1.492z" fill="#adda25"/><path d="m43.1411 135.274c-1.0192-2.739-7.572-.618-11.1386 2.439-3.5666 3.058-2.7387 8.981 1.4013 8.981s12.4186-.752 16.5323-.244c2.444.183 4.4064-1.635 1.4374-3.301 2.6038-.252 3.2912-1.905.8012-3.221 2.4864.496 4.0335-2.325.7337-3.162-3.2496-.825-5.7622-2.08-9.7673-1.492z" stroke="#4c6406" stroke-linecap="round" stroke-linejoin="round" stroke-width="1.75781"/><path d="m51.3712 143.148c-5.194-1.817-10.4421-.992-10.4421-.992" stroke="#4c6406" stroke-linecap="round" stroke-linejoin="round" stroke-width="2.46094"/><path d="m52.3046 139.81c-5.3269-2.08-10.6986-1.233-10.6986-1.233" stroke="#4c6406" stroke-linecap="round" stroke-linejoin="round" stroke-width="2.46094"/><path d="m53.6596 133.88c.2682-2.91 7.2043-1.863 11.4458.156 4.2416 2.019 4.9902 7.953.994 9.035s-10.8505.705-14.5276 3.58c-1.978 1.316-4.6517.211-2.5873-2.455-2.4728.776-3.7385-.466-1.9757-2.629-2.0763 1.413-4.5781-.562-1.8919-2.601 2.6453-2.009 3.9781-5.582 8.5427-5.086z" stroke="#4c6406" stroke-linecap="round" stroke-linejoin="round" stroke-width="3.16406"/><path d="m53.6596 133.88c.2682-2.91 7.2043-1.863 11.4458.156 4.2416 2.019 4.9902 7.953.994 9.035s-10.8505.705-14.5276 3.58c-1.978 1.316-4.6517.211-2.5873-2.455-2.4728.776-3.7385-.466-1.9757-2.629-2.0763 1.413-4.5781-.562-1.8919-2.601 2.6453-2.009 3.9781-5.582 8.5427-5.086z" fill="#adda25"/><path d="m53.6596 133.88c.2682-2.91 7.2043-1.863 11.4458.156 4.2416 2.019 4.9902 7.953.994 9.035s-10.8505.705-14.5276 3.58c-1.978 1.316-4.6517.211-2.5873-2.455-2.4728.776-3.7385-.466-1.9757-2.629-2.0763 1.413-4.5781-.562-1.8919-2.601 2.6453-2.009 3.9781-5.582 8.5427-5.086z" stroke="#4c6406" stroke-linecap="round" stroke-linejoin="round" stroke-width="1.75781"/><path d="m48.9847 144.196c4.0112-4.273 8.2362-3.766 8.2362-3.766" stroke="#4c6406" stroke-linecap="round" stroke-linejoin="round" stroke-width="2.46094"/><path d="m46.8341 141.511c4.1805-5.091 8.761-4.614 8.761-4.614" stroke="#4c6406" stroke-linecap="round" stroke-linejoin="round" stroke-width="2.46094"/><path d="m76.7371 108.571c1.9834-6.208.7439-10.0341-4.0491-14.8807 4.793-.6802 2.1521-18.721 2.1521-18.721-3.9028-5.0956-10.825-14.597-25.9473-6.6039-16.1878-8.2474-28.8443 1.7722-29.6349 15.2393-13.88288 2.4659-19.088637 26.8693-8.9246 38.5183 10.164 11.65 58.846 16.833 60.4539-8.706 2.8096-.765 5.9499-4.846 5.9499-4.846z" fill="#adda25"/><path d="m76.7371 108.571c1.9834-6.208.7439-10.0341-4.0491-14.8807 4.793-.6802 2.1521-18.721 2.1521-18.721-3.9028-5.0956-10.825-14.597-25.9473-6.6039-16.1878-8.2474-28.8443 1.7722-29.6349 15.2393-13.88288 2.4659-19.088637 26.8693-8.9246 38.5183 10.164 11.65 58.846 16.833 60.4539-8.706 2.8096-.765 5.9499-4.846 5.9499-4.846z" stroke="#4c6406" stroke-linecap="round" stroke-linejoin="round" stroke-width="2.46119"/><path d="m37.0094 102.179c7.3198 5.235 28.4846 5.257 39.5501.086 2.6194-1.223 5.2394 2.872-.6277 5.791 1.5702 3.008-1.3594 5.514-6.9346 6.942-4.3722 1.12-25.1952 3.369-35.0681-3.531-7.8671-5.499-2.4294-13.2275 3.0803-9.288z" fill="#dea680"/><path d="m37.0094 102.179c7.3198 5.235 28.4846 5.257 39.5501.086 2.6194-1.223 5.2394 2.872-.6277 5.791 1.5702 3.008-1.3594 5.514-6.9346 6.942-4.3722 1.12-25.1952 3.369-35.0681-3.531-7.8671-5.499-2.4294-13.2275 3.0803-9.288z" stroke="#b03e00" stroke-linecap="round" stroke-linejoin="round" stroke-width="2.46119"/><path d="m36.0994 106.747c-2.7268-1.833-3.0855-1.023 2.6346 1.77 8.0601 3.935 23.353 4.287 37.1776-.263.1757-1.231-.2638 1.582.0166-.2-9.9162 3.906-28.9376 6.014-39.8288-1.307z" fill="#4e0311"/><path d="m36.0968 106.747c-2.7268-1.833-3.0855-1.023 2.6346 1.77 8.0601 3.935 23.353 4.287 37.1776-.263.1757-1.231-.2638 1.582.0166-.2-9.9162 3.906-28.9375 6.014-39.8288-1.307z" stroke="#8a3000" stroke-linecap="round" stroke-linejoin="round" stroke-width="2.46119"/><path d="m25.4619 105.691c-1.2395-6.2075 3.7188-8.5033 6.6109-8.6734" stroke="#4c6406" stroke-linecap="round" stroke-linejoin="round" stroke-width="2.46119"/><path d="m61.2499 92.9556c3.262 1.7901 20.4276 5.2625 17.1497-7.8775z" fill="#adda25"/><path d="m61.2499 92.9556c3.262 1.7901 20.4276 5.2625 17.1497-7.8775" stroke="#4c6406" stroke-linecap="round" stroke-linejoin="round" stroke-width="2.46119"/><path d="m60.4679 75.3949c6.9412-2.1257 14.3788-2.2106 18.5933-.1698 4.2144 2.0408 2.9833 7.1692 1.0828 8.3597" fill="#adda25"/><path d="m60.4679 75.3949c6.9412-2.1257 14.3788-2.2106 18.5933-.1698 4.2144 2.0408 2.9833 7.1692 1.0828 8.3597" stroke="#445207" stroke-linecap="round" stroke-linejoin="round" stroke-width="2.46119"/><path d="m71.0612 78.5676c6.4449-.1302 11.4039 2.3807 11.4864 5.1869s-4.132 4.5063-10.9907 4.8466c-6.8588.3402-13.4347 1.5244-13.5522-4.1665-.0825-3.9963 8.8421-5.7821 13.0565-5.867z" fill="#fff"/><path d="m71.0612 78.5676c6.4449-.1302 11.4039 2.3807 11.4864 5.1869s-4.132 4.5063-10.9907 4.8466c-6.8588.3402-13.4347 1.5244-13.5522-4.1665-.0825-3.9963 8.8421-5.7821 13.0565-5.867z" stroke="#445207" stroke-linecap="round" stroke-linejoin="round" stroke-width="2.46119"/><path d="m79.1477 84.3068c0 2.4656-1.9425 4.4643-4.3386 4.4643s-4.3385-1.9987-4.3385-4.4643 1.9424-4.4643 4.3385-4.4643 4.3386 1.9987 4.3386 4.4643z" fill="#010000"/><path d="m74.0681 81.8302c0 .9269-.7304 1.6784-1.6312 1.6784s-1.6308-.7515-1.6308-1.6784c0-.927.73-1.6781 1.6308-1.6781s1.6312.7511 1.6312 1.6781z" fill="#feffff"/><path d="m56.5998 79.8433c1.7355 11.3941-3.7562 17.4388-17.4564 15.052z" fill="#adda25"/><path d="m56.5998 79.8433c1.7355 11.3941-3.7562 17.4388-17.4564 15.052" stroke="#445207" stroke-linecap="round" stroke-linejoin="round" stroke-width="2.46119"/><path d="m37.7623 77.8876c7.4372-3.0611 15.1219-4.5067 19.5017-1.0203 4.3798 3.4863-1.6526 6.7172-1.6526 6.7172" fill="#adda25"/><path d="m37.7623 77.8876c7.4372-3.0611 15.1219-4.5067 19.5017-1.0203 4.3798 3.4863-1.6526 6.7172-1.6526 6.7172" stroke="#445207" stroke-linecap="round" stroke-linejoin="round" stroke-width="2.46119"/><path d="m34.0414 84.6052c3.5535-.3399 7.8532-5.0167 17.5216-5.357 9.6684-.3402 10.1613 7.7377 1.1539 9.4383-9.0074 1.7005-14.7917-.3399-18.6755-4.0813z" fill="#fff"/><path d="m34.0414 84.6052c3.5535-.3399 7.8532-5.0167 17.5216-5.357 9.6684-.3402 10.1613 7.7377 1.1539 9.4383-9.0074 1.7005-14.7917-.3399-18.6755-4.0813z" stroke="#445207" stroke-linecap="round" stroke-linejoin="round" stroke-width="2.46119"/><path d="m55.4612 84.3076c0 2.4655-1.9424 4.4642-4.3385 4.4642-2.3962 0-4.3386-1.9987-4.3386-4.4642 0-2.4656 1.9424-4.4643 4.3386-4.4643 2.3961 0 4.3385 1.9987 4.3385 4.4643z" fill="#010000"/><path d="m49.8394 82.1725c0 .9269-.7299 1.6784-1.6308 1.6784-.9008 0-1.6308-.7515-1.6308-1.6784 0-.927.73-1.6781 1.6308-1.6781.9009 0 1.6308.7511 1.6308 1.6781z" fill="#feffff"/><path d="m48.7593 68.4407c2.6353.9037 4.9743 2.263 4.9743 2.263" stroke="#4c6406" stroke-linecap="round" stroke-linejoin="round" stroke-width="2.46119"/><path d="m24.3732 81.8313c.8946-5.7418 5.7835-8.1953 8.8746-8.7131" stroke="#fff" stroke-linecap="round" stroke-linejoin="round" stroke-width="2.46119"/><path d="m77.648 157.522v-19.723" stroke="#11131c" stroke-linecap="round" stroke-linejoin="round" stroke-width="3.20993"/><path d="m87.7173 155.998-10.0724-3.724-9.9881 4.317" stroke="#11131c" stroke-linecap="round" stroke-linejoin="round" stroke-width="3.20993"/><path d="m84.8586 144.626c3.8256-2.346 5.0249-7.35 2.6787-11.176l-4.9121-8.009c-2.3462-3.825-7.3495-5.025-11.1751-2.678-3.8256 2.346-5.0248 7.349-2.6787 11.175l4.9119 8.009c2.3461 3.826 7.3497 5.025 11.1753 2.679z" fill="#60637b"/><path d="m84.8586 144.626c3.8256-2.346 5.0249-7.35 2.6787-11.176l-4.9121-8.009c-2.3462-3.825-7.3495-5.025-11.1751-2.678-3.8256 2.346-5.0248 7.349-2.6787 11.175l4.9119 8.009c2.3461 3.826 7.3497 5.025 11.1753 2.679z" stroke="#11131c" stroke-linecap="round" stroke-linejoin="round" stroke-width="3.20993"/><path d="m80.7794 132.151c-4.1466-1.382-8.8456 2.696-8.4309 7.257" stroke="#11131c" stroke-linecap="round" stroke-linejoin="round" stroke-width="3.20993"/><path d="m83.1539 142.347c-3.9611.915-6.1583-.579-7.1126-1.709" stroke="#9ea0b8" stroke-linecap="round" stroke-linejoin="round" stroke-width="2.56794"/><path d="m123.55 163.849v-19.722" stroke="#11131c" stroke-linecap="round" stroke-linejoin="round" stroke-width="3.20993"/><path d="m133.616 162.326-10.072-3.724-9.989 4.317" stroke="#11131c" stroke-linecap="round" stroke-linejoin="round" stroke-width="3.20993"/><path d="m119.824 152.127c4.237 1.482 8.872-.751 10.353-4.987l3.102-8.868c1.482-4.237-.751-8.872-4.987-10.354-4.236-1.481-8.871.751-10.353 4.988l-3.102 8.868c-1.482 4.236.751 8.872 4.987 10.353z" fill="#61647c"/><path d="m119.824 152.127c4.237 1.482 8.872-.751 10.353-4.987l3.102-8.868c1.482-4.237-.751-8.872-4.987-10.354-4.236-1.481-8.871.751-10.353 4.988l-3.102 8.868c-1.482 4.236.751 8.872 4.987 10.353z" stroke="#11131c" stroke-linecap="round" stroke-linejoin="round" stroke-width="3.20993"/><path d="m131.753 141.948c-2.226-5.871-11.032-7.401-15.733-2.798" stroke="#11131c" stroke-linecap="round" stroke-linejoin="round" stroke-width="3.20993"/><path d="m118.654 141.245c-1.047.963-1.663 4.478.967 6.782" stroke="#9ea1b9" stroke-linecap="round" stroke-linejoin="round" stroke-width="2.24695"/><path d="m68.5572 126.914 4.7461 7.559m3.2519-12.041 4.1309 6.328m-7.4707-6.065 3.9551 6.153m-6.6797-4.659 5.3613 8.35" stroke="#12131d" stroke-linecap="round" stroke-linejoin="round" stroke-width="1.40625"/><path d="m122.585 128.769-2.208 7.253m11.035-4.658-1.786 6.613m-.935-8.264-1.868 6.919m-.915-8.215-2.132 7.798" stroke="#12131d" stroke-linecap="round" stroke-linejoin="round" stroke-width="1.40625"/><path d="m153.709 108.726c0 12.581 3.6 16.752 9.509 16.765 7.812.017 12.902-5.951 13.053-16.319.208-14.2509-6.342-19.3721-12.788-19.7062-6.447-.3342-9.774 6.9957-9.774 19.2602z" fill="#41aee6"/><path d="m153.709 108.726c0 12.581 3.6 16.752 9.509 16.765 7.812.017 12.902-5.951 13.053-16.319.208-14.2509-6.342-19.3721-12.788-19.7062-6.447-.3342-9.774 6.9957-9.774 19.2602z" stroke="#035e94" stroke-linecap="round" stroke-linejoin="round" stroke-width="3.20993"/><path d="m163.603 91.4449c-.317-13.0108-15.166-29.9897-31.717-29.2447-17.256.7768-28.157 12.3069-30.31 30.389" stroke="#14193b" stroke-linecap="round" stroke-linejoin="round" stroke-width="3.20993"/><path d="m148.312 67.1462c-4.876-3.2382-10.542-5.2113-16.424-4.9465-7.318.3294-13.494 2.593-18.343 6.4703" stroke="#045e95" stroke-linecap="round" stroke-linejoin="round" stroke-width="7.06184"/><path d="m164.081 98.8176c-2.943 5.5664-2.698 25.3844 1.799 26.0524" stroke="#045e95" stroke-linecap="round" stroke-linejoin="round" stroke-width="3.20993"/><path d="m23.5572 93.9532c0 12.0948-4.5636 14.8648-9.2916 14.9338-5.1186.074-10.91976-5.71-11.0735-15.6772-.21129-13.7 4.94719-18.6344 11.4939-18.9556 6.5468-.3212 8.8712 7.9082 8.8712 19.699z" fill="#9b45c1"/><path d="m23.5572 93.9532c0 12.0948-4.5636 14.8648-9.2916 14.9338-5.1186.074-10.91976-5.71-11.0735-15.6772-.21129-13.7 4.94719-18.6344 11.4939-18.9556 6.5468-.3212 8.8712 7.9082 8.8712 19.699z" stroke="#63098c" stroke-linecap="round" stroke-linejoin="round" stroke-width="3.06508"/><path d="m16.2166 77.2886c.2685-11.9816 12.42-28.2007 28.2027-28.0004" stroke="#14193b" stroke-linecap="round" stroke-linejoin="round" stroke-width="3.06508"/><path d="m29.1171 54.6941c4.5426-3.2688 9.695-5.4771 15.3034-5.4058 6.9784.0886 12.9878 1.9648 17.9843 5.4799" stroke="#541770" stroke-linecap="round" stroke-linejoin="round" stroke-width="6.74318"/><path d="m14.0799 83.2451c2.9896 5.3515 2.7406 24.4029-1.827 25.0449" stroke="#640a8c" stroke-linecap="round" stroke-linejoin="round" stroke-width="3.06508"/><path d="m10.7421 78.8669c-6.34279 3.9432-4.76061 14.3361-4.32708 16.5959" stroke="#db8cff" stroke-linecap="round" stroke-linejoin="round" stroke-width="2.45207"/><path d="m168.751 5.59896c-.357-1.60524-1.641-2.18075-2.592-2.18075-4.335 0-4.338 13.15199 0 13.15199.844 0 2.306-.2338 2.592-2.16" stroke="#ed7f80" stroke-linecap="round" stroke-linejoin="round" stroke-width="2.8125"/><path d="m143.659 16.5028v-13.01835c5.187-.34735 7.149 1.40062 6.396 4.64695-.42 1.81125-1.831 3.0368-6.396 3.0368" stroke="#ed7f80" stroke-linecap="round" stroke-linejoin="round" stroke-width="2.8125"/><path d="m147.215 11.2493 2.842 5.2537" stroke="#ed7f80" stroke-linecap="round" stroke-linejoin="round" stroke-width="2.8125"/><path d="m159.515 16.5027h-4.926v-13.01832h4.926" stroke="#ed7f80" stroke-linecap="round" stroke-linejoin="round" stroke-width="2.8125"/><path d="m154.589 10.2102h3.235" stroke="#ed7f80" stroke-linecap="round" stroke-linejoin="round" stroke-width="2.8125"/><path d="m139.619 10.2111c0 3.3015-2.677 5.9776-5.978 5.9776-3.302 0-5.978-2.6761-5.978-5.9776s2.676-5.97795 5.978-5.97795c3.301 0 5.978 2.67645 5.978 5.97795z" fill="#ed7f80"/></g></g></g></svg>