<svg width="180" height="180" viewBox="0 0 180 180" fill="none" xmlns="http://www.w3.org/2000/svg">
<mask id="mask0_1_1510" style="mask-type:luminance" maskUnits="userSpaceOnUse" x="0" y="0" width="180" height="180">
<path d="M180 0H0V180H180V0Z" fill="white"/>
</mask>
<g mask="url(#mask0_1_1510)">
<mask id="mask1_1_1510" style="mask-type:luminance" maskUnits="userSpaceOnUse" x="-1" y="0" width="181" height="180">
<path d="M-0.00775146 0H179.992V180H-0.00775146V0Z" fill="white"/>
</mask>
<g mask="url(#mask1_1_1510)">
<path d="M26.045 123.744C22.3474 121.168 19.4199 117.077 18.2057 112.798C17.8394 111.508 17.6289 110.2 17.6003 108.912C17.0604 84.7406 39.9548 72.6913 67.9038 73.6468C94.7208 74.5636 113.779 79.6631 115.503 102.67C115.709 105.415 115.668 108.415 115.364 111.693C114.942 116.236 114.735 119.15 107.151 123.839C98.5391 129.162 37.38 131.641 26.045 123.744Z" fill="#FFD427"/>
<path d="M26.045 123.744C22.3474 121.168 19.4199 117.077 18.2057 112.798C17.8394 111.508 17.6289 110.2 17.6003 108.912C17.0604 84.7406 39.9548 72.6913 67.9038 73.6468C94.7208 74.5636 113.779 79.6631 115.503 102.67C115.709 105.415 115.668 108.415 115.364 111.693C114.942 116.236 114.735 119.15 107.151 123.839C98.5391 129.162 37.38 131.641 26.045 123.744Z" stroke="#F98F16" stroke-width="3.37397" stroke-miterlimit="10"/>
<path d="M109.183 115.791C108.169 118.204 106.228 120.092 102.898 121.192" stroke="#FCEE21" stroke-width="2.81164" stroke-linecap="round" stroke-linejoin="round"/>
<path d="M25.0734 96.3874C22.9564 99.4946 22.3376 103.997 23.3873 106.231" stroke="#FCEE21" stroke-width="2.81164" stroke-linecap="round" stroke-linejoin="round"/>
<path d="M109.524 64.9251C119.357 64.4843 123.521 69.6289 123.125 71.5266C122.466 74.6893 115.309 76.1769 114.984 72.8973C114.628 69.2948 123.042 73.1755 121.949 78.0082C120.653 83.7357 111.872 82.0347 113.614 78.8861C114.79 76.7611 120.281 80.3039 118.678 84.584C117.075 88.8641 104.066 89.3548 102.041 79.5665" stroke="#7EB2C2" stroke-width="5.62312" stroke-linecap="round" stroke-linejoin="round"/>
<path d="M109.528 64.9248C119.504 64.3436 123.525 69.6286 123.129 71.5263C122.47 74.689 115.313 76.1766 114.989 72.897C114.633 69.2944 123.047 73.1752 121.953 78.0079C120.657 83.7353 111.876 82.0343 113.619 78.8857C114.795 76.7607 120.286 80.3035 118.683 84.5836C117.08 88.8637 103.789 89.2469 102.045 79.5661" stroke="#A6EAFF" stroke-width="2.24925" stroke-linecap="round" stroke-linejoin="round"/>
<path d="M116.986 72.811C118.178 73.1447 120.579 72.3176 121.047 71.2055" stroke="#7EB2C2" stroke-width="1.68694" stroke-linecap="round" stroke-linejoin="round"/>
<path d="M115.345 79.757C116.427 80.2945 119.331 79.7509 119.708 78.284" stroke="#7EB2C2" stroke-width="1.68694" stroke-linecap="round" stroke-linejoin="round"/>
<path d="M118.473 76.5826C120.589 76.3585 122.252 75.5506 123.586 74.4795" stroke="#7EB2C2" stroke-width="1.68694" stroke-linecap="round" stroke-linejoin="round"/>
<path d="M116.868 83.6881C118.983 83.464 120.594 83.3319 122.178 81.6778" stroke="#7EB2C2" stroke-width="1.68694" stroke-linecap="round" stroke-linejoin="round"/>
<path d="M107.919 85.8203C126.122 101.728 118.297 116.631 113.314 113.035C108.776 109.76 111.004 110.266 104.144 102.266" fill="#FFD427"/>
<path d="M107.919 85.8203C126.122 101.728 118.297 116.631 113.314 113.035C108.776 109.76 111.004 110.266 104.144 102.266" stroke="#F98F16" stroke-width="3.37586" stroke-linecap="round" stroke-linejoin="round"/>
<path d="M111.938 94.9827C114.241 97.8117 116.625 101.229 116.137 105.942" stroke="white" stroke-width="2.81322" stroke-linecap="round" stroke-linejoin="round"/>
<path d="M28.354 92.1556C18.5625 86.7971 15.2019 75.6379 15.0005 65.9728C14.5099 42.4277 36.4558 18.8979 64.1237 18.4644C91.7915 18.0309 114.704 40.8579 115.195 64.403C115.39 73.7799 112 81.8564 106.102 88.2089" fill="#FFD427"/>
<path d="M28.354 92.1556C18.5625 86.7971 15.2019 75.6379 15.0005 65.9728C14.5099 42.4277 36.4558 18.8979 64.1237 18.4644C91.7915 18.0309 114.704 40.8579 115.195 64.403C115.39 73.7799 112 81.8564 106.102 88.2089" stroke="#F98F16" stroke-width="3.37399" stroke-miterlimit="10" stroke-linecap="round"/>
<path d="M103.086 51.7877C101.582 44.6735 97.1845 36.5818 90.2921 33.1828" stroke="white" stroke-width="2.81188" stroke-linecap="round" stroke-linejoin="round"/>
<path d="M38.3367 36.6829C29.5477 42.9723 23.517 52.1945 22.5121 61.9804C21.7803 69.1074 23.8194 75.5116 27.883 80.8385" stroke="#FBED20" stroke-width="2.81167" stroke-linecap="round" stroke-linejoin="round"/>
<path d="M59.5512 67.7857C73.6972 62.5675 88.2411 65.5563 92.503 66.7297C96.2016 67.7481 98.461 65.9395 98.8437 63.6241C99.2555 61.1316 97.4925 58.0514 93.009 57.2785C81.0163 55.2111 80.6893 46.2092 74.1472 46.6779C67.6098 47.1464 72.3764 54.7823 57.0653 59.2516C51.2386 60.9524 53.6131 69.9763 59.5512 67.7857Z" fill="#FF5C1E"/>
<path d="M59.5512 67.7857C73.6972 62.5675 88.2411 65.5563 92.503 66.7297C96.2016 67.7481 98.461 65.9395 98.8437 63.6241C99.2555 61.1316 97.4925 58.0514 93.009 57.2785C81.0163 55.2111 80.6893 46.2092 74.1472 46.6779C67.6098 47.1464 72.3764 54.7823 57.0653 59.2516C51.2386 60.9524 53.6131 69.9763 59.5512 67.7857Z" stroke="#CF3502" stroke-width="2.81166" stroke-miterlimit="10"/>
<path d="M83.7108 56.5232C81.1766 55.3172 79.8519 53.7801 78.198 51.833" stroke="#FFB484" stroke-width="2.25499" stroke-linecap="round" stroke-linejoin="round"/>
<path d="M93.2402 62.1726C77.0741 57.062 62.8021 64.0077 58.0378 62.8998C66.1549 63.7713 76.2288 57.7145 93.2402 62.1726Z" fill="#7D0909"/>
<path d="M93.2346 62.1733C77.0703 57.0632 62.7965 64.0089 58.0348 62.8991C66.1493 63.7709 76.2255 57.7143 93.2346 62.1733Z" stroke="#7D0909" stroke-width="2.81166" stroke-linecap="round" stroke-linejoin="round"/>
<path d="M105.37 46.0726C105.684 50.6477 102.05 54.5453 97.2519 54.7779C92.454 55.0106 88.3094 51.4903 87.995 46.9152C87.6803 42.34 91.3147 38.4427 96.1126 38.2101C100.91 37.9774 105.055 41.4974 105.37 46.0726Z" fill="black"/>
<path d="M99.9015 31.4174C96.8795 30.227 91.0427 28.5848 85.5794 29.2915" stroke="black" stroke-width="3.37582" stroke-linecap="round" stroke-linejoin="round"/>
<path d="M98.4783 42.8303C98.5569 43.9741 97.6484 44.9485 96.4489 45.0067C95.2494 45.0648 94.2133 44.1848 94.1347 43.041C94.056 41.8972 94.9646 40.9229 96.164 40.8647C97.3635 40.8065 98.3997 41.6865 98.4783 42.8303Z" fill="white"/>
<path d="M45.2501 48.6823C45.1265 53.2643 48.9208 57.0455 53.7253 57.1278C58.5298 57.21 62.525 53.5622 62.6486 48.9802C62.7726 44.3982 58.9782 40.6172 54.1737 40.535C49.3693 40.4528 45.3737 44.1003 45.2501 48.6823Z" fill="black"/>
<path d="M45.2501 48.6823C45.1265 53.2643 48.9208 57.0455 53.7253 57.1278C58.5298 57.21 62.525 53.5622 62.6486 48.9802C62.7726 44.3982 58.9782 40.6172 54.1737 40.535C49.3693 40.4528 45.3737 44.1003 45.2501 48.6823Z" fill="black"/>
<path d="M41.4421 32.9708C47.7425 28.9227 54.8607 27.8778 59.8172 28.7147" stroke="black" stroke-width="3.37582" stroke-linecap="round" stroke-linejoin="round"/>
<path d="M51.0439 45.3858C51.013 46.5313 51.9616 47.4766 53.1627 47.4971C54.3638 47.5177 55.3626 46.6058 55.3935 45.4603C55.4245 44.3147 54.4759 43.3695 53.2748 43.349C52.0737 43.3284 51.0748 44.2403 51.0439 45.3858Z" fill="white"/>
<path d="M64.8588 127.344C73.2927 130.557 83.0473 129.867 90.2504 122.656" stroke="#008FCA" stroke-width="9.84375" stroke-linecap="round" stroke-linejoin="round"/>
<path d="M80.7362 104.012C84.4093 106.677 95.313 109.127 94.1481 114.295C93.5312 121.502 74.5807 118.294 66.7178 111.697" fill="#FFD427"/>
<path d="M80.7362 104.012C84.4093 106.677 95.313 109.127 94.1481 114.295C93.5312 121.502 74.5807 118.294 66.7178 111.697" stroke="#F98F16" stroke-width="3.37463" stroke-linecap="round" stroke-linejoin="round"/>
<path d="M88.6825 111.69C86.6586 110.767 84.4978 110.041 79.8086 107.367" stroke="white" stroke-width="2.81219" stroke-linecap="round" stroke-linejoin="round"/>
<path d="M67.1762 47.004C68.2027 40.8774 80.4782 39.8337 82.8856 45.9759" stroke="black" stroke-width="4.63929" stroke-linecap="round" stroke-linejoin="round"/>
<path d="M30.8738 41.7985L69.2934 39.8785L66.1922 52.7608C65.6012 55.215 63.1657 57.0033 60.2541 57.1202L43.5718 57.79C40.8664 57.8987 38.3533 56.5365 37.2841 54.3818L30.8738 41.7985Z" fill="url(#paint0_linear_1_1510)"/>
<path d="M30.8738 41.7985L69.2934 39.8785L66.1922 52.7608C65.6012 55.215 63.1657 57.0033 60.2541 57.1202L43.5718 57.79C40.8664 57.8987 38.3533 56.5365 37.2841 54.3818L30.8738 41.7985Z" stroke="black" stroke-width="2.79193" stroke-linecap="round" stroke-linejoin="round"/>
<path d="M114.042 37.7858L79.4576 39.3878L83.6186 51.9198C84.4115 54.3072 86.7832 55.8636 89.4011 55.7137L104.401 54.855C106.833 54.7159 108.935 53.131 109.66 50.8898L114.042 37.7858Z" fill="url(#paint1_linear_1_1510)"/>
<path d="M114.042 37.7858L79.4576 39.3878L83.6186 51.9198C84.4115 54.3072 86.7832 55.8636 89.4011 55.7137L104.401 54.855C106.833 54.7159 108.935 53.131 109.66 50.8898L114.042 37.7858Z" stroke="black" stroke-width="2.64865" stroke-linecap="round" stroke-linejoin="round"/>
<path d="M47.2413 107.877C48.9032 116.598 56.1833 124.038 64.8624 127.344" stroke="#008FCA" stroke-width="9.84375" stroke-linecap="round" stroke-linejoin="round"/>
<path d="M46.681 106.471C49.3329 120.388 66.2929 131.042 80.4116 126.843" stroke="#13A7E4" stroke-width="2.8125" stroke-linecap="round" stroke-linejoin="round"/>
<path d="M34.7461 134.247C34.7461 135.199 36.3748 135.971 38.3838 135.971C40.3928 135.971 42.0215 135.199 42.0215 134.247C42.0215 133.295 40.3928 132.523 38.3838 132.523C36.3748 132.523 34.7461 133.295 34.7461 134.247Z" fill="#D3C1AE"/>
<path d="M41.3216 134.246V108.31H35.4407V134.246" fill="#D3C1AE"/>
<path d="M41.3216 134.246V108.31H35.4407V134.246" stroke="#686867" stroke-width="2.25" stroke-linecap="round" stroke-linejoin="round"/>
<path d="M34.2902 102.03C34.2902 104.29 36.1222 106.122 38.3824 106.122C40.6425 106.122 42.4745 104.29 42.4745 102.03C42.4745 99.7698 40.6425 97.9377 38.3824 97.9377C36.1222 97.9377 34.2902 99.7698 34.2902 102.03Z" fill="#D3C1AE"/>
<path d="M34.2902 102.03C34.2902 104.29 36.1222 106.122 38.3824 106.122C40.6425 106.122 42.4745 104.29 42.4745 102.03C42.4745 99.7698 40.6425 97.9377 38.3824 97.9377C36.1222 97.9377 34.2902 99.7698 34.2902 102.03Z" stroke="#686867" stroke-width="2.25" stroke-linecap="round" stroke-linejoin="round"/>
<path d="M37.6864 100.854C37.6864 101.719 38.3878 102.421 39.2532 102.421C40.1186 102.421 40.8201 101.719 40.8201 100.854C40.8201 99.9885 40.1186 99.2871 39.2532 99.2871C38.3878 99.2871 37.6864 99.9885 37.6864 100.854Z" fill="white"/>
<path d="M8.33585 220.497C4.37802 216.866 2.23567 211.978 2.54869 206.402C3.21374 194.555 14.6719 183.493 27.9989 184.232C41.3258 184.972 51.4746 197.234 50.8096 209.08C50.4957 214.672 47.8087 219.27 43.5224 222.417" fill="#FFD527"/>
<path d="M8.33585 220.497C4.37802 216.866 2.23567 211.978 2.54869 206.402C3.21374 194.555 14.6719 183.493 27.9989 184.232C41.3258 184.972 51.4746 197.234 50.8096 209.08C50.4957 214.672 47.8087 219.27 43.5224 222.417" stroke="#FA9016" stroke-width="3.09374" stroke-linecap="round" stroke-linejoin="round"/>
<path d="M193.138 133.95C183.047 133.878 172.209 130.122 172.688 118.07C174.381 102.301 187.748 101.136 196.333 101.136C217.837 101.136 217.523 114.783 221.939 118.332C222.708 132.606 206.366 134.044 193.138 133.95Z" fill="#FFD527"/>
<path d="M193.138 133.95C183.047 133.878 172.209 130.122 172.688 118.07C174.381 102.301 187.748 101.136 196.333 101.136C217.837 101.136 217.523 114.783 221.939 118.332C222.708 132.606 206.366 134.044 193.138 133.95Z" stroke="#FA9016" stroke-width="2.95603" stroke-linecap="round" stroke-linejoin="round"/>
<path d="M180.233 127.731C176.129 125.012 175.785 122.13 175.659 119.396" stroke="#FCEE21" stroke-width="2.37821" stroke-linecap="round" stroke-linejoin="round"/>
<path d="M177.44 108.349C173.482 104.718 171.34 99.8302 171.653 94.2536C172.318 82.4069 183.776 71.3448 197.103 72.0845C210.43 72.8243 220.579 85.0857 219.914 96.9324C219.6 102.524 216.913 107.122 212.627 110.269" fill="#FFD527"/>
<path d="M177.44 108.349C173.482 104.718 171.34 99.8302 171.653 94.2536C172.318 82.4069 183.776 71.3448 197.103 72.0845C210.43 72.8243 220.579 85.0857 219.914 96.9324C219.6 102.524 216.913 107.122 212.627 110.269" stroke="#FA9016" stroke-width="3.09374" stroke-linecap="round" stroke-linejoin="round"/>
<path d="M177.378 87.5684C180.185 82.0278 185.313 78.6836 188.886 77.135" stroke="#FCEE21" stroke-width="2.37798" stroke-linecap="round" stroke-linejoin="round"/>
<path d="M179.245 91.8771C180.879 92.2397 182.017 93.6974 182.21 95.4388C182.267 95.9582 182.24 96.503 182.117 97.0515C181.998 97.5831 181.798 98.0735 181.537 98.5094C180.624 100.03 178.955 100.887 177.306 100.521C175.738 100.174 174.626 98.8179 174.369 97.1705C174.278 96.5885 174.294 95.9702 174.433 95.347C174.549 94.8332 174.739 94.3582 174.988 93.9336C175.895 92.3851 177.58 91.5078 179.245 91.8771Z" fill="black"/>
<path d="M178.597 94.7408C178.787 95.415 179.42 95.8469 180.01 95.7053C180.601 95.5637 180.926 94.9025 180.736 94.2283C180.546 93.554 179.914 93.1222 179.323 93.2638C178.732 93.4053 178.407 94.0666 178.597 94.7408Z" fill="white"/>
<path d="M199.469 104.84C199.412 103.537 196.724 103.352 195.258 102.319C192.879 100.643 193.464 97.9746 189.914 97.6212C188 97.4368 186.669 100.725 184.414 102.145C182.244 103.444 178.851 101.066 178.023 104.962C177.459 107.58 184.336 109.654 189.3 109.873C194.294 110.113 199.658 108.598 199.469 104.84Z" stroke="#CF3502" stroke-width="0.30628"/>
<path d="M199.469 104.84C199.412 103.537 196.724 103.352 195.258 102.319C192.879 100.643 193.464 97.9746 189.914 97.6212C188 97.4368 186.669 100.725 184.414 102.145C182.244 103.444 178.851 101.066 178.023 104.962C177.459 107.58 184.336 109.654 189.3 109.873C194.294 110.113 199.658 108.598 199.469 104.84Z" fill="#FF5D1F"/>
<path d="M199.469 104.84C199.412 103.537 196.724 103.352 195.258 102.319C192.879 100.643 193.464 97.9746 189.914 97.6212C188 97.4368 186.669 100.725 184.414 102.145C182.244 103.444 178.851 101.066 178.023 104.962C177.459 107.58 184.336 109.654 189.3 109.873C194.294 110.113 199.658 108.598 199.469 104.84Z" stroke="#CF3502" stroke-width="2.47505" stroke-linecap="round" stroke-linejoin="round"/>
<path d="M178.591 104.645C183.496 106.672 191.609 106.858 196.014 105.381" stroke="#7D0909" stroke-width="1.85621" stroke-linecap="round" stroke-linejoin="round"/>
<path d="M140.754 133.95C130.663 133.878 119.825 130.123 120.304 118.07C121.997 102.301 135.364 101.136 143.949 101.136C165.453 101.136 165.139 114.783 169.555 118.333C170.324 132.606 153.982 134.044 140.754 133.95Z" fill="#FFD527"/>
<path d="M140.754 133.95C130.663 133.878 119.825 130.123 120.304 118.07C121.997 102.301 135.364 101.136 143.949 101.136C165.453 101.136 165.139 114.783 169.555 118.333C170.324 132.606 153.982 134.044 140.754 133.95Z" stroke="#FA9016" stroke-width="2.95603" stroke-linecap="round" stroke-linejoin="round"/>
<path d="M127.848 127.731C123.744 125.013 123.4 122.13 123.274 119.396" stroke="#FCEE21" stroke-width="2.37821" stroke-linecap="round" stroke-linejoin="round"/>
<path d="M125.055 108.349C121.097 104.718 118.954 99.8302 119.267 94.2536C119.932 82.4069 131.391 71.3448 144.718 72.0845C158.044 72.8243 168.193 85.0857 167.528 96.9324C167.214 102.524 164.527 107.122 160.241 110.269" fill="#FFD527"/>
<path d="M125.055 108.349C121.097 104.718 118.954 99.8302 119.267 94.2536C119.932 82.4069 131.391 71.3448 144.718 72.0845C158.044 72.8243 168.193 85.0857 167.528 96.9324C167.214 102.524 164.527 107.122 160.241 110.269" stroke="#FA9016" stroke-width="3.09374" stroke-linecap="round" stroke-linejoin="round"/>
<path d="M156.355 79.7002C159.87 82.1544 162.203 86.0404 163.372 89.5632" stroke="white" stroke-width="2.37798" stroke-linecap="round" stroke-linejoin="round" stroke-dasharray="10.3 2.54"/>
<path d="M124.996 87.5684C127.802 82.0278 132.93 78.6836 136.503 77.135" stroke="#FCEE21" stroke-width="2.37798" stroke-linecap="round" stroke-linejoin="round"/>
<path d="M126.631 93.0357C128.381 93.4091 129.511 94.6742 129.759 96.0663C129.875 96.5679 129.819 97.0262 129.646 97.4514C129.474 97.8671 129.226 98.1421 128.952 98.3391C128.179 99.1825 126.846 99.4752 125.207 99.1198C123.59 98.7698 122.533 98.0579 122.142 97.029C121.942 96.6783 121.818 96.2745 121.856 95.7293C121.875 95.2493 122.069 94.8203 122.405 94.452C123.253 93.3068 124.843 92.6543 126.631 93.0357Z" stroke="black" stroke-width="0.326228"/>
<path d="M126.631 93.0364C128.381 93.4098 129.511 94.6749 129.759 96.0671C129.875 96.5687 129.819 97.0269 129.646 97.4522C129.474 97.8679 129.226 98.1429 128.951 98.3399C128.179 99.1832 126.846 99.4759 125.207 99.1206C123.59 98.7705 122.533 98.0587 122.142 97.0298C121.942 96.679 121.818 96.2753 121.856 95.73C121.875 95.25 122.069 94.821 122.405 94.4527C123.253 93.3075 124.843 92.655 126.631 93.0364Z" fill="black"/>
<path d="M126.035 95.1618C126.238 95.7757 126.877 96.1797 127.461 96.0641C128.046 95.9486 128.355 95.3574 128.152 94.7435C127.949 94.1296 127.31 93.7257 126.725 93.8412C126.14 93.9567 125.831 94.5479 126.035 95.1618Z" fill="#E8E8E8"/>
<path d="M149.148 94.3255C150.989 94.2553 152.438 95.2021 153.041 96.4893C153.285 96.9467 153.345 97.4046 153.282 97.859C153.217 98.3042 153.039 98.6319 152.815 98.8904C152.26 99.8981 151.006 100.511 149.28 100.571C147.578 100.631 146.343 100.202 145.69 99.3019C145.402 99.0115 145.174 98.651 145.073 98.1135C144.97 97.6436 145.054 97.1802 145.295 96.7406C145.849 95.4218 147.268 94.3973 149.148 94.3255Z" stroke="black" stroke-width="0.330934"/>
<path d="M149.151 94.3258C150.992 94.2556 152.441 95.2023 153.044 96.4896C153.288 96.9469 153.348 97.4048 153.285 97.8593C153.219 98.3044 153.041 98.6322 152.818 98.8907C152.263 99.8983 151.008 100.511 149.283 100.571C147.581 100.631 146.346 100.202 145.693 99.3022C145.404 99.0117 145.177 98.6513 145.076 98.1137C144.973 97.6439 145.057 97.1804 145.298 96.7408C145.852 95.4221 147.271 94.3975 149.151 94.3258Z" fill="black"/>
<path d="M149.085 96.5347C149.444 97.0792 150.184 97.3129 150.738 97.0566C151.292 96.8004 151.449 96.1513 151.09 95.6068C150.731 95.0623 149.991 94.8286 149.437 95.0849C148.883 95.3411 148.726 95.9902 149.085 96.5347Z" fill="#E8E8E8"/>
<path d="M147.086 104.84C147.029 103.537 144.341 103.352 142.875 102.319C140.496 100.643 141.081 97.9746 137.531 97.6212C135.617 97.4368 134.286 100.725 132.031 102.145C129.861 103.444 126.468 101.066 125.64 104.962C125.076 107.58 131.953 109.654 136.917 109.873C141.911 110.113 147.275 108.598 147.086 104.84Z" stroke="#CF3502" stroke-width="0.30628"/>
<path d="M147.086 104.84C147.029 103.537 144.341 103.352 142.875 102.319C140.496 100.643 141.081 97.9746 137.531 97.6212C135.617 97.4368 134.286 100.725 132.031 102.145C129.861 103.444 126.468 101.066 125.64 104.962C125.076 107.58 131.953 109.654 136.917 109.873C141.911 110.113 147.275 108.598 147.086 104.84Z" fill="#FF5D1F"/>
<path d="M147.086 104.84C147.029 103.537 144.341 103.352 142.875 102.319C140.496 100.643 141.081 97.9746 137.531 97.6212C135.617 97.4368 134.286 100.725 132.031 102.145C129.861 103.444 126.468 101.066 125.64 104.962C125.076 107.58 131.953 109.654 136.917 109.873C141.911 110.113 147.275 108.598 147.086 104.84Z" stroke="#CF3502" stroke-width="2.47505" stroke-linecap="round" stroke-linejoin="round"/>
<path d="M140.876 103.406C139.314 102.766 138.866 101.935 137.949 100.426" stroke="#FFB484" stroke-width="2.01707" stroke-linecap="round" stroke-linejoin="round"/>
<path d="M126.208 104.645C131.113 106.672 139.226 106.858 143.632 105.381" stroke="#7D0909" stroke-width="1.85621" stroke-linecap="round" stroke-linejoin="round"/>
<path d="M156.21 116.045C158.976 120.368 163.843 122.92 165.374 122.271C167.14 121.524 164.753 115.519 163.2 112.945" fill="#FFD527"/>
<path d="M156.21 116.045C158.976 120.368 163.843 122.92 165.374 122.271C167.14 121.524 164.753 115.519 163.2 112.945" stroke="#FA9016" stroke-width="2.97028" stroke-linecap="round" stroke-linejoin="round"/>
<path d="M107.749 123.408C111.26 137.461 133.584 152.754 149.137 137.621" stroke="#008FCA" stroke-width="9.84375" stroke-linecap="round" stroke-linejoin="round"/>
<path d="M165.579 133.89C163.434 134.768 162.052 137.307 162.69 139.453C164.489 145.508 168.228 151.841 177.442 155.631C179.955 156.665 179.772 155.743 179.772 154.029C179.772 151.901 179.825 150.69 179.825 148.403C179.825 146.47 178.789 145.627 178.269 145.295C174.462 142.867 172.942 139.316 171.769 136.559C170.804 134.29 167.942 132.923 165.579 133.89ZM26.1905 103.008C20.8292 107.71 9.70541 108.745 2.44916 104.766C-0.275452 103.272 0.120056 104.59 0.120056 106.216C0.120056 107.842 0.0321655 111.753 0.0321655 112.764C0.0321655 113.775 0.0662671 114.282 1.43842 114.829C18.1816 121.509 29.5304 113.247 33.2657 109.468C34.8362 107.879 34.7314 105.123 33.1898 103.398C31.4917 101.497 28.0397 101.386 26.1905 103.008Z" fill="#008FCA"/>
<path d="M166.467 137.471C167.218 140.478 171.296 146.91 173.894 148.083M4.03119 109.395C8.52248 112.413 16.8523 112.947 23.6639 109.049M106.702 122.354C109.52 133.635 124.463 145.716 138.294 142.212" stroke="#13A7E4" stroke-width="2.8125" stroke-linecap="round" stroke-linejoin="round"/>
<path d="M154.594 164.481C154.594 165.433 156.223 166.205 158.232 166.205C160.241 166.205 161.87 165.433 161.87 164.481C161.87 163.529 160.241 162.757 158.232 162.757C156.223 162.757 154.594 163.529 154.594 164.481Z" fill="#D3C1AE"/>
<path d="M161.17 164.48V138.544H155.289V164.48" fill="#D3C1AE"/>
<path d="M161.17 164.48V138.544H155.289V164.48" stroke="#686867" stroke-width="2.25" stroke-linecap="round" stroke-linejoin="round"/>
<path d="M154.139 132.264C154.139 134.524 155.971 136.356 158.231 136.356C160.491 136.356 162.323 134.524 162.323 132.264C162.323 130.003 160.491 128.171 158.231 128.171C155.971 128.171 154.139 130.003 154.139 132.264Z" fill="#D3C1AE"/>
<path d="M154.139 132.264C154.139 134.524 155.971 136.356 158.231 136.356C160.491 136.356 162.323 134.524 162.323 132.264C162.323 130.003 160.491 128.171 158.231 128.171C155.971 128.171 154.139 130.003 154.139 132.264Z" stroke="#686867" stroke-width="2.25" stroke-linecap="round" stroke-linejoin="round"/>
<path d="M157.536 131.088C157.536 131.953 158.238 132.655 159.103 132.655C159.968 132.655 160.67 131.953 160.67 131.088C160.67 130.223 159.968 129.521 159.103 129.521C158.238 129.521 157.536 130.223 157.536 131.088Z" fill="white"/>
<path d="M94.6857 149.363C94.6857 150.315 96.3144 151.088 98.3234 151.088C100.332 151.088 101.961 150.315 101.961 149.363C101.961 148.411 100.332 147.639 98.3234 147.639C96.3144 147.639 94.6857 148.411 94.6857 149.363Z" fill="#D3C1AE"/>
<path d="M101.26 149.363V123.427H95.3794V149.363" fill="#D3C1AE"/>
<path d="M101.26 149.363V123.427H95.3794V149.363" stroke="#686867" stroke-width="2.25" stroke-linecap="round" stroke-linejoin="round"/>
<path d="M94.229 117.147C94.229 119.407 96.061 121.239 98.3211 121.239C100.581 121.239 102.413 119.407 102.413 117.147C102.413 114.887 100.581 113.055 98.3211 113.055C96.061 113.055 94.229 114.887 94.229 117.147Z" fill="#D3C1AE"/>
<path d="M94.229 117.147C94.229 119.407 96.061 121.239 98.3211 121.239C100.581 121.239 102.413 119.407 102.413 117.147C102.413 114.887 100.581 113.055 98.3211 113.055C96.061 113.055 94.229 114.887 94.229 117.147Z" stroke="#686867" stroke-width="2.25" stroke-linecap="round" stroke-linejoin="round"/>
<path d="M97.6278 115.971C97.6278 116.837 98.3292 117.538 99.1946 117.538C100.06 117.538 100.761 116.837 100.761 115.971C100.761 115.106 100.06 114.404 99.1946 114.404C98.3292 114.404 97.6278 115.106 97.6278 115.971Z" fill="white"/>
</g>
</g>
<defs>
<linearGradient id="paint0_linear_1_1510" x1="89.2197" y1="32.6612" x2="126.936" y2="3.79733" gradientUnits="userSpaceOnUse">
<stop offset="0.12" stop-color="#178B8E"/>
<stop offset="0.5" stop-color="#178B8E"/>
<stop offset="0.87" stop-color="#178B8E"/>
<stop offset="0.88"/>
</linearGradient>
<linearGradient id="paint1_linear_1_1510" x1="102.017" y1="26.6488" x2="126.908" y2="6.11194" gradientUnits="userSpaceOnUse">
<stop offset="0.12" stop-color="#178B8E"/>
<stop offset="0.5" stop-color="#178B8E"/>
<stop offset="0.87" stop-color="#178B8E"/>
<stop offset="0.88"/>
</linearGradient>
</defs>
</svg>
