<svg fill="none" height="180" viewBox="0 0 180 180" width="180" xmlns="http://www.w3.org/2000/svg" xmlns:xlink="http://www.w3.org/1999/xlink"><clipPath id="a"><path d="m0 0h180v180h-180z"/></clipPath><clipPath id="b"><path d="m0 0h180v180h-180z"/></clipPath><mask id="c" height="181" maskUnits="userSpaceOnUse" width="180" x="0" y="-1"><path d="m180-.00024414h-180v180.00024414h180z" fill="#fff"/></mask><g clip-path="url(#a)"><g clip-path="url(#b)"><g mask="url(#c)"><path d="m93.638 78.4083 53.787-2.7657c2.672.0439 21.975 7.6162 23.656 41.2494.115 2.303 4.364 5.424 4.297 7.964-.642 24.576-100.2393 23.826-100.4605.336-.3354-35.5908 18.1419-46.4898 18.7205-46.7837z" fill="#ffd527"/><path d="m93.638 78.4083 53.787-2.7657c2.672.0439 21.975 7.6162 23.656 41.2494.115 2.303 4.364 5.424 4.297 7.964-.642 24.576-100.2393 23.826-100.4605.336-.3354-35.5908 18.1419-46.4898 18.7205-46.7837z" stroke="#fa9016" stroke-linecap="round" stroke-linejoin="round" stroke-width="3.51911"/><path d="m141.742 136.471c9.946-.869 22.049-3.236 26.084-7.88" stroke="#fcee21" stroke-dasharray="15.48 5.28" stroke-linecap="round" stroke-linejoin="round" stroke-width="2.81529"/><path d="m79.3273 143.042-76.77461 31.447-.33785-115.1003 76.77456-31.4466z" fill="#759297"/><path d="m79.3273 143.042-76.77461 31.447-.33785-115.1003 76.77456-31.4466z" stroke="#759297" stroke-linecap="round" stroke-linejoin="round" stroke-width="3.51911"/><path d="m2.21484 59.3887 76.77456-31.4466.3379 115.0999-76.77461 31.447" fill="#759297"/><path d="m2.21484 59.3887 76.77456-31.4466.3379 115.0999-76.77461 31.447" stroke="#385659" stroke-linecap="round" stroke-linejoin="round" stroke-width="3.51911"/><path d="m2.55269 7.24438-.33785 52.14342 76.77456-31.4466z" fill="#627d7f"/><path d="m2.55269 7.24438-.33785 52.14342 76.77456-31.4466z" stroke="#627d7f" stroke-linecap="round" stroke-linejoin="round" stroke-width="3.51911"/><path d="m2.21484 59.3878 76.77456-31.4466-76.43671-20.69682" stroke="#385659" stroke-linecap="round" stroke-linejoin="round" stroke-width="3.51911"/><path d="m9.60422 68.3778 61.78778-25.5182v38.1143l-61.78778 25.5181z" fill="#759297"/><g stroke-linecap="round" stroke-linejoin="round"><path d="m9.60422 68.3778 61.78778-25.5182v38.1143l-61.78778 25.5181z" stroke="#385659" stroke-width="3.51911"/><path d="m12.3829 70.686v31.829l56.2177-23.2181" opacity=".33" stroke="#385659" stroke-width="2.81529"/><path d="m68.1658 76.617v-28.8899l-50.6584 20.7766" stroke="#8cacaf" stroke-width="2.81529"/><path d="m62.2956 50.1328-17.2979 7.0945" stroke="#aacece" stroke-width="2.81529"/></g><path d="m71.392 132.71-61.78778 25.414v-37.577l61.78778-25.4147z" fill="#385659"/><path d="m71.392 132.71-61.78778 25.414v-37.577l61.78778-25.4147z" stroke="#385659" stroke-linecap="round" stroke-linejoin="round" stroke-width="3.51911"/><path d="m71.3271 127.688 28.9399 18.172v-25.257l-28.9399-18.172z" fill="#627d7f"/><path d="m71.3271 127.688 28.9399 18.172v-25.257l-28.9399-18.172z" stroke="#385659" stroke-linecap="round" stroke-linejoin="round" stroke-width="3.51911"/><path d="m22.1437 138.539 53.9157-13.028c2.7347-.661 5.178-3.336 5.4569-5.975l3.7855-35.8035c.2789-2.6387-1.712-4.242-4.4468-3.5812l-53.9157 13.0285c-2.7347.6609-5.178 3.3357-5.4569 5.9744l-3.7855 35.8038c-.2789 2.639 1.712 4.242 4.4468 3.581z" fill="#f2b54d"/><path d="m22.1437 138.539 53.9157-13.028c2.7347-.661 5.1781-3.336 5.4569-5.975l3.7855-35.8035c.2789-2.6387-1.712-4.242-4.4468-3.5812l-53.9157 13.0285c-2.7347.6609-5.178 3.3357-5.4569 5.9744l-3.7855 35.8038c-.2789 2.639 1.712 4.242 4.4468 3.581z" stroke="#af8756" stroke-miterlimit="10" stroke-width="2.81528"/><path d="m41.9611 103.79c-.4548.684-1.1688 1.204-1.895 1.38l-14.6972 3.55c-2.0204.488-3.4914-.696-3.2854-2.646l.7568-7.1647c.206-1.9495 2.0106-3.9258 4.0311-4.4139l14.6971-3.5507c.7262-.1754 1.3649.0175 1.6953.5123l2.8314 4.2405c.3798.569.2881 1.4391-.2352 2.2263z" fill="#f7ebdc"/><path d="m34.4814 99.6633c-.336 2.5617-2.5057 5.0957-4.8462 5.6617-2.3405.565-3.9655-1.052-3.6295-3.614.3361-2.5612 2.506-5.0963 4.8465-5.6618s3.9652 1.0528 3.6292 3.6141z" fill="#ffd527"/><path d="m34.4814 99.6633c-.336 2.5617-2.5057 5.0957-4.8462 5.6617-2.3405.565-3.9655-1.052-3.6295-3.614.3361-2.5612 2.506-5.0963 4.8465-5.6618s3.9652 1.0528 3.6292 3.6141z" stroke="#fab916" stroke-width="1.75956"/><path d="m32.785 103.225c-1.8794 2.196-4.5434 2.84-5.9506 1.438-1.4072-1.401-1.0248-4.317.8545-6.5122" stroke="#ed9802" stroke-linecap="round" stroke-linejoin="round" stroke-width="1.75956"/><path d="m27.3617 102.056c-.1974-.023-.4208.238-.3908.453.1958 1.403.7472 2.401 2.745 1.918 2.0052-.484 3.2156-2.249 3.5466-3.568.0574-.227-.108-.356-.3114-.245-1.6075.879-4.3116 1.596-5.5894 1.442z" fill="#8b2d01"/><path d="m27.3617 102.056c-.1974-.023-.4208.238-.3908.453.1958 1.403.7472 2.401 2.745 1.918 2.0052-.484 3.2156-2.249 3.5466-3.568.0574-.227-.108-.356-.3114-.245-1.6075.879-4.3116 1.596-5.5894 1.442z" stroke="#8b2d01" stroke-linecap="round" stroke-linejoin="round" stroke-width=".703823"/><path d="m26.5055 102.158c-.6421.465-1.2417 1.046-1.6207 1.607-.9878 1.464.6935 1.863 1.2074.465.2511-.684.4333-1.501.4133-2.072z" fill="#00afe5"/><path d="m33.5951 100.273c.6396.2 1.1311.629 1.4277 1.063.6162.9-1.0794 2.403-1.4848 1.327-.228-.605-.1586-1.633.0571-2.39z" fill="#00afe5"/><path d="m30.8381 99.9454c.5881-.71 1.4853-1.0818 2.01-.4987-.5665-.0823-1.0271-.1648-2.01.4987z" stroke="#8b2d01" stroke-linecap="round" stroke-linejoin="round" stroke-width="1.05573"/><path d="m29.4087 100.291c-.4341-.4632-1.2897-.4114-2.0066.472.6261-.371 1.1392-.688 2.0066-.472z" stroke="#8b2d01" stroke-linecap="round" stroke-linejoin="round" stroke-width="1.05573"/><path d="m32.4845 101.756c.0983-.236.1691-.466.211-.679.0236-.12-.0678-.187-.1753-.124-1.4233.823-4.0166 1.508-5.0858 1.297-.109-.022-.24.124-.2256.248.0241.207.0558.405.099.59.0094.041.035.069.0724.077 1.0199.225 3.2323-.194 4.9967-1.281.0459-.029.0858-.076.1076-.128z" fill="#fff"/><path d="m30.3909 160.214 51.2111-21.315c2.5976-1.081 4.9163-3.995 5.1789-6.509l5.3215-33.2281c.2626-2.5137-1.6305-3.675-4.2281-2.5939l-51.2111 21.314c-2.5976 1.081-4.9166 3.996-5.1792 6.509l-5.3212 33.229c-.2626 2.513 1.6305 3.675 4.2281 2.594z" fill="#f2b54d"/><path d="m30.3909 160.214 51.2111-21.315c2.5976-1.081 4.9163-3.995 5.1789-6.509l5.3215-33.2281c.2626-2.5137-1.6305-3.675-4.2281-2.5939l-51.2111 21.314c-2.5976 1.081-4.9166 3.996-5.1792 6.509l-5.3212 33.229c-.2626 2.513 1.6305 3.675 4.2281 2.594z" stroke="#af8756" stroke-miterlimit="10" stroke-width="2.81529"/><path d="m50.8594 125.565c-.4315.716-1.1098 1.323-1.7996 1.611l-13.9601 5.81c-1.9192.798-3.3173-.06-3.1234-1.917l1.1519-6.825c.1939-1.857 1.9066-4.009 3.8258-4.808l13.9604-5.81c.6898-.288 1.2968-.215 1.6112.191l2.6935 3.483c.3615.468.2749 1.297-.2214 2.121z" fill="#f7ebdc"/><path d="m39.6964 128.819c-1.6844 1.4-4.1788 2.341-4.9702 1.115-.5387-.835-.488-2.109.1481-3.626.4206-1.003 1.8557-2.998 1.9155-3.89.4853.233.8339 1.794.2478 3.384.7296-1.47 1.4793-4.995 1.1859-6.04 2.0147-.377 2.5684 1.817 2.2939 4.17.3397-.639.9254-2.117 1.1521-3.311.8197.407 1.2341 2.879.7628 4.299s-1.5456 2.91-2.7359 3.899z" fill="#ff9d00"/><path d="m39.6964 128.819c-1.6844 1.4-4.1788 2.341-4.9702 1.115-.5387-.835-.488-2.109.1481-3.626.4206-1.003 1.8557-2.998 1.9155-3.89.4853.233.8339 1.794.2478 3.384.7296-1.47 1.4793-4.995 1.1859-6.04 2.0147-.377 2.5684 1.817 2.2939 4.17.3397-.639.9254-2.117 1.1521-3.311.8197.407 1.2341 2.879.7628 4.299s-1.5456 2.91-2.7359 3.899z" stroke="#ff9d00" stroke-linecap="round" stroke-linejoin="round" stroke-width="1.75956"/><path d="m38.3021 129.763c-1.4457.793-2.9899 1.088-3.5815.171-.5385-.835-.4878-2.109.1482-3.625.3847-.918 1.6194-2.666 1.8717-3.64" stroke="#fa7800" stroke-linecap="round" stroke-linejoin="round" stroke-width="1.75956"/><path d="m37.4849 124.668c.5492-1.685.9729-4.075.7403-4.904.1648-.031.3198-.045.4654-.042" stroke="#fa7800" stroke-linecap="round" stroke-linejoin="round" stroke-width="1.75956"/><path d="m40.9774 122.89c.2391-.607.482-1.335.632-2.003" stroke="#fa7800" stroke-linecap="round" stroke-linejoin="round" stroke-width="1.75956"/><path d="m37.422 166.367 51.2091-21.313c2.5975-1.081 4.8638-4.122 5.0614-6.791l2.6811-36.223c.1976-2.6692-1.748-3.9568-4.3455-2.8758l-51.2094 21.3128c-2.5975 1.081-4.8638 4.122-5.0614 6.791l-2.6812 36.223c-.1976 2.669 1.7484 3.957 4.3459 2.876z" fill="#f2b54d"/><path d="m37.422 166.367 51.2091-21.313c2.5975-1.081 4.8638-4.122 5.0614-6.791l2.6811-36.223c.1976-2.6692-1.748-3.9568-4.3455-2.8758l-51.2094 21.3128c-2.5975 1.081-4.8638 4.122-5.0614 6.791l-2.6812 36.223c-.1976 2.669 1.7484 3.957 4.3459 2.876z" stroke="#af8756" stroke-miterlimit="10" stroke-width="2.81529"/><path d="m55.8409 129.053c-.417.751-1.0862 1.379-1.776 1.666l-13.9598 5.81c-1.919.799-3.3563-.153-3.2105-2.125l.5363-7.248c.1458-1.972 1.8198-4.218 3.7388-5.017l13.9601-5.81c.6898-.287 1.3053-.194 1.6343.248l2.8178 3.781c.3782.508.3131 1.388-.1665 2.252z" fill="#f7ebdc"/><path d="m44.3797 122.563.7753 2.387 2.489-.698c.5204-.146.6538.564.219 1.165l-2.0792 2.878.2056 2.833c.0432.592-.5609 1.316-.9915 1.189l-2.0604-.608-2.3617 2.448c-.4939.512-1.0006.25-.8322-.43l.8058-3.254-1.6652-1.319c-.3483-.276-.0573-1.162.4775-1.455l2.5585-1.403 1.3326-3.264c.2785-.682.9646-.968 1.1269-.469z" fill="#ffd527"/><path d="m44.3797 122.563.7753 2.387 2.489-.698c.5204-.146.6538.564.219 1.165l-2.0792 2.878.2056 2.833c.0432.592-.5609 1.316-.9915 1.189l-2.0604-.608-2.3617 2.448c-.4939.512-1.0006.25-.8322-.43l.8058-3.254-1.6652-1.319c-.3483-.276-.0573-1.162.4775-1.455l2.5585-1.403 1.3326-3.264c.2785-.682.9646-.968 1.1269-.469z" stroke="#fab916" stroke-linecap="round" stroke-linejoin="round" stroke-width="1.40765"/><path d="m45.3321 132.276c-.1109.053-.2226.07-.325.04l-2.0602-.608-2.3616 2.448c-.4938.512-1.0004.25-.832-.43l.8057-3.253-1.6651-1.319c-.1898-.151-.1899-.483-.0637-.801" stroke="#fa9016" stroke-linecap="round" stroke-linejoin="round" stroke-width="1.40765"/><path d="m159.879 92.6042c9.064-5.9925 15.09-15.2408 16.617-26.817 3.246-24.5916-14.738-51.5805-40.863-55.0107-26.125-3.43015-50.4982 17.9975-53.7436 42.5891-1.5318 11.6073 1.9185 22.0546 9.0253 30.1143" fill="#ffd527"/><path d="m159.879 92.6042c9.064-5.9925 15.09-15.2408 16.617-26.817 3.246-24.5916-14.738-51.5805-40.863-55.0107-26.125-3.43015-50.4982 17.9975-53.7436 42.5891-1.5318 11.6073 1.9185 22.0546 9.0253 30.1143" stroke="#fa9016" stroke-linecap="round" stroke-linejoin="round" stroke-width="3.51797"/><path d="m96.3106 38.4475c4.3084-6.8853 10.7424-12.6294 18.2914-16.138 3.572-1.6602 7.394-2.8197 11.358-3.3632" stroke="#fff" stroke-dasharray="24.63 5.28" stroke-linecap="round" stroke-linejoin="round" stroke-width="2.81438"/><path d="m160.523 34.8965c6.887 8.5543 10.446 19.6262 9.06 30.1366-.978 7.4164-4.281 13.5102-9.173 18.0935" stroke="#fcee21" stroke-linecap="round" stroke-linejoin="round" stroke-width="2.81438"/><path d="m91.9369 83.4012c-8.791-10.8021-20.3703-11.8715-22.4599-2.6713-.3878 1.7076 11.2111-1.1001 17.0936 11.5341" fill="#ffd527"/><path d="m91.9369 83.4012c-8.791-10.8021-20.3703-11.8715-22.4599-2.6713-.3878 1.7076 11.2111-1.1001 17.0936 11.5341" stroke="#fa9016" stroke-linecap="round" stroke-linejoin="round" stroke-width="3.51911"/><path d="m83.772 74.4134c-.7086-4.8221.7961-8.4748 3.3608-8.1589 2.5648.3159 5.2184 4.4809 5.9272 9.3029.7086 4.8221-.7961 8.4748-3.3609 8.1589-2.5647-.3159-5.2183-4.4809-5.9271-9.3029z" fill="#000"/><path d="m85.635 68.457c.817-.4656 1.94.3969 2.5083 1.9265.5684 1.5295.3668 3.1471-.4502 3.6127s-1.9402-.3968-2.5086-1.9264c-.5683-1.5296-.3666-3.1472.4505-3.6128z" fill="#fff"/><path d="m91.9376 85.4074-6.7767-.4903c-1.1793-.0156-2.3879-.7904-3.1062-1.9911l-4.4231-7.3938 18.5292.6447-1.8112 7.312c-.2942 1.1874-1.2326 1.934-2.412 1.9185z" fill="#fffffe" opacity=".6"/><path d="m93.3807 83.4468c6.6213-3.1426 6.4622-12.6193 9.6973-12.3721 3.724.2844 5.13 9.0064 11.065 9.7348 3.756.4608 5.83 6.3682.834 8.5287-5.183 2.2406-13.81 4.4721-21.3491 1.639-3.9512-1.4847-4.8667-5.3381-.2472-7.5304z" fill="#ff5d1f"/><path d="m93.3807 83.4468c6.6213-3.1426 6.4622-12.6193 9.6973-12.3721 3.724.2844 5.13 9.0064 11.065 9.7348 3.756.4608 5.83 6.3682.834 8.5287-5.183 2.2406-13.81 4.4721-21.3491 1.639-3.9512-1.4847-4.8667-5.3381-.2472-7.5304z" stroke="#cf3502" stroke-miterlimit="10" stroke-width="2.81506"/><path d="m96.2492 85.1901c1.6389-.6172 4.6948-5.1813 5.5068-8.088" opacity=".33" stroke="#fff" stroke-linecap="round" stroke-linejoin="round" stroke-width="2.81506"/><path d="m98.2637 89.4822c5.0803.7864 11.0833-.3511 14.2263-2.093" stroke="#7d0909" stroke-linecap="round" stroke-linejoin="round" stroke-width="2.81506"/><path d="m127.24 67.0405c-2.452-4.345-7.222-6.2142-10.655-4.1753-3.433 2.039-4.229 7.214-1.778 11.5591 2.451 4.345 7.221 6.2142 10.654 4.1753 3.433-2.039 4.23-7.214 1.779-11.5591z" fill="#000"/><path d="m118.112 64.3242c-1.5.1973-2.484 1.6686-2.196 3.2861.287 1.6176 1.736 2.7691 3.237 2.5718 1.5-.1972 2.483-1.6684 2.196-3.286s-1.736-2.7691-3.237-2.5719z" fill="#fff"/><path d="m121.198 85.3751-9.39-.1236c-1.179-.0155-2.388-.7903-3.106-1.9911l-4.424-7.3942 21.143.2781-1.811 7.3121c-.294 1.1875-1.233 1.9342-2.412 1.9187z" fill="#fffffe" opacity=".6"/><path d="m77.6316 75.5254 18.5333.6442c1.1884-4.298 7.1741-3.9811 8.1171-.2953l21.147.277" stroke="#364675" stroke-linecap="round" stroke-linejoin="round" stroke-width="3.51882"/><path d="m46.5786 169.346 51.2079-21.311c2.5975-1.081 4.5915-4.106 4.4545-6.756l-1.862-35.956c-.137-2.65-2.3543-3.922-4.9517-2.841l-51.2079 21.312c-2.5975 1.081-4.592 4.106-4.4546 6.755l1.8617 35.957c.1374 2.65 2.3546 3.921 4.9521 2.84z" fill="#f2b54d"/><path d="m46.5786 169.346 51.2079-21.311c2.5975-1.081 4.5915-4.106 4.4545-6.756l-1.862-35.956c-.137-2.65-2.3543-3.922-4.9517-2.841l-51.2079 21.312c-2.5975 1.081-4.592 4.106-4.4546 6.755l1.8617 35.957c.1374 2.65 2.3546 3.921 4.9521 2.84z" stroke="#af8756" stroke-linecap="round" stroke-linejoin="round" stroke-width="2.81529"/><path d="m60.7215 131.92c-.3423.747-.9661 1.372-1.6559 1.659l-13.9594 5.81c-1.9191.798-3.557-.141-3.6583-2.099l-.373-7.195c-.1013-1.958 1.3718-4.192 3.2909-4.99l13.9598-5.81c.6897-.287 1.3506-.197 1.7543.24l3.4591 3.745c.4641.502.5096 1.376.1158 2.235z" fill="#f7ebdc"/><path d="m49.1818 127.764c-1.7817-1.846-4.8846 1.001-4.8913 3.595-.0076 2.924 5.2737 3.974 5.3016 3.962.028-.013 5.455-5.634 4.7899-8.486-.5085-2.18-3.6809-2.181-5.2002.929z" fill="#f00"/><path d="m49.1818 127.764c-1.7817-1.846-4.8846 1.001-4.8913 3.595-.0076 2.924 5.2737 3.974 5.3016 3.962.028-.013 5.455-5.634 4.7899-8.486-.5085-2.18-3.6809-2.181-5.2002.929z" stroke="#f00" stroke-linecap="round" stroke-linejoin="round" stroke-width="1.75956"/><path d="m46.0498 127.91c-.9932.806-1.7638 2.16-1.767 3.451-.0072 2.769 4.7295 3.857 5.2526 3.953" stroke="#d70000" stroke-linecap="round" stroke-linejoin="round" stroke-width="1.75956"/><path d="m9.80365 151.946 28.94025 18.172v-25.257l-28.94025-18.172z" fill="#627d7f"/><path d="m9.80365 151.946 28.94025 18.172v-25.257l-28.94025-18.172z" stroke="#385659" stroke-linecap="round" stroke-linejoin="round" stroke-width="3.51911"/><path d="m38.7445 135.526 63.5455-26.661v38.115l-63.5455 26.661z" fill="#759297"/><path d="m38.7445 135.526 63.5455-26.661v38.115l-63.5455 26.661z" stroke="#385659" stroke-linecap="round" stroke-linejoin="round" stroke-width="3.51911"/><path d="m41.5275 137.835v31.829l57.9755-24.361" opacity=".33" stroke="#385659" stroke-linecap="round" stroke-linejoin="round" stroke-width="2.81529"/><path d="m98.7089 142.624v-28.539l-52.0643 21.919" stroke="#8cacaf" stroke-linecap="round" stroke-linejoin="round" stroke-width="2.81529"/><path d="m93.1946 116.41-17.2979 7.144" stroke="#aacece" stroke-linecap="round" stroke-linejoin="round" stroke-width="2.81529"/><path d="m104.752 96.8765c-15.0702 1.0546-20.8454 10.9975-19.5853 14.6395.9886 2.857 11.2929-1.858 25.7563-.309" fill="#ffd527"/><path d="m104.752 96.8765c-15.0702 1.0546-20.8454 10.9975-19.5853 14.6395.9886 2.857 11.2929-1.858 25.7563-.309" stroke="#fa9016" stroke-linecap="round" stroke-linejoin="round" stroke-width="3.51911"/><path d="m91.3077 106.147c1.6942-2.612 4.7145-4.056 6.8404-4.692" stroke="#fff" stroke-linecap="round" stroke-linejoin="round" stroke-width="2.81529"/></g></g></g></svg>