<svg fill="none" height="80" viewBox="0 0 80 80" width="80" xmlns="http://www.w3.org/2000/svg" xmlns:xlink="http://www.w3.org/1999/xlink"><linearGradient id="a"><stop offset="0" stop-color="#dafffb"/><stop offset=".5" stop-color="#c6ebfc"/><stop offset="1" stop-color="#b3d7fe"/></linearGradient><linearGradient id="b" gradientUnits="userSpaceOnUse" x1="26.8069" x2="26.8069" xlink:href="#a" y1="20.2126" y2="29.7839"/><linearGradient id="c" gradientUnits="userSpaceOnUse" x1="39.3774" x2="39.3774" xlink:href="#a" y1="19.9375" y2="29.9463"/><linearGradient id="d" gradientUnits="userSpaceOnUse" x1="53.1177" x2="53.1177" xlink:href="#a" y1="20.2126" y2="29.7839"/><linearGradient id="e" gradientUnits="userSpaceOnUse" x1="28.2176" x2="28.2176" xlink:href="#a" y1="33.1846" y2="43.1933"/><linearGradient id="f" gradientUnits="userSpaceOnUse" x1="39.6784" x2="39.6784" xlink:href="#a" y1="33.4598" y2="43.0311"/><linearGradient id="g" gradientUnits="userSpaceOnUse" x1="51.6467" x2="51.6467" xlink:href="#a" y1="33.1846" y2="43.1933"/><linearGradient id="h" gradientUnits="userSpaceOnUse" x1="29.3359" x2="29.3359" xlink:href="#a" y1="46.707" y2="56.2782"/><linearGradient id="i" gradientUnits="userSpaceOnUse" x1="41.2097" x2="41.2097" xlink:href="#a" y1="46.707" y2="56.2782"/><linearGradient id="j" gradientUnits="userSpaceOnUse" x1="52.2489" x2="52.2489" xlink:href="#a" y1="46.707" y2="56.2782"/><mask id="k" height="48" maskUnits="userSpaceOnUse" width="48" x="16" y="16"><path d="m64 16h-48v48h48z" fill="#fff"/></mask><path d="m0 24c0-13.2548 10.7452-24 24-24h32c13.2548 0 24 10.7452 24 24v32c0 13.2548-10.7452 24-24 24h-32c-13.2548 0-24-10.7452-24-24z" fill="#222425"/><g mask="url(#k)"><path d="m28.8372 32.2558v-8.895h3.5269v-3.1482h-11.1141v3.1482h3.5269v8.895z" stroke="#0054d8" stroke-linecap="round" stroke-linejoin="round" stroke-width="3.75"/><path d="m28.8372 32.2558v-8.895h3.5269v-3.1482h-11.1141v3.1482h3.5269v8.895z" fill="url(#b)"/><path d="m39.3773 23.2235c-.5044 0-.96.1238-1.3678.3703-.4069.2466-.7313.5963-.9722 1.0491s-.3609.9834-.3609 1.5909c0 .6085.12 1.1391.3609 1.5919s.5653.8025.9722 1.0491c.4078.2465.8634.3703 1.3678.3703s.9609-.1238 1.3678-.3703c.4069-.2466.7313-.5963.9722-1.0491s.3609-.9834.3609-1.5919c0-.6075-.12-1.1381-.3609-1.5909s-.5653-.8025-.9722-1.0491c-.4069-.2465-.8634-.3703-1.3678-.3703zm.0004-3.286c1.2956 0 2.46.2691 3.4922.8081 1.0321.5391 1.8403 1.2882 2.4253 2.2453.585.9582.8775 2.0391.8775 3.2429 0 1.2046-.2925 2.2856-.8775 3.2437-.585.9572-1.3932 1.7053-2.4253 2.2444-1.0322.539-2.1966.809-3.4922.809-1.2966 0-2.461-.27-3.4932-.809-1.0321-.5391-1.8403-1.2872-2.4253-2.2444-.585-.9581-.8775-2.0391-.8775-3.2437 0-1.2038.2925-2.2847.8775-3.2429.585-.9571 1.3932-1.7062 2.4253-2.2453 1.0322-.539 2.1966-.8081 3.4932-.8081z" stroke="#0054d8" stroke-linecap="round" stroke-linejoin="round" stroke-width="3.75"/><path d="m39.3773 23.2235c-.5044 0-.96.1238-1.3678.3703-.4069.2466-.7313.5963-.9722 1.0491s-.3609.9834-.3609 1.5909c0 .6085.12 1.1391.3609 1.5919s.5653.8025.9722 1.0491c.4078.2465.8634.3703 1.3678.3703s.9609-.1238 1.3678-.3703c.4069-.2466.7313-.5963.9722-1.0491s.3609-.9834.3609-1.5919c0-.6075-.12-1.1381-.3609-1.5909s-.5653-.8025-.9722-1.0491c-.4069-.2465-.8634-.3703-1.3678-.3703zm.0004-3.286c1.2956 0 2.46.2691 3.4922.8081 1.0321.5391 1.8403 1.2882 2.4253 2.2453.585.9582.8775 2.0391.8775 3.2429 0 1.2046-.2925 2.2856-.8775 3.2437-.585.9572-1.3932 1.7053-2.4253 2.2444-1.0322.539-2.1966.809-3.4922.809-1.2966 0-2.461-.27-3.4932-.809-1.0321-.5391-1.8403-1.2872-2.4253-2.2444-.585-.9581-.8775-2.0391-.8775-3.2437 0-1.2038.2925-2.2847.8775-3.2429.585-.9571 1.3932-1.7062 2.4253-2.2453 1.0322-.539 2.1966-.8081 3.4932-.8081z" fill="url(#c)"/><path d="m53.0143 23.3438h-1.4794v2.8219h1.4794c.5503 0 .9637-.1238 1.2384-.3703.2757-.2466.4135-.5935.4135-1.0407 0-.4471-.1378-.794-.4135-1.0406-.2662-.24-.6628-.3628-1.1887-.3703zm.258-3.1312h.0834c1.0782.0094 2.0194.1932 2.8247.5504.825.3675 1.4616.8943 1.9097 1.5834.4472.6881.6703 1.4906.6703 2.4084 0 .9169-.2231 1.7203-.6703 2.4085-.4481.6881-1.0847 1.2159-1.9097 1.5825-.8053.3581-1.7465.5409-2.8247.5503h-.0834-1.7372v2.9597h-4.0603v-12.0432z" stroke="#0054d8" stroke-linecap="round" stroke-linejoin="round" stroke-width="3.75"/><path d="m53.0143 23.3438h-1.4794v2.8219h1.4794c.5503 0 .9637-.1238 1.2384-.3703.2757-.2466.4135-.5935.4135-1.0407 0-.4471-.1378-.794-.4135-1.0406-.2662-.24-.6628-.3628-1.1887-.3703zm.258-3.1312h.0834c1.0782.0094 2.0194.1932 2.8247.5504.825.3675 1.4616.8943 1.9097 1.5834.4472.6881.6703 1.4906.6703 2.4084 0 .9169-.2231 1.7203-.6703 2.4085-.4481.6881-1.0847 1.2159-1.9097 1.5825-.8053.3581-1.7465.5409-2.8247.5503h-.0834-1.7372v2.9597h-4.0603v-12.0432z" fill="url(#d)"/><path d="m28.0368 45.778c1.2047 0 2.2285-.1809 3.0713-.5419.8428-.3609 1.4765-.8484 1.9012-1.4625.4238-.6131.6366-1.2984.6366-2.0559 0-.8719-.2325-1.56-.6975-2.0644-.4641-.5044-1.0116-.869-1.6425-1.0922-.6309-.224-1.4053-.4218-2.3231-.5934-.7107-.1378-1.2216-.2672-1.531-.3872-.3093-.1209-.464-.3009-.464-.5419 0-.5053.5212-.7575 1.5656-.7575 1.0547 0 2.1731.2982 3.3544.8944l1.2215-2.9419c-.6075-.344-1.3106-.6047-2.1075-.7828-.7968-.1772-1.6087-.2662-2.4347-.2662-1.2037 0-2.2275.1781-3.0703.5334-.8437.3553-1.4765.8428-1.9012 1.4625-.4247.6188-.6366 1.3069-.6366 2.0644 0 .8719.2297 1.5628.6881 2.0728.4585.5109.9975.8775 1.6172 1.1016.6197.2231 1.3932.4321 2.3222.6271.7228.1491 1.2422.2869 1.5572.4135.3159.1256.4734.315.4734.5672 0 .2184-.1209.3815-.3618.4903-.241.1097-.6422.164-1.2038.164-.6544 0-1.3359-.1003-2.0475-.3009-.7115-.2006-1.3537-.4678-1.9265-.8006l-1.3079 2.9597c.6075.3778 1.3847.6797 2.3316.9028.9459.224 1.9181.3356 2.9156.3356z" stroke="#0054d8" stroke-linecap="round" stroke-linejoin="round" stroke-width="3.75"/><path d="m28.0368 45.778c1.2047 0 2.2285-.1809 3.0713-.5419.8428-.3609 1.4765-.8484 1.9012-1.4625.4238-.6131.6366-1.2984.6366-2.0559 0-.8719-.2325-1.56-.6975-2.0644-.4641-.5044-1.0116-.869-1.6425-1.0922-.6309-.224-1.4053-.4218-2.3231-.5934-.7107-.1378-1.2216-.2672-1.531-.3872-.3093-.1209-.464-.3009-.464-.5419 0-.5053.5212-.7575 1.5656-.7575 1.0547 0 2.1731.2982 3.3544.8944l1.2215-2.9419c-.6075-.344-1.3106-.6047-2.1075-.7828-.7968-.1772-1.6087-.2662-2.4347-.2662-1.2037 0-2.2275.1781-3.0703.5334-.8437.3553-1.4765.8428-1.9012 1.4625-.4247.6188-.6366 1.3069-.6366 2.0644 0 .8719.2297 1.5628.6881 2.0728.4585.5109.9975.8775 1.6172 1.1016.6197.2231 1.3932.4321 2.3222.6271.7228.1491 1.2422.2869 1.5572.4135.3159.1256.4734.315.4734.5672 0 .2184-.1209.3815-.3618.4903-.241.1097-.6422.164-1.2038.164-.6544 0-1.3359-.1003-2.0475-.3009-.7115-.2006-1.3537-.4678-1.9265-.8006l-1.3079 2.9597c.6075.3778 1.3847.6797 2.3316.9028.9459.224 1.9181.3356 2.9156.3356z" fill="url(#e)"/><path d="m44.6845 45.503v-3.0628h-6.0216v-1.5825h5.0925v-2.925h-5.0925v-1.411h5.7985v-3.0619h-9.7894v12.0432z" stroke="#0054d8" stroke-linecap="round" stroke-linejoin="round" stroke-width="3.75"/><path d="m44.6845 45.503v-3.0628h-6.0216v-1.5825h5.0925v-2.925h-5.0925v-1.411h5.7985v-3.0619h-9.7894v12.0432z" fill="url(#f)"/><path d="m52.3005 45.778c1.17 0 2.2135-.2062 3.1313-.6197.9178-.4125 1.6744-1.0087 2.2706-1.7887l-2.5631-2.2885c-.7453.9403-1.6228 1.411-2.6325 1.411-.8484 0-1.5309-.2728-2.0475-.8175-.5156-.5447-.7734-1.276-.7734-2.1938 0-.9169.2578-1.6481.7734-2.1928.5166-.5447 1.1991-.8175 2.0475-.8175 1.0097 0 1.8872.4706 2.6325 1.4109l2.5631-2.2884c-.5962-.78-1.3528-1.3762-2.2706-1.7887-.9178-.4135-1.9613-.6197-3.1313-.6197-1.2731 0-2.4196.2662-3.4406.7997-1.0209.5334-1.8206 1.2787-2.4 2.2368-.5794.9582-.869 2.0447-.869 3.2597 0 1.216.2896 2.3025.869 3.2606.5794.9582 1.3791 1.7035 2.4 2.2369 1.021.5335 2.1675.7997 3.4406.7997z" stroke="#0054d8" stroke-linecap="round" stroke-linejoin="round" stroke-width="3.75"/><path d="m52.3005 45.778c1.17 0 2.2135-.2062 3.1313-.6197.9178-.4125 1.6744-1.0087 2.2706-1.7887l-2.5631-2.2885c-.7453.9403-1.6228 1.411-2.6325 1.411-.8484 0-1.5309-.2728-2.0475-.8175-.5156-.5447-.7734-1.276-.7734-2.1938 0-.9169.2578-1.6481.7734-2.1928.5166-.5447 1.1991-.8175 2.0475-.8175 1.0097 0 1.8872.4706 2.6325 1.4109l2.5631-2.2884c-.5962-.78-1.3528-1.3762-2.2706-1.7887-.9178-.4135-1.9613-.6197-3.1313-.6197-1.2731 0-2.4196.2662-3.4406.7997-1.0209.5334-1.8206 1.2787-2.4 2.2368-.5794.9582-.869 2.0447-.869 3.2597 0 1.216.2896 2.3025.869 3.2606.5794.9582 1.3791 1.7035 2.4 2.2369 1.021.5335 2.1675.7997 3.4406.7997z" fill="url(#g)"/><path d="m29.1035 49.8382h-1.4794v2.8219h1.4794c.5503 0 .9637-.1238 1.2384-.3704.2757-.2465.4135-.5934.4135-1.0406s-.1378-.794-.4135-1.0406c-.2662-.24-.6628-.3628-1.1887-.3703zm.2579-3.1312h.0834c1.0782.0094 2.0194.1932 2.8247.5503.825.3675 1.4616.8944 1.9097 1.5835.4472.6881.6703 1.4906.6703 2.4084 0 .8597-.195 1.6116-.585 2.2538-.3787.6243-.9215 1.125-1.6265 1.5l-.0591.0309 2.5294 3.7163h-4.336l-2.0475-3.0282h-1.1006v3.0282h-4.0603v-12.0432z" stroke="#0054d8" stroke-linecap="round" stroke-linejoin="round" stroke-width="3.75"/><path d="m29.1035 49.8382h-1.4794v2.8219h1.4794c.5503 0 .9637-.1238 1.2384-.3704.2757-.2465.4135-.5934.4135-1.0406s-.1378-.794-.4135-1.0406c-.2662-.24-.6628-.3628-1.1887-.3703zm.2579-3.1312h.0834c1.0782.0094 2.0194.1932 2.8247.5503.825.3675 1.4616.8944 1.9097 1.5835.4472.6881.6703 1.4906.6703 2.4084 0 .8597-.195 1.6116-.585 2.2538-.3787.6243-.9215 1.125-1.6265 1.5l-.0591.0309 2.5294 3.7163h-4.336l-2.0475-3.0282h-1.1006v3.0282h-4.0603v-12.0432z" fill="url(#h)"/><path d="m46.2157 58.7502v-3.0629h-6.0215v-1.5825h5.0925v-2.925h-5.0925v-1.4109h5.7984v-3.0619h-9.7894v12.0432z" stroke="#0054d8" stroke-linecap="round" stroke-linejoin="round" stroke-width="3.75"/><path d="m46.2157 58.7502v-3.0629h-6.0215v-1.5825h5.0925v-2.925h-5.0925v-1.4109h5.7984v-3.0619h-9.7894v12.0432z" fill="url(#i)"/><path d="m54.2791 58.7502v-8.895h3.5269v-3.1482h-11.114v3.1482h3.5268v8.895z" stroke="#0054d8" stroke-linecap="round" stroke-linejoin="round" stroke-width="3.75"/><path d="m54.2791 58.7502v-8.895h3.5269v-3.1482h-11.114v3.1482h3.5268v8.895z" fill="url(#j)"/></g></svg>