<svg fill="none" height="80" viewBox="0 0 80 80" width="80" xmlns="http://www.w3.org/2000/svg" xmlns:xlink="http://www.w3.org/1999/xlink"><mask id="a" height="48" maskUnits="userSpaceOnUse" width="48" x="16" y="16"><path d="m64 16h-48v48h48z" fill="#fff"/></mask><mask id="b" height="36" maskUnits="userSpaceOnUse" width="36" x="22" y="22"><path d="m22 22h36v36h-36z" fill="#fff"/></mask><mask id="c" height="142" maskUnits="userSpaceOnUse" width="142" x="17" y="-79"><path d="m17.8948-78.2378h140.6252v140.625h-140.6252z" fill="#fff"/></mask><path d="m0 24c0-13.2548 10.7452-24 24-24h32c13.2548 0 24 10.7452 24 24v32c0 13.2548-10.7452 24-24 24h-32c-13.2548 0-24-10.7452-24-24z" fill="#222425"/><g mask="url(#a)"><g mask="url(#b)"><g mask="url(#c)" stroke="#5ea7ff" stroke-width=".773438"><path d="m6.32581 38.8628 164.00919.04"/><path d="m6.32581 50.6148 164.00919.0401"/><path d="m6.32581 27.1305 164.00919.04"/><path d="m6.32581 42.78 164.00919.0401"/><path d="m6.32581 54.5324 164.00919.0401"/><path d="m6.32581 31.0481 164.00919.04"/><path d="m6.32581 46.6975 164.00919.04"/><path d="m6.32581 23.2131 164.00919.0401"/><path d="m6.32581 34.9653 164.00919.0401"/><path d="m45.1403-89.1362v162.4218"/><path d="m33.3881-89.1362v162.4218"/><path d="m56.8724-89.1362v162.4218"/><path d="m41.2229-89.1362v162.4218"/><path d="m29.4707-89.1362v162.4218"/><path d="m52.9551-89.1362v162.4218"/><path d="m37.3054-89.1362v162.4218"/><path d="m25.5532-89.1362v162.4218"/><path d="m49.0376-89.1362v162.4218"/><path d="m21.6357-89.1362v162.4218"/></g></g><g stroke-linecap="round" stroke-linejoin="round"><path d="m23.1224 51.1934c2.9199-3.896 6.3607-8.4872 6.3607-8.4872l9.2886 5.9993 13.4972-20.9964s2.5884 2.3632 4.3442 3.9664" stroke="#cc2d00" stroke-width="6.5625"/><path d="m23.1224 51.1934c2.9199-3.896 6.3607-8.4872 6.3607-8.4872l9.2886 5.9993 13.4972-20.9964s2.5884 2.3632 4.3442 3.9664" stroke="#ff7954" stroke-width="2.8125"/></g></g></svg>