<svg fill="none" height="81" viewBox="0 0 81 81" width="81" xmlns="http://www.w3.org/2000/svg" xmlns:xlink="http://www.w3.org/1999/xlink"><radialGradient id="a" cx="38.202" cy="28.8008" gradientUnits="userSpaceOnUse" r="23.5691"><stop offset="0" stop-color="#fff"/><stop offset=".21" stop-color="#fcfdff"/><stop offset=".41" stop-color="#f9fcff"/><stop offset=".71" stop-color="#c6f3ff"/><stop offset="1" stop-color="#94eaff"/></radialGradient><radialGradient id="b" cx="46.7704" cy="44.1984" gradientUnits="userSpaceOnUse" r="15.3988"><stop offset="0" stop-color="#fff"/><stop offset=".29" stop-color="#fcfdff"/><stop offset=".58" stop-color="#f9fcff"/><stop offset=".79" stop-color="#c3d7fe"/><stop offset="1" stop-color="#8cb3fd"/></radialGradient><mask id="c" height="49" maskUnits="userSpaceOnUse" width="49" x="16" y="16"><path d="m65 16h-49v49h49z" fill="#fff"/></mask><rect fill="#222425" height="81" rx="24" width="81"/><g mask="url(#c)"><path d="m20.3453 34.195c1.0078-8.2094 9.8201-13.8836 19.6823-12.673s17.039 8.8487 16.0312 17.0581c-1.0077 8.2104-9.8201 13.8846-19.6823 12.674-1.4288-.1751-2.8012-.4862-4.1008-.913-1.9202 1.8346-7.6146 3.2223-10.4058 3.1276 0 0 3.4612-3.3028 4.2195-6.4533-4.0425-3.2463-6.3451-7.9319-5.7441-12.8204z" fill="url(#a)"/><path d="m20.3453 34.195c1.0078-8.2094 9.8201-13.8836 19.6823-12.673s17.039 8.8487 16.0312 17.0581c-1.0077 8.2104-9.8201 13.8846-19.6823 12.674-1.4288-.1751-2.8012-.4862-4.1008-.913-1.9202 1.8346-7.6146 3.2223-10.4058 3.1276 0 0 3.4612-3.3028 4.2195-6.4533-4.0425-3.2463-6.3451-7.9319-5.7441-12.8204z" stroke="#00b4ff" stroke-linejoin="round" stroke-width="1.91406"/><path d="m47.8456 39.2557c1.5858 0 2.8711-1.2853 2.8711-2.8711s-1.2853-2.8711-2.8711-2.8711-2.8711 1.2853-2.8711 2.8711 1.2853 2.8711 2.8711 2.8711zm-9.0679 0c1.5858 0 2.8711-1.2853 2.8711-2.8711s-1.2853-2.8711-2.8711-2.8711-2.8711 1.2853-2.8711 2.8711 1.2853 2.8711 2.8711 2.8711zm-9.0679 0c1.5858 0 2.8711-1.2853 2.8711-2.8711s-1.2853-2.8711-2.8711-2.8711-2.8711 1.2853-2.8711 2.8711 1.2853 2.8711 2.8711 2.8711z" fill="#152849"/><path d="m58.0665 47.457c-.6374-5.1938-6.2121-8.7837-12.451-8.0171-6.2389.7656-10.779 5.5967-10.1416 10.7905.6383 5.1939 6.2121 8.7827 12.4509 8.0171 1.159-.1426 2.2586-.4249 3.2779-.8231 1.8344 1.5942 5.6905 2.7869 5.9498 2.8903-.8843-1.9036-1.5676-3.6798-2.0499-5.3307 2.137-2.0117 3.3094-4.7162 2.9639-7.527z" fill="url(#b)"/><path d="m58.0665 47.457c-.6374-5.1938-6.2121-8.7837-12.451-8.0171-6.2389.7656-10.779 5.5967-10.1416 10.7905.6383 5.1939 6.2121 8.7827 12.4509 8.0171 1.159-.1426 2.2586-.4249 3.2779-.823 1.8344 1.5941 5.6905 2.7868 5.9498 2.8902-.8843-1.9036-1.5676-3.6798-2.0499-5.3307 2.137-2.0117 3.3094-4.7162 2.9639-7.527z" stroke="#007ee3" stroke-linejoin="round" stroke-width="1.91406"/><path d="m52.5295 50.635c.9991 0 1.8088-.8097 1.8088-1.8088 0-.999-.8097-1.8087-1.8088-1.8087-.999 0-1.8088.8097-1.8088 1.8087 0 .9991.8098 1.8088 1.8088 1.8088zm-5.7127 0c.999 0 1.8088-.8097 1.8088-1.8088 0-.999-.8098-1.8087-1.8088-1.8087-.9991 0-1.8088.8097-1.8088 1.8087 0 .9991.8097 1.8088 1.8088 1.8088zm-5.7128 0c.9991 0 1.8088-.8097 1.8088-1.8088 0-.999-.8097-1.8087-1.8088-1.8087-.999 0-1.8088.8097-1.8088 1.8087 0 .9991.8098 1.8088 1.8088 1.8088z" fill="#152849"/></g></svg>