<svg width="24" height="24" viewBox="0 0 24 24" fill="none" xmlns="http://www.w3.org/2000/svg">
<path fill-rule="evenodd" clip-rule="evenodd" d="M3.24138 11.8312C7.90571 9.79901 11.016 8.45928 12.5722 7.81199C17.0156 5.96384 17.9389 5.64279 18.5407 5.63219C18.673 5.62986 18.969 5.66266 19.1607 5.81821C19.3225 5.94956 19.3671 6.12699 19.3884 6.25151C19.4097 6.37604 19.4362 6.65972 19.4151 6.88138C19.1744 9.41136 18.1325 15.5509 17.6024 18.3846C17.3781 19.5836 16.9365 19.9856 16.509 20.0249C15.5798 20.1104 14.8743 19.4109 13.9743 18.821C12.5661 17.8979 11.7706 17.3233 10.4037 16.4225C8.82398 15.3815 9.84803 14.8093 10.7483 13.8743C10.9839 13.6296 15.0778 9.90589 15.157 9.56809C15.1669 9.52584 15.1761 9.36837 15.0825 9.28521C14.989 9.20206 14.8509 9.23049 14.7513 9.25311C14.61 9.28517 12.3604 10.7721 8.00238 13.7139C7.36383 14.1524 6.78545 14.366 6.26724 14.3548C5.69596 14.3425 4.59704 14.0318 3.78011 13.7662C2.77811 13.4405 1.98174 13.2683 2.05108 12.7152C2.0872 12.427 2.48397 12.1324 3.24138 11.8312Z" fill="white"/>
</svg>
