<svg fill="none" height="80" viewBox="0 0 80 80" width="80" xmlns="http://www.w3.org/2000/svg" xmlns:xlink="http://www.w3.org/1999/xlink"><linearGradient id="a" gradientUnits="userSpaceOnUse" x1="38.4848" x2="47.5434" y1="51.6029" y2="25.3599"><stop offset="0" stop-color="#e94d00"/><stop offset=".5" stop-color="#f49300"/><stop offset="1" stop-color="#ffd900"/></linearGradient><linearGradient id="b" gradientUnits="userSpaceOnUse" x1="19.5989" x2="32.6512" y1="31.7993" y2="45.3483"><stop offset="0" stop-color="#ea5000"/><stop offset=".34" stop-color="#a83700"/><stop offset=".68" stop-color="#651d00"/></linearGradient><mask id="c" height="48" maskUnits="userSpaceOnUse" width="48" x="16" y="16"><path d="m64 16h-48v48h48z" fill="#fff"/></mask><path d="m0 24c0-13.2548 10.7452-24 24-24h32c13.2548 0 24 10.7452 24 24v32c0 13.2548-10.7452 24-24 24h-32c-13.2548 0-24-10.7452-24-24z" fill="#222425"/><g mask="url(#c)"><path d="m42.2616 46.1301c2.6861 0 4.867 2.5253 4.867 5.6354 0 3.1102-2.1809 5.6354-4.867 5.6354s-4.8671-2.5252-4.8671-5.6354c0-3.1101 2.181-5.6354 4.8671-5.6354z" stroke="#982c00" stroke-linecap="round" stroke-linejoin="round" stroke-width="5.85927"/><path d="m42.2616 46.1301c2.6861 0 4.867 2.5253 4.867 5.6354 0 3.1102-2.1809 5.6354-4.867 5.6354s-4.8671-2.5252-4.8671-5.6354c0-3.1101 2.181-5.6354 4.8671-5.6354z" stroke="#ffc000" stroke-width="2.66331"/><path d="m60.0533 41.7965c.8357.1731 1.0746 2.4367.5331 5.0516-.5416 2.6149-1.6598 4.5975-2.4955 4.4244s-1.0746-2.4367-.533-5.0516c.5415-2.6149 1.6597-4.5975 2.4954-4.4244z" stroke="#982c00" stroke-linecap="round" stroke-linejoin="round" stroke-width="5.85927"/><path d="m28.6538 24.382 30.4648 17.2396c.1464.0829.2559.217.3096.3764.1943.5763.557 2.1162.0387 4.6079-.5226 2.5126-1.4658 3.7677-1.8728 4.2128-.1126.1232-.2654.2013-.4314.2187l-34.815 3.662s4.6226-2.2187 7.1416-14.329c2.5918-12.4598-.8355-15.9884-.8355-15.9884z" stroke="#972c00" stroke-linecap="round" stroke-linejoin="round" stroke-width="3.375"/><path d="m28.6538 24.382 30.4648 17.2396c.1464.0829.2559.217.3096.3764.1943.5763.557 2.1162.0387 4.6079-.5226 2.5126-1.4658 3.7677-1.8728 4.2128-.1126.1232-.2654.2013-.4314.2187l-34.815 3.662s4.6226-2.2187 7.1416-14.329c2.5918-12.4598-.8355-15.9884-.8355-15.9884z" fill="url(#a)"/><path d="m28.5952 24.4376c2.1987.4553 2.5858 7.5759.8639 15.8907s-4.9051 14.6961-7.1038 14.2407c-2.1987-.4553-2.5858-7.5759-.8639-15.8907s4.9051-14.6961 7.1038-14.2407z" stroke="#982c00" stroke-linecap="round" stroke-linejoin="round" stroke-width="6.21438"/><path d="m58.9455 41.6572c.8363.1732 1.0835 2.3958.5525 4.9598-.531 2.5641-1.6405 4.5057-2.4769 4.3325-.8354-.173-1.0826-2.3956-.5516-4.9596.531-2.5641 1.6406-4.5057 2.476-4.3327z" fill="#977c13"/><path d="m60.0533 41.7965c.8357.1731 1.0746 2.4367.5331 5.0516-.5416 2.6149-1.6598 4.5975-2.4955 4.4244s-1.0746-2.4367-.533-5.0516c.5415-2.6149 1.6597-4.5975 2.4954-4.4244z" stroke="#ffc000" stroke-width="2.48575"/><path d="m28.6538 24.382 30.4648 17.2396c.1464.0829.2559.217.3096.3764.1943.5763.557 2.1162.0387 4.6079-.5226 2.5126-1.4658 3.7677-1.8728 4.2128-.1126.1232-.2654.2013-.4314.2187l-34.815 3.662s4.6226-2.2187 7.1416-14.329c2.5918-12.4598-.8355-15.9884-.8355-15.9884z" fill="url(#a)"/><g stroke-linecap="round" stroke-linejoin="round"><path d="m33.0625 29.1266c1.9417 1.0988 5.4484 3.0832 9.0948 5.1466" stroke="#fff" stroke-width="1.87687"/><path d="m48.1715 49.3237c-1.062.1117-2.2333.2349-3.4644.3644" stroke="#fff" stroke-width="1.87687"/><path d="m28.5952 24.4376c2.1987.4553 2.5858 7.5759.8639 15.8907s-4.9051 14.6961-7.1038 14.2407c-2.1987-.4553-2.5858-7.5759-.8639-15.8907s4.9051-14.6961 7.1038-14.2407z" stroke="#982c00" stroke-width="6.21438"/></g><path d="m28.5952 24.4376c2.1987.4553 2.5858 7.5759.8639 15.8907s-4.9051 14.6961-7.1038 14.2407c-2.1987-.4553-2.5858-7.5759-.8639-15.8907s4.9051-14.6961 7.1038-14.2407z" fill="url(#b)"/><path d="m28.5952 24.4376c2.1987.4553 2.5858 7.5759.8639 15.8907s-4.9051 14.6961-7.1038 14.2407c-2.1987-.4553-2.5858-7.5759-.8639-15.8907s4.9051-14.6961 7.1038-14.2407z" stroke="#ffd34c" stroke-width="3.01841"/></g></svg>