<svg fill="none" height="64" viewBox="0 0 148 64" width="148" xmlns="http://www.w3.org/2000/svg"><path d="m68.3239 6.18182v-1.90909h7.5852v1.90909h-2.625v6.81818h-2.3352v-6.81818zm16.5213 2.45454c0 .97159-.1889 1.79124-.5668 2.45884-.3778.6647-.8878 1.169-1.5298 1.5128-.6421.3409-1.358.5113-2.1477.5113-.7955 0-1.5143-.1719-2.1563-.5156-.6392-.3466-1.1477-.8523-1.5256-1.5171-.375-.6676-.5625-1.48433-.5625-2.45024 0-.97159.1875-1.78977.5625-2.45454.3779-.66762.8864-1.17188 1.5256-1.51279.642-.34375 1.3608-.51562 2.1563-.51562.7897 0 1.5056.17187 2.1477.51562.642.34091 1.152.84517 1.5298 1.51279.3779.66477.5668 1.48295.5668 2.45454zm-2.4375 0c0-.52272-.0696-.96306-.2088-1.32102-.1364-.36079-.3395-.63352-.6094-.81818-.2671-.1875-.5966-.28125-.9886-.28125-.3921 0-.7231.09375-.9929.28125-.2671.18466-.4702.45739-.6094.81818-.1364.35796-.2046.7983-.2046 1.32102 0 .52273.0682.96449.2046 1.32529.1392.35795.3423.63065.6094.81815.2698.1847.6008.277.9929.277.392 0 .7215-.0923.9886-.277.2699-.1875.473-.4602.6094-.81815.1392-.3608.2088-.80256.2088-1.32529zm3.5337 4.36364v-8.72727h2.3693v3.52841h.1193l2.625-3.52841h2.7614l-2.9489 3.88636 3.0171 4.84091h-2.8296l-1.9602-3.27273-.7841 1.02273v2.25zm8.5781 0v-8.72727h6.2895v1.90909h-3.9202v1.5h3.5962v1.90909h-3.5962v1.49999h3.9032v1.9091zm15.0165-8.72727v8.72727h-1.978l-3.153-4.58523h-.051v4.58523h-2.37v-8.72727h2.012l3.102 4.56818h.068v-4.56818zm-40.9735 24.72727v-8.7273h3.767c.6478 0 1.2145.1279 1.7003.3835.4858.2557.8637.6151 1.1336 1.0782.2698.463.4048 1.0042.4048 1.6236 0 .625-.1392 1.1661-.4176 1.6235-.2756.4574-.6634.8097-1.1634 1.0569-.4971.2471-1.0781.3707-1.7429.3707h-2.25v-1.8409h1.7727c.2785 0 .5157-.0483.7117-.1449.1989-.0994.3508-.2401.456-.4219.1079-.1818.1619-.3963.1619-.6434 0-.25-.054-.4631-.1619-.6392-.1052-.179-.2571-.3154-.456-.4091-.196-.0966-.4332-.1449-.7117-.1449h-.8352v6.8352zm7.875 0v-8.7273h3.767c.6478 0 1.2145.1179 1.7003.3537s.8637.5753 1.1336 1.0185c.2698.4432.4048.9744.4048 1.5937 0 .625-.1392 1.152-.4176 1.581-.2756.429-.6634.7528-1.1634.9716-.4971.2187-1.0781.3281-1.7429.3281h-2.25v-1.8409h1.7727c.2785 0 .5157-.0341.7117-.1023.1989-.071.3508-.1832.456-.3366.1079-.1534.1619-.3537.1619-.6009 0-.25-.054-.4531-.1619-.6093-.1052-.1591-.2571-.2756-.456-.3495-.196-.0767-.4332-.115-.7117-.115h-.8352v6.8352zm5.1136-4.0057 2.1819 4.0057h-2.5739l-2.1307-4.0057zm11.3566-.3579c0 .9716-.1889 1.7912-.5668 2.4588-.3778.6647-.8878 1.169-1.5298 1.5128-.6421.3409-1.358.5113-2.1477.5113-.7955 0-1.5143-.1719-2.1563-.5156-.6392-.3466-1.1477-.8523-1.5256-1.5171-.375-.6676-.5625-1.4843-.5625-2.4502 0-.9716.1875-1.7898.5625-2.4546.3779-.6676.8864-1.1719 1.5256-1.5128.642-.3437 1.3608-.5156 2.1563-.5156.7897 0 1.5056.1719 2.1477.5156.642.3409 1.152.8452 1.5298 1.5128.3779.6648.5668 1.483.5668 2.4546zm-2.4375 0c0-.5228-.0696-.9631-.2088-1.3211-.1364-.3608-.3395-.6335-.6094-.8181-.2671-.1875-.5966-.2813-.9886-.2813-.3921 0-.7231.0938-.9929.2813-.2671.1846-.4702.4573-.6094.8181-.1364.358-.2046.7983-.2046 1.3211 0 .5227.0682.9645.2046 1.3252.1392.358.3423.6307.6094.8182.2698.1847.6008.277.9929.277.392 0 .7215-.0923.9886-.277.2699-.1875.473-.4602.6094-.8182.1392-.3607.2088-.8025.2088-1.3252zm6.8917 4.3636h-3.358v-8.7273h3.3239c.8977 0 1.6733.1747 2.3267.5242.6565.3466 1.1615.8466 1.5175 1.5.357.6505.536 1.4304.536 2.3395s-.177 1.6903-.532 2.3437c-.355.6506-.858 1.1506-1.5087 1.5-.6506.3466-1.4191.5199-2.3054.5199zm-.9887-2.0114h.9034c.4319 0 .7997-.0696 1.1037-.2088.3068-.1392.5398-.3792.6989-.7201.1619-.341.2429-.8154.2429-1.4233 0-.608-.0824-1.0824-.2472-1.4233-.1619-.3409-.4005-.581-.7159-.7202-.3125-.1392-.696-.2088-1.1505-.2088h-.8353zm11.5958-6.7159h2.37v5.5909c0 .6648-.159 1.2401-.477 1.7259-.316.4829-.756.8565-1.322 1.1207-.565.2614-1.221.3921-1.968.3921-.753 0-1.412-.1307-1.978-.3921-.565-.2642-1.005-.6378-1.321-1.1207-.312-.4858-.468-1.0611-.468-1.7259v-5.5909h2.369v5.3864c0 .2699.06.5114.179.7244.119.2102.284.375.494.4943.213.1194.455.179.725.179.272 0 .514-.0596.724-.179.21-.1193.375-.2841.494-.4943.12-.213.179-.4545.179-.7244zm11.644 3.2728h-2.404c-.017-.1989-.062-.3793-.136-.5412-.071-.162-.171-.3012-.298-.4177-.125-.1193-.277-.2102-.456-.2727-.179-.0653-.383-.098-.61-.098-.398 0-.734.0966-1.01.2898-.273.1932-.48.4702-.622.8309-.139.3608-.209.7941-.209 1.2998 0 .5341.071.9815.213 1.3423.145.3579.354.6278.627.8097.272.1789.601.2684.984.2684.219 0 .415-.027.588-.0809.173-.0569.324-.1378.452-.2429.128-.1052.231-.2316.311-.3793.082-.1506.138-.3196.166-.5071l2.404.017c-.029.3694-.133.7458-.312 1.1293-.178.3807-.433.733-.762 1.0568-.327.321-.732.5796-1.215.7756s-1.044.294-1.683.294c-.801 0-1.52-.1719-2.156-.5156-.634-.3438-1.135-.8494-1.505-1.5171-.366-.6676-.549-1.4843-.549-2.4502 0-.9716.187-1.7898.562-2.4546.375-.6676.881-1.1719 1.517-1.5128.637-.3437 1.347-.5156 2.131-.5156.551 0 1.058.0753 1.521.2259.463.1505.87.3707 1.219.6605.349.2869.631.6406.844 1.0611.213.4204.342.9019.388 1.4446zm1.075 5.4545v-8.7273h6.289v1.9091h-3.92v1.5h3.596v1.9091h-3.596v1.5h3.903v1.9091zm7.464 0v-8.7273h3.767c.648 0 1.215.1179 1.701.3537.485.2358.863.5753 1.133 1.0185s.405.9744.405 1.5937c0 .625-.139 1.152-.418 1.581-.275.429-.663.7528-1.163.9716-.497.2187-1.078.3281-1.743.3281h-2.25v-1.8409h1.773c.278 0 .516-.0341.712-.1023.198-.071.35-.1832.456-.3366.107-.1534.161-.3537.161-.6009 0-.25-.054-.4531-.161-.6093-.106-.1591-.258-.2756-.456-.3495-.196-.0767-.434-.115-.712-.115h-.835v6.8352zm5.114-4.0057 2.182 4.0057h-2.574l-2.131-4.0057zm7.607-1.9943c-.023-.2841-.13-.5057-.32-.6648-.188-.1591-.473-.2386-.857-.2386-.244 0-.444.0298-.6.0895-.154.0568-.268.1349-.341.2344-.074.0994-.113.213-.115.3409-.006.1051.012.2002.055.2855.045.0824.116.1576.213.2258.097.0654.22.125.371.179.15.054.329.1023.537.1449l.716.1534c.483.1023.896.2372 1.24.4048.343.1676.625.3651.843.5924.219.2244.38.4772.482.7585.105.2812.159.588.162.9204-.003.5739-.146 1.0597-.431 1.4574-.284.3977-.69.7003-1.218.9077-.526.2074-1.158.3111-1.897.3111-.758 0-1.42-.1122-1.985-.3367-.563-.2244-1-.5696-1.313-1.0355-.31-.4687-.466-1.0682-.469-1.7983h2.25c.015.2671.081.4915.201.6733.119.1818.287.3196.503.4134.218.0937.478.1406.779.1406.253 0 .465-.0313.635-.0938.171-.0625.3-.1491.388-.2599s.134-.2372.136-.3793c-.002-.1335-.046-.25-.132-.3494-.082-.1023-.218-.1932-.409-.2727-.19-.0824-.447-.1591-.771-.2301l-.869-.1875c-.773-.1677-1.382-.4475-1.829-.8395-.443-.3949-.663-.9333-.66-1.6151-.003-.554.145-1.0383.443-1.4531.301-.4176.717-.7429 1.249-.9759.534-.2329 1.146-.3494 1.836-.3494.705 0 1.314.1179 1.829.3537.514.2358.91.5682 1.188.9972.282.4261.424.9247.427 1.4957zm-69.9412 13.2727v8.7273h-2.3693v-8.7273zm8.674 0v8.7273h-1.9772l-3.1535-4.5852h-.0511v4.5852h-2.3693v-8.7273h2.0114l3.1022 4.5682h.0682v-4.5682zm5.8253 2.7273c-.0227-.2841-.1293-.5057-.3196-.6648-.1875-.1591-.473-.2386-.8565-.2386-.2443 0-.4446.0298-.6009.0895-.1534.0568-.267.1349-.3409.2344-.0739.0994-.1122.213-.115.3409-.0057.1051.0127.2002.0554.2855.0454.0824.1164.1576.213.2258.0966.0654.2202.125.3708.179.1505.054.3295.1023.5369.1449l.7159.1534c.483.1023.8963.2372 1.2401.4048.3437.1676.625.3651.8437.5924.2188.2244.3793.4772.4815.7585.1052.2812.1591.588.162.9204-.0029.5739-.1463 1.0597-.4304 1.4574s-.6904.7003-1.2188.9077c-.5255.2074-1.1576.3111-1.8963.3111-.7585 0-1.4204-.1122-1.9858-.3367-.5625-.2244-1-.5696-1.3125-1.0355-.3096-.4687-.4659-1.0682-.4687-1.7983h2.25c.0142.2671.0809.4915.2003.6733.1193.1818.2869.3196.5028.4134.2187.0937.4787.1406.7798.1406.2529 0 .4645-.0313.635-.0938.1704-.0625.2997-.1491.3878-.2599.088-.1108.1335-.2372.1363-.3793-.0028-.1335-.0469-.25-.1321-.3494-.0824-.1023-.2187-.1932-.4091-.2727-.1903-.0824-.4474-.1591-.7713-.2301l-.8693-.1875c-.7727-.1677-1.3821-.4475-1.8281-.8395-.4432-.3949-.6634-.9333-.6605-1.6151-.0029-.554.1448-1.0383.4431-1.4531.3012-.4176.7174-.7429 1.2486-.9759.5341-.2329 1.1463-.3494 1.8367-.3494.7045 0 1.3139.1179 1.8281.3537s.9105.5682 1.1889.9972c.2813.4261.4233.9247.4262 1.4957zm5.657-2.7273v8.7273h-2.3693v-8.7273zm.8842 1.9091v-1.9091h7.5852v1.9091h-2.625v6.8182h-2.3352v-6.8182zm13.6417-1.9091h2.369v5.5909c0 .6648-.159 1.2401-.477 1.7259-.315.4829-.756.8565-1.321 1.1207-.565.2614-1.222.3921-1.969.3921-.753 0-1.412-.1307-1.977-.3921-.565-.2642-1.006-.6378-1.321-1.1207-.313-.4858-.469-1.0611-.469-1.7259v-5.5909h2.37v5.3864c0 .2699.059.5114.179.7244.119.2102.284.375.494.4943.213.1194.454.179.724.179.273 0 .514-.0596.725-.179.21-.1193.375-.2841.494-.4943.119-.213.179-.4545.179-.7244zm3.257 1.9091v-1.9091h7.585v1.9091h-2.625v6.8182h-2.335v-6.8182zm8.477 6.8182v-8.7273h6.289v1.9091h-3.92v1.5h3.597v1.9091h-3.597v1.5h3.903v1.9091z" fill="#fff" fill-opacity=".92"/><path d="m48.6731 2h-43.34391c-.60749 0-1.08596.48778-1.09971 1.07502-.30802 13.15298-.24868 24.25198-.15007 31.08588.07075 4.9029 2.76971 9.387 7.14169 11.6487 4.3419 2.2462 10.2129 5.1239 15.3861 7.1103.2538.0975.5341.0975.7879 0 5.1722-1.986 11.042-4.863 15.3836-7.1089 4.3735-2.2625 7.0727-6.7488 7.1427-11.6531.0976-6.8341.1563-17.9317-.1485-31.08262-.0136-.58739-.4922-1.07528-1.0998-1.07528z" fill="#ffd527" stroke="#ffd527" stroke-linecap="round" stroke-width="2"/><g fill="#1b1d1e"><path d="m18.4302 19.8564h-3.4282v3.4284h3.4282z"/><path d="m18.4302 16.4283h-3.4282v3.4284h3.4282z"/><path d="m21.858 16.4287h-3.4283v3.4283h3.4283z"/><path d="m21.858 13h-3.4283v3.4283h3.4283z"/><path d="m25.2876 13.0002h-3.4282v3.4284h3.4282z"/><path d="m32.147 30.1412h-3.4282v3.4284h3.4282z"/><path d="m32.147 26.7128h-3.4282v3.4283h3.4282z"/><path d="m32.147 33.5692h-3.4282v3.4283h3.4282z"/><path d="m35.5748 26.7128h-3.4283v3.4283h3.4283z"/><path d="m39.0025 30.1415h-3.4283v3.4283h3.4283z"/><path d="m39.0025 33.5692h-3.4283v3.4283h3.4283z"/><path d="m32.1392 19.8564h-3.4283v3.4284h3.4283z"/><path d="m32.1392 16.4287h-3.4283v3.4283h3.4283z"/><path d="m35.571 13h-3.4282v3.4283h3.4282z"/><path d="m38.9968 16.4287h-3.4283v3.4283h3.4283z"/><path d="m18.4302 30.1415h-3.4282v3.4283h3.4282z"/><path d="m18.4302 26.7133h-3.4282v3.4283h3.4282z"/><path d="m21.858 26.7131h-3.4283v3.4284h3.4283z"/><path d="m21.858 33.5698h-3.4283v3.4283h3.4283z"/><path d="m25.2876 30.1418h-3.4282v3.4284h3.4282z"/><path d="m18.4302 33.5699h-3.4282v3.4284h3.4282z"/></g><path d="m48.0026 4h-41.99998c-.29287 12.2399-.24434 22.6114-.15289 29.1343.06413 4.5738 2.59503 8.732 6.67447 10.801 4.1459 2.1027 9.6216 4.73 14.4435 6.5515.0227.0086.0471.0086.0699 0 4.8209-1.8211 10.2953-4.4478 14.4409-6.5502 4.0809-2.0697 6.612-6.2298 6.6755-10.8051.0905-6.5231.1385-16.8934-.1514-29.1315z" stroke="#1b1d1e" stroke-linecap="round" stroke-width="2"/><path d="m67.5508 50.156-.0015-.0351c-.004-.0937.0213-.1886.0759-.2848.0658-.1083.1323-.1991.1996-.2723l-.038-.8957c-.0411-.9718-.0989-1.9194-.1732-2.8429-.0626-.9239-.1616-1.8757-.297-2.8552-.0064-.1522.0416-.2657.144-.3404.1019-.0864.2114-.1321.3284-.1371.3254-.0724.5745-.0067.7473.1971.1846.2033.3197.4849.4053.8449s.1381.7683.1575 1.2249c.0188.4449.0255.8786.0199 1.3011.0062.422.0162.7969.0301 1.1248.0139.3278.0643.5485.1512.6621.1497-.065.2249-.0916.2254-.0799.0117-.0005.0119.0053.0007.0176 0 0 .0112-.0123.0336-.0367.0337-.0366.1412-.1291.3226-.2775.2491-.21.5424-.3456.88-.4068.3488-.0734.6754-.1166.9798-.1295.7186.0751 1.2257.2765 1.5211.6041.2948.3159.4351.7205.4209 1.2138-.0148.4815-.1618 1.0273-.4409 1.6373-.2679.5978-.6109 1.2222-1.029 1.8733-.4186.6394-.8841 1.2808-1.3964 1.9242-.5127.6316-1.0094 1.2274-1.4901 1.7873-.1053.0045-.229-.0079-.371-.037-.1303-.0297-.2555-.0772-.3755-.1425-.1201-.0653-.2233-.1489-.3097-.2508-.0865-.1019-.1327-.2231-.1386-.3636l-.1943-4.5837zm1.9013 1.2741c.0015.0352.005.1171.0105.2459.0171.1283.0348.2683.0529.42.0177.14.0293.2744.0347.4032.0172.1283.0265.21.028.2451.0015.0352.0042.0996.0082.1932.0035.082.0074.1756.0119.281.0157.0932.0255.1866.0295.2803.0034.0819.0059.1405.0074.1756.1278-.0289.3023-.2005.5236-.5148.2213-.3144.4464-.6758.6754-1.0843.2285-.4202.4395-.8396.6328-1.2584.1934-.4187.3378-.7474.4333-.986.0419-.1191.0827-.2615.1226-.4274s.0622-.3311.067-.4955c.016-.1766-.0024-.3342-.0552-.4727-.0411-.139-.1278-.2468-.26-.3233-.2108.009-.4368.0713-.6783.1871-.2297.1153-.4581.2599-.6853.4337-.2155.1734-.4127.3635-.5916.5705-.1677.1948-.2888.3817-.3633.5608-.0093.059-.0165.1649-.0218.3176.006.1405.0066.293.0018.4574.007.1639.0078.3222.0025.4749.0065.1522.011.2576.0134.3161zm8.7557 8.989c-.0339-.2449-.0641-.5427-.0907-.8935-.0149-.3512-.0305-.72-.0469-1.1064-.0163-.3864-.033-.7786-.0498-1.1767-.0052-.3986-.003-.7623.0065-1.0911l-.0268-.6322c-.062-.0795-.1357-.1585-.2212-.237-.0859-.0902-.2397-.2596-.4613-.5082-.2105-.2609-.514-.641-.9105-1.1403-.3969-.511-.9314-1.2214-1.6034-2.1312-.2567-.2472-.4237-.4513-.5009-.6122-.0777-.1726-.1071-.3122-.0881-.4185.0189-.1064.0742-.185.1659-.2358.1034-.0513.2019-.0789.2956-.0829.2342-.0099.4471.0339.6389.1313s.3673.2249.5265.3823c.1591.1575.3015.3333.427.5274.1367.1818.2673.3581.3918.5288.0748.1024.1683.2333.2806.3927.1123.1595.2246.3189.337.4784.1118.1477.2053.2787.2805.3928.0869.1136.1304.1704.1304.1704l.2204.2194-.0781-1.8441c-.0248-.5854-.0606-1.1528-.1073-1.7021-.0473-.561-.083-1.1283-.1074-1.702-.0069-.1639.0459-.3011.1586-.4114.1126-.1103.2511-.1631.4155-.1584.2.015.3479.044.4435.0868.1074.0424.2167.1316.328.2676.0992.1248.1466.2753.1423.4514.0075.1757.0205.3452.0392.5086.0939 1.1103.1762 2.2211.2468 3.3324.0817 1.0991.1462 2.2047.1933 3.317-.0072.1059-.0042.3169.0092.633.0139.3278.0296.6967.0469 1.1064.0291.4093.0531.8364.0719 1.2814.0306.4444.0535.8481.0689 1.211.0276.3742.0464.6783.0563.9125.0221.2454.0388.362.05.3498.0074.1756-.0515.3071-.1768.3945-.1136.087-.2582.1341-.4339.1416-.2341.0099-.4112-.0178-.5313-.0831-.1079-.054-.1935-.1384-.257-.253-.063-.1029-.1092-.2241-.1386-.3636s-.0766-.2841-.1415-.4338zm9.6606-5.7756c-.0785-1.2986-.1685-2.5909-.2699-3.8768-.0902-1.2981-.1628-2.597-.2179-3.8966-.0039-.0937-.0109-.2576-.0208-.4917-.0104-.2459-.0214-.5035-.0328-.7728.0003-.2698-.0045-.5217-.0144-.7559s-.0169-.3981-.0208-.4918c.0389-.1893.1029-.3386.1921-.4479.0887-.1211.2326-.1858.4316-.1943.1991-.0084.3774.0485.5351.1709.1571.1106.286.2459.3866.4059l2.7359 4.7751c.0127.0229.0567.0915.1319.2056s.1314.1938.1685.2391c.0122.0112.0302.0222.0541.0329.024.0107.0362.022.0367.0337l.0635-.1611 1.2703-5.3144c.0984-.1684.1668-.3531.2052-.5541.0496-.2132.0995-.4206.1496-.6221.0618-.202.1358-.3928.2221-.5724.0979-.1801.2439-.3329.438-.4584l.1405-.006c.3161-.0134.5542.0704.7144.2512.1596.1692.2744.3872.3444.654.0694.2551.1045.5293.1052.8225.0119.281.0282.5266.0488.7368.0035.082.0161.2398.0377.4735.0333.2332.0684.5073.1052.8224.0368.3152.0746.6537.1134 1.0157.0383.3502.07.6832.0951.9988.0368.3151.0661.5895.0877.8232.0333.2332.0515.3849.0545.4551l.003.0703c.0161.1049.047.2795.0925.5239.0456.2444.0919.5063.1389.7858.0582.2673.1101.5232.1557.7675.0455.2444.082.413.1094.5056.0142.0581.0354.1451.0638.2612.0401.1156.0807.2429.1218.3819.0523.1269.0984.2481.1385.3636.0401.1156.0729.1964.0983.2422-.0355.2713-.0968.485-.184.6412-.076.1439-.2604.2221-.5531.2345-.0351.0015-.0878.0038-.158.0067-.0708-.0087-.112-.0128-.1237-.0123-.0361-.0219-.1088-.0775-.2182-.1667-.0976-.0897-.153-.1519-.1662-.1865l-.322-.954-.6965-3.9819-.0067-.1581c-.0207-.2102-.0359-.4324-.0459-.6666-.0104-.2459-.0267-.4915-.0488-.7369-.0104-.2458-.0325-.4912-.0664-.7361-.0338-.2449-.0903-.4712-.1695-.679l-.0833.1091-1.0487 5.1467c-.0063.1293-.012.2703-.0173.423-.0057.141-.029.2827-.0699.4252-.0414.1308-.1069.245-.1966.3426s-.2221.156-.3973.1752c-.0697.0147-.1463.0062-.2298-.0255-.0834-.0316-.1673-.075-.2518-.1301-.0844-.055-.1633-.1162-.2365-.1835-.062-.0794-.1003-.1541-.115-.2238l-2.3808-3.4531-.4001-.722.0641 1.5104c.0302.7142.0717 1.4162.1244 2.106.0639.6776.111 1.3735.1412 2.0877.0025.0585.007.1639.0134.3161.006.1405.0066.2929.0018.4574.007.1639.0137.3219.0201.4741.006.1405.0102.2401.0127.2986-.0409.1425-.106.2684-.1952.3777-.0774.1089-.1982.1668-.3621.1737-.2224.0095-.3995-.0182-.5313-.083-.1206-.077-.226-.2133-.3164-.4089zm17.2326-5.1991c-.014.2118-.037.3769-.067.4955-.018.1181-.061.2254-.127.3221-.066.0966-.161.2003-.286.3112-.125.0991-.294.247-.509.4438-.215.1851-.48.4309-.795.7375-.316.3066-.698.704-1.146 1.1921-.18.1836-.366.3733-.557.569-.191.1958-.394.3745-.61.5361-.205.1495-.423.276-.653.3796-.23.1035-.474.1608-.7316.1717-.5035.0213-.8795-.1328-1.128-.4624-.2486-.3296-.3823-.7169-.4011-1.1618-.0124-.2927-.017-.5388-.0137-.7384.0149-.2.0509-.4596.1077-.7787-.1337-.1116-.2492-.2064-.3463-.2844-.0977-.0897-.1497-.2106-.1561-.3628-.006-.1405.0193-.2354.0759-.2848.0682-.0498.1431-.0823.2245-.0974.0927-.0274.1795-.0546.2605-.0815.081-.0268.1375-.0762.1697-.1479.0204-.0712.0559-.2018.1065-.3916.0624-.1903.1244-.3865.1862-.5885.0613-.2137.1176-.4096.1687-.5877.0623-.1903.1036-.3211.1241-.3923.0735-.2026.1529-.4053.2381-.6083.0965-.2152.2056-.4075.3274-.5769.1336-.1699.286-.3112.4575-.424.182-.1133.397-.1752.643-.1856.14-.006.313.0512.517.1716.216.1198.422.2695.617.4489.195.1676.361.3483.498.5419.138.1935.209.3606.215.5011.008.1756-.026.3413-.102.4969-.076.144-.176.2831-.299.4174-.112.122-.236.2387-.372.35-.136.1114-.261.2163-.374.315-.012.0005-.034.0132-.069.0381-.034.0249-.062.0437-.085.0564-.011.0122-.039.0427-.084.0915-.034.0366-.073.0793-.118.1281-.045.0489-.09.0977-.135.1465-.033.0483-.055.0786-.066.0908-.034.0366-.101.0981-.203.1845-.091.0743-.193.1607-.306.2593-.114.0869-.221.1736-.3234.26-.0907.0742-.1531.1238-.1872.1487l-.0643.1435c-.0214.0478-.0404.1542-.0568.3191-.0053.1527-.0154.3291-.0304.5291s-.0297.4059-.0442.6176c-.0033.1996-.0022.3637.0033.4925.0005.0117.0068.0232.019.0344.0244.0224.0425.0334.0542.0329.0937-.004.1797-.0487.2582-.1341.0786-.0854.1636-.1477.2556-.1868l2.7-2.7183.673-1.1369c.055-.0845.163-.177.323-.2776.171-.1128.344-.1729.52-.1804.175-.0191.33.0271.463.1387.146.1112.226.3365.24.676zm-3.922-1.2061c.057-.0493.077-.1206.062-.2137-.016-.0932-.055-.1737-.116-.2414-.05-.0683-.116-.1066-.198-.1148-.083-.0199-.158.0243-.224.1326-.033.0483-.093.1447-.181.2892-.076.144-.157.294-.245.4502-.076.144-.141.2699-.195.3778-.054.1078-.064.1493-.03.1244zm5.366 5.3851c-.041-.4205-.106-.9808-.194-1.6808-.077-.7122-.167-1.4474-.27-2.2054-.091-.7586-.185-1.4759-.284-2.152s-.18-1.2005-.243-1.5732c-.007-.1522.06-.2547.198-.3075.139-.0528.272-.0819.401-.0873.164-.007.336.0327.515.1189.192.0857.314.2095.368.3715.002.0468.011.1344.029.2627.016.1165.027.2392.033.368.017.1283.034.2566.051.3849.017.1166.026.1983.028.2451.003.0703.005.123.007.1581.001.0351.003.0702.004.1054.001.0234.009.0524.022.087.013.0347.033.0925.06.1734.022-.0244.044-.0546.066-.0908.034-.0366.056-.061.068-.0732.176-.2772.347-.5191.514-.7256.167-.2181.34-.419.52-.6026.18-.1952.376-.3971.59-.6056.226-.2207.485-.4721.778-.7543.067-.0615.118-.1047.153-.1296.033-.0366.061-.0613.084-.074.034-.0249.069-.0381.104-.0396.035-.0132.081-.021.14-.0235.199-.0084.401.0534.606.1855.216.1198.329.2968.339.531.004.082-.022.171-.076.2672-.055.0844-.122.1693-.201.2548-.079.0737-.164.1418-.255.2043-.079.062-.154.1062-.223.1326-.293.2822-.602.6061-.927.9718-.325.3539-.625.7361-.901 1.1466s-.498.8363-.667 1.2774c-.169.4412-.245.8783-.226 1.3115.017.3981.063.7891.137 1.173.075.3839.121.7749.138 1.1729l.026.6147c-.089.0977-.168.1772-.236.2388-.068.0615-.166.095-.295.1004-.199.0085-.396-.0653-.59-.2213-.195-.1677-.325-.3381-.391-.5112zm6.309-.1794c-.167-1.1659-.309-2.1627-.426-2.9905s-.217-1.5215-.299-2.081c-.083-.5595-.154-1.0022-.215-1.328-.05-.3381-.09-.5886-.12-.7515-.031-.1746-.053-.291-.067-.349-.015-.0581-.022-.0929-.023-.1046l-.002-.0703c-.006-.1288.042-.2364.144-.3228.113-.0986.228-.1504.345-.1554.176-.0074.365.0139.566.064.213.0496.359.1666.437.3509.13.5693.225 1.1459.285 1.7298.071.5834.131 1.1673.18 1.7518.059.5722.125 1.15.196 1.7334.084.583.208 1.1583.372 1.726.001.0235.009.07.024.1398.026.0693.047.1446.062.2261.027.0809.048.1563.063.2261.014.0697.022.1163.023.1397l.002.0351c0 .0117.006.0232.019.0344.006.1405-.053.2837-.176.4297-.122.146-.255.2102-.396.1927-.036-.0102-.124-.024-.266-.0415-.13-.0297-.219-.0552-.267-.0766-.036-.0103-.083-.0317-.143-.0643-.061-.0444-.121-.0887-.182-.1331-.049-.0448-.092-.0958-.13-.1528-.037-.0571-.039-.1098-.006-.1581zm-1.526-12.7613c-.004-.0819.058-.1549.184-.2189.137-.0762.241-.1158.312-.1188.175-.0074.371.0371.586.1335.226.0843.344.2259.352.4249.009.1991-.015.335-.071.4077-.043.0722-.165.1126-.364.121-.211.0089-.43-.0521-.659-.1832-.216-.1316-.33-.3203-.34-.5662zm8.057 10.3732c-.011.0005-.088.1328-.229.3968-.13.2636-.311.5528-.544.8676s-.514.6082-.842.8802c-.317.2715-.663.4151-1.038.431-.515.0219-.955-.1179-1.319-.4191-.353-.3017-.542-.7277-.565-1.278-.035-.28-.014-.6152.063-1.0055.089-.3909.219-.7952.389-1.2129.181-.4299.398-.8438.651-1.2416.264-.41.548-.7621.852-1.0565.304-.3061.623-.5366.956-.6915.345-.1554.696-.1937 1.051-.1149l-.01-.2459c-.013-.3044-.038-.6142-.075-.9293-.026-.3273-.059-.6954-.1-1.1042-.029-.421-.067-.9003-.113-1.4379-.035-.5498-.069-1.2052-.101-1.9662.029-.1303.085-.2147.165-.2533.092-.0508.19-.0785.296-.0829.269-.0115.483.0674.643.2366.171.1687.28.3811.326.6372-.006.399-.001.8093.017 1.2308.029.4093.072.8766.13 1.402.057.5254.135 1.1203.234 1.7847.11.6639.243 1.45.399 2.3582.155.8966.34 1.9327.554 3.1083.213 1.1639.464 2.5138.752 4.0499l.025.5971c.003.0703-.024.1242-.081.1618-.045.0371-.109.0633-.19.0784-.069.0264-.145.0414-.227.0448-.07.0147-.122.0228-.157.0243-.176.0074-.365-.0373-.569-.1343-.203-.0852-.326-.2149-.368-.389l-.849-4.6616c-.001-.0351-.02-.052-.055-.0505-.024-.0107-.047-.0155-.071-.0146zm-3.074.5174c.001.0351-.002.0998-.01.1939.004.082.008.1698.012.2635.015.0931.036.1743.063.2436.026.0693.074.1024.145.0994.293-.0007.587-.1245.881-.3716.306-.2476.581-.5466.824-.897.243-.3622.438-.7458.585-1.1508.159-.4055.237-.7666.235-1.0832.01-.3171-.076-.5539-.258-.7104-.172-.1687-.46-.1975-.866-.0865-.485.4663-.885.9934-1.2 1.5815-.303.5876-.441 1.2268-.411 1.9176zm6.817 1.4353c-.167-1.1658-.309-2.1627-.426-2.9905s-.217-1.5215-.299-2.081c-.083-.5595-.154-1.0022-.215-1.328-.05-.3381-.09-.5886-.12-.7515-.031-.1746-.053-.2909-.067-.349-.015-.058-.022-.0929-.023-.1046l-.003-.0703c-.005-.1288.043-.2364.145-.3228.113-.0986.228-.1504.345-.1554.176-.0074.365.0139.566.064.213.0496.359.1666.437.351.13.5692.225 1.1458.285 1.7297.071.5834.131 1.1674.18 1.7518.059.5722.124 1.15.196 1.7334.083.583.208 1.1583.372 1.7261.001.0234.009.07.024.1397.026.0693.047.1446.062.2261.027.081.048.1563.063.2261.014.0697.022.1163.023.1397l.002.0352c0 .0117.006.0231.019.0343.006.1405-.053.2838-.176.4297-.122.146-.255.2102-.396.1928-.036-.0103-.124-.0241-.266-.0416-.13-.0296-.219-.0552-.267-.0766-.036-.0102-.083-.0317-.143-.0643-.061-.0444-.121-.0887-.182-.1331-.049-.0448-.092-.0958-.13-.1528-.037-.0571-.039-.1098-.006-.1581zm-1.526-12.7613c-.004-.0819.058-.1549.184-.2189.137-.0762.241-.1158.312-.1188.175-.0074.371.0371.586.1335.226.0843.344.2259.352.425.009.199-.015.3349-.071.4076-.043.0722-.165.1126-.364.121-.211.0089-.43-.0521-.659-.1832-.216-.1316-.33-.3203-.34-.5662zm7.651 8.2616c-.097.1918-.211.4253-.34.7006-.117.263-.246.55-.385.8608-.14.2992-.297.6049-.472.9173-.163.3001-.339.5774-.527.8317-.177.2538-.368.473-.571.6575-.204.1729-.416.2816-.637.3261-.094.004-.199.0026-.317-.0041-.118-.0185-.236-.0428-.355-.073-.119-.0418-.221-.0962-.306-.1629-.074-.079-.113-.1829-.119-.3117-.038-1.1947.003-2.2815.126-3.2602.122-.9904.344-1.8619.664-2.6144.319-.7642.743-1.4039 1.273-1.9189.529-.5151 1.182-.8946 1.957-1.1386.024-.001.065-.0027.123-.0052.07-.0147.117-.0225.14-.0235.351-.0266.609.1266.776.4597.178.3209.317.8428.418 1.5657.113.7108.204 1.6335.276 2.7682.083 1.1225.204 2.4721.365 4.0487.041.1273.063.2378.067.3315.016.0931.026.2041.032.3329.007.1756-.04.3125-.141.4106-.102.0865-.235.1331-.399.1401-.34.0144-.584-.0691-.732-.2505s-.253-.4291-.313-.7433c-.001-.0117-.016-.1048-.047-.2795-.019-.1751-.051-.3731-.096-.5941-.033-.2332-.066-.4664-.1-.6995-.033-.2332-.059-.4256-.077-.5774l-.003-.0702c-.028-.1161-.052-.2617-.071-.4368-.008-.1757-.027-.3449-.057-.5079-.032-.198-.058-.3963-.078-.5948zm-.534-3.461c-.306.2476-.603.5769-.89.9879-.288.4109-.488.8065-.601 1.1866-.051.1781-.105.4209-.163.7283-.057.3073-.108.6145-.154.9214-.034.2947-.064.5716-.088.8306-.025.2474-.036.4062-.033.4764.012-.0005.023-.0127.034-.0366.022-.0244.039-.0427.051-.0549.696-.7332 1.173-1.51 1.431-2.3303.27-.8325.408-1.7356.413-2.7094zm8.637 7.4282c-.174-.2273-.328-.5433-.462-.9481-.124-.417-.248-.8516-.372-1.3038-.114-.4644-.221-.9114-.321-1.3411-.101-.4415-.203-.789-.308-1.0426-.093-.2658-.194-.4141-.3-.4447-.107-.0307-.224.1326-.349.4898l-1.329 4.7714c-.051.1664-.116.2865-.195.3602-.08.062-.213.097-.401.105-.093.0039-.193-.0036-.3-.0225-.107-.0307-.208-.0733-.304-.1279-.096-.0545-.181-.1213-.255-.2003-.062-.0795-.101-.1717-.117-.2765.029-.142.047-.4008.055-.7765.019-.3761.024-.8103.015-1.3026-.009-.4922-.025-1.0076-.048-1.5462-.012-.5508-.033-1.0601-.065-1.5279-.02-.4801-.043-.8896-.069-1.2287-.027-.3507-.048-.5785-.065-.6834-.005-.1171-.009-.2342-.014-.3513.006-.1292.018-.2471.037-.3534.031-.1069.08-.1911.148-.2526.079-.0737.2-.1141.364-.121.223-.0094.432.0755.627.2549.207.1789.315.3738.324.5845.013.3044.008.6096-.014.9155-.011.2937-.01.5927.003.8972.008.1873.014.3453.02.4741.005.1288.035.2859.09.4712.031-.0951.083-.2615.155-.4991.072-.2377.149-.4873.232-.7488.094-.2621.178-.5061.251-.732.072-.2376.123-.404.154-.4992.072-.2376.186-.4653.341-.683.154-.2294.366-.3615.634-.3963.175-.0192.335.021.48.1204.157.0989.292.2339.404.4051.113.1595.208.3314.286.5157.078.1727.137.3226.178.4499l1.133 4.3329.823 1.9708c.012.0112.019.0461.022.1047.002.0468.003.0819.004.1053.006.1405-.023.2825-.087.426-.053.1313-.162.2004-.326.2073-.199.0085-.406-.0356-.621-.132-.216-.1081-.368-.2483-.458-.4204z" fill="#ffd527"/></svg>