<svg width="148" height="64" viewBox="0 0 148 64" fill="none" xmlns="http://www.w3.org/2000/svg">
<path d="M68.3239 6.18182V4.27273H75.9091V6.18182H73.2841V13H70.9489V6.18182H68.3239ZM84.8452 8.63636C84.8452 9.60795 84.6563 10.4276 84.2784 11.0952C83.9006 11.7599 83.3906 12.2642 82.7486 12.608C82.1065 12.9489 81.3906 13.1193 80.6009 13.1193C79.8054 13.1193 79.0866 12.9474 78.4446 12.6037C77.8054 12.2571 77.2969 11.7514 76.919 11.0866C76.544 10.419 76.3565 9.60227 76.3565 8.63636C76.3565 7.66477 76.544 6.84659 76.919 6.18182C77.2969 5.5142 77.8054 5.00994 78.4446 4.66903C79.0866 4.32528 79.8054 4.15341 80.6009 4.15341C81.3906 4.15341 82.1065 4.32528 82.7486 4.66903C83.3906 5.00994 83.9006 5.5142 84.2784 6.18182C84.6563 6.84659 84.8452 7.66477 84.8452 8.63636ZM82.4077 8.63636C82.4077 8.11364 82.3381 7.6733 82.1989 7.31534C82.0625 6.95455 81.8594 6.68182 81.5895 6.49716C81.3224 6.30966 80.9929 6.21591 80.6009 6.21591C80.2088 6.21591 79.8778 6.30966 79.608 6.49716C79.3409 6.68182 79.1378 6.95455 78.9986 7.31534C78.8622 7.6733 78.794 8.11364 78.794 8.63636C78.794 9.15909 78.8622 9.60085 78.9986 9.96165C79.1378 10.3196 79.3409 10.5923 79.608 10.7798C79.8778 10.9645 80.2088 11.0568 80.6009 11.0568C80.9929 11.0568 81.3224 10.9645 81.5895 10.7798C81.8594 10.5923 82.0625 10.3196 82.1989 9.96165C82.3381 9.60085 82.4077 9.15909 82.4077 8.63636ZM85.9414 13V4.27273H88.3107V7.80114H88.43L91.055 4.27273H93.8164L90.8675 8.15909L93.8846 13H91.055L89.0948 9.72727L88.3107 10.75V13H85.9414ZM94.5195 13V4.27273H100.809V6.18182H96.8888V7.68182H100.485V9.59091H96.8888V11.0909H100.792V13H94.5195ZM109.536 4.27273V13H107.558L104.405 8.41477H104.354V13H101.984V4.27273H103.996L107.098 8.84091H107.166V4.27273H109.536ZM68.5625 29V20.2727H72.3295C72.9773 20.2727 73.544 20.4006 74.0298 20.6562C74.5156 20.9119 74.8935 21.2713 75.1634 21.7344C75.4332 22.1974 75.5682 22.7386 75.5682 23.358C75.5682 23.983 75.429 24.5241 75.1506 24.9815C74.875 25.4389 74.4872 25.7912 73.9872 26.0384C73.4901 26.2855 72.9091 26.4091 72.2443 26.4091H69.9943V24.5682H71.767C72.0455 24.5682 72.2827 24.5199 72.4787 24.4233C72.6776 24.3239 72.8295 24.1832 72.9347 24.0014C73.0426 23.8196 73.0966 23.6051 73.0966 23.358C73.0966 23.108 73.0426 22.8949 72.9347 22.7188C72.8295 22.5398 72.6776 22.4034 72.4787 22.3097C72.2827 22.2131 72.0455 22.1648 71.767 22.1648H70.9318V29H68.5625ZM76.4375 29V20.2727H80.2045C80.8523 20.2727 81.419 20.3906 81.9048 20.6264C82.3906 20.8622 82.7685 21.2017 83.0384 21.6449C83.3082 22.0881 83.4432 22.6193 83.4432 23.2386C83.4432 23.8636 83.304 24.3906 83.0256 24.8196C82.75 25.2486 82.3622 25.5724 81.8622 25.7912C81.3651 26.0099 80.7841 26.1193 80.1193 26.1193H77.8693V24.2784H79.642C79.9205 24.2784 80.1577 24.2443 80.3537 24.1761C80.5526 24.1051 80.7045 23.9929 80.8097 23.8395C80.9176 23.6861 80.9716 23.4858 80.9716 23.2386C80.9716 22.9886 80.9176 22.7855 80.8097 22.6293C80.7045 22.4702 80.5526 22.3537 80.3537 22.2798C80.1577 22.2031 79.9205 22.1648 79.642 22.1648H78.8068V29H76.4375ZM81.5511 24.9943L83.733 29H81.1591L79.0284 24.9943H81.5511ZM92.9077 24.6364C92.9077 25.608 92.7188 26.4276 92.3409 27.0952C91.9631 27.7599 91.4531 28.2642 90.8111 28.608C90.169 28.9489 89.4531 29.1193 88.6634 29.1193C87.8679 29.1193 87.1491 28.9474 86.5071 28.6037C85.8679 28.2571 85.3594 27.7514 84.9815 27.0866C84.6065 26.419 84.419 25.6023 84.419 24.6364C84.419 23.6648 84.6065 22.8466 84.9815 22.1818C85.3594 21.5142 85.8679 21.0099 86.5071 20.669C87.1491 20.3253 87.8679 20.1534 88.6634 20.1534C89.4531 20.1534 90.169 20.3253 90.8111 20.669C91.4531 21.0099 91.9631 21.5142 92.3409 22.1818C92.7188 22.8466 92.9077 23.6648 92.9077 24.6364ZM90.4702 24.6364C90.4702 24.1136 90.4006 23.6733 90.2614 23.3153C90.125 22.9545 89.9219 22.6818 89.652 22.4972C89.3849 22.3097 89.0554 22.2159 88.6634 22.2159C88.2713 22.2159 87.9403 22.3097 87.6705 22.4972C87.4034 22.6818 87.2003 22.9545 87.0611 23.3153C86.9247 23.6733 86.8565 24.1136 86.8565 24.6364C86.8565 25.1591 86.9247 25.6009 87.0611 25.9616C87.2003 26.3196 87.4034 26.5923 87.6705 26.7798C87.9403 26.9645 88.2713 27.0568 88.6634 27.0568C89.0554 27.0568 89.3849 26.9645 89.652 26.7798C89.9219 26.5923 90.125 26.3196 90.2614 25.9616C90.4006 25.6009 90.4702 25.1591 90.4702 24.6364ZM97.3619 29H94.0039V20.2727H97.3278C98.2255 20.2727 99.0011 20.4474 99.6545 20.7969C100.311 21.1435 100.816 21.6435 101.172 22.2969C101.529 22.9474 101.708 23.7273 101.708 24.6364C101.708 25.5455 101.531 26.3267 101.176 26.9801C100.821 27.6307 100.318 28.1307 99.6673 28.4801C99.0167 28.8267 98.2482 29 97.3619 29ZM96.3732 26.9886H97.2766C97.7085 26.9886 98.0763 26.919 98.3803 26.7798C98.6871 26.6406 98.9201 26.4006 99.0792 26.0597C99.2411 25.7187 99.3221 25.2443 99.3221 24.6364C99.3221 24.0284 99.2397 23.554 99.0749 23.2131C98.913 22.8722 98.6744 22.6321 98.359 22.4929C98.0465 22.3537 97.663 22.2841 97.2085 22.2841H96.3732V26.9886ZM107.969 20.2727H110.339V25.8636C110.339 26.5284 110.18 27.1037 109.862 27.5895C109.546 28.0724 109.106 28.446 108.54 28.7102C107.975 28.9716 107.319 29.1023 106.572 29.1023C105.819 29.1023 105.16 28.9716 104.594 28.7102C104.029 28.446 103.589 28.0724 103.273 27.5895C102.961 27.1037 102.805 26.5284 102.805 25.8636V20.2727H105.174V25.6591C105.174 25.929 105.234 26.1705 105.353 26.3835C105.472 26.5937 105.637 26.7585 105.847 26.8778C106.06 26.9972 106.302 27.0568 106.572 27.0568C106.844 27.0568 107.086 26.9972 107.296 26.8778C107.506 26.7585 107.671 26.5937 107.79 26.3835C107.91 26.1705 107.969 25.929 107.969 25.6591V20.2727ZM119.613 23.5455H117.209C117.192 23.3466 117.147 23.1662 117.073 23.0043C117.002 22.8423 116.902 22.7031 116.775 22.5866C116.65 22.4673 116.498 22.3764 116.319 22.3139C116.14 22.2486 115.936 22.2159 115.709 22.2159C115.311 22.2159 114.975 22.3125 114.699 22.5057C114.426 22.6989 114.219 22.9759 114.077 23.3366C113.938 23.6974 113.868 24.1307 113.868 24.6364C113.868 25.1705 113.939 25.6179 114.081 25.9787C114.226 26.3366 114.435 26.6065 114.708 26.7884C114.98 26.9673 115.309 27.0568 115.692 27.0568C115.911 27.0568 116.107 27.0298 116.28 26.9759C116.453 26.919 116.604 26.8381 116.732 26.733C116.86 26.6278 116.963 26.5014 117.043 26.3537C117.125 26.2031 117.181 26.0341 117.209 25.8466L119.613 25.8636C119.584 26.233 119.48 26.6094 119.301 26.9929C119.123 27.3736 118.868 27.7259 118.539 28.0497C118.212 28.3707 117.807 28.6293 117.324 28.8253C116.841 29.0213 116.28 29.1193 115.641 29.1193C114.84 29.1193 114.121 28.9474 113.485 28.6037C112.851 28.2599 112.35 27.7543 111.98 27.0866C111.614 26.419 111.431 25.6023 111.431 24.6364C111.431 23.6648 111.618 22.8466 111.993 22.1818C112.368 21.5142 112.874 21.0099 113.51 20.669C114.147 20.3253 114.857 20.1534 115.641 20.1534C116.192 20.1534 116.699 20.2287 117.162 20.3793C117.625 20.5298 118.032 20.75 118.381 21.0398C118.73 21.3267 119.012 21.6804 119.225 22.1009C119.438 22.5213 119.567 23.0028 119.613 23.5455ZM120.688 29V20.2727H126.977V22.1818H123.057V23.6818H126.653V25.5909H123.057V27.0909H126.96V29H120.688ZM128.152 29V20.2727H131.919C132.567 20.2727 133.134 20.3906 133.62 20.6264C134.105 20.8622 134.483 21.2017 134.753 21.6449C135.023 22.0881 135.158 22.6193 135.158 23.2386C135.158 23.8636 135.019 24.3906 134.74 24.8196C134.465 25.2486 134.077 25.5724 133.577 25.7912C133.08 26.0099 132.499 26.1193 131.834 26.1193H129.584V24.2784H131.357C131.635 24.2784 131.873 24.2443 132.069 24.1761C132.267 24.1051 132.419 23.9929 132.525 23.8395C132.632 23.6861 132.686 23.4858 132.686 23.2386C132.686 22.9886 132.632 22.7855 132.525 22.6293C132.419 22.4702 132.267 22.3537 132.069 22.2798C131.873 22.2031 131.635 22.1648 131.357 22.1648H130.522V29H128.152ZM133.266 24.9943L135.448 29H132.874L130.743 24.9943H133.266ZM140.873 23C140.85 22.7159 140.743 22.4943 140.553 22.3352C140.365 22.1761 140.08 22.0966 139.696 22.0966C139.452 22.0966 139.252 22.1264 139.096 22.1861C138.942 22.2429 138.828 22.321 138.755 22.4205C138.681 22.5199 138.642 22.6335 138.64 22.7614C138.634 22.8665 138.652 22.9616 138.695 23.0469C138.74 23.1293 138.811 23.2045 138.908 23.2727C139.005 23.3381 139.128 23.3977 139.279 23.4517C139.429 23.5057 139.608 23.554 139.816 23.5966L140.532 23.75C141.015 23.8523 141.428 23.9872 141.772 24.1548C142.115 24.3224 142.397 24.5199 142.615 24.7472C142.834 24.9716 142.995 25.2244 143.097 25.5057C143.202 25.7869 143.256 26.0937 143.259 26.4261C143.256 27 143.113 27.4858 142.828 27.8835C142.544 28.2812 142.138 28.5838 141.61 28.7912C141.084 28.9986 140.452 29.1023 139.713 29.1023C138.955 29.1023 138.293 28.9901 137.728 28.7656C137.165 28.5412 136.728 28.196 136.415 27.7301C136.105 27.2614 135.949 26.6619 135.946 25.9318H138.196C138.211 26.1989 138.277 26.4233 138.397 26.6051C138.516 26.7869 138.684 26.9247 138.9 27.0185C139.118 27.1122 139.378 27.1591 139.679 27.1591C139.932 27.1591 140.144 27.1278 140.314 27.0653C140.485 27.0028 140.614 26.9162 140.702 26.8054C140.79 26.6946 140.836 26.5682 140.838 26.4261C140.836 26.2926 140.792 26.1761 140.706 26.0767C140.624 25.9744 140.488 25.8835 140.297 25.804C140.107 25.7216 139.85 25.6449 139.526 25.5739L138.657 25.3864C137.884 25.2187 137.275 24.9389 136.828 24.5469C136.385 24.152 136.165 23.6136 136.168 22.9318C136.165 22.3778 136.313 21.8935 136.611 21.4787C136.912 21.0611 137.328 20.7358 137.86 20.5028C138.394 20.2699 139.006 20.1534 139.696 20.1534C140.401 20.1534 141.01 20.2713 141.525 20.5071C142.039 20.7429 142.435 21.0753 142.713 21.5043C142.995 21.9304 143.137 22.429 143.14 23H140.873ZM70.9318 36.2727V45H68.5625V36.2727H70.9318ZM79.6058 36.2727V45H77.6286L74.4751 40.4148H74.424V45H72.0547V36.2727H74.0661L77.1683 40.8409H77.2365V36.2727H79.6058ZM85.4311 39C85.4084 38.7159 85.3018 38.4943 85.1115 38.3352C84.924 38.1761 84.6385 38.0966 84.255 38.0966C84.0107 38.0966 83.8104 38.1264 83.6541 38.1861C83.5007 38.2429 83.3871 38.321 83.3132 38.4205C83.2393 38.5199 83.201 38.6335 83.1982 38.7614C83.1925 38.8665 83.2109 38.9616 83.2536 39.0469C83.299 39.1293 83.37 39.2045 83.4666 39.2727C83.5632 39.3381 83.6868 39.3977 83.8374 39.4517C83.9879 39.5057 84.1669 39.554 84.3743 39.5966L85.0902 39.75C85.5732 39.8523 85.9865 39.9872 86.3303 40.1548C86.674 40.3224 86.9553 40.5199 87.174 40.7472C87.3928 40.9716 87.5533 41.2244 87.6555 41.5057C87.7607 41.7869 87.8146 42.0937 87.8175 42.4261C87.8146 43 87.6712 43.4858 87.3871 43.8835C87.103 44.2812 86.6967 44.5838 86.1683 44.7912C85.6428 44.9986 85.0107 45.1023 84.272 45.1023C83.5135 45.1023 82.8516 44.9901 82.2862 44.7656C81.7237 44.5412 81.2862 44.196 80.9737 43.7301C80.6641 43.2614 80.5078 42.6619 80.505 41.9318H82.755C82.7692 42.1989 82.8359 42.4233 82.9553 42.6051C83.0746 42.7869 83.2422 42.9247 83.4581 43.0185C83.6768 43.1122 83.9368 43.1591 84.2379 43.1591C84.4908 43.1591 84.7024 43.1278 84.8729 43.0653C85.0433 43.0028 85.1726 42.9162 85.2607 42.8054C85.3487 42.6946 85.3942 42.5682 85.397 42.4261C85.3942 42.2926 85.3501 42.1761 85.2649 42.0767C85.1825 41.9744 85.0462 41.8835 84.8558 41.804C84.6655 41.7216 84.4084 41.6449 84.0845 41.5739L83.2152 41.3864C82.4425 41.2187 81.8331 40.9389 81.3871 40.5469C80.9439 40.152 80.7237 39.6136 80.7266 38.9318C80.7237 38.3778 80.8714 37.8935 81.1697 37.4787C81.4709 37.0611 81.8871 36.7358 82.4183 36.5028C82.9524 36.2699 83.5646 36.1534 84.255 36.1534C84.9595 36.1534 85.5689 36.2713 86.0831 36.5071C86.5973 36.7429 86.9936 37.0753 87.272 37.5043C87.5533 37.9304 87.6953 38.429 87.6982 39H85.4311ZM91.0881 36.2727V45H88.7188V36.2727H91.0881ZM91.9723 38.1818V36.2727H99.5575V38.1818H96.9325V45H94.5973V38.1818H91.9723ZM105.614 36.2727H107.983V41.8636C107.983 42.5284 107.824 43.1037 107.506 43.5895C107.191 44.0724 106.75 44.446 106.185 44.7102C105.62 44.9716 104.963 45.1023 104.216 45.1023C103.463 45.1023 102.804 44.9716 102.239 44.7102C101.674 44.446 101.233 44.0724 100.918 43.5895C100.605 43.1037 100.449 42.5284 100.449 41.8636V36.2727H102.819V41.6591C102.819 41.929 102.878 42.1705 102.998 42.3835C103.117 42.5937 103.282 42.7585 103.492 42.8778C103.705 42.9972 103.946 43.0568 104.216 43.0568C104.489 43.0568 104.73 42.9972 104.941 42.8778C105.151 42.7585 105.316 42.5937 105.435 42.3835C105.554 42.1705 105.614 41.929 105.614 41.6591V36.2727ZM108.871 38.1818V36.2727H116.456V38.1818H113.831V45H111.496V38.1818H108.871ZM117.348 45V36.2727H123.637V38.1818H119.717V39.6818H123.314V41.5909H119.717V43.0909H123.62V45H117.348Z" fill="white" fill-opacity="0.92"/>
<path d="M48.6731 2H5.32919C4.7217 2 4.24323 2.48778 4.22948 3.07502C3.92146 16.228 3.9808 27.327 4.07941 34.1609C4.15016 39.0638 6.84912 43.5479 11.2211 45.8096C15.563 48.0558 21.434 50.9335 26.6072 52.9199C26.861 53.0174 27.1413 53.0174 27.3951 52.9199C32.5673 50.9339 38.4371 48.0569 42.7787 45.811C47.1522 43.5485 49.8514 39.0622 49.9214 34.1579C50.019 27.3238 50.0777 16.2262 49.7729 3.07528C49.7593 2.48789 49.2807 2 48.6731 2Z" fill="#FFD527" stroke="#FFD527" stroke-width="2" stroke-linecap="round"/>
<path d="M18.4302 19.8564H15.002V23.2848H18.4302V19.8564Z" fill="#1B1D1E"/>
<path d="M18.4302 16.4283H15.002V19.8567H18.4302V16.4283Z" fill="#1B1D1E"/>
<path d="M21.858 16.4287H18.4297V19.857H21.858V16.4287Z" fill="#1B1D1E"/>
<path d="M21.858 13H18.4297V16.4283H21.858V13Z" fill="#1B1D1E"/>
<path d="M25.2876 13.0002H21.8594V16.4286H25.2876V13.0002Z" fill="#1B1D1E"/>
<path d="M32.147 30.1412H28.7188V33.5696H32.147V30.1412Z" fill="#1B1D1E"/>
<path d="M32.147 26.7128H28.7188V30.1411H32.147V26.7128Z" fill="#1B1D1E"/>
<path d="M32.147 33.5692H28.7188V36.9975H32.147V33.5692Z" fill="#1B1D1E"/>
<path d="M35.5748 26.7128H32.1465V30.1411H35.5748V26.7128Z" fill="#1B1D1E"/>
<path d="M39.0025 30.1415H35.5742V33.5698H39.0025V30.1415Z" fill="#1B1D1E"/>
<path d="M39.0025 33.5692H35.5742V36.9975H39.0025V33.5692Z" fill="#1B1D1E"/>
<path d="M32.1392 19.8564H28.7109V23.2848H32.1392V19.8564Z" fill="#1B1D1E"/>
<path d="M32.1392 16.4287H28.7109V19.857H32.1392V16.4287Z" fill="#1B1D1E"/>
<path d="M35.571 13H32.1428V16.4283H35.571V13Z" fill="#1B1D1E"/>
<path d="M38.9968 16.4287H35.5685V19.857H38.9968V16.4287Z" fill="#1B1D1E"/>
<path d="M18.4302 30.1415H15.002V33.5698H18.4302V30.1415Z" fill="#1B1D1E"/>
<path d="M18.4302 26.7133H15.002V30.1416H18.4302V26.7133Z" fill="#1B1D1E"/>
<path d="M21.858 26.7131H18.4297V30.1415H21.858V26.7131Z" fill="#1B1D1E"/>
<path d="M21.858 33.5698H18.4297V36.9981H21.858V33.5698Z" fill="#1B1D1E"/>
<path d="M25.2876 30.1418H21.8594V33.5702H25.2876V30.1418Z" fill="#1B1D1E"/>
<path d="M18.4302 33.5699H15.002V36.9983H18.4302V33.5699Z" fill="#1B1D1E"/>
<path d="M48.0026 4H6.00262C5.70975 16.2399 5.75828 26.6114 5.84973 33.1343C5.91386 37.7081 8.44476 41.8663 12.5242 43.9353C16.6701 46.038 22.1458 48.6653 26.9677 50.4868C26.9904 50.4954 27.0148 50.4954 27.0376 50.4868C31.8585 48.6657 37.3329 46.039 41.4785 43.9366C45.5594 41.8669 48.0905 37.7068 48.154 33.1315C48.2445 26.6084 48.2925 16.2381 48.0026 4Z" stroke="#1B1D1E" stroke-width="2" stroke-linecap="round"/>
<path d="M67.5508 50.156L67.5493 50.1209C67.5453 50.0272 67.5706 49.9323 67.6252 49.8361C67.691 49.7278 67.7575 49.637 67.8248 49.5638L67.7868 48.6681C67.7457 47.6963 67.6879 46.7487 67.6136 45.8252C67.551 44.9013 67.452 43.9495 67.3166 42.97C67.3102 42.8178 67.3582 42.7043 67.4606 42.6296C67.5625 42.5432 67.672 42.4975 67.789 42.4925C68.1144 42.4201 68.3635 42.4858 68.5363 42.6896C68.7209 42.8929 68.856 43.1745 68.9416 43.5345C69.0272 43.8945 69.0797 44.3028 69.0991 44.7594C69.1179 45.2043 69.1246 45.638 69.119 46.0605C69.1252 46.4825 69.1352 46.8574 69.1491 47.1853C69.163 47.5131 69.2134 47.7338 69.3003 47.8474C69.45 47.7824 69.5252 47.7558 69.5257 47.7675C69.5374 47.767 69.5376 47.7728 69.5264 47.7851C69.5264 47.7851 69.5376 47.7728 69.56 47.7484C69.5937 47.7118 69.7012 47.6193 69.8826 47.4709C70.1317 47.2609 70.425 47.1253 70.7626 47.0641C71.1114 46.9907 71.438 46.9475 71.7424 46.9346C72.461 47.0097 72.9681 47.2111 73.2635 47.5387C73.5583 47.8546 73.6986 48.2592 73.6844 48.7525C73.6696 49.234 73.5226 49.7798 73.2435 50.3898C72.9756 50.9876 72.6326 51.612 72.2145 52.2631C71.7959 52.9025 71.3304 53.5439 70.8181 54.1873C70.3054 54.8189 69.8087 55.4147 69.328 55.9746C69.2227 55.9791 69.099 55.9667 68.957 55.9376C68.8267 55.9079 68.7015 55.8604 68.5815 55.7951C68.4614 55.7298 68.3582 55.6462 68.2718 55.5443C68.1853 55.4424 68.1391 55.3212 68.1332 55.1807L67.9389 50.597L67.5508 50.156ZM69.4521 51.4301C69.4536 51.4653 69.4571 51.5472 69.4626 51.676C69.4797 51.8043 69.4974 51.9443 69.5155 52.096C69.5332 52.236 69.5448 52.3704 69.5502 52.4992C69.5674 52.6275 69.5767 52.7092 69.5782 52.7443C69.5797 52.7795 69.5824 52.8439 69.5864 52.9375C69.5899 53.0195 69.5938 53.1131 69.5983 53.2185C69.614 53.3117 69.6238 53.4051 69.6278 53.4988C69.6312 53.5807 69.6337 53.6393 69.6352 53.6744C69.763 53.6455 69.9375 53.4739 70.1588 53.1596C70.3801 52.8452 70.6052 52.4838 70.8342 52.0753C71.0627 51.6551 71.2737 51.2357 71.467 50.8169C71.6604 50.3982 71.8048 50.0695 71.9003 49.8309C71.9422 49.7118 71.983 49.5694 72.0229 49.4035C72.0628 49.2376 72.0851 49.0724 72.0899 48.908C72.1059 48.7314 72.0875 48.5738 72.0347 48.4353C71.9936 48.2963 71.9069 48.1885 71.7747 48.112C71.5639 48.121 71.3379 48.1833 71.0964 48.2991C70.8667 48.4144 70.6383 48.559 70.4111 48.7328C70.1956 48.9062 69.9984 49.0963 69.8195 49.3033C69.6518 49.4981 69.5307 49.685 69.4562 49.8641C69.4469 49.9231 69.4397 50.029 69.4344 50.1817C69.4404 50.3222 69.441 50.4747 69.4362 50.6391C69.4432 50.803 69.444 50.9613 69.4387 51.114C69.4452 51.2662 69.4497 51.3716 69.4521 51.4301ZM78.2078 60.4191C78.1739 60.1742 78.1437 59.8764 78.1171 59.5256C78.1022 59.1744 78.0866 58.8056 78.0702 58.4192C78.0539 58.0328 78.0372 57.6406 78.0204 57.2425C78.0152 56.8439 78.0174 56.4802 78.0269 56.1514L78.0001 55.5192C77.9381 55.4397 77.8644 55.3607 77.7789 55.2822C77.693 55.192 77.5392 55.0226 77.3176 54.774C77.1071 54.5131 76.8036 54.133 76.4071 53.6337C76.0102 53.1227 75.4757 52.4123 74.8037 51.5025C74.547 51.2553 74.38 51.0512 74.3028 50.8903C74.2251 50.7177 74.1957 50.5781 74.2147 50.4718C74.2336 50.3654 74.2889 50.2868 74.3806 50.236C74.484 50.1847 74.5825 50.1571 74.6762 50.1531C74.9104 50.1432 75.1233 50.187 75.3151 50.2844C75.5069 50.3818 75.6824 50.5093 75.8416 50.6667C76.0007 50.8242 76.1431 51 76.2686 51.1941C76.4053 51.3759 76.5359 51.5522 76.6604 51.7229C76.7352 51.8253 76.8287 51.9562 76.941 52.1156C77.0533 52.2751 77.1656 52.4345 77.278 52.594C77.3898 52.7417 77.4833 52.8727 77.5585 52.9868C77.6454 53.1004 77.6889 53.1572 77.6889 53.1572L77.9093 53.3766L77.8312 51.5325C77.8064 50.9471 77.7706 50.3797 77.7239 49.8304C77.6766 49.2694 77.6409 48.7021 77.6165 48.1284C77.6096 47.9645 77.6624 47.8273 77.7751 47.717C77.8877 47.6067 78.0262 47.5539 78.1906 47.5586C78.3906 47.5736 78.5385 47.6026 78.6341 47.6454C78.7415 47.6878 78.8508 47.777 78.9621 47.913C79.0613 48.0378 79.1087 48.1883 79.1044 48.3644C79.1119 48.5401 79.1249 48.7096 79.1436 48.873C79.2375 49.9833 79.3198 51.0941 79.3904 52.2054C79.4721 53.3045 79.5366 54.4101 79.5837 55.5224C79.5765 55.6283 79.5795 55.8393 79.5929 56.1554C79.6068 56.4832 79.6225 56.8521 79.6398 57.2618C79.6689 57.6711 79.6929 58.0982 79.7117 58.5432C79.7423 58.9876 79.7652 59.3913 79.7806 59.7542C79.8082 60.1284 79.827 60.4325 79.8369 60.6667C79.859 60.9121 79.8757 61.0287 79.8869 61.0165C79.8943 61.1921 79.8354 61.3236 79.7101 61.411C79.5965 61.498 79.4519 61.5451 79.2762 61.5526C79.0421 61.5625 78.865 61.5348 78.7449 61.4695C78.637 61.4155 78.5514 61.3311 78.4879 61.2165C78.4249 61.1136 78.3787 60.9924 78.3493 60.8529C78.3199 60.7134 78.2727 60.5688 78.2078 60.4191ZM87.8684 54.6435C87.7899 53.3449 87.6999 52.0526 87.5985 50.7667C87.5083 49.4686 87.4357 48.1697 87.3806 46.8701C87.3767 46.7764 87.3697 46.6125 87.3598 46.3784C87.3494 46.1325 87.3384 45.8749 87.327 45.6056C87.3273 45.3358 87.3225 45.0839 87.3126 44.8497C87.3027 44.6155 87.2957 44.4516 87.2918 44.3579C87.3307 44.1686 87.3947 44.0193 87.4839 43.91C87.5726 43.7889 87.7165 43.7242 87.9155 43.7157C88.1146 43.7073 88.2929 43.7642 88.4506 43.8866C88.6077 43.9972 88.7366 44.1325 88.8372 44.2925L91.5731 49.0676C91.5858 49.0905 91.6298 49.1591 91.705 49.2732C91.7802 49.3873 91.8364 49.467 91.8735 49.5123C91.8857 49.5235 91.9037 49.5345 91.9276 49.5452C91.9516 49.5559 91.9638 49.5672 91.9643 49.5789L92.0278 49.4178L93.2981 44.1034C93.3965 43.935 93.4649 43.7503 93.5033 43.5493C93.5529 43.3361 93.6028 43.1287 93.6529 42.9272C93.7147 42.7252 93.7887 42.5344 93.875 42.3548C93.9729 42.1747 94.1189 42.0219 94.313 41.8964L94.4535 41.8904C94.7696 41.877 95.0077 41.9608 95.1679 42.1416C95.3275 42.3108 95.4423 42.5288 95.5123 42.7956C95.5817 43.0507 95.6168 43.3249 95.6175 43.6181C95.6294 43.8991 95.6457 44.1447 95.6663 44.3549C95.6698 44.4369 95.6824 44.5947 95.704 44.8284C95.7373 45.0616 95.7724 45.3357 95.8092 45.6508C95.846 45.966 95.8838 46.3045 95.9226 46.6665C95.9609 47.0167 95.9926 47.3497 96.0177 47.6653C96.0545 47.9804 96.0838 48.2548 96.1054 48.4885C96.1387 48.7217 96.1569 48.8734 96.1599 48.9436L96.1629 49.0139C96.179 49.1188 96.2099 49.2934 96.2554 49.5378C96.301 49.7822 96.3473 50.0441 96.3943 50.3236C96.4525 50.5909 96.5044 50.8468 96.55 51.0911C96.5955 51.3355 96.632 51.5041 96.6594 51.5967C96.6736 51.6548 96.6948 51.7418 96.7232 51.8579C96.7633 51.9735 96.8039 52.1008 96.845 52.2398C96.8973 52.3667 96.9434 52.4879 96.9835 52.6034C97.0236 52.719 97.0564 52.7998 97.0818 52.8456C97.0463 53.1169 96.985 53.3306 96.8978 53.4868C96.8218 53.6307 96.6374 53.7089 96.3447 53.7213C96.3096 53.7228 96.2569 53.7251 96.1867 53.728C96.1159 53.7193 96.0747 53.7152 96.063 53.7157C96.0269 53.6938 95.9542 53.6382 95.8448 53.549C95.7472 53.4593 95.6918 53.3971 95.6786 53.3625L95.3566 52.4085L94.6601 48.4266L94.6534 48.2685C94.6327 48.0583 94.6175 47.8361 94.6075 47.6019C94.5971 47.356 94.5808 47.1104 94.5587 46.865C94.5483 46.6192 94.5262 46.3738 94.4923 46.1289C94.4585 45.884 94.402 45.6577 94.3228 45.4499L94.2395 45.559L93.1908 50.7057C93.1845 50.835 93.1788 50.976 93.1735 51.1287C93.1678 51.2697 93.1445 51.4114 93.1036 51.5539C93.0622 51.6847 92.9967 51.7989 92.907 51.8965C92.8173 51.9941 92.6849 52.0525 92.5097 52.0717C92.44 52.0864 92.3634 52.0779 92.2799 52.0462C92.1965 52.0146 92.1126 51.9712 92.0281 51.9161C91.9437 51.8611 91.8648 51.7999 91.7916 51.7326C91.7296 51.6532 91.6913 51.5785 91.6766 51.5088L89.2958 48.0557L88.8957 47.3337L88.9598 48.8441C88.99 49.5583 89.0315 50.2603 89.0842 50.9501C89.1481 51.6277 89.1952 52.3236 89.2254 53.0378C89.2279 53.0963 89.2324 53.2017 89.2388 53.3539C89.2448 53.4944 89.2454 53.6468 89.2406 53.8113C89.2476 53.9752 89.2543 54.1332 89.2607 54.2854C89.2667 54.4259 89.2709 54.5255 89.2734 54.584C89.2325 54.7265 89.1674 54.8524 89.0782 54.9617C89.0008 55.0706 88.88 55.1285 88.7161 55.1354C88.4937 55.1449 88.3166 55.1172 88.1848 55.0524C88.0642 54.9754 87.9588 54.8391 87.8684 54.6435ZM105.101 49.4444C105.087 49.6562 105.064 49.8213 105.034 49.9399C105.016 50.058 104.973 50.1653 104.907 50.262C104.841 50.3586 104.746 50.4623 104.621 50.5732C104.496 50.6723 104.327 50.8202 104.112 51.017C103.897 51.2021 103.632 51.4479 103.317 51.7545C103.001 52.0611 102.619 52.4585 102.171 52.9466C101.991 53.1302 101.805 53.3199 101.614 53.5156C101.423 53.7114 101.22 53.8901 101.004 54.0517C100.799 54.2012 100.581 54.3277 100.351 54.4313C100.121 54.5348 99.877 54.5921 99.6194 54.603C99.1159 54.6243 98.7399 54.4702 98.4914 54.1406C98.2428 53.811 98.1091 53.4237 98.0903 52.9788C98.0779 52.6861 98.0733 52.44 98.0766 52.2404C98.0915 52.0404 98.1275 51.7808 98.1843 51.4617C98.0506 51.3501 97.9351 51.2553 97.838 51.1773C97.7403 51.0876 97.6883 50.9667 97.6819 50.8145C97.6759 50.674 97.7012 50.5791 97.7578 50.5297C97.826 50.4799 97.9009 50.4474 97.9823 50.4323C98.075 50.4049 98.1618 50.3777 98.2428 50.3508C98.3238 50.324 98.3803 50.2746 98.4125 50.2029C98.4329 50.1317 98.4684 50.0011 98.519 49.8113C98.5814 49.621 98.6434 49.4248 98.7052 49.2228C98.7665 49.0091 98.8228 48.8132 98.8739 48.6351C98.9362 48.4448 98.9775 48.314 98.998 48.2428C99.0715 48.0402 99.1509 47.8375 99.2361 47.6345C99.3326 47.4193 99.4417 47.227 99.5635 47.0576C99.6971 46.8877 99.8495 46.7464 100.021 46.6336C100.203 46.5203 100.418 46.4584 100.664 46.448C100.804 46.442 100.977 46.4992 101.181 46.6196C101.397 46.7394 101.603 46.8891 101.798 47.0685C101.993 47.2361 102.159 47.4168 102.296 47.6104C102.434 47.8039 102.505 47.971 102.511 48.1115C102.519 48.2871 102.485 48.4528 102.409 48.6084C102.333 48.7524 102.233 48.8915 102.11 49.0258C101.998 49.1478 101.874 49.2645 101.738 49.3758C101.602 49.4872 101.477 49.5921 101.364 49.6908C101.352 49.6913 101.33 49.704 101.295 49.7289C101.261 49.7538 101.233 49.7726 101.21 49.7853C101.199 49.7975 101.171 49.828 101.126 49.8768C101.092 49.9134 101.053 49.9561 101.008 50.0049C100.963 50.0538 100.918 50.1026 100.873 50.1514C100.84 50.1997 100.818 50.23 100.807 50.2422C100.773 50.2788 100.706 50.3403 100.604 50.4267C100.513 50.501 100.411 50.5874 100.298 50.686C100.184 50.7729 100.077 50.8596 99.9746 50.946C99.8839 51.0202 99.8215 51.0698 99.7874 51.0947L99.7231 51.2382C99.7017 51.286 99.6827 51.3924 99.6663 51.5573C99.661 51.71 99.6509 51.8864 99.6359 52.0864C99.6209 52.2864 99.6062 52.4923 99.5917 52.704C99.5884 52.9036 99.5895 53.0677 99.595 53.1965C99.5955 53.2082 99.6018 53.2197 99.614 53.2309C99.6384 53.2533 99.6565 53.2643 99.6682 53.2638C99.7619 53.2598 99.8479 53.2151 99.9264 53.1297C100.005 53.0443 100.09 52.982 100.182 52.9429L102.882 50.2246L103.555 49.0877C103.61 49.0032 103.718 48.9107 103.878 48.8101C104.049 48.6973 104.222 48.6372 104.398 48.6297C104.573 48.6106 104.728 48.6568 104.861 48.7684C105.007 48.8796 105.087 49.1049 105.101 49.4444ZM101.179 48.2383C101.236 48.189 101.256 48.1177 101.241 48.0246C101.225 47.9314 101.186 47.8509 101.125 47.7832C101.075 47.7149 101.009 47.6766 100.927 47.6684C100.844 47.6485 100.769 47.6927 100.703 47.801C100.67 47.8493 100.61 47.9457 100.522 48.0902C100.446 48.2342 100.365 48.3842 100.277 48.5404C100.201 48.6844 100.136 48.8103 100.082 48.9182C100.028 49.026 100.018 49.0675 100.052 49.0426L101.179 48.2383ZM106.545 53.6234C106.504 53.2029 106.439 52.6426 106.351 51.9426C106.274 51.2304 106.184 50.4952 106.081 49.7372C105.99 48.9786 105.896 48.2613 105.797 47.5852C105.698 46.9091 105.617 46.3847 105.554 46.012C105.547 45.8598 105.614 45.7573 105.752 45.7045C105.891 45.6517 106.024 45.6226 106.153 45.6172C106.317 45.6102 106.489 45.6499 106.668 45.7361C106.86 45.8218 106.982 45.9456 107.036 46.1076C107.038 46.1544 107.047 46.242 107.065 46.3703C107.081 46.4868 107.092 46.6095 107.098 46.7383C107.115 46.8666 107.132 46.9949 107.149 47.1232C107.166 47.2398 107.175 47.3215 107.177 47.3683C107.18 47.4386 107.182 47.4913 107.184 47.5264C107.185 47.5615 107.187 47.5966 107.188 47.6318C107.189 47.6552 107.197 47.6842 107.21 47.7188C107.223 47.7535 107.243 47.8113 107.27 47.8922C107.292 47.8678 107.314 47.8376 107.336 47.8014C107.37 47.7648 107.392 47.7404 107.404 47.7282C107.58 47.451 107.751 47.2091 107.918 47.0026C108.085 46.7845 108.258 46.5836 108.438 46.4C108.618 46.2048 108.814 46.0029 109.028 45.7944C109.254 45.5737 109.513 45.3223 109.806 45.0401C109.873 44.9786 109.924 44.9354 109.959 44.9105C109.992 44.8739 110.02 44.8492 110.043 44.8365C110.077 44.8116 110.112 44.7984 110.147 44.7969C110.182 44.7837 110.228 44.7759 110.287 44.7734C110.486 44.765 110.688 44.8268 110.893 44.9589C111.109 45.0787 111.222 45.2557 111.232 45.4899C111.236 45.5719 111.21 45.6609 111.156 45.7571C111.101 45.8415 111.034 45.9264 110.955 46.0119C110.876 46.0856 110.791 46.1537 110.7 46.2162C110.621 46.2782 110.546 46.3224 110.477 46.3488C110.184 46.631 109.875 46.9549 109.55 47.3206C109.225 47.6745 108.925 48.0567 108.649 48.4672C108.373 48.8777 108.151 49.3035 107.982 49.7446C107.813 50.1858 107.737 50.6229 107.756 51.0561C107.773 51.4542 107.819 51.8452 107.893 52.2291C107.968 52.613 108.014 53.004 108.031 53.402L108.057 54.0167C107.968 54.1144 107.889 54.1939 107.821 54.2555C107.753 54.317 107.655 54.3505 107.526 54.3559C107.327 54.3644 107.13 54.2906 106.936 54.1346C106.741 53.9669 106.611 53.7965 106.545 53.6234ZM112.854 53.444C112.687 52.2781 112.545 51.2813 112.428 50.4535C112.311 49.6257 112.211 48.932 112.129 48.3725C112.046 47.813 111.975 47.3703 111.914 47.0445C111.864 46.7064 111.824 46.4559 111.794 46.293C111.763 46.1184 111.741 46.002 111.727 45.944C111.712 45.8859 111.705 45.8511 111.704 45.8394L111.702 45.7691C111.696 45.6403 111.744 45.5327 111.846 45.4463C111.959 45.3477 112.074 45.2959 112.191 45.2909C112.367 45.2835 112.556 45.3048 112.757 45.3549C112.97 45.4045 113.116 45.5215 113.194 45.7058C113.324 46.2751 113.419 46.8517 113.479 47.4356C113.55 48.019 113.61 48.6029 113.659 49.1874C113.718 49.7596 113.784 50.3374 113.855 50.9208C113.939 51.5038 114.063 52.0791 114.227 52.6468C114.228 52.6703 114.236 52.7168 114.251 52.7866C114.277 52.8559 114.298 52.9312 114.313 53.0127C114.34 53.0936 114.361 53.169 114.376 53.2388C114.39 53.3085 114.398 53.3551 114.399 53.3785L114.401 53.4136C114.401 53.4253 114.407 53.4368 114.42 53.448C114.426 53.5885 114.367 53.7317 114.244 53.8777C114.122 54.0237 113.989 54.0879 113.848 54.0704C113.812 54.0602 113.724 54.0464 113.582 54.0289C113.452 53.9992 113.363 53.9737 113.315 53.9523C113.279 53.942 113.232 53.9206 113.172 53.888C113.111 53.8436 113.051 53.7993 112.99 53.7549C112.941 53.7101 112.898 53.6591 112.86 53.6021C112.823 53.545 112.821 53.4923 112.854 53.444ZM111.328 40.6827C111.324 40.6008 111.386 40.5278 111.512 40.4638C111.649 40.3876 111.753 40.348 111.824 40.345C111.999 40.3376 112.195 40.3821 112.41 40.4785C112.636 40.5628 112.754 40.7044 112.762 40.9034C112.771 41.1025 112.747 41.2384 112.691 41.3111C112.648 41.3833 112.526 41.4237 112.327 41.4321C112.116 41.441 111.897 41.38 111.668 41.2489C111.452 41.1173 111.338 40.9286 111.328 40.6827ZM119.385 51.0559C119.374 51.0564 119.297 51.1887 119.156 51.4527C119.026 51.7163 118.845 52.0055 118.612 52.3203C118.379 52.6351 118.098 52.9285 117.77 53.2005C117.453 53.472 117.107 53.6156 116.732 53.6315C116.217 53.6534 115.777 53.5136 115.413 53.2124C115.06 52.9107 114.871 52.4847 114.848 51.9344C114.813 51.6544 114.834 51.3192 114.911 50.9289C115 50.538 115.13 50.1337 115.3 49.716C115.481 49.2861 115.698 48.8722 115.951 48.4744C116.215 48.0644 116.499 47.7123 116.803 47.4179C117.107 47.1118 117.426 46.8813 117.759 46.7264C118.104 46.571 118.455 46.5327 118.81 46.6115L118.8 46.3656C118.787 46.0612 118.762 45.7514 118.725 45.4363C118.699 45.109 118.666 44.7409 118.625 44.3321C118.596 43.9111 118.558 43.4318 118.512 42.8942C118.477 42.3444 118.443 41.689 118.411 40.928C118.44 40.7977 118.496 40.7133 118.576 40.6747C118.668 40.6239 118.766 40.5962 118.872 40.5918C119.141 40.5803 119.355 40.6592 119.515 40.8284C119.686 40.9971 119.795 41.2095 119.841 41.4656C119.835 41.8646 119.84 42.2749 119.858 42.6964C119.887 43.1057 119.93 43.573 119.988 44.0984C120.045 44.6238 120.123 45.2187 120.222 45.8831C120.332 46.547 120.465 47.3331 120.621 48.2413C120.776 49.1379 120.961 50.174 121.175 51.3496C121.388 52.5135 121.639 53.8634 121.927 55.3995L121.952 55.9966C121.955 56.0669 121.928 56.1208 121.871 56.1584C121.826 56.1955 121.762 56.2217 121.681 56.2368C121.612 56.2632 121.536 56.2782 121.454 56.2816C121.384 56.2963 121.332 56.3044 121.297 56.3059C121.121 56.3133 120.932 56.2686 120.728 56.1716C120.525 56.0864 120.402 55.9567 120.36 55.7826L119.511 51.121C119.51 51.0859 119.491 51.069 119.456 51.0705C119.432 51.0598 119.409 51.055 119.385 51.0559ZM116.311 51.5733C116.312 51.6084 116.309 51.6731 116.301 51.7672C116.305 51.8492 116.309 51.937 116.313 52.0307C116.328 52.1238 116.349 52.205 116.376 52.2743C116.402 52.3436 116.45 52.3767 116.521 52.3737C116.814 52.373 117.108 52.2492 117.402 52.0021C117.708 51.7545 117.983 51.4555 118.226 51.1051C118.469 50.7429 118.664 50.3593 118.811 49.9543C118.97 49.5488 119.048 49.1877 119.046 48.8711C119.056 48.554 118.97 48.3172 118.788 48.1607C118.616 47.992 118.328 47.9632 117.922 48.0742C117.437 48.5405 117.037 49.0676 116.722 49.6557C116.419 50.2433 116.281 50.8825 116.311 51.5733ZM123.128 53.0086C122.961 51.8428 122.819 50.8459 122.702 50.0181C122.585 49.1903 122.485 48.4966 122.403 47.9371C122.32 47.3776 122.249 46.9349 122.188 46.6091C122.138 46.271 122.098 46.0205 122.068 45.8576C122.037 45.683 122.015 45.5667 122.001 45.5086C121.986 45.4506 121.979 45.4157 121.978 45.404L121.975 45.3337C121.97 45.2049 122.018 45.0973 122.12 45.0109C122.233 44.9123 122.348 44.8605 122.465 44.8555C122.641 44.8481 122.83 44.8694 123.031 44.9195C123.244 44.9691 123.39 45.0861 123.468 45.2705C123.598 45.8397 123.693 46.4163 123.753 47.0002C123.824 47.5836 123.884 48.1676 123.933 48.752C123.992 49.3242 124.057 49.902 124.129 50.4854C124.212 51.0684 124.337 51.6437 124.501 52.2115C124.502 52.2349 124.51 52.2815 124.525 52.3512C124.551 52.4205 124.572 52.4958 124.587 52.5773C124.614 52.6583 124.635 52.7336 124.65 52.8034C124.664 52.8731 124.672 52.9197 124.673 52.9431L124.675 52.9783C124.675 52.99 124.681 53.0014 124.694 53.0126C124.7 53.1531 124.641 53.2964 124.518 53.4423C124.396 53.5883 124.263 53.6525 124.122 53.6351C124.086 53.6248 123.998 53.611 123.856 53.5935C123.726 53.5639 123.637 53.5383 123.589 53.5169C123.553 53.5067 123.506 53.4852 123.446 53.4526C123.385 53.4082 123.325 53.3639 123.264 53.3195C123.215 53.2747 123.172 53.2237 123.134 53.1667C123.097 53.1096 123.095 53.0569 123.128 53.0086ZM121.602 40.2473C121.598 40.1654 121.66 40.0924 121.786 40.0284C121.923 39.9522 122.027 39.9126 122.098 39.9096C122.273 39.9022 122.469 39.9467 122.684 40.0431C122.91 40.1274 123.028 40.269 123.036 40.4681C123.045 40.6671 123.021 40.803 122.965 40.8757C122.922 40.9479 122.8 40.9883 122.601 40.9967C122.39 41.0056 122.171 40.9446 121.942 40.8135C121.726 40.6819 121.612 40.4932 121.602 40.2473ZM129.253 48.5089C129.156 48.7007 129.042 48.9342 128.913 49.2095C128.796 49.4725 128.667 49.7595 128.528 50.0703C128.388 50.3695 128.231 50.6752 128.056 50.9876C127.893 51.2877 127.717 51.565 127.529 51.8193C127.352 52.0731 127.161 52.2923 126.958 52.4768C126.754 52.6497 126.542 52.7584 126.321 52.8029C126.227 52.8069 126.122 52.8055 126.004 52.7988C125.886 52.7803 125.768 52.756 125.649 52.7258C125.53 52.684 125.428 52.6296 125.343 52.5629C125.269 52.4839 125.23 52.38 125.224 52.2512C125.186 51.0565 125.227 49.9697 125.35 48.991C125.472 48.0006 125.694 47.1291 126.014 46.3766C126.333 45.6124 126.757 44.9727 127.287 44.4577C127.816 43.9426 128.469 43.5631 129.244 43.3191C129.268 43.3181 129.309 43.3164 129.367 43.3139C129.437 43.2992 129.484 43.2914 129.507 43.2904C129.858 43.2638 130.116 43.417 130.283 43.7501C130.461 44.071 130.6 44.5929 130.701 45.3158C130.814 46.0266 130.905 46.9493 130.977 48.084C131.06 49.2065 131.181 50.5561 131.342 52.1327C131.383 52.26 131.405 52.3705 131.409 52.4642C131.425 52.5573 131.435 52.6683 131.441 52.7971C131.448 52.9727 131.401 53.1096 131.3 53.2077C131.198 53.2942 131.065 53.3408 130.901 53.3478C130.561 53.3622 130.317 53.2787 130.169 53.0973C130.021 52.9159 129.916 52.6682 129.856 52.354C129.855 52.3423 129.84 52.2492 129.809 52.0745C129.79 51.8994 129.758 51.7014 129.713 51.4804C129.68 51.2472 129.647 51.014 129.613 50.7809C129.58 50.5477 129.554 50.3553 129.536 50.2035L129.533 50.1333C129.505 50.0172 129.481 49.8716 129.462 49.6965C129.454 49.5208 129.435 49.3516 129.405 49.1886C129.373 48.9906 129.347 48.7923 129.327 48.5938L129.253 48.5089ZM128.719 45.0479C128.413 45.2955 128.116 45.6248 127.829 46.0358C127.541 46.4467 127.341 46.8423 127.228 47.2224C127.177 47.4005 127.123 47.6433 127.065 47.9507C127.008 48.258 126.957 48.5652 126.911 48.8721C126.877 49.1668 126.847 49.4437 126.823 49.7027C126.798 49.9501 126.787 50.1089 126.79 50.1791C126.802 50.1786 126.813 50.1664 126.824 50.1425C126.846 50.1181 126.863 50.0998 126.875 50.0876C127.571 49.3544 128.048 48.5776 128.306 47.7573C128.576 46.9248 128.714 46.0217 128.719 45.0479ZM137.356 52.4761C137.182 52.2488 137.028 51.9328 136.894 51.528C136.77 51.111 136.646 50.6764 136.522 50.2242C136.408 49.7598 136.301 49.3128 136.201 48.8831C136.1 48.4416 135.998 48.0941 135.893 47.8405C135.8 47.5747 135.699 47.4264 135.593 47.3958C135.486 47.3651 135.369 47.5284 135.244 47.8856L133.915 52.657C133.864 52.8234 133.799 52.9435 133.72 53.0172C133.64 53.0792 133.507 53.1142 133.319 53.1222C133.226 53.1261 133.126 53.1186 133.019 53.0997C132.912 53.069 132.811 53.0264 132.715 52.9718C132.619 52.9173 132.534 52.8505 132.46 52.7715C132.398 52.692 132.359 52.5998 132.343 52.495C132.372 52.353 132.39 52.0942 132.398 51.7185C132.417 51.3424 132.422 50.9082 132.413 50.4159C132.404 49.9237 132.388 49.4083 132.365 48.8697C132.353 48.3189 132.332 47.8096 132.3 47.3418C132.28 46.8617 132.257 46.4522 132.231 46.1131C132.204 45.7624 132.183 45.5346 132.166 45.4297C132.161 45.3126 132.157 45.1955 132.152 45.0784C132.158 44.9492 132.17 44.8313 132.189 44.725C132.22 44.6181 132.269 44.5339 132.337 44.4724C132.416 44.3987 132.537 44.3583 132.701 44.3514C132.924 44.342 133.133 44.4269 133.328 44.6063C133.535 44.7852 133.643 44.9801 133.652 45.1908C133.665 45.4952 133.66 45.8004 133.638 46.1063C133.627 46.4 133.628 46.699 133.641 47.0035C133.649 47.1908 133.655 47.3488 133.661 47.4776C133.666 47.6064 133.696 47.7635 133.751 47.9488C133.782 47.8537 133.834 47.6873 133.906 47.4497C133.978 47.212 134.055 46.9624 134.138 46.7009C134.232 46.4388 134.316 46.1948 134.389 45.9689C134.461 45.7313 134.512 45.5649 134.543 45.4697C134.615 45.2321 134.729 45.0044 134.884 44.7867C135.038 44.5573 135.25 44.4252 135.518 44.3904C135.693 44.3712 135.853 44.4114 135.998 44.5108C136.155 44.6097 136.29 44.7447 136.402 44.9159C136.515 45.0754 136.61 45.2473 136.688 45.4316C136.766 45.6043 136.825 45.7542 136.866 45.8815L137.999 50.2144L138.822 52.1852C138.834 52.1964 138.841 52.2313 138.844 52.2899C138.846 52.3367 138.847 52.3718 138.848 52.3952C138.854 52.5357 138.825 52.6777 138.761 52.8212C138.708 52.9525 138.599 53.0216 138.435 53.0285C138.236 53.037 138.029 52.9929 137.814 52.8965C137.598 52.7884 137.446 52.6482 137.356 52.4761Z" fill="#FFD527"/>
</svg>
