<svg width="50" height="54" viewBox="0 0 50 54" fill="none" xmlns="http://www.w3.org/2000/svg">
<path d="M46.6731 1H3.32919C2.7217 1 2.24323 1.48778 2.22948 2.07502C1.92146 15.228 1.9808 26.327 2.07941 33.1609C2.15016 38.0638 4.84912 42.5479 9.22115 44.8096C13.563 47.0558 19.434 49.9335 24.6072 51.9199C24.861 52.0174 25.1413 52.0174 25.3951 51.9199C30.5673 49.9339 36.4371 47.0569 40.7787 44.811C45.1522 42.5485 47.8514 38.0622 47.9214 33.1579C48.019 26.3238 48.0777 15.2262 47.7729 2.07528C47.7593 1.48789 47.2807 1 46.6731 1Z" fill="#FFD527" stroke="#FFD527" stroke-width="2" stroke-linecap="round"/>
<path d="M16.4302 18.8564H13.002V22.2848H16.4302V18.8564Z" fill="#1B1D1E"/>
<path d="M16.4302 15.4285H13.002V18.8568H16.4302V15.4285Z" fill="#1B1D1E"/>
<path d="M19.858 15.4287H16.4297V18.857H19.858V15.4287Z" fill="#1B1D1E"/>
<path d="M19.858 12H16.4297V15.4283H19.858V12Z" fill="#1B1D1E"/>
<path d="M23.2876 12.0002H19.8594V15.4286H23.2876V12.0002Z" fill="#1B1D1E"/>
<path d="M30.147 29.1414H26.7188V32.5697H30.147V29.1414Z" fill="#1B1D1E"/>
<path d="M30.147 25.7129H26.7188V29.1412H30.147V25.7129Z" fill="#1B1D1E"/>
<path d="M30.147 32.5693H26.7188V35.9977H30.147V32.5693Z" fill="#1B1D1E"/>
<path d="M33.5748 25.7129H30.1465V29.1412H33.5748V25.7129Z" fill="#1B1D1E"/>
<path d="M37.0025 29.1416H33.5742V32.5699H37.0025V29.1416Z" fill="#1B1D1E"/>
<path d="M37.0025 32.5693H33.5742V35.9977H37.0025V32.5693Z" fill="#1B1D1E"/>
<path d="M30.1392 18.8564H26.7109V22.2848H30.1392V18.8564Z" fill="#1B1D1E"/>
<path d="M30.1392 15.4287H26.7109V18.857H30.1392V15.4287Z" fill="#1B1D1E"/>
<path d="M33.5711 12H30.1428V15.4283H33.5711V12Z" fill="#1B1D1E"/>
<path d="M36.9969 15.4287H33.5686V18.857H36.9969V15.4287Z" fill="#1B1D1E"/>
<path d="M16.4302 29.1416H13.002V32.5699H16.4302V29.1416Z" fill="#1B1D1E"/>
<path d="M16.4302 25.7131H13.002V29.1415H16.4302V25.7131Z" fill="#1B1D1E"/>
<path d="M19.858 25.7131H16.4297V29.1415H19.858V25.7131Z" fill="#1B1D1E"/>
<path d="M19.858 32.5698H16.4297V35.9981H19.858V32.5698Z" fill="#1B1D1E"/>
<path d="M23.2876 29.1418H19.8594V32.5702H23.2876V29.1418Z" fill="#1B1D1E"/>
<path d="M16.4302 32.5698H13.002V35.9981H16.4302V32.5698Z" fill="#1B1D1E"/>
<path d="M46.0026 3H4.00262C3.70975 15.2399 3.75828 25.6114 3.84973 32.1343C3.91386 36.7081 6.44476 40.8663 10.5242 42.9353C14.6701 45.038 20.1458 47.6653 24.9677 49.4868C24.9904 49.4954 25.0148 49.4954 25.0376 49.4868C29.8585 47.6657 35.3329 45.039 39.4785 42.9366C43.5594 40.8669 46.0905 36.7068 46.154 32.1315C46.2445 25.6084 46.2925 15.2381 46.0026 3Z" stroke="#1B1D1E" stroke-width="2" stroke-linecap="round"/>
</svg>
